<?xml version="1.0" encoding="utf-8"?>
<!-- Generator: Adobe Illustrator 16.0.0, SVG Export Plug-In . SVG Version: 6.00 Build 0)  -->
<!DOCTYPE svg PUBLIC "-//W3C//DTD SVG 1.1//EN" "http://www.w3.org/Graphics/SVG/1.1/DTD/svg11.dtd">
<svg version="1.1" xmlns="http://www.w3.org/2000/svg" xmlns:xlink="http://www.w3.org/1999/xlink" x="0px" y="0px" width="100px"
	 height="100px" viewBox="0 0 100 100" enable-background="new 0 0 100 100" xml:space="preserve">
<g id="圖層_2">
</g>
<g id="圖層_1">
	<g>
		<path fill-rule="evenodd" clip-rule="evenodd" fill="#13100F" d="M23.82,31.927c0.309,2.454,1.152,4.733,2.272,6.925
			c1.145,2.24,2.681,4.194,4.376,6.079c-0.286-0.138-0.571-0.274-0.856-0.412c-1.401-0.678-2.813-1.307-4.36-1.617
			c-0.813-0.162-1.448-0.77-2.169-1.166c-1.574-0.866-3.199-1.617-4.866-2.282c-0.458-0.183-0.943-0.306-1.424-0.42
			c-0.598-0.142-1.14-0.008-1.528,0.489c-0.377,0.481-0.306,1.018-0.08,1.537c0.318,0.731,0.857,1.292,1.481,1.769
			c0.313,0.238,0.458,0.397,0.071,0.728c-0.544,0.466-0.767,1.105-0.786,1.822c-0.01,0.372-0.056,0.739-0.172,1.106
			c-0.404,1.27,0.074,2.36,1.307,2.895c0.65,0.282,1.29,0.533,1.833,1.019c0.352,0.314,0.868,0.364,1.335,0.417
			c0.409,0.045,0.706,0.205,0.937,0.543c3.136,4.584,7.763,6.933,12.911,8.472c0.505,0.151,0.708,0.313,0.644,0.845
			c-0.175,1.454-0.128,2.91,0.04,4.363c0.077,0.662-0.281,1.227-0.447,1.828c-0.428,1.551-0.16,2.508,1.134,3.444
			c0.224,0.162,0.279,0.357,0.35,0.576c0.246,0.759,0.472,1.526,0.744,2.275c0.211,0.583,0.578,1.143-0.026,1.713
			c-0.07,0.065-0.1,0.236-0.069,0.333c0.278,0.857-0.322,1.449-0.608,2.148c-1.381,3.369-2.021,6.814-0.667,10.346
			c0.747,1.947,2.211,3.384,3.828,4.629c0.678,0.521,0.878,1.008,0.672,1.821c-0.252,1.001-0.384,2.028-0.016,3.056
			c0.611,1.705,1.987,2.494,3.776,2.139c1.512-0.301,2.847-0.978,4.072-1.887c1.519-1.128,2.951-2.348,4.149-3.822
			c0.864-1.063,1.072-2.203,0.526-3.485c-0.455-1.067-0.929-2.11-1.843-2.882c-0.466-0.203-0.49,0.242-0.676,0.452
			c-0.597,1.022-1.445,1.796-2.434,2.429c-2.073,1.379-4.252,2.4-6.826,2.1c0.647-0.361,1.495-0.119,2.043-0.769
			c-0.043-0.332-0.28-0.396-0.559-0.402c-0.658,0.159-1.325,0.256-2.003,0.3c-0.376,0.024-0.677-0.072-0.943-0.42
			c0.595-0.258,1.323-0.129,1.688-0.758c0.026-0.286-0.155-0.399-0.391-0.469c-0.572-0.043-1.119,0.17-1.689,0.162
			c-0.407-0.006-0.796-0.037-1.065-0.493c0.541-0.159,1.059-0.14,1.555-0.239c0.536-0.109,1.058-0.25,1.539-0.514
			c0.214-0.117,0.42-0.285,0.313-0.559c-0.118-0.301-0.398-0.211-0.614-0.142c-0.925,0.298-1.855,0.565-2.841,0.528
			c-0.747-0.027-0.983-0.232-1.232-1.049c1.069,0.048,2.128,0.096,3.17-0.135c0.369-0.082,0.747-0.139,1.083-0.321
			c0.17-0.093,0.331-0.222,0.277-0.442c-0.057-0.23-0.268-0.233-0.459-0.232c-0.167,0-0.324,0.06-0.485,0.098
			c-1.066,0.25-2.15,0.295-3.24,0.244c-0.363-0.016-0.729-0.065-0.858-0.482c-0.082-0.265-0.235-0.564-0.068-0.814
			c0.179-0.27,0.478-0.076,0.723-0.05c0.991,0.103,1.983,0.05,2.975,0.036c0.118-0.002,0.238-0.021,0.346-0.069
			c0.238-0.103,0.529-0.204,0.446-0.532c-0.07-0.273-0.346-0.307-0.587-0.271c-0.706,0.108-1.415,0.063-2.123,0.077
			c-0.453,0.01-0.892-0.08-1.336-0.149c-0.706-0.11-0.572-0.614-0.557-1.081c0.015-0.498,0.324-0.668,0.753-0.621
			c1.565,0.17,3.14,0.336,4.023,1.928c0.091,0.164,0.217,0.311,0.422,0.352c0.38,0.001,0.426-0.267,0.448-0.553
			c-0.209-1.129-1.062-1.682-2.006-2.08c-0.933-0.394-1.925-0.641-2.955-0.592c-0.451,0.021-0.598-0.145-0.53-0.574
			c0.214-1.354,0.634-2.638,1.236-3.869c0.205-0.42,0.427-0.417,0.759-0.15c0.552,0.442,0.995,0.998,1.541,1.445
			c1.331,1.15,2.663,2.305,4.121,3.291c1.457,0.986,2.938,1.95,4.71,2.318c0.291-0.02,0.669,0.035,0.688-0.377
			c0.021-0.441-0.439-0.377-0.697-0.521c-0.797-0.35-1.596-0.698-2.381-1.073c-1.25-0.813-2.476-1.659-3.584-2.661
			c-1.527-1.137-2.853-2.504-4.3-3.733c-0.071-0.061-0.133-0.132-0.187-0.21c-0.105-0.155-0.257-0.34-0.113-0.506
			c0.174-0.202,0.34,0.007,0.48,0.107c0.724,0.524,1.354,1.158,2.019,1.75c0.752,0.671,1.418,1.435,2.216,2.057
			c1.106,1.153,2.373,2.123,3.614,3.121c0.719,0.492,1.512,0.838,2.314,1.164c0.425,0.131,0.879,0.354,1.045-0.328
			c-0.173-0.389-0.579-0.455-0.903-0.615c-1.166-0.576-2.249-1.271-3.217-2.135c-0.27-0.24-0.618-0.51-0.237-0.935
			c0.509-0.616,1.217-0.842,1.96-1.022c0.401-0.097,0.62,0.027,0.756,0.403c0.248,0.683,0.549,1.343,0.885,1.988
			c0.312,0.544,0.53,1.138,0.895,1.652c0.2,0.282,0.38,0.595,0.774,0.65c0.204-0.026,0.323-0.142,0.367-0.339
			c-0.224-0.779-0.833-1.354-1.125-2.098c-1-2.029-1.778-4.133-2.177-6.365c-0.042-0.232-0.098-0.459-0.174-0.68
			c-0.038-0.168-0.188-0.423,0.038-0.473c0.352-0.077,0.312,0.299,0.406,0.507c0.147,1.014,0.339,2.017,0.683,2.984
			c0.085,0.241,0.165,0.485,0.357,0.671c0.286,0.203,0.517,0.207,0.637-0.178c-0.077-0.986-0.503-1.888-0.704-2.844
			c-0.082-0.199-0.095-0.409-0.112-0.621c-0.026-0.33,0.117-0.492,0.446-0.48c0.545,0.02,0.998-0.15,1.427-0.506
			c0.436-0.361,1.291-0.271,1.788,0.1c1.666,1.246,2.847,1.289,4.598,0.15c0.266-0.173,0.521-0.29,0.856-0.252
			c1.13,0.131,2.26,0.119,3.392-0.032c0.934-0.125,1.064,0.032,1.046,0.941c-0.013,0.674-0.132,1.367,0.225,2.007
			c0.151,0.27-0.049,0.379-0.251,0.477c-0.469,0.225-0.922,0.482-1.399,0.687c-1.437,0.614-2.518,1.677-3.452,2.862
			c-0.772,0.981-0.754,0.863-1.678,0.307c-1.137-0.749-2.267-1.501-3.586-1.92c-0.634-0.201-1.282-0.273-1.932-0.369
			c-0.184,0.021-0.39,0.038-0.422,0.262c-0.038,0.26,0.199,0.322,0.369,0.424c1.155,0.33,2.311,0.656,3.378,1.23
			c0.563,0.303,1.104,0.629,1.567,1.071c0.166,0.311,0.004,0.596-0.076,0.882c-0.163,0.576-0.202,1.156-0.055,1.736
			c0.06,0.234,0.201,0.451,0.492,0.412c0.325-0.045,0.319-0.315,0.283-0.547c-0.082-0.523-0.006-1.029,0.126-1.531
			c0.044-0.168,0.135-0.336,0.339-0.256c0.182,0.072,0.087,0.24,0.039,0.364c-0.214,0.539-0.289,1.083-0.111,1.649
			c0.131,0.422-0.148,0.467-0.465,0.482c-0.878,0.043-1.734-0.152-2.602-0.229c-0.349,0.006-0.693,0.068-1.033,0.128
			c-0.31,0.054-0.66,0.125-0.65,0.569c0.777,0.307,1.601,0.371,2.418,0.411c1.059,0.052,2.126,0.126,3.181-0.079
			c0.408-0.08,0.526,0.149,0.596,0.488c0.917,4.454,3.647,7.427,7.716,9.277c0.437,0.199,0.565,0.533,0.698,0.899
			c0.338,0.926,0.625,1.868,1.121,2.732c1.074,1.872,2.819,2.536,4.881,1.847c3.258-1.09,5.273-4.113,5.644-7.531
			c0.051-0.467,0.017-0.94,0.049-1.41c0.118-1.736-0.418-3.199-1.827-4.279c-1.007-0.773-1.203-2.06-1.958-2.983
			c-0.614-0.751-0.767-1.642-0.905-2.551c-0.058-0.376,0.023-0.63,0.357-0.894c0.842-0.664,1.308-1.658,1.997-2.449
			c0.894-1.026,1.825-2.088,3.199-2.523c3.256-1.035,4.882-3.416,5.598-6.587c0.722-3.195,0.75-6.434,0.645-9.681
			c-0.02-0.622-0.178-1.24,0.419-1.73C85,56.924,84.998,56.563,85,56.251c0.005-1.436-0.067-2.868-0.212-4.296
			c-0.067-0.653-0.155-1.32-0.834-1.695c-0.248-0.137-0.205-0.412-0.211-0.637c-0.04-1.262-0.418-2.453-0.783-3.641
			c-0.579-1.884-1.843-3.131-3.72-3.758c-0.582-0.194-1.162-0.394-1.752-0.562c-0.329-0.094-0.351-0.213-0.172-0.489
			c0.317-0.493,0.604-1.006,0.888-1.52c0.111-0.202,0.271-0.304,0.478-0.383c1.621-0.618,2.743-1.782,3.575-3.258
			c0.037-0.407,0.383-0.872-0.219-1.159c-0.412,0.024-0.432,0.459-0.684,0.648c-0.156,0.277-0.573,0.291-0.656,0.642
			c0.209,0.188,0.102,0.362-0.023,0.536c-0.552,0.76-1.304,1.253-2.138,1.659c-0.551,0.269-0.946,0.137-1.263-0.342
			c-0.46-0.697-0.699-1.47-0.77-2.298c-0.03-0.178-0.055-0.357-0.264-0.424c-0.27,0.067-0.412,0.278-0.56,0.484
			c-0.186,0.889,0.187,1.672,0.594,2.39c0.347,0.611,0.258,0.767-0.508,0.797c-0.88,0.035-1.729,0-2.46-0.569
			c-0.304,0.115-0.158,0.334-0.089,0.499c0.14,0.338-0.063,0.438-0.317,0.524c-0.344,0.313-0.479,0.752-0.69,1.143
			c-1.436,2.659-3.735,4.329-6.434,5.513c-2.972,1.302-6.121,1.908-9.338,2.205c-1.622,0.149-3.244,0.337-4.875,0.271
			c-4.246-0.172-8.441-0.649-12.379-2.383c-2.898-1.276-5.439-3.027-7.233-5.706c-0.628-0.938-0.95-1.987-1.146-3.083
			c-0.216-1.116-0.059-2.222,0.091-3.325c-0.385-0.124-0.385-0.124-0.513,0.455c-0.176-0.375,0.528-0.885-0.176-1.194
			c-0.663,0.505-0.637,1.284-0.702,1.975c-0.246,2.638,0.588,4.947,2.265,6.988c1.432,1.741,3.223,3.016,5.181,4.09
			c0.137,0.075,0.319,0.096,0.387,0.289c-0.37,0.275-0.929,0.229-1.196,0.679c0.015,0.376,0.268,0.511,0.59,0.575
			c0.289,0.027,0.58-0.025,0.83-0.145c1.508-0.723,2.814,0.008,4.118,0.582c0.585,0.258,0.763,1,1.292,1.361
			c-1.726-0.225-3.346-0.896-5.045-1.24c-4.147-1.353-7.097-4.194-9.518-7.655C26.262,37.73,25.046,34.3,24.577,30.6
			c-0.026-0.209,0.058-0.558-0.374-0.468c-0.191,0.321-0.106,0.681-0.141,1.023C24.035,31.431,24.063,31.72,23.82,31.927z"/>
		<path fill-rule="evenodd" clip-rule="evenodd" fill="#110D0C" d="M80.882,36.653c0.173-0.241,0.313-0.473-0.167-0.498
			c-0.082-0.093-0.191-0.146-0.311-0.149c-0.79-0.02-1.113-0.508-1.229-1.206c-0.511-2.469-0.268-4.867,0.705-7.187
			c0.288-0.687,0.672-1.41,1.538-1.354c0.868,0.056,1.072,0.863,1.212,1.544c0.433,2.092,0.311,4.156-0.458,6.168
			c-0.114,0.298-0.328,0.588-0.161,0.937c0.467,0.285,0.033,0.766,0.244,1.106c1.425-2.247,1.772-4.725,1.515-7.308
			c-0.204-2.047-0.906-3.882-2.568-5.233c-0.223-0.182-0.267-0.428-0.315-0.684C79.564,15.808,75.91,10.29,70.288,5.989
			C60.423-1.558,46.429-2.058,35.91,4.975c-6.489,4.338-10.677,10.283-12.11,18.014c-0.484,2.606-0.538,5.235-0.207,7.87
			c0.046,0.367,0.347,0.673,0.228,1.068c0.402-0.063,0.43-0.373,0.443-0.681c0.016-0.395,0.013-0.79,0.018-1.186
			c0.269-0.329,0.174-0.723,0.166-1.087c-0.061-2.643,0.073-5.255,0.758-7.835c0.966-3.635,2.654-6.881,5.051-9.771
			c2.688-3.24,5.92-5.809,9.745-7.597c3.703-1.73,7.591-2.668,11.709-2.736c4.48-0.073,8.745,0.778,12.795,2.65
			c2.715,1.256,5.171,2.909,7.385,4.936c2.146,1.965,3.888,4.227,5.312,6.741c1.202,2.122,1.972,4.407,2.525,6.847
			c-0.458-0.037-0.754-0.285-1.088-0.43c-0.317-0.157-0.645-0.291-0.981-0.404c-1.397-0.469-2.596-0.2-3.601,0.902
			c-0.465,0.509-0.486,0.493-0.789-0.104c-3.746-7.379-9.972-11.202-18.02-12.3c-3.203-0.437-6.417-0.281-9.539,0.686
			c-2.711,0.84-5.204,2.104-7.38,3.94c-3.54,2.986-5.356,6.902-6.147,11.362c-0.181,1.019-0.359,2.038-0.46,3.067
			c-0.111,1.131-0.573,2.118-1.142,3.08c-0.227,0.384-0.61,0.753-0.378,1.283c0.37,0.47-0.209,0.984,0.09,1.468
			c0.3-0.202,0.18-0.66,0.497-0.854c0.262-0.076,0.342-0.306,0.438-0.519c0.068-0.15,0.103-0.322,0.202-0.45
			c1.417-1.836,1.491-4.057,1.827-6.209c0.499-3.197,1.457-6.228,3.486-8.828c2.32-2.974,5.354-4.913,8.93-6.069
			c2.109-0.682,4.281-1.039,6.48-1.012c3.333,0.042,6.559,0.692,9.625,2.062c4.127,1.843,7.462,4.563,9.731,8.505
			c0.436,0.758,0.745,1.572,1.102,2.365c0.13,0.29,0.154,0.59-0.007,0.884c-1.17,2.767-1.708,5.644-1.525,8.646
			c0.153,1.245,0.189,2.508,0.583,3.718c0.291,0.894,0.575,1.783,1.388,2.371c0.373,0.077,0.51-0.043,0.421-0.382
			c-0.056-0.212-0.297-0.355-0.233-0.614c0.151-0.318-0.028-0.59-0.136-0.863c-0.256-0.653-0.458-1.319-0.587-2.008
			c-0.574-3.964-0.213-7.795,1.608-11.422c0.138-0.218,0.265-0.443,0.412-0.656c0.777-1.124,1.418-1.35,2.714-0.959
			c0.542,0.164,1.061,0.386,1.714,0.65c-0.777,0.478-1.297,1.086-1.728,1.776c-0.927,1.41-1.323,3.009-1.645,4.627
			c-0.322,1.622-0.362,3.27-0.294,4.918c0.018,0.421,0.075,0.844,0.244,1.239c0.05,0.079,0.12,0.103,0.208,0.071
			c0.301-0.012,0.353-0.268,0.463-0.467c0.31-0.451,0.176-0.952,0.148-1.435c-0.141-2.468,0.188-4.865,1.077-7.179
			c0.117-0.306,0.238-0.612,0.378-0.909c0.365-0.696,0.843-1.29,1.513-1.728c0.413-0.27,0.79-0.275,1.151,0.068
			c0.357,0.338,0.729,0.663,1.085,1.149c-1.282-0.044-1.936,0.726-2.439,1.696c-1.204,2.595-1.681,5.272-0.95,8.092
			c0.151,0.393,0.291,0.792,0.523,1.146C79.2,36.947,80.097,37.14,80.882,36.653z"/>
		<path fill-rule="evenodd" clip-rule="evenodd" fill="#201715" d="M41.829,91.212c0.243,0.009,0.484,0.02,0.598,0.29
			c0.211,0.201,0.446,0.111,0.665,0.037c1.436-0.487,2.813-1.094,4.045-1.99c0.743-0.568,1.596-1.002,2.196-1.75
			c0.182-0.227,0.324-0.072,0.474,0.035c0.207-0.167,0.149-0.592,0.556-0.564c0.033-0.639-0.367-1.15-0.524-1.734
			c-0.359-1.33-0.222-1.521,1.101-1.377c0.423-0.649,1.184-0.281,1.728-0.569c0.044-0.247-0.131-0.39-0.273-0.54
			c-0.635-0.67-1.079-1.475-1.587-2.234c-0.326-0.622-0.653-1.244-0.915-1.898c-0.108-0.271-0.164-0.535-0.088-0.818
			c-0.04-0.188-0.397-0.08-0.33-0.328c0.017-0.064,0.23-0.076,0.354-0.111c-0.2-0.344-0.535-0.529-0.86-0.725
			c-0.031,0.316-0.195,0.31-0.416,0.17c-0.183,0.158-0.099,0.344-0.035,0.514c0.368,0.955,0.654,1.943,1.14,2.852
			c0.514,1.021,1.16,1.954,1.913,2.838c-0.421-0.117-0.415-0.123-0.665-0.363c-0.151-0.145-0.227-0.436-0.539-0.314
			c-0.095,0.09-0.19,0.178-0.285,0.267c-0.324,0.271-0.667-0.302-0.989,0.021c-0.188,0.659-0.636,0.357-1.025,0.274
			c-0.052,0.033-0.087,0.079-0.109,0.135c0.034,0.03,0.063,0.071,0.103,0.092c0.214,0.111,0.612,0.091,0.557,0.413
			c-0.057,0.343-0.434,0.131-0.663,0.193c-1.054,0.227-2.126,0.336-3.191,0.486c-0.635-0.009-1.252,0.152-1.888,0.166
			c-0.659,0.014-1.29-0.025-1.869-0.371c-0.024,0.236,0.077,0.541-0.316,0.575c-0.189,0.242-0.076,0.485-0.007,0.731
			c0.187,0.675,0.359,1.354,0.54,2.029c0.193,0.718,0.038,1.287-0.608,1.701c-0.153,0.099-0.319,0.207-0.329,0.426
			c0.056,0.174,0.3,0.223,0.293,0.438c0.816-0.012,1.626-0.747,1.709-1.7c0.053-0.61,0.323-0.802,0.87-0.836
			c0.991-0.063,1.923-0.407,2.877-0.643c0.834-0.261,1.653-0.563,2.439-0.95c0.154-0.076,0.331-0.271,0.506-0.078
			c0.167,0.186,0.193,0.437,0.072,0.662c-0.18,0.332-0.409,0.64-0.702,0.879c-0.492,0.402-0.949,0.85-1.494,1.187
			c-1.38,0.848-2.828,1.554-4.364,2.077C42.25,90.886,41.906,90.846,41.829,91.212z"/>
		<path fill-rule="evenodd" clip-rule="evenodd" fill="#FAFBFB" d="M30.203,33.29c0.111-0.593,0.447-1.086,0.761-1.574
			c0.577-0.896,0.839-1.872,0.964-2.915c0.421-3.519,1.101-6.97,3.006-10.043c2.858-4.611,7.112-7.334,12.343-8.36
			c8.306-1.628,15.686,0.388,21.879,6.247c1.816,1.718,3.125,3.816,4.172,6.075c0.066,0.145,0.139,0.286,0.212,0.438
			c0.056-0.052,0.096-0.08,0.124-0.116c1.466-1.87,2.464-2.13,4.667-1.216c0.086,0.036,0.176,0.06,0.265,0.089
			c0.505-0.128,0.248-0.492,0.182-0.728c-0.316-1.133-0.686-2.252-1.16-3.33c-1.762-3.999-4.422-7.312-7.814-10.059
			C66.289,4.951,62.293,3.146,57.86,2.23c-6.943-1.433-13.451-0.2-19.536,3.25c-5.673,3.217-9.647,7.945-11.848,14.08
			c-0.763,2.128-1.188,4.336-1.293,6.62c-0.126,2.727,0.051,5.405,0.852,8.01c1.605,5.217,4.585,9.503,8.98,12.789
			c0.339,0.253,0.684,0.629,1.199,0.351c0.516-0.294,1.089-0.43,1.67-0.598c-0.121-0.291-0.409-0.299-0.617-0.41
			c-2.813-1.501-5.287-3.378-6.723-6.307C29.478,37.844,29.24,35.586,30.203,33.29z"/>
		<path fill-rule="evenodd" clip-rule="evenodd" fill="#F2F3F3" d="M48.116,57.203c-0.65,3.15-0.747,6.34-0.683,9.542
			c0.014,0.636,0.146,0.956,0.899,0.935c0.664-0.02,1.417-0.152,1.925,0.583c0.195,0.281,1.27,0.019,1.523-0.288
			c1.48-1.797,3.262-1.9,4.988-0.277c0.182,0.172,0.341,0.268,0.609,0.254c1.558-0.082,3.105-0.231,4.628-0.584
			c1.045-0.861,1.439-2,1.42-3.314c-0.072-0.297-0.332-0.441-0.53-0.635c-0.64-0.627-1.175-1.318-1.489-2.289
			c0.402,0.613,0.637,1.207,1.086,1.65c0.177,0.175,0.326,0.496,0.683,0.296c0.106-0.274-0.033-0.506-0.14-0.737
			c-0.89-1.922-1.468-3.907-1.255-6.056c0.009-0.093,0.002-0.188,0-0.281c-0.028-0.958-0.259-1.152-1.175-0.874
			c-1.83,0.558-3.683,1-5.573,1.307c-1.962,0.32-3.941,0.318-5.917,0.42C48.753,56.873,48.342,56.781,48.116,57.203z"/>
		<path fill-rule="evenodd" clip-rule="evenodd" fill="#CDEEF5" d="M36.213,47.33c-0.44,0.023-0.763-0.241-1.077-0.478
			c-3.95-2.983-6.787-6.782-8.491-11.426c-0.799-2.177-1.137-4.408-1.275-6.72c-0.265-4.453,0.723-8.605,2.774-12.51
			c1.928-3.67,4.647-6.675,8.021-9.13c3.556-2.589,7.554-4.098,11.821-4.876c3.376-0.616,6.784-0.494,10.159,0.275
			c2.052,0.468,4.067,1.056,5.949,1.968c2.256,1.094,4.391,2.394,6.283,4.09c1.584,1.421,3.066,2.918,4.314,4.63
			c1.613,2.212,2.895,4.603,3.629,7.255c0.135,0.49,0.581,0.932,0.275,1.504c0.441,0.247,0.882,0.493,1.491,0.833
			c-0.457-1.83-0.859-3.472-1.556-5.012C74.227,8.214,66.732,2.842,56.496,1.149c-5.763-0.953-11.343-0.1-16.551,2.468
			c-8.51,4.196-13.927,10.839-15.497,20.322c-0.335,2.027-0.262,4.076-0.167,6.121c0.221,1.315,0.417,2.634,0.776,3.924
			c1.451,5.21,4.393,9.399,8.713,12.639c1.233,0.925,2.685,1.45,4.12,1.984c0.101-0.279,0.105-0.285-0.009-0.381
			c-0.333-0.281-0.745-0.369-1.155-0.459C36.489,47.698,36.276,47.602,36.213,47.33z"/>
		<path fill-rule="evenodd" clip-rule="evenodd" fill="#8DB072" d="M73.048,39.368c-0.98-1.303-1.38-2.815-1.622-4.391
			c-0.084-0.553,0.015-1.123-0.176-1.662c-0.245,0.185-0.214,0.46-0.21,0.711c0.039,2.666-1.26,4.771-2.909,6.694
			c-2.749,3.207-6.511,4.489-10.501,5.204c-4.745,0.851-9.496,0.753-14.201-0.331c-3.726-0.858-7.184-2.309-10.135-4.803
			c-0.93-0.786-1.716-1.679-2.187-2.815c-0.126-0.205-0.095-0.547-0.468-0.54c0.289,1.985,1.259,3.605,2.662,5.011
			c2.482,2.487,5.502,4.073,8.853,4.963c6.976,1.854,13.973,1.72,20.923-0.187c3.149-0.863,5.985-2.307,8.142-4.851
			C71.986,41.466,72.498,40.406,73.048,39.368z"/>
		<path fill-rule="evenodd" clip-rule="evenodd" fill="#F2F2F2" d="M37.037,53.246c-1.191,3.758-1.748,7.594-1.519,11.541
			c0.039,0.662,0.264,1.054,0.893,1.24c0.248,0.073,0.486,0.186,0.716,0.305c0.455,0.238,0.803,0.238,1.255-0.135
			c1.082-0.895,2.569-0.504,3.329,0.864c0.268,0.483,0.609,0.669,1.104,0.703c0.114,0.008,0.291,0.034,0.337-0.024
			c0.563-0.723,1.311-0.359,1.972-0.301c0.523,0.046,0.629-0.074,0.603-0.578c-0.145-2.801-0.043-5.592,0.385-8.369
			c0.088-0.574,0.344-1.121,0.286-1.717c-0.175-0.199-0.426-0.179-0.652-0.223c-2.138-0.418-4.193-1.066-6.129-2.082
			c-0.651-0.341-1.235-0.77-1.815-1.211C37.559,53.073,37.298,52.846,37.037,53.246z"/>
		<path fill-rule="evenodd" clip-rule="evenodd" fill="#3CA9D2" d="M66.537,52.811c-1.46,1.098-2.069,2.662-2.416,4.37
			c-0.171,0.909-0.077,1.751,0.621,2.442c0.199,0.196,0.391,0.445,0.688,0.127c0.384-0.1,0.433,0.128,0.442,0.427
			c0.012,0.374,0.046,0.748,0.075,1.122c0.035,0.463,0.26,0.44,0.54,0.189c0.439-0.395,0.877-0.789,1.454-0.978
			c0.145-0.048,0.333-0.161,0.426,0.053c0.068,0.157-0.1,0.242-0.204,0.33c-0.388,0.325-0.856,0.567-1.184,1.11
			c3.069-0.402,5.66,0.477,7.91,2.416c0.494-0.001,0.538-0.404,0.61-0.73c0.289-1.274,0.312-2.564,0.111-3.853
			c-0.158-1.015-0.25-1.058-1.266-0.806c-0.847,0.203-1.683,0.438-2.568,0.461c-0.734,0.019-1.278-0.258-1.671-0.855
			c-0.646-0.982-1.268-1.979-1.932-2.948c-0.329-0.479-0.206-0.912,0.079-1.302c0.515-0.708,1.114-1.33,1.995-1.611
			c0.229-0.074,0.614-0.031,0.637-0.322c0.02-0.249-0.313-0.377-0.534-0.509c-0.08-0.048-0.17-0.077-0.256-0.116
			C68.726,51.502,67.589,52.003,66.537,52.811z"/>
		<path fill-rule="evenodd" clip-rule="evenodd" fill="#D2E8B6" d="M30.639,37.436c0.213,0.126,0.175,0.385,0.298,0.56
			c0.617,0.096,0.463-0.407,0.468-0.679c0.02-0.907,0.112-1.801,0.317-2.683c0.123-0.533,0.405-0.988,0.708-1.434
			c0.099-0.391,0.278-0.749,0.467-1.102c0.342-0.638,0.469-1.323,0.492-2.037c0.021-0.673-0.11-1.363,0.227-2.005
			c0.063-0.122,0.038-0.28,0.004-0.418c-0.254-1.005,0.105-1.904,0.522-2.773c0.491-1.021,0.727-2.134,1.23-3.149
			c0.745-1.502,1.534-2.983,2.723-4.183c1.657-1.672,3.58-2.975,5.768-3.889c1.071-0.448,2.16-0.822,3.285-1.107
			c0.234-0.06,0.462-0.08,0.699-0.066c0.443-0.046,0.882-0.115,1.296-0.291c1.288-0.244,2.589-0.143,3.876-0.072
			c1.722,0.094,3.423,0.414,5.085,0.874c4.273,1.183,8.036,3.25,11.063,6.522c1.044,1.128,1.838,2.443,2.551,3.801
			c0.197,0.375,0.415,0.738,0.631,1.102c0.097,0.165,0.208,0.333,0.444,0.183c0.314-0.334,0.104-0.663-0.024-0.981
			c-2.003-4.96-5.59-8.423-10.384-10.664c-4.545-2.125-9.332-2.859-14.292-1.911c-4.754,0.908-8.781,3.107-11.711,7.042
			c-1.916,2.573-2.826,5.545-3.317,8.666c-0.117,0.742-0.229,1.486-0.318,2.232c-0.147,1.232-0.51,2.374-1.221,3.414
			c-0.313,0.459-0.494,1.008-0.734,1.516C30.507,35.07,30.255,36.239,30.639,37.436z"/>
		<path fill-rule="evenodd" clip-rule="evenodd" fill="#FAE8B1" d="M48.967,76.934c0.109,0.449,0.391,0.697,0.86,0.725
			c2.024,0.203,3.728,1.154,5.358,2.275c0.331,0.161,0.527-0.078,0.741-0.251c1.424-1.155,2.742-2.44,4.273-3.466
			c0.431-0.289,0.606-0.699,0.578-1.209c-0.011-0.188-0.027-0.373-0.055-0.56c-0.181-1.197-0.18-1.198-1.413-1.21
			c-0.331-0.003-0.658-0.03-0.986-0.072c-0.896-0.115-1.762-0.128-2.616,0.309c-1.1,0.563-2.207,0.393-3.229-0.254
			c-0.794-0.504-1.58-0.576-2.386-0.074c-0.408,0.254-0.856,0.224-1.302,0.241c-0.506,0.02-0.762,0.22-0.551,0.757
			C48.482,75.074,48.724,76.004,48.967,76.934z"/>
		<path fill-rule="evenodd" clip-rule="evenodd" fill="#F2F2F3" d="M62.888,78.391c-1.761,0.564-3.26,1.522-4.466,2.926
			c-0.631,0.735-0.938,1.529-0.693,2.529c0.223,0.908,0.348,1.842,0.693,2.72c0.094,0.239,0.169,0.495,0.539,0.403
			c0.331-0.082,0.37-0.295,0.354-0.579c-0.04-0.774,0.329-1.353,0.928-1.798c1.509-1.123,3.212-1.646,5.095-1.586
			c0.641,0.02,1.211,0.262,1.638,0.727c0.315,0.343,0.617,0.357,1.001,0.188c0.603-0.267,1.211-0.52,1.817-0.779
			c0.157-0.168,0.205-0.375,0.146-0.586c-0.25-0.899-0.427-1.822-0.857-2.664c-0.296-0.579-0.809-0.916-1.38-1.14
			C66.141,78.138,64.535,77.959,62.888,78.391z"/>
		<path fill-rule="evenodd" clip-rule="evenodd" fill="#B0D7E5" d="M35.231,48.27c-0.293-0.236-0.34-0.125-0.309,0.193
			c0.092,0.979,0.62,1.625,1.472,2.088c1.715,0.932,3.556,1.521,5.434,1.988c5.06,1.257,10.183,1.4,15.342,0.775
			c1.73-0.21,3.457-0.438,5.148-0.871c1.278-0.428,2.522-0.932,3.722-1.547c0.649-0.333,1.309-0.645,1.746-1.266
			c0.055-0.135,0.146-0.271-0.012-0.4c-0.852-0.065-1.589,0.371-2.372,0.58c-1.547,0.413-3.087,0.866-4.61,1.363
			c-0.082,0.053-0.132,0.125-0.148,0.224c-0.042,0.255,0.116,0.622-0.288,0.694c-0.376,0.068-0.405-0.318-0.563-0.528
			c-0.06-0.079-0.143-0.119-0.231-0.156c-0.448-0.113-0.891-0.046-1.338,0.007c-4.313,0.514-8.625,0.496-12.938,0.012
			c-0.944-0.107-1.841-0.424-2.768-0.607c-0.277-0.056-0.549-0.147-0.836-0.114c-0.265,0.034-0.317,0.213-0.311,0.444
			c0.006,0.187-0.011,0.379-0.235,0.442c-0.117,0.032-0.232-0.011-0.31-0.104c-0.169-0.206-0.068-0.383,0.073-0.551
			c0.074-0.088,0.146-0.178,0.146-0.301c-0.897-0.225-1.749-0.626-2.688-0.688c-0.042,0.021-0.079,0.05-0.107,0.086
			c-0.14,0.172-0.131,0.478-0.431,0.501c-0.126,0.011-0.214-0.083-0.253-0.203c-0.108-0.333,0.223-0.422,0.354-0.622
			c-0.044-0.327-0.334-0.288-0.544-0.342c-0.694-0.177-1.294-0.567-1.955-0.821C35.296,48.498,35.245,48.395,35.231,48.27z"/>
		<path fill-rule="evenodd" clip-rule="evenodd" fill="#FAEAB3" d="M36.772,71.142c0.078,0.312,0.146,0.626,0.233,0.935
			c0.292,1.023,0.716,1.883,1.673,2.564c1.685,1.199,3.106,2.729,4.566,4.195c0.438,0.439,0.691,0.466,1.091-0.032
			c0.622-0.774,1.521-1.078,2.477-1.214c0.306-0.044,0.481-0.081,0.34-0.466c-0.454-1.237-0.666-2.536-0.919-3.823
			c-0.599-0.33-1.276-0.227-1.916-0.314c-0.486-0.066-0.897-0.184-1.264-0.523c-0.62-0.574-0.879-0.597-1.634-0.182
			c-1.001,0.55-1.98,0.72-2.952-0.063c-0.263-0.211-0.437-0.473-0.594-0.768C37.638,71.006,37.209,70.905,36.772,71.142z"/>
		<path fill-rule="evenodd" clip-rule="evenodd" fill="#8DCDDB" d="M68.392,87.268c-0.258-1.138-0.929-2.055-1.623-2.953
			c-0.365-0.473-0.892-0.679-1.487-0.711c-1.771-0.094-3.361,0.379-4.742,1.503c-0.091,0.074-0.175,0.159-0.252,0.247
			c-0.235,0.271-0.533,0.611-0.369,0.929c0.169,0.326,0.6,0.12,0.905,0.067c1.645-0.289,3.186-0.852,4.601-1.75
			c0.165-0.105,0.41-0.422,0.592-0.147c0.219,0.331-0.193,0.422-0.386,0.531c-1.686,0.96-3.388,1.886-5.424,1.791
			c-0.243-0.011-0.28,0.055-0.238,0.276c0.089,0.465,0.209,0.914,0.495,1.304c0.978,0.188,1.857-0.218,2.735-0.513
			c1.23-0.414,2.368-1.045,3.462-1.743c-1.603,1.249-3.416,2.019-5.417,2.374c-0.234,0.043-0.594-0.068-0.644,0.346l-0.003-0.006
			c0.37,1.176,0.786,1.402,1.98,1.119c0.856-0.202,1.656-0.545,2.449-0.907c0.798-0.364,1.487-0.899,2.198-1.405
			c-0.501,0.521-1.069,0.963-1.712,1.299c-0.965,0.504-1.98,0.879-3.045,1.117c-0.201,0.045-0.458,0.047-0.506,0.307
			c-0.051,0.282,0.177,0.422,0.386,0.527c0.561,0.283,1.162,0.385,1.784,0.292c1.4-0.21,2.593-0.86,3.606-1.813
			C68.317,88.797,68.675,88.118,68.392,87.268z"/>
		<path fill-rule="evenodd" clip-rule="evenodd" fill="#F1F1F2" d="M77.197,49.688c1.742-0.169,3.445-0.568,5.17-0.838
			c0.364-0.057,0.434-0.23,0.375-0.583c-0.606-3.638-1.803-5.006-5.868-5.976c-0.236-0.057-0.353,0.02-0.47,0.188
			c-0.648,0.931-1.459,1.723-2.229,2.55c-0.052,0.28,0.183,0.359,0.352,0.458c1.254,0.735,1.918,1.879,2.288,3.232
			C76.909,49.055,76.965,49.405,77.197,49.688z"/>
		<path fill-rule="evenodd" clip-rule="evenodd" fill="#37A2CF" d="M26.28,44.922c-0.223,1.939-0.901,3.688-2.182,5.185
			c-0.109,0.227-0.018,0.411,0.131,0.577c0.998,1.111,2.13,2.052,3.477,2.722c0.13,0.065,0.268,0.092,0.395-0.017
			c1.866-2.166,2.642-4.642,2.147-7.479c-0.204,0.424-0.407,0.504-0.876,0.223c-0.779-0.468-1.638-0.803-2.484-1.147
			C26.695,44.906,26.495,44.819,26.28,44.922z"/>
		<path fill-rule="evenodd" clip-rule="evenodd" fill="#F3F4F4" d="M41.008,84.305c0.141,0.407,0.42,0.54,0.856,0.547
			c0.995,0.014,1.981-0.069,2.97-0.135c0.357-0.455,0.292-1.261-0.158-1.684c-0.273-0.258-0.595-0.457-0.91-0.664
			c-1.661-1.087-3.114-2.411-4.436-3.883c-0.592-0.568-1.196-1.125-1.772-1.71c-0.267-0.271-0.423-0.292-0.612,0.069
			c-0.779,1.49-1.283,3.064-1.501,4.731c-0.047,0.353,0.026,0.425,0.402,0.384c1.324-0.144,2.577,0.171,3.748,0.77
			C40.251,83.065,40.804,83.543,41.008,84.305z"/>
		<path fill-rule="evenodd" clip-rule="evenodd" fill="#3CA4D0" d="M65.834,67.102c2.04,0.402,3.668,1.512,5.109,2.943
			c0.309,0.199,0.545-0.012,0.764-0.166c0.891-0.627,1.646-1.383,2.167-2.352c0.153-0.282,0.225-0.56,0.037-0.852
			c-1.941-2.104-4.348-3.035-7.204-2.832C66.006,64.82,65.653,65.891,65.834,67.102z"/>
		<path fill-rule="evenodd" clip-rule="evenodd" fill="#8AC8DD" d="M40.287,89.768c1.336-0.862,1.41-1.049,1.008-2.588
			c-0.2-0.767-0.402-1.533-0.604-2.3c-0.895-2.083-3.09-2.362-4.815-2.381c-0.362-0.004-0.527,0.183-0.577,0.56
			c-0.176,1.335-0.125,1.445,1.201,1.605c1.01,0.123,2.026,0.109,3.039-0.015c0.196-0.024,0.494-0.143,0.541,0.14
			c0.048,0.286-0.275,0.273-0.465,0.301c-1.248,0.17-2.499,0.205-3.728-0.104c-0.519-0.131-0.606,0.03-0.534,0.501
			c0.192,1.258,0.206,1.281,1.503,1.335c1.138,0.048,2.265,0.004,3.364-0.337c0.142-0.044,0.358-0.155,0.422,0.066
			c0.061,0.21-0.157,0.241-0.315,0.29c-1.277,0.394-2.576,0.566-3.911,0.391c-0.182-0.023-0.358-0.124-0.548-0.038
			c0.441,1.388,0.62,1.521,2.05,1.469c0.834-0.03,1.628-0.249,2.411-0.521c0.169-0.059,0.421-0.304,0.527,0.006
			c0.082,0.239-0.219,0.317-0.402,0.402c-0.875,0.405-1.808,0.51-2.758,0.531c-0.207,0.005-0.413,0.018-0.629,0.026
			c0.294,0.818,0.674,1.097,1.453,1.033C39.121,90.092,39.721,90.004,40.287,89.768z"/>
		<path fill-rule="evenodd" clip-rule="evenodd" fill="#F1F3F3" d="M73.197,89.236c-1.112,1.652-2.573,2.92-4.315,3.883
			c-0.898,0.496-1.882,0.729-2.913,0.935c0.398,1.044,0.777,2.036,1.155,3.028c0.435-0.939,1.018-1.658,1.887-2.117
			c1.507-0.795,3.005-0.764,4.42,0.195c0.416,0.281,0.586,0.213,0.792-0.174c0.321-0.607,0.57-1.236,0.708-1.909
			c0.282-1.361-0.283-2.509-0.959-3.612C73.821,89.215,73.585,88.867,73.197,89.236z"/>
		<path fill-rule="evenodd" clip-rule="evenodd" fill="#89D0DC" d="M22.815,48.572c0.928-1.353,1.52-2.828,1.647-4.474
			c-2.257-1.393-4.459-2.886-6.976-3.809c-0.178-0.065-0.356-0.131-0.433-0.328c-0.417-0.179-0.836-0.386-1.185,0.116
			c-0.128,0.29,0.111,0.426,0.26,0.59c1.085,1.191,2.511,1.94,3.791,2.88c0.194,0.143,0.45,0.116,0.66,0.221
			c0.448,0.009,0.896,0.005,1.343,0.031c0.195,0.012,0.394,0.116,0.365,0.346c-0.025,0.209-0.235,0.19-0.399,0.193
			c-0.588,0.009-1.185-0.049-1.754,0.146c-0.39,0.134-0.845,0.191-1,0.676c-0.027,0.891,0.916,1.625,1.924,1.457
			c0.415-0.068,0.829-0.09,1.244-0.133c0.306-0.012,0.412,0.12,0.214,0.367c-0.143,0.178-0.346,0.307-0.522,0.458
			C21.839,48.021,22.18,48.545,22.815,48.572z"/>
		<path fill-rule="evenodd" clip-rule="evenodd" fill="#F3F7F6" d="M41.429,50.848c1.157,0.084,2.231,0.554,3.373,0.716
			c2.103,0.299,4.213,0.43,6.337,0.427c2.5-0.004,4.995-0.02,7.473-0.42c0.369-0.06,0.754-0.014,1.133-0.016
			c0.349,0.025,0.655-0.098,0.95-0.264c1.535-0.25,2.983-0.813,4.471-1.236c0.878-0.25,1.753-0.514,2.629-0.771
			c0.243,0.161,0.49,0.031,0.736,0.011c0.767-0.321,1.44-0.8,2.114-1.272c0.215-0.152,0.547-0.37,0.165-0.703
			c-2.963,1.789-6.254,2.601-9.62,3.178c-6.566,1.126-13.124,1.133-19.659-0.234c-2.164-0.453-4.25-1.171-6.299-1.992
			c-0.297,0.311-0.02,0.357,0.198,0.463c0.793,0.387,1.586,0.77,2.455,0.967c0.092,0.189,0.247,0.283,0.455,0.296
			c0.88,0.266,1.727,0.663,2.668,0.696C41.108,50.85,41.24,50.927,41.429,50.848z"/>
		<path fill-rule="evenodd" clip-rule="evenodd" fill="#A7A6B0" d="M48.116,57.203c0.261-0.228,0.58-0.16,0.879-0.16
			c3.232-0.008,6.432-0.285,9.567-1.108c0.728-0.191,1.443-0.423,2.165-0.636c0.806-0.237,0.856-0.213,0.839,0.606
			c-0.034,1.621-0.06,3.24,0.591,4.774c0.293,0.689,0.479,1.424,0.867,2.073c0.072,0.12,0.161,0.244-0.003,0.364
			c-0.119,0.201,0.074,0.271,0.167,0.378c0.122,0.139,0.258,0.264,0.108,0.461c0.015,1.304-0.527,2.399-1.289,3.411
			c0.666,0,1.301-0.21,1.954-0.293c0.271-0.034,0.373-0.17,0.384-0.408c0.047-0.982,0.441-1.867,0.769-2.771
			c0.083-0.227,0.134-0.381-0.174-0.554c-2.136-1.199-2.725-3.265-2.938-5.478c-0.158-1.641,0.208-3.217,0.998-4.685
			c-0.315-0.166-0.512,0.015-0.693,0.132c-2.507,1.625-5.316,2.383-8.219,2.896c-1.686,0.299-3.383,0.367-5.084,0.284
			C48.427,56.463,48.097,56.576,48.116,57.203z"/>
		<path fill-rule="evenodd" clip-rule="evenodd" fill="#427380" d="M62.82,48.145c-6.565,1.637-13.061,1.754-19.588,0.406
			c0.248,0.781,0.99,1.629,2.129,1.712c4.929,0.36,9.855,0.554,14.761-0.269C61.414,49.777,62.046,49.338,62.82,48.145z"/>
		<path fill-rule="evenodd" clip-rule="evenodd" fill="#B6AA84" d="M48.239,74.145c-0.046-0.457,0.151-0.629,0.614-0.57
			c0.575,0.074,1.078-0.053,1.593-0.396c0.522-0.349,1.156-0.313,1.717,0.075c1.331,0.923,2.702,1.022,4.102,0.164
			c0.243-0.148,0.493-0.135,0.75-0.139c0.992-0.013,1.971,0.219,2.966,0.142c0.322-0.025,0.473,0.103,0.478,0.441
			c0.004,0.278,0.064,0.558,0.106,0.835c0.101,0.662-0.082,1.139-0.697,1.533c-1.471,0.941-2.703,2.189-4.044,3.299
			c-0.196,0.162-0.342,0.4-0.639,0.404c1.117,0.74,1.106,0.731,1.887-0.332c1.254-1.707,2.987-2.771,4.93-3.527
			c0.402-0.156,0.574-0.229,0.248-0.686c-0.487-0.68-0.324-1.486-0.198-2.252c0.096-0.585-0.141-0.942-0.721-0.867
			c-1.435,0.186-2.864,0.273-4.299,0.044c-0.252-0.041-0.379,0.135-0.542,0.267c-1.486,1.193-3.065,1.145-4.458-0.135
			c-0.435-0.398-1.716-0.377-2.082,0.061c-0.303,0.362-0.701,0.334-1.1,0.335c-0.871,0.003-0.875,0.001-0.75,0.841
			C48.122,73.839,48.191,73.99,48.239,74.145z"/>
		<path fill-rule="evenodd" clip-rule="evenodd" fill="#81CDDA" d="M70.112,71.856c-1.045-1.216-2.435-1.945-3.829-2.664
			c-0.414-0.214-0.856-0.372-1.286-0.556c-0.97,0.389-1.774,1.008-2.487,1.759c-0.1,0.104-0.136,0.324-0.366,0.238
			c-0.263,0.159-0.268,0.422-0.256,0.677c0.012,0.258,0.181,0.455,0.398,0.543c0.295,0.121,0.317-0.201,0.424-0.352
			c0.162-0.229,0.28-0.49,0.438-0.723c0.086-0.127,0.192-0.332,0.371-0.254c0.224,0.098,0.147,0.318,0.068,0.491
			c-0.292,0.641-0.63,1.263-0.76,1.966c-0.063,0.158-0.033,0.323-0.042,0.485c-0.027,0.448,0.039,0.86,0.529,1.032
			c0.476,0.166,0.732-0.175,0.995-0.477c0.123-0.09,0.239-0.273,0.384-0.024c0.045,0.054,0.083,0.109,0.077,0.185
			c-0.047,0.547,0.054,1.027,0.629,1.258c0.542,0.219,0.995,0.01,1.407-0.339c0.053-0.046,0.118-0.073,0.181-0.103
			c0.508-0.088,0.39,0.281,0.406,0.552c0.386,0.497,0.909,0.421,1.211,0.047C69.479,74.518,70.059,73.283,70.112,71.856z"/>
		<path fill-rule="evenodd" clip-rule="evenodd" fill="#3373A0" d="M30.507,54.231c-0.626,0.692-1.155,1.481-1.999,1.958
			c-0.329,0.186-0.282,0.392,0.03,0.561c1.719,0.926,3.501,1.703,5.38,2.249c0.35,0.102,0.379-0.061,0.334-0.373
			c-0.334-2.319,0.06-4.54,1.099-6.62c0.369-0.737,0.284-1.139-0.436-1.455c-0.612,0.922-0.864,2.002-1.303,3
			c-0.734,1.668-0.7,1.681-2.392,0.975C30.983,54.426,30.764,54.284,30.507,54.231z"/>
		<path fill-rule="evenodd" clip-rule="evenodd" fill="#3AA2D0" d="M61.865,91.503c0.906,0.973,1.893,1.419,3.307,1.009
			c2.99-0.868,5.263-2.631,7.042-5.109c0.154-0.871-0.632-2.191-1.436-2.41c-0.517,0.367-1.01,0.775-1.559,1.084
			c-0.393,0.223-0.498,0.478-0.391,0.875c0.306,1.345-0.569,2.208-1.405,2.951c-1.438,1.281-3.138,1.887-5.098,1.268
			c-0.113-0.035-0.231-0.045-0.35-0.021C61.81,91.227,61.744,91.336,61.865,91.503z"/>
		<path fill-rule="evenodd" clip-rule="evenodd" fill="#AFD8EB" d="M78.325,35.026c-0.635-2.842-0.193-5.55,1.024-8.162
			c-0.057-0.052-0.12-0.059-0.188-0.026c-0.253-0.662-0.923-0.862-1.411-1.265c-1.014,1.794-1.363,3.765-1.572,5.777
			c-0.136,1.312-0.018,2.619,0.031,3.929c0.045,0.152,0.09,0.305,0.136,0.457C76.947,36.097,78.053,35.701,78.325,35.026z"/>
		<path fill-rule="evenodd" clip-rule="evenodd" fill="#3FA7CF" d="M46.117,86.84c-1.213,0.262-2.395,0.689-3.655,0.707
			c-0.291,0.004-0.36,0.166-0.338,0.41c0.108,1.173-0.58,1.804-1.543,2.248c-0.462,0.307-0.979,0.442-1.525,0.487
			c-0.159,0.013-0.371-0.019-0.409,0.182c-0.036,0.183,0.17,0.254,0.283,0.368c0.597,0.613,1.321,0.177,1.978,0.211
			c0.279,0.016,0.651-0.024,0.921-0.241c1.819-0.571,3.553-1.325,5.149-2.374C47.084,88.004,46.681,87.387,46.117,86.84z"/>
		<path fill-rule="evenodd" clip-rule="evenodd" fill="#F4F4F4" d="M47.541,90.804c-1.543,1.073-3.234,1.809-5.084,2.168
			c-0.254,0.05-0.512,0.088-0.77,0.101c-1.19,0.06-1.19,0.056-1.211,1.361c1.471-0.688,2.833-0.496,4.091,0.473
			c0.282,0.218,0.545,0.462,0.713,0.771c0.223,0.412,0.44,0.369,0.76,0.103c0.485-0.403,1.003-0.77,1.509-1.151
			c0.463-0.904,0.565-1.889,0.593-2.877C48.154,91.348,48.136,90.87,47.541,90.804z"/>
		<path fill-rule="evenodd" clip-rule="evenodd" fill="#A0A3B2" d="M62.888,78.391c1.313-0.037,2.623-0.094,3.916,0.25
			c1.297,0.344,2.268,0.983,2.515,2.404c0.123,0.707,0.542,1.347,0.476,2.096c0.127-0.058,0.264-0.101,0.379-0.176
			c0.583-0.383,1.575-0.544,1.673-1.176c0.151-0.965-0.127-2.017-0.554-2.938c-0.281-0.604-0.966-0.82-1.565-1.011
			c-2.307-0.735-4.561-0.422-6.771,0.437C62.925,78.29,62.911,78.352,62.888,78.391z"/>
		<path fill-rule="evenodd" clip-rule="evenodd" fill="#39A4D0" d="M30.507,54.231c0.605,0.634,1.418,0.817,2.229,0.956
			c0.252,0.043,0.473-0.246,0.564-0.474c0.555-1.382,1.262-2.706,1.614-4.163c-0.602-0.678-0.731-1.52-0.831-2.371
			c-0.179,0.133-0.194,0.285-0.094,0.434c-0.617-0.371-1.503-0.571-1.369-1.631c-0.258,0.092-0.27,0.092-0.256,0.395
			c0.036,0.843,0.013,1.676-0.116,2.518C32.005,51.482,31.357,52.894,30.507,54.231z"/>
		<path fill-rule="evenodd" clip-rule="evenodd" fill="#BBDBEB" d="M82.011,34.907c0.997-2.254,1.327-4.591,0.864-7.021
			c-0.065-0.342-0.183-0.682-0.325-1.001c-0.475-1.06-1.471-1.199-2.257-0.332c-0.506,0.559-0.752,1.251-0.962,1.947
			c-0.636,2.101-0.906,4.227-0.305,6.39c0.379,0.857,1.286,1.127,2.448,0.727C81.653,35.38,81.832,35.144,82.011,34.907z"/>
		<path fill-rule="evenodd" clip-rule="evenodd" fill="#A1D4E8" d="M49.38,68.917c0-0.23,0.374-0.642-0.273-0.558
			c-0.171,0.283-0.444,0.318-0.737,0.293c-1.051-0.096-2.104-0.15-3.15-0.299c-1.211-0.172-1.365-0.051-1.521,1.164
			c-0.018,0.143-0.045,0.276-0.151,0.382c-0.091,0.332-0.018,0.66,0.025,0.989c0.223,0.375,0.59,0.527,0.991,0.602
			c1.345,0.254,2.702,0.361,4.07,0.316c0.486-0.017,0.699-0.201,0.685-0.73C49.301,70.358,49.217,69.633,49.38,68.917z"/>
		<path fill-rule="evenodd" clip-rule="evenodd" fill="#8ACDE2" d="M71.163,94.921c-1.659,0.001-2.954,0.87-3.378,2.267
			c-0.237,0.782-0.044,1.118,0.768,1.203c1.957,0.205,3.445-0.715,4.758-2.024c0.266-0.265,0.153-0.495-0.068-0.728
			C72.814,95.186,72.067,94.921,71.163,94.921z"/>
		<path fill-rule="evenodd" clip-rule="evenodd" fill="#4A7F9E" d="M54.769,55.5c1.804-0.244,3.5-0.822,5.131-1.649
			c-3.369,0.383-6.73,0.708-10.116,0.624c-3.389-0.084-6.688-0.74-9.971-1.599c0.566,0.569,1.15,1.081,1.904,1.358
			c0.13-0.091,0.263-0.066,0.403-0.021c2.521,0.784,5.131,0.92,7.742,1.097c1.555,0.105,3.104,0.132,4.657,0.081
			C54.62,55.388,54.699,55.432,54.769,55.5z"/>
		<path fill-rule="evenodd" clip-rule="evenodd" fill="#F0F2F4" d="M81.896,65.696c1.611-0.456,1.615-0.456,1.681-2.097
			c0.064-1.616,0.089-3.232-0.007-4.85c-0.246-0.207-0.522-0.176-0.803-0.098c-0.204,0.057-0.407,0.115-0.621,0.128
			c-0.946,0.054-0.903,0.056-0.926,0.956c-0.046,1.779,0.328,3.551,0.055,5.333C81.213,65.477,81.318,65.852,81.896,65.696z"/>
		<path fill-rule="evenodd" clip-rule="evenodd" fill="#34739E" d="M28.102,53.389c-1.548-0.654-2.761-1.746-3.877-2.961
			c-0.073-0.078-0.085-0.213-0.125-0.321c-0.449,0.484-0.923,0.942-1.501,1.269c-0.287,0.162-0.288,0.324-0.095,0.553
			c0.915,1.08,1.88,2.103,3.036,2.938c0.376,0.272,0.69,0.218,1.024-0.036C27.125,54.402,27.671,53.957,28.102,53.389z"/>
		<path fill-rule="evenodd" clip-rule="evenodd" fill="#829083" d="M79.595,56.068c-0.373,0.101-0.747,0.2-1.12,0.3
			c-0.282,1.028,0.048,2.044,0.088,3.063c0.076,1.91,0.497,3.799,0.315,5.728c-0.051,0.547,0.14,0.626,0.744,0.394
			c0.381-0.121,0.534-0.369,0.574-0.777c0.187-1.867,0.049-3.739,0.097-5.609c0.007-0.268-0.094-0.537-0.145-0.807
			c-0.146-0.511,0.101-1.042-0.099-1.557C79.942,56.523,79.896,56.223,79.595,56.068z"/>
		<path fill-rule="evenodd" clip-rule="evenodd" fill="#DDEEF1" d="M68.106,48.029c2.933-1.166,5.309-3.052,7.222-5.536
			c0.037-0.683,0.301-1.301,0.535-1.931c0.074-0.197,0.387-0.52-0.132-0.621c-0.354-0.008-0.711,0.017-1.06-0.029
			c-1.08-0.145-1.078-0.155-1.399,1.005c0.438,0.093,0.878,0.174,1.31,0.285c0.128,0.033,0.396-0.031,0.333,0.239
			c-0.049,0.21-0.176,0.393-0.454,0.333c-0.069-0.015-0.141-0.021-0.208-0.044c-1.125-0.401-1.894-0.039-2.32,1.065
			c-0.063,0.205,0.104,0.267,0.225,0.256c0.498-0.045,0.997-0.033,1.421-0.026c-0.583,0.438-1.107,1.067-1.701,1.625
			c-0.56,0.643-1.355,1.049-1.82,1.787c-0.137,0.101-0.275,0.201-0.413,0.301c-0.557,0.151-0.987,0.526-1.461,0.822
			c-0.146,0.092-0.313,0.23-0.202,0.459c0.007,0.014,0.035,0.021,0.053,0.022C68.059,48.043,68.083,48.033,68.106,48.029z"/>
		<path fill-rule="evenodd" clip-rule="evenodd" fill="#A0A4B3" d="M47.541,90.804c0.61,0.427,0.417,1.047,0.357,1.607
			c-0.08,0.743-0.229,1.479-0.349,2.218c1.161-0.889,2.174-1.93,3.084-3.064c0.898-1.119,0.888-1.395,0.101-2.61
			c-0.151-0.233-0.285-0.485-0.566-0.646C49.471,89.33,48.472,90.03,47.541,90.804z"/>
		<path fill-rule="evenodd" clip-rule="evenodd" fill="#B2A67E" d="M50.693,80.9c0.557,0.97,1.16,1.905,1.974,2.688
			c1.026,0.367,2.091,0.234,3.145,0.236c0.311,0.001,0.228-0.222,0.153-0.403c-0.267-0.647-0.22-1.295,0.042-1.923
			c0.146-0.35,0.034-0.501-0.29-0.633c-0.472-0.192-0.395,0.22-0.45,0.407c-0.166,0.566-0.222,1.152-0.153,1.744
			c0.018,0.152,0.126,0.363-0.097,0.421c-0.246,0.063-0.306-0.172-0.359-0.345c-0.203-0.668-0.002-1.298,0.175-1.936
			c0.072-0.26,0.345-0.57-0.066-0.803c-1.243,0.252-2.492,0.426-3.765,0.395C50.886,80.748,50.777,80.813,50.693,80.9z"/>
		<path fill-rule="evenodd" clip-rule="evenodd" fill="#69776F" d="M80.084,65.996c-0.576,0.068-1.042,0.408-1.564,0.586
			c-0.184,0.063-0.172,0.258-0.184,0.424c-0.18,2.627-1.056,5.074-1.956,7.517c-0.077,0.208-0.268,0.399-0.16,0.657
			C77.804,74.49,79.978,69.34,80.084,65.996z"/>
		<path fill-rule="evenodd" clip-rule="evenodd" fill="#F07C4F" d="M84.154,53.932c-0.037-0.889,0.028-1.787-0.28-2.646
			c-0.762-0.124-1.496-0.044-2.197,0.289c-0.274,1.072,0.016,2.144,0.033,3.215c0.007,0.479,0.019,0.988,0.212,1.455
			c0.456,0.444,1.435,0.623,1.957,0.366c0.213-0.104,0.328-0.269,0.322-0.501C84.182,55.383,84.264,54.655,84.154,53.932z"/>
		<path fill-rule="evenodd" clip-rule="evenodd" fill="#91CDE0" d="M40.282,95.967c0.028,1.488,0.417,1.825,1.891,1.594
			c0.921-0.145,1.759-0.526,2.578-0.957c0.264-0.14,0.311-0.289,0.183-0.563c-0.633-1.36-3.229-1.981-4.436-1.05
			C40.279,95.158,40.269,95.205,40.282,95.967z"/>
		<path fill-rule="evenodd" clip-rule="evenodd" fill="#8D9DB5" d="M75.746,35.746c-0.033-0.012-0.066-0.021-0.1-0.031
			c-1.104,0.224-2.195,0.039-3.286-0.117c0.077,0.992,0.552,1.859,0.876,2.774c0.516,0.858,1.358,0.813,2.192,0.777
			c0.49-0.021,0.985-0.028,1.51-0.216C76.266,37.955,75.812,36.919,75.746,35.746z"/>
		<path fill-rule="evenodd" clip-rule="evenodd" fill="#F5F5F5" d="M80.449,51.146c0.51-0.683,1.324-0.601,2.007-0.661
			c0.732-0.064,0.523-0.453,0.517-0.84c-0.01-0.627-0.436-0.345-0.7-0.293c-1.546,0.305-3.094,0.604-4.775,0.766
			c1.276,1.624,2.31,3.262,2.673,5.227c0.141,0.166-0.027,0.425,0.24,0.627c0.324-0.496,0.344-0.965,0.028-1.454
			c-0.04-0.03-0.043-0.064-0.008-0.101C80.351,53.325,80.315,52.234,80.449,51.146z"/>
		<path fill-rule="evenodd" clip-rule="evenodd" fill="#E66F4F" d="M29.678,54.398c0.618-0.486,0.937-1.18,1.229-1.866
			c0.72-1.684,1.102-3.44,1.052-5.284c-0.019-0.701-0.503-0.937-1.125-1.238c0.321,2.899-0.575,5.377-2.194,7.639
			C28.784,54.176,29.187,54.349,29.678,54.398z"/>
		<path fill-rule="evenodd" clip-rule="evenodd" fill="#EB744E" d="M74.748,65c-1.913-1.733-4.126-2.699-6.75-2.584
			c-0.468,0.021-0.934,0.118-1.396,0.207c-0.347,0.066-0.426,0.395-0.427,0.654c-0.001,0.299,0.282,0.15,0.439,0.13
			c2.748-0.362,5.037,0.626,7.075,2.362c0.125,0.106,0.247,0.219,0.369,0.328C74.728,66.084,74.938,65.749,74.748,65z"/>
		<path fill-rule="evenodd" clip-rule="evenodd" fill="#F4F4F3" d="M72.169,53.465c-0.328-0.447-0.668-0.512-1.112-0.412
			c-0.944,0.212-1.67,0.738-2.297,1.439c-0.33,0.367-0.355,0.727-0.069,1.143c0.654,0.95,1.287,1.914,1.925,2.875
			c0.207,0.313,0.459,0.518,0.865,0.516c1.25-0.006,2.435-0.279,3.56-0.811c0.202-0.096,0.473-0.166,0.297-0.497
			c-0.14-0.263-0.203-0.579-0.651-0.458c-0.896,0.243-1.752,0.578-2.529,1.079c-0.431,0.278-0.665,0.157-0.919-0.227
			c-0.506-0.765-1.018-1.53-1.583-2.253c-0.418-0.535-0.247-0.875,0.222-1.221C70.568,54.131,71.35,53.803,72.169,53.465z"/>
		<path fill-rule="evenodd" clip-rule="evenodd" fill="#151B1F" d="M62.021,91.215c2.102,0.949,5.032-0.051,6.417-2.174
			c0.424-0.65,0.769-1.299,0.392-2.09c0,0.299,0,0.597,0,0.914c-0.435-0.057-0.184-0.488-0.438-0.598
			c0.058,0.897-0.325,1.595-1.007,2.143c-1.24,0.994-2.571,1.756-4.254,1.553c-0.43-0.051-0.816-0.195-1.168-0.633
			c1.093-0.197,2.081-0.531,3.045-0.951c0.926-0.402,1.706-0.99,2.431-1.668c0.15-0.141,0.394-0.299,0.192-0.514
			c-0.18-0.19-0.33,0.052-0.459,0.167c-1.386,1.235-3.027,1.949-4.803,2.442c-0.692,0.191-1.118,0.066-1.433-0.555
			c-0.083-0.162-0.227-0.293-0.342-0.439c-0.023,0.133-0.024,0.302-0.177,0.336c-0.248,0.057-0.219-0.244-0.37-0.326
			c-0.146,0.021-0.201,0.108-0.179,0.25c0.029,0.203-0.059,0.432,0.132,0.599c0.353-0.048,0.459,0.253,0.644,0.447
			C61.051,90.547,61.362,91.098,62.021,91.215z"/>
		<path fill-rule="evenodd" clip-rule="evenodd" fill="#3D4F52" d="M68.106,48.029c-0.201-0.229,0.059-0.256,0.159-0.327
			c0.456-0.328,0.92-0.644,1.381-0.964c-0.763-0.638-1.539-0.938-2.487-0.301c-0.523,0.352-1.124,0.609-1.748,0.75
			c-1.219,0.276-1.876,1.121-2.347,2.235C64.833,49.201,66.426,48.457,68.106,48.029z"/>
		<path fill-rule="evenodd" clip-rule="evenodd" fill="#67B7D4" d="M54.769,55.5c0.019-0.104,0.112-0.246-0.083-0.266
			c-0.21-0.021-0.423-0.017-0.635-0.012c-3.126,0.066-6.232-0.202-9.327-0.591c-0.876-0.11-1.728-0.411-2.595-0.608
			c-0.162-0.036-0.511-0.308-0.413,0.211c2.893,1.492,6.011,1.8,9.2,1.732C52.215,55.939,53.497,55.758,54.769,55.5z"/>
		<path fill-rule="evenodd" clip-rule="evenodd" fill="#5F6B63" d="M76.891,66.219c-0.559,1.396-1.237,2.723-2.245,3.86
			c-0.19,0.214-0.27,0.479-0.314,0.769c-0.151,0.971-0.321,1.939-0.746,2.841c-0.17,0.362-0.126,0.634,0.311,0.755
			c0.158,0.043,0.304,0.127,0.46,0.179c0.859,0.286,1.103,0.169,1.409-0.684c0.094-0.263,0.176-0.529,0.264-0.794
			c-0.82-0.268-0.806-0.265-0.647-1.167c0.196-1.116,0.542-2.157,1.21-3.101c0.377-0.531,0.571-1.177,0.608-1.839
			C77.217,66.738,77.157,66.43,76.891,66.219z"/>
		<path fill-rule="evenodd" clip-rule="evenodd" fill="#F8E9B1" d="M50.693,80.9c1.388,0.039,2.789,0.177,4.074-0.545
			c-1.24-1.086-2.711-1.697-4.293-2.088c-0.224-0.055-0.447-0.113-0.671-0.17c-0.347,0.019-0.361,0.194-0.244,0.467
			C49.9,79.361,50.222,80.167,50.693,80.9z"/>
		<path fill-rule="evenodd" clip-rule="evenodd" fill="#9FA2B4" d="M81.449,67.809c-0.697-0.029-0.951,0.342-1.068,0.994
			c-0.347,1.932-1.121,3.708-2.158,5.388c2.11-0.81,3.636-2.163,4.247-4.394c-0.358-0.299-0.6,0.075-0.882,0.166
			c-0.395,0.126-0.525,0.036-0.447-0.379C81.251,68.993,81.509,68.428,81.449,67.809z"/>
		<path fill-rule="evenodd" clip-rule="evenodd" fill="#8B9EB6" d="M78.325,35.026c-0.566,0.496-1.2,0.806-1.98,0.71
			c0.061,0.953,0.376,1.814,0.935,2.592c0.27,0.375,0.604,0.482,1.039,0.305c1.038-0.426,1.94-1.022,2.563-1.979
			C79.471,36.946,79.111,36.718,78.325,35.026z"/>
		<path fill-rule="evenodd" clip-rule="evenodd" fill="#F4F4F4" d="M72.531,87.854c-1.401,1.912-3.13,3.443-5.29,4.463
			C66.385,92.721,65.487,93,64.464,93.1c0.415,0.365,0.838,0.484,1.324,0.433c1.933-0.204,3.545-1.115,4.984-2.335
			c0.843-0.715,1.576-1.555,2.184-2.488C73.027,88.319,73.114,87.921,72.531,87.854z"/>
		<path fill-rule="evenodd" clip-rule="evenodd" fill="#385357" d="M36.727,47.768c0.32,0.373,0.991,0.265,1.164,0.84
			c1.806,0.438,3.559,1.09,5.517,1.341c-0.547-0.542-0.91-1.126-1.358-1.618c-0.423-0.465-1.163-0.46-1.725-0.75
			c-0.797-0.413-1.608-0.422-2.445-0.126C37.504,47.586,37.111,47.664,36.727,47.768z"/>
		<path fill-rule="evenodd" clip-rule="evenodd" fill="#A4A3A9" d="M37.037,53.246c0.295-0.243,0.457,0.012,0.656,0.164
			c2.573,1.963,5.52,2.967,8.705,3.365c0.283-0.417,0.033-0.521-0.332-0.578c-1.237-0.194-2.439-0.502-3.602-0.981
			c-1.482-0.61-2.802-1.443-3.907-2.604c-0.113-0.119-0.229-0.24-0.363-0.334c-0.547-0.385-0.757-0.319-0.968,0.299
			C37.152,52.795,37.1,53.022,37.037,53.246z"/>
		<path fill-rule="evenodd" clip-rule="evenodd" fill="#5E6B5A" d="M72.197,46.729c-0.083,0.038-0.194,0.056-0.246,0.12
			c-0.197,0.247-0.226,2.241-0.053,2.494c0.704,1.03,1.379,2.075,1.753,3.278c0.054,0.176,0.124,0.322,0.343,0.229
			c0.584-0.248,1.177-0.457,1.818-0.516c0.081-0.007,0.043-0.158-0.028-0.232c-0.46,0.001-0.704-0.25-0.88-0.658
			C74.18,49.771,73.127,48.284,72.197,46.729z"/>
		<path fill-rule="evenodd" clip-rule="evenodd" fill="#7E897E" d="M76.891,66.219c0.316,1.115-0.09,2.045-0.715,2.943
			c-0.747,1.073-0.967,2.336-1.094,3.593c-0.087,0.863,0.588,0.351,0.948,0.39c0.916-2.354,1.36-4.813,1.668-7.303
			c0.022-0.179,0.076-0.398-0.186-0.461c-0.251-0.061-0.408,0.064-0.479,0.299C76.979,65.857,76.938,66.039,76.891,66.219z"/>
		<path fill-rule="evenodd" clip-rule="evenodd" fill="#B0D7E1" d="M46.986,56.926c-0.457,1.805-0.666,3.646-0.732,5.498
			c-0.054,1.5-0.011,3.002-0.012,4.504c0,0.313-0.019,0.635,0.45,0.607c0.457-0.025,0.266-0.374,0.255-0.571
			c-0.175-3.271,0.04-6.515,0.615-9.738C47.6,56.688,47.317,56.76,46.986,56.926z"/>
		<path fill-rule="evenodd" clip-rule="evenodd" fill="#377FA6" d="M74.344,59.031c0.753-0.225,0.994,0.123,1.073,0.834
			c0.148,1.346,0.147,2.674-0.164,3.994c-0.053,0.227-0.11,0.46-0.365,0.561c0.399,0.422,0.799,0.842,1.281,1.35
			c0.567-1.518,0.542-2.936,0.39-4.361c-0.085-0.799-0.4-1.538-0.658-2.293c-0.181-0.533-0.445-0.655-0.928-0.382
			C74.772,58.848,74.554,58.934,74.344,59.031z"/>
		<path fill-rule="evenodd" clip-rule="evenodd" fill="#A7A8B4" d="M77.197,49.688c-0.259-2.033-1.165-3.651-3.021-4.659
			c-0.986,0.768-0.903,0.719-0.301,1.726C74.683,48.104,76.147,48.649,77.197,49.688z"/>
		<path fill-rule="evenodd" clip-rule="evenodd" fill="#5E6961" d="M72.315,79.521c1.095-0.846,1.628-1.892,2.204-2.904
			c0.219-0.387,0.643-0.846,0.559-1.162c-0.095-0.361-0.785-0.208-1.164-0.411c-0.583-0.312-0.956-0.193-1.169,0.442
			c-0.058,0.174-0.173,0.339-0.297,0.475c-0.38,0.418-0.429,0.816-0.09,1.305c0.208,0.299,0.303,0.675,0.189,1.072
			C72.454,78.67,72.412,79.016,72.315,79.521z"/>
		<path fill-rule="evenodd" clip-rule="evenodd" fill="#B1A582" d="M49.092,82.916c0.254,0.084,0.507,0.172,0.763,0.251
			c0.287,0.089,0.311-0.05,0.226-0.271c-0.793-0.573-1.015-1.526-1.534-2.282c-1.342-0.357-2.681-0.721-3.891-1.432
			c-0.392,0.352-0.305,0.646,0.054,0.986C45.99,81.375,47.481,82.238,49.092,82.916z"/>
		<path fill-rule="evenodd" clip-rule="evenodd" fill="#35769C" d="M73.912,66.676c0.106,0.528-0.241,0.899-0.506,1.264
			c-0.648,0.891-1.354,1.738-2.462,2.105c0.217,0.242,0.431,0.488,0.653,0.727c0.603,0.65,0.683,0.676,1.334,0.043
			c0.553-0.537,1.063-1.121,1.55-1.719c0.592-0.729,0.579-0.957,0.012-1.731C74.317,67.123,74.107,66.904,73.912,66.676z"/>
		<path fill-rule="evenodd" clip-rule="evenodd" fill="#F0F0F0" d="M47.099,89.379c-1.432,0.979-2.968,1.734-4.672,2.123
			c-0.803,0.332-1.647,0.439-2.579,0.441c0.341,0.59,0.842,0.681,1.392,0.643c2.289-0.162,4.331-0.977,6.159-2.343
			C47.556,89.866,47.659,89.509,47.099,89.379z"/>
		<path fill-rule="evenodd" clip-rule="evenodd" fill="#A8A9B8" d="M73.197,89.236c0.492-0.166,0.606,0.256,0.761,0.529
			c0.583,1.024,0.976,2.113,0.974,3.312c0.523-1.679,0.585-3.406,0.516-5.142c-0.02-0.517-0.462-0.791-0.821-1.082
			c-0.202-0.163-0.274,0.025-0.332,0.191C74.027,87.823,73.576,88.512,73.197,89.236z"/>
		<path fill-rule="evenodd" clip-rule="evenodd" fill="#4D91B1" d="M57.163,80.605c-0.667,0.877-0.856,1.816-0.421,2.947
			c0.657-2.998,2.804-4.468,5.267-5.607c0.843-0.392,1.759-0.629,2.642-0.936c-0.22-0.756-0.662-0.967-1.415-0.686
			c-0.655,0.244-1.374,0.326-1.952,0.767c0.07,0.126,0.49,0.149,0.102,0.409c-0.369,0.248-0.74,0.498-1.124,0.715
			c-1.118,0.633-2.017,1.512-2.861,2.448C57.186,80.9,57.249,80.574,57.163,80.605z"/>
		<path fill-rule="evenodd" clip-rule="evenodd" fill="#8093A7" d="M70.809,47.318c0.249,0.398-0.178,0.492-0.344,0.609
			c-0.623,0.44-1.288,0.821-1.937,1.225c-0.115,0.221,0.176,0.531-0.136,0.697c-0.336,0.18-0.483-0.192-0.729-0.282
			c-1.124,1.146-2.666,1.556-4.034,2.272c-0.427,0.225-0.947,0.246-1.312,0.604c2.836-0.641,5.614-1.411,8.03-3.139
			c0.719-0.515,0.742-1.193,0.723-1.926C71.065,47.163,70.937,47.168,70.809,47.318z"/>
		<path fill-rule="evenodd" clip-rule="evenodd" fill="#5794AD" d="M22.815,48.572c-0.547-0.245-0.76-0.705-0.822-1.263
			c-0.129,0.056-0.256,0.153-0.387,0.158c-0.972,0.032-1.783,0.212-1.876,1.432c-0.023,0.304-0.51,0.374-0.759,0.587
			c0.979,0.902,2.153,0.902,3.068-0.012C22.319,49.194,22.558,48.874,22.815,48.572z"/>
		<path fill-rule="evenodd" clip-rule="evenodd" fill="#B8AC82" d="M36.772,71.142c0.515-0.009,0.769,0.19,1.09,0.677
			c0.746,1.13,1.961,1.613,3.512,0.684c0.721-0.432,1.167-0.391,1.686,0.221c0.6,0.706,1.513,0.326,2.259,0.551
			c0.282,0.084,0.608,0.023,0.914,0.027c0.072-0.496-0.182-0.654-0.645-0.685c-0.541-0.035-1.079-0.126-1.615-0.212
			c-0.253-0.041-0.552-0.066-0.669-0.335c-0.171-0.39-0.483-0.421-0.849-0.494c-0.531-0.106-0.892-0.009-1.324,0.357
			c-0.988,0.841-2.374,0.564-3.024-0.588c-0.257-0.456-0.58-0.647-1.045-0.704c-0.146-0.018-0.349-0.139-0.433,0.073
			C36.569,70.863,36.597,71.041,36.772,71.142z"/>
		<path fill-rule="evenodd" clip-rule="evenodd" fill="#A5A4AC" d="M39.33,78.486c-0.09,0.285,0.121,0.402,0.285,0.575
			c1.395,1.466,2.93,2.758,4.633,3.858c0.655,0.423,0.802,0.975,0.586,1.797c0.847-0.133,1.695-0.262,2.541-0.404
			c0.216-0.037,0.484-0.004,0.582-0.289c-1.919-0.568-3.598-1.592-5.18-2.773C41.597,80.369,40.477,79.41,39.33,78.486z"/>
		<path fill-rule="evenodd" clip-rule="evenodd" fill="#231A1C" d="M80.44,54.517c0,0.395,0,0.789,0,1.194
			c-0.22-0.031-0.111-0.299-0.268-0.367c-0.004,0.391-0.017,0.773-0.577,0.725c0.392,0.715,0.317,1.54,0.554,2.291
			c0.01-0.134,0.013-0.27,0.031-0.402c0.022-0.166,0.113-0.326,0.267-0.359c0.21-0.045,0.11,0.268,0.278,0.307
			c-0.031-0.496,0.334-0.005,0.436-0.173c0.036-0.554,0.535-0.389,0.835-0.532c0.318-0.323,0.185-0.659,0.028-0.996
			c-0.093-1.55-0.187-3.101-0.28-4.65c0.1-0.145,0.097-0.285-0.012-0.423c-0.308,0.136,0.043,0.689-0.453,0.706
			c-0.298,0.398-0.186,0.861-0.179,1.297c0.019,1.078,0.172,2.149,0.167,3.098c-0.129-0.484,0.037-1.121-0.094-1.738
			c-0.045-0.214,0.045-0.495-0.277-0.579C80.782,54.144,81.093,54.689,80.44,54.517z"/>
		<path fill-rule="evenodd" clip-rule="evenodd" fill="#A1A5AD" d="M81.16,57.731c-0.183-0.036-0.476-0.346-0.436,0.173
			c0.219,0.816,0.306,1.648,0.313,2.492c0.013,1.525,0.116,3.053-0.102,4.57c-0.158,1.106-0.13,1.139,0.959,0.729
			c-0.451,0.021-0.485-0.261-0.438-0.6c0.27-1.943-0.007-3.877-0.113-5.813c-0.009-0.164-0.045-0.439,0.158-0.352
			c0.742,0.324,1.368-0.285,2.067-0.182c0.028-0.926,0.03-0.912-0.9-0.775C82.148,58.053,81.601,58.189,81.16,57.731z"/>
		<path fill-rule="evenodd" clip-rule="evenodd" fill="#96CCDF" d="M47.842,95.041c-1.167,1.001-2.4,1.901-3.834,2.492
			c-0.85,0.352-1.734,0.579-2.77,0.596c0.6,0.514,1.191,0.62,1.842,0.508c2.029-0.348,3.658-1.438,5.16-2.762
			C48.473,95.211,48.417,95.095,47.842,95.041z"/>
		<path fill-rule="evenodd" clip-rule="evenodd" fill="#929E90" d="M78.767,55.665c0.54,0.006,0.743-0.159,0.556-0.757
			c-0.699-2.234-1.942-4.086-3.763-5.563c0.163,0.642,0.426,1.23,0.76,1.79c0.707,1.214,1.203,2.519,1.676,3.833
			C78.127,55.332,78.195,55.779,78.767,55.665z"/>
		<path fill-rule="evenodd" clip-rule="evenodd" fill="#C6B488" d="M73.541,71.342c-0.657,0.424-1.149,0.737-1.637,1.057
			c-0.201,0.131-0.334,0.299-0.4,0.549c-0.211,0.793-0.479,1.57-0.896,2.279c-0.303,0.516,0.192,0.518,0.403,0.689
			c0.248,0.203,0.514,0.346,0.74-0.059C72.517,74.486,73.144,73.061,73.541,71.342z"/>
		<path fill-rule="evenodd" clip-rule="evenodd" fill="#F9EBB4" d="M44.657,79.182c0.012,0.256,0.21,0.353,0.401,0.44
			c1.042,0.48,2.12,0.864,3.249,1.089c0.071,0.014,0.161-0.063,0.242-0.098c-0.332-0.771-0.666-1.541-0.992-2.314
			c-0.079-0.187-0.156-0.338-0.406-0.281C46.233,78.227,45.3,78.395,44.657,79.182z"/>
		<path fill-rule="evenodd" clip-rule="evenodd" fill="#8F9E8D" d="M76.893,59.322c0.253,0.879,0.493,1.76,0.583,2.674
			c0.089,0.085,0.178,0.085,0.266-0.002c0-0.093-0.001-0.186-0.002-0.277c-0.154-0.523,0.023-1.066-0.102-1.592
			c-0.114-2.293-0.676-4.498-1.293-6.695c-0.169-0.602-0.605-0.459-1.008-0.473c-0.238,0.32-0.062,0.633,0.046,0.928
			c0.603,1.667,0.974,3.399,1.481,5.093C76.897,59.09,76.854,59.21,76.893,59.322z"/>
		<path fill-rule="evenodd" clip-rule="evenodd" fill="#77BADF" d="M42.287,78.934c-1.35-1.312-2.705-2.619-4.166-3.811
			c-0.202-0.164-0.448-0.578-0.76-0.275c-0.349,0.338-0.113,0.721,0.185,0.979c1.478,1.277,2.833,2.696,4.426,3.844
			C42.395,79.559,42.302,79.23,42.287,78.934z"/>
		<path fill-rule="evenodd" clip-rule="evenodd" fill="#636D61" d="M76.893,59.322c0.207-0.617-0.107-1.184-0.244-1.742
			c-0.381-1.555-0.868-3.084-1.313-4.623c-0.093,0.008-0.19,0-0.278,0.025c-1.085,0.311-1.208,0.52-0.717,1.52
			c0.371,0.754,0.816,1.473,1.259,2.188C76.12,57.526,76.432,58.46,76.893,59.322z"/>
		<path fill-rule="evenodd" clip-rule="evenodd" fill="#ECF1F2" d="M23.703,49.719c1.476-1.547,1.999-3.449,2.099-5.518
			c0.021-0.447-0.291-0.503-0.587-0.528c-0.36-0.032-0.229,0.29-0.239,0.459c-0.112,1.814-0.823,3.397-1.862,4.857
			C23.032,49.455,23.215,49.709,23.703,49.719z"/>
		<path fill-rule="evenodd" clip-rule="evenodd" fill="#A7D1DF" d="M49.821,80.471c-0.476-1.103-0.915-2.219-1.269-3.367
			c-0.484-1.028-0.708-2.127-0.879-3.238c-0.023-0.153,0.051-0.334-0.125-0.445c-0.478-0.246-0.507-0.246-0.735,0.021
			c0.444,2.519,1.177,4.942,2.401,7.204c0.144,0.157,0.299,0.298,0.527,0.174C49.884,80.742,49.892,80.609,49.821,80.471z"/>
		<path fill-rule="evenodd" clip-rule="evenodd" fill="#8D9C90" d="M72.197,46.729c-0.028,0.668,0.455,1.115,0.775,1.604
			c0.743,1.136,1.39,2.315,1.937,3.551c0.216,0.487,0.506,0.458,0.875,0.218c-0.639-1.893-1.583-3.629-2.697-5.283
			C72.801,46.393,72.545,46.268,72.197,46.729z"/>
		<path fill-rule="evenodd" clip-rule="evenodd" fill="#608F9E" d="M70.112,71.856c-0.33,1.077-0.689,2.142-1.235,3.134
			c-0.409,0.745-0.669,0.846-1.483,0.562c-0.159,0.503-0.102,0.954,0.414,1.2c0.522,0.25,0.933-0.037,1.222-0.43
			c0.754-1.024,1.371-2.121,1.722-3.361C70.933,72.321,70.43,72.163,70.112,71.856z"/>
		<path fill-rule="evenodd" clip-rule="evenodd" fill="#EFF1F2" d="M70.501,70.351c-1.307-1.248-2.773-2.233-4.543-2.714
			c-0.158-0.044-0.32-0.081-0.483-0.1c-0.198-0.023-0.417-0.113-0.486,0.219c-0.063,0.301,0.054,0.412,0.321,0.502
			c1.783,0.599,3.36,1.553,4.772,2.784C70.647,71.066,70.686,70.775,70.501,70.351z"/>
		<path fill-rule="evenodd" clip-rule="evenodd" fill="#5AB3D8" d="M63.423,58.469c0.215-0.896,0.183-1.838,0.549-2.714
			c0.326-0.776,0.703-1.519,1.148-2.231c-0.056-0.381-0.327-0.264-0.519-0.187c-0.566,0.228-1.154,0.438-1.449,1.042
			c-0.28,0.621-0.435,1.271-0.454,1.951c-0.084,0.48-0.094,0.961,0.005,1.441l-0.001-0.004c0.135,0.131,0.064,0.301,0.086,0.453
			C62.851,58.679,63.109,58.646,63.423,58.469z"/>
		<path fill-rule="evenodd" clip-rule="evenodd" fill="#447FA2" d="M34.996,58.543c0.179-0.964,0.341-1.932,0.542-2.89
			c0.256-1.222,0.674-2.394,1.196-3.528c0.091-0.197,0.206-0.396-0.084-0.528c-0.219-0.099-0.438-0.199-0.601,0.101
			c-1.172,2.143-1.59,4.412-1.249,6.813C34.866,58.521,34.931,58.531,34.996,58.543z"/>
		<path fill-rule="evenodd" clip-rule="evenodd" fill="#88C4D4" d="M75.228,94.064c-0.519,1.17-1.142,2.26-2.123,3.131
			c-1.227,1.086-2.453,1.624-4.088,1.693c0.369,0.314,0.806,0.441,1.441,0.31c2.538-0.529,4.246-2.036,5.181-4.43
			C75.614,94.469,75.724,94.092,75.228,94.064z"/>
		<path fill-rule="evenodd" clip-rule="evenodd" fill="#3677A5" d="M70.779,84.992c0.842,0.59,1.186,1.472,1.436,2.41
			c0.433-0.584,0.784-1.211,1.037-1.893c0.091-0.244,0.176-0.504,0.084-0.751c-0.18-0.481-0.393-1.042-0.858-1.222
			c-0.314-0.121-0.515,0.453-0.799,0.682C71.371,84.467,71.079,84.733,70.779,84.992z"/>
		<path fill-rule="evenodd" clip-rule="evenodd" fill="#C1EAEE" d="M17.053,39.962c-0.218,0.451,0.245,0.412,0.415,0.492
			c1.099,0.52,2.248,0.933,3.283,1.582c0.893,0.561,1.79,1.114,2.681,1.677c0.318,0.201,0.624,0.425,1.03,0.386
			c0.26-0.435,0.042-0.686-0.333-0.894C21.854,41.943,19.586,40.667,17.053,39.962z"/>
		<path fill-rule="evenodd" clip-rule="evenodd" fill="#5B665C" d="M79.622,65.553c-0.3,0.018-0.742,0.187-0.57-0.402
			c0.317-1.08,0.031-2.151-0.065-3.209c-0.15-1.63-0.269-3.261-0.375-4.893c-0.015-0.236-0.01-0.47-0.137-0.681
			c-0.487-0.038-0.581,0.139-0.49,0.63c0.416,2.26,0.687,4.539,0.602,6.844c-0.019,0.514-0.06,1.029-0.134,1.538
			c-0.1,0.686,0.204,0.69,0.701,0.466C79.325,65.768,79.508,65.719,79.622,65.553z"/>
		<path fill-rule="evenodd" clip-rule="evenodd" fill="#568DAC" d="M47.842,95.041c0.573,0.07,0.36,0.512,0.397,0.834
			c1.189-0.928,2.311-1.928,3.196-3.156c0.336-0.466,0.649-0.979,0.212-1.662C50.493,92.548,49.315,93.938,47.842,95.041z"/>
		<path fill-rule="evenodd" clip-rule="evenodd" fill="#5E96AE" d="M64.292,67.564c-2.23,0.457-4.349,0.77-6.492,0.914
			c-0.135,0.009-0.371-0.094-0.375,0.175c-0.002,0.144,0.094,0.267,0.265,0.276c2.216,0.131,4.443,0.322,6.384-1.111
			C64.126,67.779,64.162,67.717,64.292,67.564z"/>
		<path fill-rule="evenodd" clip-rule="evenodd" fill="#A1D0E1" d="M52.497,71.177c-0.16-0.851-0.346-1.698,0.214-2.495
			c0.81-1.153,2.112-1.326,3.18-0.408c0.321,0.276,0.321,0.276,0.712,0.342c-0.26-0.746-0.996-1.318-1.81-1.41
			c-1.1-0.123-2.022,0.174-2.617,1.155c-0.653,1.077-0.604,2.158,0.069,3.217C52.549,71.58,52.627,71.443,52.497,71.177z"/>
		<path fill-rule="evenodd" clip-rule="evenodd" fill="#F0F1F3" d="M81.449,67.809c-0.358,0.648-0.371,1.391-0.56,2.086
			c-0.085,0.313,0.03,0.473,0.424,0.375c0.416-0.102,0.713-0.461,1.156-0.473c0.354-0.806,0.552-1.649,0.677-2.514
			C82.554,67.466,82.001,67.637,81.449,67.809z"/>
		<path fill-rule="evenodd" clip-rule="evenodd" fill="#9BDBEB" d="M26.28,44.922c1.178,0.527,2.37,1.015,3.511,1.635
			c0.777,0.422,0.244-0.461,0.458-0.646c-0.007-0.224-0.17-0.325-0.339-0.408c-1.157-0.563-2.32-1.112-3.598-1.548
			C26.228,44.296,26.241,44.607,26.28,44.922z"/>
		<path fill-rule="evenodd" clip-rule="evenodd" fill="#758FA4" d="M49.38,68.917c-0.302,0.692-0.108,1.421-0.148,2.132
			c-0.017,0.304-0.006,0.551-0.426,0.555c-1.478,0.016-2.948-0.053-4.396-0.363c-0.291-0.063-0.558-0.232-0.837-0.352
			c-0.021,0.7,0.345,0.938,1.021,1.016c1.425,0.165,2.852,0.244,4.283,0.299c0.553,0.021,0.725-0.171,0.588-0.703
			C49.248,70.648,49.437,69.777,49.38,68.917z"/>
		<path fill-rule="evenodd" clip-rule="evenodd" fill="#60A0AD" d="M20.58,43.769c-1.516-1.054-3.139-1.965-4.442-3.305
			c-0.117-0.12-0.244-0.211-0.27-0.386c-0.251,0.38,0.009,0.671,0.194,0.951c0.542,0.817,1.278,1.438,2.087,1.981
			c0.157,0.104,0.343,0.192,0.453,0.336C19.146,44.057,19.825,44.073,20.58,43.769z"/>
		<path fill-rule="evenodd" clip-rule="evenodd" fill="#ACDCEE" d="M56.323,70.891c0.017-0.141,0.033-0.28,0.053-0.42
			c0.16-1.144,0.16-1.144-0.966-1.389c-0.919-0.2-1.411,0.256-1.34,1.241C54.624,70.976,55.798,71.271,56.323,70.891z"/>
		<path fill-rule="evenodd" clip-rule="evenodd" fill="#9C4B3F" d="M29.678,54.398c-0.346-0.25-0.692-0.5-1.038-0.75
			c-0.635,0.65-1.27,1.301-2.106,1.734c0.948,0.922,1.205,0.938,2.074,0.125C28.983,55.156,29.323,54.77,29.678,54.398z"/>
		<path fill-rule="evenodd" clip-rule="evenodd" fill="#E76744" d="M70.089,83.596c-0.647,0.275-1.292,0.56-1.945,0.822
			c-0.32,0.129-0.464,0.252-0.216,0.602c0.685,0.968,0.326,0.987,1.455,0.398c0.474-0.248,0.945-0.526,1.285-0.963
			C70.722,84.004,70.646,83.64,70.089,83.596z"/>
		<path fill-rule="evenodd" clip-rule="evenodd" fill="#618EA3" d="M75.228,94.064c0.315,0.131,0.227,0.496,0.411,0.704
			c0.868-2.026,1.137-4.096,0.475-6.233C76.042,90.416,75.788,92.264,75.228,94.064z"/>
		<path fill-rule="evenodd" clip-rule="evenodd" fill="#9AD3E2" d="M57.163,80.605c0.118,0.053-0.082,0.596,0.232,0.242
			c1.23-1.391,2.76-2.379,4.293-3.374c0.129-0.083,0.277-0.191,0.254-0.403c-0.223-0.15-0.439,0.127-0.661,0.021
			C59.596,77.898,58.162,79,57.163,80.605z"/>
		<path fill-rule="evenodd" clip-rule="evenodd" fill="#868A9D" d="M70.059,46.438c0.65-0.528,1.329-1.023,1.885-1.658
			c-0.133-0.647-0.675-0.658-1.169-0.744c-0.499,0.38-0.984,0.779-1.502,1.133c-0.345,0.236-0.249,0.371,0.038,0.534
			C69.624,45.881,70.031,45.971,70.059,46.438z"/>
		<path fill-rule="evenodd" clip-rule="evenodd" fill="#151B1F" d="M60.598,88.818c0.045-0.178,0.186-0.174,0.332-0.184
			c2.246-0.164,4.156-1.146,5.941-2.428c0.147-0.105,0.383-0.23,0.245-0.434c-0.152-0.222-0.341-0.013-0.48,0.087
			c-1.857,1.325-3.924,2.133-6.173,2.494C60.446,88.527,60.404,88.707,60.598,88.818z"/>
		<path fill-rule="evenodd" clip-rule="evenodd" fill="#B1D2E1" d="M41.606,70.348c0.445-1.256,0.224-2.409-0.634-3.405
			c-0.906-1.052-2.303-0.776-2.772,0.399c0.595-0.266,1.117-0.746,1.783-0.379c0.661,0.363,1.046,0.928,1.185,1.664
			c0.086,0.475,0.097,0.95-0.007,1.425c-0.019,0.036-0.027,0.075-0.026,0.116c-0.073,0.133-0.069,0.258,0.074,0.33
			C41.386,70.588,41.488,70.436,41.606,70.348z"/>
		<path fill-rule="evenodd" clip-rule="evenodd" fill="#EAF2F2" d="M43.548,69.899c0.32-0.112,0.288-0.392,0.312-0.646
			c0.053-0.586,0.327-0.847,0.959-0.762c1.186,0.159,2.377,0.289,3.57,0.381c0.305,0.023,0.921,0.26,0.718-0.514
			c-1.573-0.133-3.147-0.263-4.72-0.402c-0.441-0.039-0.69-0.04-0.755,0.574C43.585,68.987,43.54,69.44,43.548,69.899z"/>
		<path fill-rule="evenodd" clip-rule="evenodd" fill="#5A92A0" d="M16.476,46.574c-0.301,0.682-0.151,1.292,0.439,1.789
			c0.571,0.48,1.496,0.65,1.967,0.363c0.266-0.162,0.422-0.416,0.361-0.701c-0.058-0.272-0.35-0.15-0.542-0.166
			C17.923,47.796,17.687,47.666,16.476,46.574z"/>
		<path fill-rule="evenodd" clip-rule="evenodd" fill="#525C53" d="M69.939,50.678c1.009,0.693,1.87,1.42,2.783,2.103
			c-0.223-1.056-0.644-1.991-1.32-2.809c-0.171-0.206-0.311-0.208-0.516-0.021C70.613,50.201,70.298,50.406,69.939,50.678z"/>
		<path fill-rule="evenodd" clip-rule="evenodd" fill="#69A7B6" d="M16.898,45.757c0.318,0.954,0.954,1.396,1.994,1.335
			c-0.564-0.784-0.839-1.592-0.27-2.467c0.105-0.162,0.038-0.282-0.102-0.338c-0.336-0.134-0.46-0.649-0.94-0.513
			C17.919,44.628,17.277,45.147,16.898,45.757z"/>
		<path fill-rule="evenodd" clip-rule="evenodd" fill="#A2CEE1" d="M39.583,69.479c0.111-0.473,0.159-0.986-0.318-1.246
			c-0.503-0.276-1.07-0.553-1.671-0.174c-0.107,0.197-0.083,0.416-0.052,0.614c0.06,0.377-0.262,0.913,0.306,1.093
			C38.448,69.957,39.09,70.074,39.583,69.479z"/>
		<path fill-rule="evenodd" clip-rule="evenodd" fill="#3699B6" d="M73.238,54.935c-0.915,0.21-1.739,0.654-2.521,1.172
			c-0.31,0.204,0.065,0.341,0.137,0.499c0.12,0.265,0.289,0.406,0.599,0.196c0.625-0.424,1.33-0.684,2.035-0.944
			c0.174-0.064,0.585-0.002,0.449-0.355C73.834,55.238,73.726,54.823,73.238,54.935z"/>
		<path fill-rule="evenodd" clip-rule="evenodd" fill="#4F8CB4" d="M42.287,78.934c-0.254,0.182-0.098,0.537-0.315,0.736
			c1.067,1.052,2.318,1.859,3.573,2.66c0.246,0.035,0.355-0.064,0.315-0.314C44.668,80.988,43.478,79.961,42.287,78.934z"/>
		<path fill-rule="evenodd" clip-rule="evenodd" fill="#A8ADBA" d="M70.774,44.035c0.334,0.335,0.922,0.274,1.169,0.744
			c0.561-0.586,1.122-1.171,1.703-1.778c-0.306-0.218-0.682-0.217-1.067-0.151c-0.222,0.038-0.448,0.177-0.646-0.054
			C71.547,43.209,71.161,43.622,70.774,44.035z"/>
		<path fill-rule="evenodd" clip-rule="evenodd" fill="#7AABC4" d="M54.646,71.765c-0.952-0.634-1.382-1.321-1.035-2.302
			c0.246-0.695,0.791-0.946,1.66-1.027c-0.763-0.348-1.319-0.237-1.822,0.119c-0.615,0.436-0.832,1.385-0.545,2.173
			C53.194,71.529,53.577,71.791,54.646,71.765z"/>
		<path fill-rule="evenodd" clip-rule="evenodd" fill="#538E99" d="M66.987,75c-0.253-0.028-0.44,0.139-0.654,0.223
			c-0.83,0.328-1.385-0.008-1.505-0.917c-0.016-0.119-0.031-0.229-0.135-0.307c0.011,0.648-0.121,1.316,0.193,1.928
			c0.209,0.409,0.407,0.921,0.993,0.823c0.57-0.094,0.873-0.514,0.923-1.088C66.823,75.427,66.85,75.199,66.987,75z"/>
		<path fill-rule="evenodd" clip-rule="evenodd" fill="#89D5E7" d="M65.834,67.102c0.261-0.25,0.135-0.57,0.145-0.859
			c0.023-0.668,0.276-1.26,0.57-1.841c0.09-0.177,0.294-0.318,0.158-0.558c-0.532-0.104-0.856,0.131-1.017,0.623
			c-0.188,0.577-0.401,1.148-0.548,1.735C64.938,67.021,64.962,67.029,65.834,67.102z"/>
		<path fill-rule="evenodd" clip-rule="evenodd" fill="#3D85A7" d="M65.43,59.75c-0.515-0.036-1.252-0.968-1.296-1.657
			c-0.019-0.304-0.009-0.608-0.012-0.912c-0.42,1.728-0.1,3.291,1.084,4.802C65.28,61.153,65.154,60.428,65.43,59.75z"/>
		<path fill-rule="evenodd" clip-rule="evenodd" fill="#AEA8B5" d="M47.099,89.379c0.302,0.219,0.301,0.541,0.3,0.864
			c0.982-0.626,1.809-1.404,2.408-2.409c-0.036-0.177,0.027-0.424-0.179-0.496c-0.182-0.065-0.256,0.164-0.351,0.279
			C48.672,88.355,47.854,88.828,47.099,89.379z"/>
		<path fill-rule="evenodd" clip-rule="evenodd" fill="#499AB9" d="M74.106,56.081c-0.926,0.236-1.762,0.661-2.543,1.198
			c-0.185,0.127-0.131,0.273-0.026,0.424c0.116,0.164,0.26,0.315,0.466,0.179c0.753-0.503,1.589-0.816,2.443-1.093
			c0.157-0.051,0.263-0.148,0.167-0.308C74.498,56.291,74.423,56.025,74.106,56.081z"/>
		<path fill-rule="evenodd" clip-rule="evenodd" fill="#B5DBE6" d="M75.73,39.941c0.297,0.22,0.03,0.409-0.04,0.601
			c-0.173,0.472-0.343,0.947-0.55,1.404c-0.123,0.271,0.129,0.365,0.188,0.547c0.85-0.827,1.351-1.892,2.123-2.954
			C76.774,39.716,76.226,39.698,75.73,39.941z"/>
		<path fill-rule="evenodd" clip-rule="evenodd" fill="#4094AE" d="M69.966,55.299c-0.021,0.304,0.387,0.525,0.693,0.354
			c0.676-0.38,1.337-0.785,2.074-1.047c0.139-0.049,0.376-0.07,0.313-0.298c-0.058-0.206-0.213-0.354-0.456-0.386
			c-0.396-0.049-2.381,0.916-2.56,1.254C70.008,55.217,69.987,55.258,69.966,55.299z"/>
		<path fill-rule="evenodd" clip-rule="evenodd" fill="#6B7369" d="M78.767,55.665c-0.404-0.062-0.491-0.371-0.586-0.7
			c-0.353-1.218-0.932-2.344-1.464-3.488c-0.078-0.168-0.153-0.355-0.396-0.341c0.413,1.489,1.033,2.911,1.4,4.417
			C77.917,56.355,78.412,55.646,78.767,55.665z"/>
		<path fill-rule="evenodd" clip-rule="evenodd" fill="#477A94" d="M69.211,77.015c0.977,0.329,1.776,0.745,2.482,1.362
			c0.229-0.846-0.695-2.13-1.494-2.103C69.76,76.289,69.612,76.754,69.211,77.015z"/>
		<path fill-rule="evenodd" clip-rule="evenodd" fill="#993D30" d="M74.748,65c-0.068,0.467-0.079,0.969-0.689,1.098
			c0.328,0.418,0.681,0.819,0.978,1.258c0.257,0.379,0.356,0.271,0.562-0.051c0.388-0.607,0.33-1.125-0.172-1.62
			C75.198,65.459,74.974,65.229,74.748,65z"/>
		<path fill-rule="evenodd" clip-rule="evenodd" fill="#397591" d="M63.153,54.379c0.42-0.414,0.958-0.637,1.479-0.885
			c0.167-0.08,0.338-0.188,0.488,0.029c0.406-0.572,0.967-0.99,1.643-1.561c-1.049,0.32-1.953,0.501-2.766,0.877
			C63.437,53.101,63.343,53.812,63.153,54.379z"/>
		<path fill-rule="evenodd" clip-rule="evenodd" fill="#4B8DAF" d="M83.355,65.716c-0.758,0.271-1.457,0.547-2.174,0.765
			c-0.388,0.117-0.506,0.377-0.412,0.684c0.111,0.359,0.427,0.141,0.651,0.098c0.484-0.096,0.96-0.227,1.41-0.443
			C83.289,66.6,83.527,66.278,83.355,65.716z"/>
		<path fill-rule="evenodd" clip-rule="evenodd" fill="#7798AC" d="M49.821,80.471c-0.08,0.48-0.363,0.26-0.607,0.175
			c0.25,0.739,0.8,1.304,1.153,1.983c0.498,0.32,0.716,1.082,1.62,0.949C51.174,82.547,50.385,81.582,49.821,80.471z"/>
		<path fill-rule="evenodd" clip-rule="evenodd" fill="#BEC2C7" d="M80.894,53.913c0.21,1.063,0.009,2.183,0.458,3.222
			c0.195-1.771-0.154-3.533-0.075-5.299c-0.171-0.111,0.091-0.638-0.415-0.428c-0.101,0.563-0.087,1.129-0.007,1.693
			C80.869,53.372,80.881,53.643,80.894,53.913z"/>
		<path fill-rule="evenodd" clip-rule="evenodd" fill="#80BDD6" d="M51.24,70.875c-0.018-0.436-0.118-0.887-0.037-1.303
			c0.128-0.661-0.154-0.752-0.688-0.646c-0.441,0.463-0.598,1.712-0.278,2.197c0.192,0.292,0.469,0.379,0.791,0.302
			C51.342,71.35,51.321,71.117,51.24,70.875z"/>
		<path fill-rule="evenodd" clip-rule="evenodd" fill="#92AFBC" d="M39.251,67.44c1.356,0.985,1.286,2.132,0.069,3.197
			c0.401,0.248,0.709,0.157,0.989-0.167c0.509-0.59,0.594-1.75,0.177-2.464C40.161,67.447,39.827,67.295,39.251,67.44z"/>
		<path fill-rule="evenodd" clip-rule="evenodd" fill="#6C8CA3" d="M52.497,71.177c-0.034,0.165-0.06,0.333-0.251,0.4
			c0.735,1.448,2.583,1.769,3.709,0.513C54.57,72.545,53.316,72.57,52.497,71.177z"/>
		<path fill-rule="evenodd" clip-rule="evenodd" fill="#A7D6E6" d="M58.3,70.604c-0.094-0.352,0.405-0.893-0.372-1.031
			c-0.96-0.173-0.987-0.166-1.051,1.016c-0.156,0.443,0.089,0.6,0.475,0.636C57.83,71.27,58.256,71.223,58.3,70.604z"/>
		<path fill-rule="evenodd" clip-rule="evenodd" fill="#B04B37" d="M82.023,56.203c-0.01,0.332-0.019,0.664-0.028,0.996
			c0.692,0.273,1.325,0.009,1.95-0.236c0.167-0.066,0.304-0.234,0.304-0.445c0-0.863,0.125-1.73-0.095-2.586
			c-0.01,0.654-0.032,1.308-0.025,1.961c0.004,0.405-0.144,0.627-0.573,0.6C83.033,56.459,82.464,56.664,82.023,56.203z"/>
		<path fill-rule="evenodd" clip-rule="evenodd" fill="#57929D" d="M64.31,74.023c-1.008,0.541-1.424,0.383-1.458-0.557
			c-0.005-0.161-0.015-0.322-0.023-0.484c-0.257,0.632-0.191,1.289-0.086,1.929c0.063,0.376,0.32,0.731,0.745,0.733
			c0.419,0.002,0.555-0.372,0.634-0.73C64.187,74.617,64.247,74.32,64.31,74.023z"/>
		<path fill-rule="evenodd" clip-rule="evenodd" fill="#9899A5" d="M23.703,49.719c-0.244-0.205-0.557-0.355-0.589-0.729
			c-0.371,0.482-0.813,0.894-1.29,1.267c-0.213,0.167-0.342,0.297-0.1,0.553c0.196,0.207,0.338,0.351,0.628,0.119
			C22.824,50.548,23.339,50.219,23.703,49.719z"/>
		<path fill-rule="evenodd" clip-rule="evenodd" fill="#A74738" d="M70.089,83.596c0.393,0.153,0.408,0.559,0.579,0.859
			c0.492-0.33,0.904-0.748,1.323-1.159c0.22-0.216,0.288-0.437,0.083-0.679c-0.229-0.269-0.378,0.035-0.531,0.119
			C71.048,83.005,70.572,83.307,70.089,83.596z"/>
		<path fill-rule="evenodd" clip-rule="evenodd" fill="#9BCFE0" d="M60.173,69.893c-0.328-0.582-0.856-0.18-1.287-0.26
			c-0.137,0.24-0.066,0.501-0.069,0.751c-0.007,0.723,0.133,0.857,0.746,0.862c0.64,0.004,0.713-0.379,0.667-0.875
			C60.215,70.211,60.253,70.045,60.173,69.893z"/>
		<path fill-rule="evenodd" clip-rule="evenodd" fill="#2D576C" d="M66.537,52.811c1.115-0.58,2.283-0.97,3.556-0.982
			c-0.192-0.189-0.482-0.223-0.638-0.506c-0.183-0.331-0.549-0.248-0.813-0.092C67.883,51.678,67.061,52.05,66.537,52.811z"/>
		<path fill-rule="evenodd" clip-rule="evenodd" fill="#6D8FA4" d="M41.606,70.348c-0.204,0.061-0.424,0.168-0.471-0.18
			c-0.253,0.361-0.43,0.779-0.861,0.995c-0.761,0.382-1.292-0.055-1.867-0.463c0.166,0.647,0.617,0.976,1.252,1.056
			C40.508,71.861,41.253,71.306,41.606,70.348z"/>
		<path fill-rule="evenodd" clip-rule="evenodd" fill="#69A4B1" d="M22.301,46.484c-0.376-0.208-0.76-0.152-1.165-0.084
			c-0.699,0.117-1.932-0.252-2.003-1.24c-0.257,0.751-0.052,1.307,0.682,1.556C20.659,47.002,21.517,47.032,22.301,46.484z"/>
		<path fill-rule="evenodd" clip-rule="evenodd" fill="#4E88A3" d="M63.423,58.469c-0.647,0.18-0.48-0.467-0.721-0.701
			c-0.038,1.499,0.441,2.828,1.354,4.019C63.654,60.713,63.456,59.606,63.423,58.469z"/>
		<path fill-rule="evenodd" clip-rule="evenodd" fill="#95C7DA" d="M42.966,69.414c0-0.168-0.003-0.471,0.001-0.774
			c0.004-0.292-0.175-0.339-0.416-0.335c-0.301,0.005-0.262,0.2-0.231,0.387c0.099,0.608,0.081,1.211-0.109,1.799
			c-0.105,0.324,0.067,0.409,0.327,0.471c0.337,0.079,0.333-0.15,0.349-0.363C42.913,70.248,42.934,69.898,42.966,69.414z"/>
		<path fill-rule="evenodd" clip-rule="evenodd" fill="#A69FAD" d="M72.531,87.854c0.316,0.199,0.413,0.506,0.425,0.855
			c0.509-0.682,0.787-1.467,1.016-2.272c0.056-0.194,0.042-0.423-0.126-0.505c-0.271-0.132-0.286,0.178-0.341,0.313
			C73.26,86.832,72.846,87.313,72.531,87.854z"/>
		<path fill-rule="evenodd" clip-rule="evenodd" fill="#61879A" d="M60.173,69.893c-0.004,0.162-0.029,0.328-0.007,0.486
			c0.075,0.534-0.165,0.668-0.676,0.676c-0.523,0.01-0.656-0.193-0.609-0.654c0.025-0.254,0.005-0.512,0.005-0.768
			c-0.328,0.647-0.024,1.359-0.202,2.023c-0.01,0.039,0.064,0.121,0.118,0.155c0.507,0.319,1.45-0.163,1.479-0.763
			C60.3,70.66,60.412,70.259,60.173,69.893z"/>
		<path fill-rule="evenodd" clip-rule="evenodd" fill="#A3D7E6" d="M32.621,46.982c-0.304,0.602-0.211,1.061,0.461,1.34
			c0.299,0.125,0.58,0.294,0.874,0.445c0.195-0.174,0.024-0.411,0.128-0.589C33.791,47.544,33.108,47.382,32.621,46.982z"/>
		<path fill-rule="evenodd" clip-rule="evenodd" fill="#AED7E6" d="M37.016,68.906c0.018-0.186,0.036-0.371,0.053-0.557
			c0.023-0.245,0.291-0.55-0.178-0.669c-0.391-0.099-0.757-0.163-0.857,0.38c-0.092,0.15-0.052,0.318-0.06,0.479
			c-0.013,0.272,0.026,0.528,0.331,0.625C36.6,69.258,36.866,69.229,37.016,68.906z"/>
		<path fill-rule="evenodd" clip-rule="evenodd" fill="#91D0D6" d="M16.898,45.757c1.072-0.86,1.163-1.125,0.683-1.982
			C16.979,44.308,16.453,44.866,16.898,45.757z"/>
		<path fill-rule="evenodd" clip-rule="evenodd" fill="#557990" d="M51.24,70.875c-0.032,0.23-0.032,0.465-0.384,0.447
			c-0.345-0.018-0.519-0.211-0.573-0.506c-0.122-0.65-0.025-1.282,0.232-1.891c-0.412-0.094-0.557,0.116-0.56,0.488
			c-0.004,0.442,0.02,0.887-0.022,1.326c-0.061,0.656,0.183,0.925,0.866,0.898C51.568,71.609,51.569,71.649,51.24,70.875z"/>
		<path fill-rule="evenodd" clip-rule="evenodd" fill="#CCE3E7" d="M62.146,70.634c0.033,0.108,0.119,0.292,0.208,0.166
			c0.683-0.968,1.792-1.409,2.645-2.163c-0.194-0.16-0.421-0.264-0.633-0.084C63.589,69.208,62.679,69.723,62.146,70.634z"/>
		<path fill-rule="evenodd" clip-rule="evenodd" fill="#ACDAE2" d="M61.325,70.633c0.079-0.161,0.165-0.319,0.235-0.484
			c0.091-0.214,0.462-0.398,0.209-0.648c-0.286-0.283-0.673-0.065-0.992,0.013c-0.467,0.116-0.032,0.399-0.056,0.604
			c-0.013,0.113,0.007,0.23,0.013,0.346c0.027,0.038,0.048,0.078,0.061,0.121c0.05,0.176-0.105,0.462,0.216,0.491
			C61.323,71.104,61.124,70.716,61.325,70.633z"/>
		<path fill-rule="evenodd" clip-rule="evenodd" fill="#8FAFCC" d="M81.473,35.616c-0.486-0.049-0.973-0.039-1.462-0.102
			c-0.479-0.061-0.758-0.259-0.985-0.625c0.23,1.117,0.575,1.375,1.689,1.266C80.954,35.956,81.335,35.955,81.473,35.616z"/>
		<path fill-rule="evenodd" clip-rule="evenodd" fill="#7097AE" d="M58.3,70.604c-0.139,0.541-0.573,0.412-0.957,0.438
			c-0.354,0.023-0.448-0.162-0.465-0.453c-0.27,1.044-0.2,1.154,0.796,1.166C58.596,71.766,58.213,71.054,58.3,70.604z"/>
		<path fill-rule="evenodd" clip-rule="evenodd" fill="#B95D45" d="M59.869,89.072c0.06-0.084,0.12-0.167,0.179-0.25
			c-0.184-0.4-0.381-0.793-0.546-1.199c-0.118-0.291-0.322-0.313-0.562-0.222c-0.348,0.132-0.12,0.365-0.031,0.503
			C59.181,88.329,59.226,88.949,59.869,89.072z"/>
		<path fill-rule="evenodd" clip-rule="evenodd" fill="#738F9C" d="M56.323,70.891c-0.835,0.143-1.546-0.205-2.253-0.567
			c0.231,0.555,1.569,1.383,2.049,1.232C56.456,71.449,56.284,71.123,56.323,70.891z"/>
		<path fill-rule="evenodd" clip-rule="evenodd" fill="#9697A6" d="M70.501,70.351c-0.016,0.305-0.004,0.626-0.419,0.691
			c0.287,0.271,0.58,0.536,0.859,0.815c0.153,0.154,0.272,0.217,0.47,0.045c0.208-0.182,0.215-0.329,0.034-0.521
			C71.127,71.041,70.815,70.694,70.501,70.351z"/>
		<path fill-rule="evenodd" clip-rule="evenodd" fill="#D6C0B5" d="M81.73,51.13c0.004,0.142,0.008,0.282,0.012,0.423
			c0.724,0.02,1.437-0.051,2.131-0.268c-0.086-0.399-0.397-0.41-0.704-0.374C82.688,50.969,82.21,51.056,81.73,51.13z"/>
		<path fill-rule="evenodd" clip-rule="evenodd" fill="#7092AB" d="M37.395,67.073c-0.571-0.263-1.144-0.523-1.714-0.788
			c-0.174-0.08-0.353-0.197-0.447,0.09c-0.068,0.209-0.028,0.387,0.208,0.443C36.077,66.972,36.701,67.199,37.395,67.073z"/>
		<path fill-rule="evenodd" clip-rule="evenodd" fill="#658BAA" d="M37.016,68.906c-0.857,0.293-0.983,0.184-0.982-0.846
			c-0.259,0.361-0.122,0.762-0.105,1.146c0.022,0.539,0.396,0.734,0.858,0.692c0.497-0.045,0.18-0.474,0.256-0.72
			C37.067,69.099,37.027,68.998,37.016,68.906z"/>
		<path fill-rule="evenodd" clip-rule="evenodd" fill="#5086A4" d="M62.021,91.215c-0.55-0.426-1.039-0.906-1.459-1.463
			c-0.105-0.139-0.303-0.582-0.561-0.081c0.585,0.647,1.044,1.422,1.865,1.832C61.865,91.379,61.904,91.276,62.021,91.215z"/>
		<path fill-rule="evenodd" clip-rule="evenodd" fill="#757B6E" d="M77.741,61.994c-0.089,0-0.178,0.001-0.266,0.002
			c-0.044,0.788,0.044,1.584-0.134,2.366c-0.031,0.137-0.098,0.376,0.123,0.403c0.257,0.031,0.27-0.218,0.271-0.396
			C77.746,63.578,77.741,62.785,77.741,61.994z"/>
		<path fill-rule="evenodd" clip-rule="evenodd" fill="#718CA2" d="M39.583,69.479c-0.129,0.051-0.255,0.108-0.388,0.15
			c-1.17,0.377-1.643,0.035-1.605-1.156c0.004-0.137,0.002-0.275,0.003-0.414c-0.262,0.482-0.155,0.996-0.1,1.496
			c0.034,0.302,0.22,0.526,0.563,0.5C38.619,70.012,39.309,70.283,39.583,69.479z"/>
		<path fill-rule="evenodd" clip-rule="evenodd" fill="#40657B" d="M45.86,82.016c-0.105,0.105-0.21,0.211-0.315,0.314
			c0.737,0.493,1.61,0.66,2.414,0.995c0.037-0.045,0.072-0.09,0.109-0.135C47.25,82.951,46.615,82.371,45.86,82.016z"/>
		<path fill-rule="evenodd" clip-rule="evenodd" fill="#D9EDF3" d="M35.622,67.924c0.049-0.158,0.279-0.322,0.059-0.478
			c-0.179-0.126-0.406-0.257-0.639-0.188c-0.215,0.064-0.188,0.299-0.189,0.471c-0.002,0.203,0.05,0.406,0.08,0.609
			C35.318,68.572,35.326,68.568,35.622,67.924z"/>
		<path fill-rule="evenodd" clip-rule="evenodd" fill="#6C8287" d="M46.813,73.441c0.241-0.154,0.492,0.064,0.735-0.021
			c-0.007-0.068-0.011-0.137-0.021-0.203c-0.057-0.391-0.308-0.605-0.665-0.463C46.512,72.893,46.721,73.199,46.813,73.441z"/>
		<path fill-rule="evenodd" clip-rule="evenodd" fill="#5D8390" d="M61.325,70.633c-0.208,0.008-0.17,0.242-0.323,0.363
			c-0.097-0.192-0.182-0.363-0.268-0.533c-0.005,0.299-0.014,0.599-0.015,0.898c-0.001,0.16-0.014,0.345,0.229,0.34
			c0.195-0.004,0.287-0.125,0.304-0.311C61.277,71.139,61.301,70.886,61.325,70.633z"/>
		<path fill-rule="evenodd" clip-rule="evenodd" fill="#231A1C" d="M80.449,51.146c-0.35,0.381-0.147,0.841-0.153,1.257
			c-0.009,0.672-0.059,1.354,0.136,2.014C80.438,53.326,80.443,52.236,80.449,51.146z"/>
		<path fill-rule="evenodd" clip-rule="evenodd" fill="#83AABD" d="M35.622,67.924c-0.247,0.11-0.225,0.662-0.689,0.414
			c0.028,0.352,0.172,0.646,0.458,0.958C35.475,68.797,35.548,68.36,35.622,67.924z"/>
		<path fill-rule="evenodd" clip-rule="evenodd" fill="#7E92A2" d="M46.986,56.926c0.247-0.006,0.505-0.031,0.575,0.3
			c0.101-0.24,0.267-0.497,0.064-0.733c-0.083-0.098-0.327-0.154-0.445-0.105C46.968,56.475,46.975,56.717,46.986,56.926z"/>
		<path fill-rule="evenodd" clip-rule="evenodd" fill="#231A1C" d="M80.856,53.102c0.002-0.564,0.005-1.129,0.007-1.693
			C80.632,51.971,80.66,52.536,80.856,53.102z"/>
		<path fill-rule="evenodd" clip-rule="evenodd" fill="#757B6E" d="M77.637,60.125c-0.002,0.533-0.146,1.074,0.102,1.592
			C77.745,61.184,77.824,60.646,77.637,60.125z"/>
		<path fill-rule="evenodd" clip-rule="evenodd" fill="#4E88A3" d="M62.704,57.771c-0.002-0.48-0.003-0.961-0.005-1.441
			C62.551,56.811,62.518,57.291,62.704,57.771z"/>
		<path fill-rule="evenodd" clip-rule="evenodd" fill="#6D8FA4" d="M41.161,70.052c0.238-0.474,0.21-0.949,0.007-1.425
			C41.166,69.102,41.164,69.576,41.161,70.052z"/>
		<path fill-rule="evenodd" clip-rule="evenodd" fill="#B4D08C" d="M47.832,12.32c-1.152-0.018-2.19,0.432-3.232,0.828
			c-2.376,0.903-4.521,2.189-6.352,3.965c-1.334,1.294-2.29,2.852-3.029,4.526c-0.658,1.491-1.172,3.044-1.767,4.563
			c-0.118,0.301-0.109,0.6-0.099,0.9c0.043,1.315-0.205,2.609-0.271,3.916c-0.028,0.548-0.38,0.95-0.566,1.426
			c-0.088,0.224-0.342,0.422-0.165,0.71c0.52,0.229,1.062,0.042,1.593,0.082c0.506,0.039,0.982,0.121,1.382,0.457
			c0.317,0.268,0.437,0.607,0.347,1.009c-0.087,0.389-0.372,0.587-0.74,0.672c-0.938,0.215-1.823,0.147-2.608-0.484
			c-0.215-0.173-0.407-0.401-0.716-0.424c-0.383,0.915-0.388,1.883-0.408,2.851c-0.005,0.242,0.167,0.588-0.264,0.679
			c0.512,1.522,1.661,2.534,2.877,3.467c3.463,2.656,7.459,4.009,11.718,4.747c2.858,0.494,5.742,0.559,8.603,0.357
			c4.337-0.307,8.559-1.198,12.153-3.856c2.483-1.837,4.132-4.296,4.889-7.291c0.168-0.665,0.057-1.401,0.074-2.104
			c-0.115-3.019,0.403-5.926,1.542-8.725c-0.416-0.226-0.53-0.676-0.717-1.044c-1.571-3.099-3.792-5.571-6.721-7.499
			c-3.144-2.069-6.572-3.259-10.244-3.893c-1.869-0.323-3.75-0.28-5.632-0.266c-0.144,0.001-0.284,0.01-0.378,0.142
			c0.122,0.302,0.413,0.264,0.656,0.327c0.658,0.171,0.828,0.561,0.509,1.157c-0.396,0.737-1.94,1.442-2.761,1.26
			c-0.758-0.168-0.972-0.8-0.512-1.45C47.246,12.964,47.726,12.797,47.832,12.32z"/>
		<path fill-rule="evenodd" clip-rule="evenodd" fill="#B2D9EC" d="M72.36,35.598c1.08,0.469,2.168,0.693,3.286,0.117
			c-0.395-3.121-0.142-6.174,0.959-9.141c0.221-0.595,0.479-1.17,0.814-1.71c-0.96-0.867-2.139-0.993-3.358-0.982
			c-0.873,1.365-1.324,2.89-1.617,4.457C71.991,30.75,71.855,33.172,72.36,35.598z"/>
		<path fill-rule="evenodd" clip-rule="evenodd" fill="#E2F5F6" d="M74.061,23.882c0.18,0.406,0.541,0.14,0.784,0.156
			c0.937,0.065,1.729,0.515,2.574,0.826c0.514-0.663,0.973-1.383,1.891-1.661C76.403,21.646,75.47,21.544,74.061,23.882z"/>
		<path fill-rule="evenodd" clip-rule="evenodd" fill="#DCEEF5" d="M77.75,25.573c0.027,0.133-0.023,0.33,0.128,0.376
			c0.525,0.158,0.879,0.516,1.207,0.923c0.033,0.041,0.174-0.003,0.264-0.008c0.556-0.925,1.209-1.687,2.54-1.365
			c-0.397-0.798-0.988-1.293-1.591-1.775c-0.35-0.279-0.689-0.091-0.978,0.096C78.641,24.259,78.074,24.813,77.75,25.573z"/>
		<path fill-rule="evenodd" clip-rule="evenodd" fill="#E96B44" d="M44.822,85.277c-0.916,0.034-1.829,0.18-2.748,0.041
			c-0.542-0.081-0.574,0.186-0.46,0.619c0.301,1.152,0.349,1.201,1.515,1.015c0.86-0.137,1.726-0.247,2.55-0.548
			C45.765,85.666,45.464,85.271,44.822,85.277z"/>
		<path fill-rule="evenodd" clip-rule="evenodd" fill="#387DA4" d="M46.117,86.84c0.311,0.656,0.717,1.271,0.861,1.998
			c0.839-0.526,1.549-1.191,2.189-1.943c0.347-0.407,0.125-0.784-0.068-1.09c-0.217-0.346-0.503,0.014-0.707,0.121
			C47.665,86.313,46.87,86.522,46.117,86.84z"/>
		<path fill-rule="evenodd" clip-rule="evenodd" fill="#A84A39" d="M44.822,85.277c0.616,0.127,0.676,0.673,0.857,1.127
			c0.972-0.277,1.9-0.666,2.806-1.11c0.259-0.128,0.553-0.274,0.395-0.623c-0.141-0.311-0.437-0.104-0.62-0.046
			C47.138,84.978,45.973,85.086,44.822,85.277z"/>
		<path fill-rule="evenodd" clip-rule="evenodd" fill="#D6F0F8" d="M68.538,12.526c-0.077,0.624,0.274,1.073,0.533,1.535
			c0.841,1.494,1.839,2.871,3.161,3.995c0.42,0.356,0.871,0.666,1.394,0.352c0.522-0.314,0.458-0.837,0.315-1.383
			c-0.588-2.244-1.834-3.974-3.894-5.097c-0.208-0.113-0.426-0.175-0.67-0.197C68.743,11.672,68.411,11.88,68.538,12.526z"/>
		<path fill-rule="evenodd" clip-rule="evenodd" fill="#DAF1F8" d="M28.945,22.007c0.019,0.288-0.063,0.593,0.262,0.699
			c0.314,0.103,0.503-0.159,0.618-0.364c0.285-0.509,0.513-1.051,0.761-1.58c1.116-2.378,2.395-4.662,3.979-6.768
			c0.126-0.167,0.234-0.352,0.33-0.539c0.153-0.299,0.311-0.657-0.005-0.898c-0.295-0.225-0.638-0.142-0.972,0.084
			c-1.168,0.787-1.9,1.939-2.624,3.084c-1.146,1.814-1.95,3.775-2.319,5.899C28.949,21.762,28.952,21.904,28.945,22.007z"/>
		<path fill-rule="evenodd" clip-rule="evenodd" fill="#D5EDF4" d="M27.529,32.881c0.068,0.633,0.108,1.475,0.538,2.23
			c0.14,0.244,0.277,0.542,0.626,0.439c0.322-0.095,0.285-0.417,0.246-0.659c-0.156-0.961-0.267-1.935-0.638-2.849
			c-0.09-0.223-0.093-0.585-0.458-0.497c-0.292,0.07-0.302,0.381-0.313,0.641C27.524,32.35,27.529,32.515,27.529,32.881z"/>
		<path fill-rule="evenodd" clip-rule="evenodd" fill="#0F1010" d="M58.176,61.715c-0.171-2.53-2.174-4.043-4.404-3.322
			c-2.126,0.686-3.011,2.965-1.896,4.895c0.141,0.244,0.313,0.469,0.471,0.703c0.742,1.066,2.44,1.414,3.721,0.936
			C57.288,64.468,58.155,63.162,58.176,61.715z"/>
		<path fill-rule="evenodd" clip-rule="evenodd" fill="#A9A8A9" d="M58.176,61.715c-0.196,0.672-0.314,1.363-0.77,1.943
			c-1.165,1.481-3.238,1.744-4.718,0.572c-0.108-0.086-0.227-0.161-0.34-0.24c0.976,1.789,3.897,1.857,5.173,0.091
			C58.018,63.393,58.529,62.659,58.176,61.715z"/>
		<path fill-rule="evenodd" clip-rule="evenodd" fill="#181817" d="M63.295,63.956c0.33-0.03,0.534-0.118,0.191-0.437
			c-0.151-0.14-0.311-0.27-0.466-0.402c-0.669-0.563-1.026-1.337-1.425-2.082c-0.073-0.137-0.117-0.367-0.33-0.281
			c-0.213,0.086-0.085,0.287-0.036,0.429C61.625,62.322,62.311,63.25,63.295,63.956z"/>
		<path fill-rule="evenodd" clip-rule="evenodd" fill="#141515" d="M36.612,61.582c-0.221,0.708,0.25,1.066,1.013,1.283
			c1.776,0.508,3.568,0.899,5.422,0.982c0.545,0.023,0.747-0.181,0.793-0.721c0.111-1.311,0.262-2.619,0.437-3.924
			c0.064-0.479-0.061-0.682-0.554-0.754c-1.987-0.29-3.972-0.606-5.889-1.23c-0.477-0.156-0.695,0-0.774,0.488
			C36.859,58.938,36.695,60.173,36.612,61.582z"/>
		<path fill-rule="evenodd" clip-rule="evenodd" fill="#ECB09B" d="M31.609,34.466c0.892,1.11,2.059,1.404,3.406,1.107
			c0.407-0.09,0.768-0.327,0.857-0.753c0.092-0.439,0.064-0.871-0.341-1.219c-0.899-0.772-1.949-0.541-2.974-0.494
			c-0.07,0.003-0.137,0.031-0.206,0.048C31.91,33.482,31.706,33.944,31.609,34.466z"/>
		<path fill-rule="evenodd" clip-rule="evenodd" fill="#81A368" d="M47.832,12.32c-0.405,0.285-0.793,0.592-1.077,1.002
			c-0.482,0.698-0.192,1.437,0.631,1.632c0.908,0.215,2.556-0.505,3.023-1.321c0.457-0.798,0.169-1.358-0.76-1.49
			c-0.185-0.026-0.367-0.075-0.55-0.113C48.677,12.126,48.255,12.223,47.832,12.32z"/>
		<path fill-rule="evenodd" clip-rule="evenodd" fill="#1A1918" d="M63.34,80.223c-1.885,0.32-3.416,1.205-4.588,2.688
			c-0.131,0.165-0.271,0.396-0.037,0.552c0.231,0.152,0.304-0.13,0.408-0.261c1.084-1.357,2.486-2.189,4.189-2.534
			c0.169-0.034,0.433-0.017,0.41-0.276C63.703,80.173,63.48,80.223,63.34,80.223z"/>
		<path fill-rule="evenodd" clip-rule="evenodd" fill="#171A1B" d="M60.695,51.291c-0.387-0.164-0.701-0.066-0.95,0.264
			c-0.023,0.318,0.004,0.611,0.369,0.741c0.255,0.091,0.462,0.003,0.634-0.176C61.029,51.83,60.819,51.562,60.695,51.291z"/>
		<path fill-rule="evenodd" clip-rule="evenodd" fill="#141716" d="M41.429,50.848c-0.141-0.052-0.282-0.104-0.423-0.156
			c-0.305,0.139-0.628,0.281-0.51,0.701c0.101,0.359,0.37,0.58,0.738,0.428C41.726,51.615,41.673,51.234,41.429,50.848z"/>
		<path fill-rule="evenodd" clip-rule="evenodd" fill="#202121" d="M38.338,49.995c-0.115-0.155-0.275-0.24-0.455-0.296
			c-0.36,0.041-0.643,0.174-0.582,0.602c0.041,0.282,0.243,0.478,0.525,0.449C38.263,50.707,38.37,50.383,38.338,49.995z"/>
		<path fill-rule="evenodd" clip-rule="evenodd" fill="#111213" d="M67.663,49.567c0.029,0.308,0.171,0.529,0.497,0.565
			c0.253,0.027,0.45-0.105,0.577-0.313c0.177-0.29-0.086-0.46-0.209-0.667c-0.253-0.004-0.514-0.053-0.734,0.131
			C67.75,49.378,67.707,49.473,67.663,49.567z"/>
		<path fill-rule="evenodd" clip-rule="evenodd" fill="#181512" d="M79.907,44.482c-0.95,0.217-1.963,0.438-2.924,0.845
			c-0.181,0.076-0.392,0.188-0.317,0.396c0.1,0.278,0.331,0.056,0.479,0.021c0.986-0.234,1.968-0.488,2.947-0.751
			c0.178-0.047,0.504-0.012,0.428-0.327C80.457,44.405,80.178,44.482,79.907,44.482z"/>
		<path fill-rule="evenodd" clip-rule="evenodd" fill="#1D1C1C" d="M36.835,78.633c0.121,0.092,0.221,0.191,0.34,0.256
			c0.895,0.49,1.674,1.131,2.43,1.807c0.129,0.115,0.278,0.337,0.47,0.142c0.157-0.161-0.041-0.301-0.146-0.407
			c-0.745-0.758-1.538-1.456-2.508-1.92C37.222,78.414,36.996,78.277,36.835,78.633z"/>
		<path fill-rule="evenodd" clip-rule="evenodd" fill="#257186" d="M64.102,71.873c-0.035,0.285,0.118,0.506,0.347,0.699
			c0.968,0.818,2.094,1.357,3.266,1.802c0.537,0.204,1.006,0.026,1.241-0.499c0.256-0.572,0.791-1.209,0.113-1.791
			c-0.986-0.85-2.116-1.504-3.34-1.954C65.047,69.879,64.093,70.92,64.102,71.873z"/>
		<path fill-rule="evenodd" clip-rule="evenodd" fill="#1B2022" d="M82.468,30.283c-0.01-0.824-0.005-1.412-0.164-1.985
			c-0.132-0.479-0.25-1.05-0.832-1.103c-0.569-0.051-0.828,0.466-1.055,0.909c-0.325,0.635-0.467,1.329-0.6,2.02
			c-0.229,1.182-0.328,2.375-0.083,3.567c0.093,0.454,0.157,0.983,0.743,1.076c0.633,0.101,0.916-0.365,1.169-0.836
			C82.301,32.716,82.451,31.396,82.468,30.283z"/>
		<path fill-rule="evenodd" clip-rule="evenodd" fill="#1B1312" d="M61.141,33.649c0.403-0.036,0.569-0.161,0.828-0.72
			c0.642-1.388,0.739-2.847,0.557-4.343c-0.134-1.098-0.521-2.091-1.202-2.967c-1.539-1.979-4.532-2.208-6.307-0.433
			c-1.881,1.883-2.216,4.24-1.84,6.731c0.403,2.667,2.785,3.905,5.275,2.81c0.146-0.063,0.274-0.17,0.41-0.257
			c0.365-0.061,0.564-0.338,0.739-0.611c1.374-2.146,1.463-4.379,0.301-6.617c-0.718-1.381-2.29-2.057-3.616-1.712
			c2.349-0.864,4.356,0.143,4.994,2.57c0.424,1.616,0.367,3.254-0.049,4.875C61.175,33.196,61.016,33.404,61.141,33.649z"/>
		<path fill-rule="evenodd" clip-rule="evenodd" fill="#1C1211" d="M37.477,37.002c0.108,0.343,0.435,0.352,0.614,0.21
			c0.505-0.398,0.719-0.003,1.036,0.261c0.673,0.559,1.045,1.265,1.326,2.085c0.529,1.551,1.362,2.9,2.99,3.556
			c1.891,0.76,3.67,0.449,5.306-0.672c0.981-0.673,1.732-1.586,2.305-2.636c0.202-0.371,0.419-0.735,0.654-1.087
			c0.275-0.41,0.585-0.703,1.041-0.174c0.083,0.096,0.246,0.151,0.379,0.168c0.219,0.026,0.514,0.152,0.631-0.119
			c0.12-0.279-0.195-0.326-0.363-0.422c-0.439-0.25-0.706-0.609-0.778-1.11c-0.023-0.161-0.053-0.367-0.234-0.39
			c-0.193-0.024-0.296,0.19-0.299,0.334c-0.016,0.742-0.563,0.825-1.102,0.894c-0.372,0.048-0.76,0.092-1.127,0.039
			c-1.984-0.281-3.898,0.01-5.801,0.568c-1.485,0.436-4.162-0.688-4.957-2.004c-0.126-0.208-0.039-0.411-0.063-0.615
			c-0.019-0.148-0.055-0.292-0.225-0.309c-0.075-0.008-0.218,0.051-0.231,0.103c-0.138,0.572-0.53,0.921-1.014,1.199
			C37.529,36.9,37.511,36.952,37.477,37.002z"/>
		<path fill-rule="evenodd" clip-rule="evenodd" fill="#1D1414" d="M35.326,32.207c1.277,1.246,2.765,0.942,3.377-0.735
			c0.769-2.106,0.942-4.262,0.311-6.439c-0.11-0.38-0.273-0.757-0.479-1.094c-0.918-1.496-2.571-1.547-3.592-0.111
			c-1.278,1.795-1.48,3.824-1.219,5.933c0.056,0.455-0.035,0.988,0.446,1.312c0.27-0.211,0.218-0.507,0.182-0.78
			c-0.209-1.557,0.114-3.039,0.625-4.494c0.206-0.586,0.55-1.093,1.017-1.508c0.387-0.343,0.812-0.465,1.329-0.16
			c-2.169,0.772-2.65,2.541-2.74,4.516c-0.039,0.864-0.084,1.741,0.201,2.589C34.905,31.595,35.032,31.945,35.326,32.207z"/>
		<path fill-rule="evenodd" clip-rule="evenodd" fill="#FAFAFA" d="M61.141,33.649c0.891-2.15,0.89-4.331,0.013-6.457
			c-0.91-2.206-3.686-2.885-5.561-1.379c0.585-0.092,1.083-0.271,1.613-0.186c1.728,0.276,2.938,1.582,3.212,3.556
			c0.276,1.986-0.125,3.791-1.556,5.288C59.791,34.66,60.53,34.331,61.141,33.649z"/>
		<path fill-rule="evenodd" clip-rule="evenodd" fill="#E5AD9B" d="M60.833,35.606c-0.573-0.099-1.151,0.059-1.723,0.163
			c-0.59,0.107-0.968,0.484-1.119,1.111c-0.137,0.568,0.183,0.892,0.572,1.075c1.39,0.654,2.814,0.892,4.241,0.065
			c0.387-0.225,0.636-0.497,0.636-0.999c-0.001-0.527-0.261-0.815-0.677-1.05C62.167,35.636,61.526,35.547,60.833,35.606z"/>
		<path fill-rule="evenodd" clip-rule="evenodd" fill="#81A368" d="M54.264,15.563c0.281-0.008,0.558-0.014,0.836-0.098
			c0.609-0.183,1.078-0.476,1.108-1.186c0.033-0.747-0.513-1.035-1.078-1.208c-0.843-0.259-1.64-0.067-2.292,0.54
			c-0.699,0.651-0.554,1.363,0.32,1.779C53.516,15.56,53.887,15.557,54.264,15.563z"/>
		<path fill-rule="evenodd" clip-rule="evenodd" fill="#F6F8F8" d="M35.326,32.207c-0.843-2.135-0.875-4.262,0.139-6.347
			c0.457-0.94,1.147-1.611,2.347-1.423c-0.467-0.788-1.113-0.936-1.829-0.421c-0.638,0.459-0.973,1.133-1.244,1.844
			c-0.643,1.688-0.704,3.438-0.569,5.211C34.219,31.79,34.757,32.015,35.326,32.207z"/>
		<path fill-rule="evenodd" clip-rule="evenodd" fill="#81A368" d="M46.359,16.942c-0.833,0.001-1.793,0.945-1.801,1.768
			c-0.006,0.629,0.516,1.097,1.216,1.09c0.926-0.008,1.664-0.791,1.648-1.749C47.411,17.327,47.041,16.94,46.359,16.942z"/>
		<path fill-rule="evenodd" clip-rule="evenodd" fill="#81A368" d="M50.082,17.657c0.348,0.029,0.69-0.058,1.001-0.234
			c0.632-0.358,0.872-0.919,0.641-1.457c-0.225-0.524-0.935-0.83-1.557-0.645c-0.315,0.094-0.613,0.241-0.852,0.481
			c-0.347,0.35-0.625,0.761-0.423,1.249C49.091,17.533,49.554,17.686,50.082,17.657z"/>
		<path fill-rule="evenodd" clip-rule="evenodd" fill="#81A368" d="M43.543,16.415c0.54-0.034,1.096-0.437,1.503-1.044
			c0.185-0.275,0.247-0.605,0.016-0.917c-0.245-0.33-0.576-0.485-0.978-0.432c-0.693,0.092-1.226,0.444-1.569,1.056
			C42.085,15.846,42.436,16.428,43.543,16.415z"/>
		<path fill-rule="evenodd" clip-rule="evenodd" fill="#1A1311" d="M56.816,20.466c-0.565-0.01-1.079,0.13-1.489,0.534
			c-0.214,0.211-0.334,0.466-0.156,0.761c0.165,0.274,0.427,0.278,0.685,0.183c0.694-0.255,1.414-0.36,2.147-0.403
			c0.192-0.011,0.394-0.03,0.436-0.27c0.039-0.222-0.125-0.341-0.279-0.452C57.758,20.53,57.299,20.454,56.816,20.466z"/>
		<path fill-rule="evenodd" clip-rule="evenodd" fill="#151413" d="M36.673,20.151c0.006,0.251,0.143,0.375,0.346,0.403
			c0.566,0.076,1.095,0.247,1.591,0.53c0.175,0.1,0.363,0.107,0.525-0.036c0.172-0.153,0.239-0.35,0.166-0.571
			c-0.177-0.534-0.619-0.741-1.119-0.847c-0.497-0.104-0.988-0.127-1.366,0.309C36.755,20.008,36.712,20.092,36.673,20.151z"/>
		<path fill-rule="evenodd" clip-rule="evenodd" fill="#1A272A" d="M45.447,32.334c-0.502,0.081-0.859,0.352-1.072,0.812
			c-0.062,0.133-0.114,0.275,0.029,0.379c0.147,0.107,0.29,0.003,0.368-0.098c0.217-0.283,0.48-0.411,0.843-0.415
			c0.233-0.002,0.402-0.172,0.342-0.43C45.895,32.319,45.674,32.303,45.447,32.334z"/>
		<path fill-rule="evenodd" clip-rule="evenodd" fill="#182426" d="M40.083,32.283c0.25,0.341,0.652,0.648,1.056,0.907
			c0.108,0.07,0.184-0.229,0.142-0.384c-0.13-0.476-0.373-0.858-0.926-0.895C40.166,31.9,39.952,32.105,40.083,32.283z"/>
		<path fill-rule="evenodd" clip-rule="evenodd" fill="#8BBDCF" d="M57.476,60.992c-0.336-1.521-1.509-2.379-3.022-2.209
			c-1.448,0.163-2.488,1.293-2.477,2.757c0.006,0.841,0.407,1.536,0.99,2.13c0.249,0.029,0.308-0.125,0.32-0.326
			c-0.186-0.545-0.604-0.989-0.612-1.619c-0.013-0.999,0.638-1.966,1.534-2.177c1.036-0.244,1.954,0.224,2.401,1.224
			c0.058,0.128,0.107,0.26,0.166,0.388c0.044,0.085,0.063,0.178,0.094,0.267c0.063,0.18,0.13,0.379,0.377,0.334
			c0.227-0.039,0.283-0.223,0.286-0.426C57.534,61.217,57.542,61.098,57.476,60.992z"/>
		<path fill-rule="evenodd" clip-rule="evenodd" fill="#6291AA" d="M57.476,60.992c-0.013,0.116-0.025,0.232-0.038,0.35
			c-0.017,0.145-0.054,0.307-0.226,0.302c-0.203-0.006-0.126-0.21-0.171-0.327c-0.04-0.105-0.094-0.207-0.142-0.309
			c-0.203,0.176-0.168,0.421-0.189,0.649c-0.141,1.521-1.412,2.313-2.871,1.791c-0.196-0.07-0.385-0.188-0.604-0.079
			c-0.09,0.101-0.18,0.201-0.269,0.301c0.811,0.812,2.176,0.946,3.262,0.356C57.041,63.586,57.908,62.025,57.476,60.992z"/>
		<path fill-rule="evenodd" clip-rule="evenodd" fill="#7ABED1" d="M37.341,59.17c-0.236,0.852-0.136,1.727-0.181,2.593
			c-0.017,0.327,0.186,0.454,0.447,0.547c1.727,0.614,3.522,0.873,5.339,1.035c0.313,0.028,0.333-0.155,0.35-0.39
			c0.079-1.125,0.172-2.25,0.403-3.356c0.118-0.563-0.091-0.804-0.667-0.722c-0.438-0.089-0.86-0.164-0.543,0.525
			c0.094,0.205-0.009,0.406-0.034,0.608c-0.02,0.429-0.327,0.407-0.611,0.359c-1.044-0.177-2.099-0.298-3.124-0.582
			c-0.347-0.097-0.699-0.192-0.705-0.655C37.758,58.561,37.547,58.816,37.341,59.17z"/>
		<path fill-rule="evenodd" clip-rule="evenodd" fill="#61AFCB" d="M42.557,60.049c0.129-0.285,0.354-0.543,0.04-0.879
			c-0.157-0.169-0.104-0.219,0.436-0.293c-1.704-0.246-3.385-0.597-5.042-1.067c-0.353-0.101-0.534-0.013-0.545,0.384
			c-0.009,0.326-0.068,0.65-0.104,0.977c0.184,0,0.392-0.578,0.551,0.021c0.584,0.389,1.279,0.422,1.931,0.582
			c0.636,0.157,1.284,0.27,1.93,0.384C42.028,60.206,42.312,60.256,42.557,60.049z"/>
		<path fill-rule="evenodd" clip-rule="evenodd" fill="#4B7375" d="M81.89,30.568c-0.013-0.97,0.063-1.656-0.227-2.301
			c-0.065-0.145-0.112-0.343-0.306-0.346c-0.184-0.004-0.295,0.163-0.339,0.317c-0.497,1.751-1.097,3.489-0.743,5.355
			c0.042,0.219,0.006,0.526,0.303,0.571c0.334,0.051,0.497-0.234,0.619-0.485C81.722,32.607,81.933,31.466,81.89,30.568z"/>
		<path fill-rule="evenodd" clip-rule="evenodd" fill="#F6F7F7" d="M57.022,28.691c-0.011,0.747,0.456,1.369,1.033,1.376
			c0.55,0.006,0.978-0.526,0.993-1.237c0.017-0.755-0.389-1.35-0.932-1.37C57.531,27.438,57.033,27.998,57.022,28.691z"/>
		<path fill-rule="evenodd" clip-rule="evenodd" fill="#EDEDED" d="M55.329,31.59c-0.382,0.074-0.636,0.299-0.601,0.715
			c0.028,0.346,0.2,0.671,0.598,0.665c0.456-0.008,0.661-0.334,0.654-0.761C55.975,31.82,55.735,31.621,55.329,31.59z"/>
		<path fill-rule="evenodd" clip-rule="evenodd" fill="#E86145" d="M45.766,40.996c-0.081-0.268,0.055-0.355,0.125-0.468
			c0.207-0.33,0.076-0.521-0.27-0.494c-1.1,0.09-2.046,0.521-2.757,1.384c-0.332,0.402-0.049,0.62,0.28,0.826
			c1.482,0.931,3.945,0.715,5.39-0.482c0.218-0.181,0.439-0.361,0.627-0.57c0.178-0.199,0.551-0.342,0.439-0.656
			c-0.096-0.273-0.46-0.301-0.726-0.371c-0.726-0.191-1.437-0.233-2.096,0.252C46.479,40.636,46.129,40.79,45.766,40.996z"/>
		<path fill-rule="evenodd" clip-rule="evenodd" fill="#F9F9F9" d="M37.093,26.973c0.083,0.497,0.021,1.184,0.717,1.171
			c0.676-0.012,0.685-0.665,0.672-1.184c-0.011-0.44-0.028-0.982-0.638-0.983C37.239,25.976,37.136,26.482,37.093,26.973z"/>
		<path fill-rule="evenodd" clip-rule="evenodd" fill="#DCDDDE" d="M35.715,30.229c0.028,0.293,0.033,0.623,0.424,0.619
			c0.353-0.003,0.458-0.282,0.465-0.591c0.007-0.281-0.076-0.546-0.394-0.572C35.846,29.655,35.743,29.93,35.715,30.229z"/>
		<path fill-rule="evenodd" clip-rule="evenodd" fill="#101418" d="M53.236,63.369c1.483,0.749,2.395,0.615,3.239-0.441
			c0.463-0.58,0.479-1.237,0.425-1.92c-0.406-1.121-1.064-1.662-2.077-1.708c-0.955-0.044-1.793,0.437-2.169,1.385
			C52.261,61.675,52.489,62.594,53.236,63.369z"/>
		<path fill-rule="evenodd" clip-rule="evenodd" fill="#11171A" d="M42.557,60.049c-1.353-0.127-2.666-0.458-3.979-0.779
			c-0.226-0.056-0.445-0.146-0.685-0.078c-0.194,0.326-0.08,0.514,0.265,0.622c1.348,0.425,2.743,0.618,4.138,0.794
			C42.768,60.668,42.812,60.396,42.557,60.049z"/>
		<path fill-rule="evenodd" clip-rule="evenodd" fill="#0E1519" d="M42.011,61.884c0.179,0,0.358-0.016,0.395-0.22
			c0.048-0.269-0.177-0.309-0.36-0.324c-1.298-0.117-2.563-0.396-3.815-0.742c-0.175-0.048-0.338-0.066-0.412,0.137
			c-0.078,0.215,0.1,0.292,0.245,0.359c0.478,0.221,0.998,0.274,1.508,0.364C40.385,61.602,41.198,61.742,42.011,61.884z"/>
		<path fill-rule="evenodd" clip-rule="evenodd" fill="#5593C1" d="M54.183,60.003c-0.08,0.054-0.16,0.106-0.24,0.16
			c0.082,0.304-0.192,0.39-0.345,0.546c-0.198,0.2-0.277,0.453-0.316,0.609c0.009-0.025,0.03-0.149-0.067-0.266
			c-0.34,0.539-0.089,1.021,0.143,1.506c0.646,0.378,1.324,0.519,2.001,0.127C55.99,62.32,56.247,61.5,56,60.844
			C55.768,60.227,55.074,59.906,54.183,60.003z"/>
		<path fill-rule="evenodd" clip-rule="evenodd" fill="#44618A" d="M54.183,60.003c0.636,0.045,1.285,0.073,1.598,0.771
			c0.216,0.481,0.172,0.943-0.122,1.39c-0.344,0.524-0.846,0.602-1.412,0.541c-0.3-0.031-0.576-0.207-0.89-0.146
			c0.56,0.711,1.49,0.889,2.251,0.431c0.7-0.422,0.946-1.411,0.559-2.246C55.866,60.094,54.986,59.766,54.183,60.003z"/>
		<path fill-rule="evenodd" clip-rule="evenodd" fill="#B9CCDB" d="M53.215,61.053c0,0.206,0,0.411,0,0.617
			c0.077-0.553,0.368-0.912,0.89-1.102c0.129-0.047,0.273-0.145,0.209-0.305c-0.063-0.158-0.242-0.079-0.372-0.101
			C53.547,60.336,53.467,60.764,53.215,61.053z"/>
	</g>
</g>
</svg>
