<?xml version="1.0" encoding="utf-8"?>
<!-- Generator: Adobe Illustrator 16.0.0, SVG Export Plug-In . SVG Version: 6.00 Build 0)  -->
<!DOCTYPE svg PUBLIC "-//W3C//DTD SVG 1.1//EN" "http://www.w3.org/Graphics/SVG/1.1/DTD/svg11.dtd">
<svg version="1.1" id="圖層_2" xmlns="http://www.w3.org/2000/svg" xmlns:xlink="http://www.w3.org/1999/xlink" x="0px" y="0px"
	 width="100px" height="100px" viewBox="0 0 100 100" enable-background="new 0 0 100 100" xml:space="preserve">
<g>
	<path fill-rule="evenodd" clip-rule="evenodd" fill="#B7E0EE" d="M44.234,75.026c-0.905,0.069-0.773-2.02-2.166-0.937
		c-1.302-1.803-0.701-3.856-0.705-5.786c-0.002-0.959,1.044-1.287,2.081-0.893c0.929,0.726,0.957,1.754,1.055,2.772
		c0.229,2.393,1.194,3.318,3.646,3.729C61,76.058,73.981,77.406,86.847,79.493c2.309,0.375,4.675,0.705,7.069,0.567
		c2.459-0.141,3.45-0.955,3.519-3.321c0.083-2.759,0.024-5.52,0.025-8.28c0.003-7.191-0.155-14.387,0.035-21.574
		c0.331-12.473-0.317-24.941-0.034-37.411c0.027-1.239-0.019-2.464-0.52-3.64c-0.894-2.094-2.204-2.856-4.63-2.767
		C82.7,3.425,73.157,4.566,63.577,5.246c-4.867,0.345-9.71,1.03-14.612,1.013c-3.3-0.011-4.765,1.583-4.95,4.759
		c-0.165,2.807,0.512,5.653-0.435,8.423c-0.98,0.524-1.224-0.199-1.533-0.813c-0.088-2.876,0.001-5.755-0.049-8.632
		c-0.022-1.344,0.313-2.559,1.144-3.649c1.149-1.422,2.665-1.935,4.554-2.081c8.967-0.695,17.937-1.38,26.894-2.193
		c5.911-0.538,11.822-1.05,17.745-1.451c2.403-0.163,4.579,0.284,6.053,2.331c0.868,1.262,1.114,2.635,1.111,4.14
		c-0.029,23.257-0.017,46.514-0.024,69.771c-0.001,4.291-2.48,6.004-7.02,5.299C86.75,81.275,81,80.635,75.285,79.79
		c-7.584-1.119-15.187-2.134-22.766-3.29C49.744,76.076,46.932,75.85,44.234,75.026z"/>
	<path fill-rule="evenodd" clip-rule="evenodd" fill="#131212" d="M42.337,18.827c0.334,0.281,0.67,0.562,1.005,0.842
		c0.364-0.03,0.668,0.105,0.949,0.306c3.171,2.909,5.312,6.396,6.476,10.432c0.552,3.329,1.466,6.623,0.809,10.05
		c-0.177,0.923,0.281,1.828,0.542,2.722c0.334,1.281,0.902,2.561,0.365,3.677c0.828-0.954,1.78-2.273,3.461-2.766
		c0.749-0.104,1.481-0.167,1.87,0.653c0.007,1.044-1.164,1.031-1.633,1.649c-2.073,1.864-3.706,4.004-5.075,6.401
		c-1.772,3.098-4.634,5.181-8.012,6.577c-1.696,0.702-3.313,1.434-4.59,2.78c-0.94,0.992-2.32,1.357-3.615,1.816
		c-1.926,0.683-2.188,1.603-1.525,4.059c0.475,1.761,1.699,0.988,2.737,0.879c0.605-0.063,1.201-0.235,1.812-0.27
		c0.604-0.034,1.347-0.149,1.474,0.637c0.111,0.693-0.539,0.977-1.102,1.218c-0.49,0.209-1.026,0.279-1.551,0.388
		c-3.293,0.681-3.263,0.682-3.31,3.972c-0.04,2.75,0.283,5.521-0.439,8.241c-0.131,0.492-0.202,1.003-0.435,1.463
		c-0.261,0.514-0.481,1.173-1.276,0.982c-0.675-0.161-0.577-0.772-0.567-1.271c0.01-0.508,0.068-1.018,0.177-1.513
		c0.625-2.877,0.325-5.79,0.364-8.688c0.013-0.976,0.234-2.247-1.337-2.328c-1.546-0.08-3.303-0.457-4.274,1.259
		c-0.39,0.688-0.381,1.575-1.15,2.078c-1.042-0.206-0.904-1.046-1.044-1.737c-0.07-1.561,0.035-3.109,0.423-4.633
		c0.058-0.325,0.143-0.646,0.236-0.962c0.263-0.66,0.321-1.365,0.47-2.049c0.167-0.543,0.143-1.057-0.271-1.511
		c-1.092-1.1-2.912-0.44-4.014-1.506c0.085-0.665,0.605-0.915,1.174-1.122c2.961,0.093,5.759,1.32,8.788,1.073
		c1.821-0.15,3.585-0.364,4.915-0.975c-3.742,0.674-7.822,0.559-11.909,0.078c-0.306-0.036-0.555-0.224-0.671-0.525
		c0.14-0.646,0.607-1.034,1.164-1.356c0.502-0.208,1.042-0.313,1.571-0.224c4.486,0.762,8.799-0.214,13.112-1.163
		c3.496-0.97,6.713-2.397,9.159-5.079c2.507-2.749,3.771-5.776,2.283-9.394c-0.626-1.523-0.688-3.107-0.662-4.707
		c-0.021-0.331-0.017-0.661-0.009-0.99c0.016-0.725,0.035-1.449,0.016-2.175c-0.084-3.113-0.532-3.727-3.733-4.53
		c-1.437-0.36-2.756-0.717-2.549-2.458c0.186-1.582,1.342-2.166,2.898-2.205c0.223-0.005,0.463,0.027,0.756-0.4
		c-1.843-3.38-4.588-6.139-8.205-7.978c-8.285-4.212-16.661-4.215-25.019-0.085c-0.941,0.464-1.78,1.145-2.889,1.275
		c-0.392-0.063-0.639-0.281-0.76-0.635c7.72-6.234,20.589-7.15,29.53-2.103c0.779,0.44,1.554,0.886,2.331,1.329
		C41.962,18.317,42.262,18.418,42.337,18.827z"/>
	<path fill-rule="evenodd" clip-rule="evenodd" fill="#101410" d="M31.227,94.263c-0.421-1.444-0.777-2.91-1.288-4.327
		c-0.279-0.776-0.185-1.901-1.816-1.678c-1.364,0.188-1.946,0.604-2.047,1.921c-0.193,2.529-1.787,4.909-0.55,7.62
		c0.468,1.025-0.795,1.653-1.782,1.858c-3.146,0.655-6.231,0.369-9.195-0.845c-0.911-0.373-1.38-1.09-1.489-2.04
		c-0.139-1.225-0.366-2.44-0.485-3.665c-0.244-2.537-0.72-4.565-3.016-6.674c-2.903-2.667-5.664-5.874-7.2-9.674
		c0.479-0.306,0.984-0.173,1.488-0.081c1.054,0.792,1.38,2.056,2.236,3.044c-0.077-1.265-0.254-2.508-0.669-3.658
		c-1.168-3.235-0.56-6.477,0.172-9.598c0.548-2.339,0.58-4.175-1.457-5.797c-0.561-0.446-1.055-1.044-1.34-1.735
		c-0.085-0.64,0.274-0.986,0.861-1.184c0.8-0.074,1.29,0.414,1.644,0.96c1.023,1.572,2.132,2.123,3.581,0.445
		c0.325,0.104,0.557,0.306,0.707,0.596c0.097,2.231-1.416,4.01-1.607,5.681c0.493-0.96,1.517-2.161,2.554-3.347
		c0.522-0.598,1.08-1.228,2.041-1.191c0.325,0.138,0.542,0.364,0.626,0.696c-0.756,1.918-2.35,3.326-3.434,5.05
		c-0.938,1.491-1.924,2.953-2.362,4.656c-0.994,3.865,1.746,6.413,5.821,5.441c0.661-0.157,1.296-0.429,2.003-0.366
		c0.919,0.163,1.401,0.765,1.716,1.534c0.063,0.217,0.067,0.438,0.02,0.658c-0.133,0.329-0.381,0.517-0.758,0.541
		c-2.748-0.913-3.739-0.166-3.254,2.466c0.078,0.424,0.173,0.842,0.218,1.271c0.022,0.534,0.189,1.041,0.335,1.553
		c1.026,3.16,0.369,6.47,0.973,9.68c0.626,3.319,0.676,3.469,4.207,4.021c1.056,0.164,2.1,0.312,3.172,0.104
		c1.006-0.196,1.626-0.547,1.512-1.727c-0.212-2.197,0.493-4.281,1.14-6.362c0.196-2.028,1.203-3.279,3.499-3.296
		c2.281-0.569,4.569-1.097,6.554-2.428c0.859-0.577,2.007-1.797,2.89-0.474c0.708,1.061-0.732,1.669-1.571,2.25
		c-0.32,0.195-0.669,0.348-1.007,0.519c-3.621,1.828-3.622,1.826-2.548,5.512c0.101,0.459,0.123,0.915,0.006,1.374
		C32.118,94.025,31.925,94.508,31.227,94.263z"/>
	<path fill-rule="evenodd" clip-rule="evenodd" fill="#83BCCE" d="M44.234,75.026c1.054-0.975,1.787,0.265,2.681,0.384
		c11.835,1.575,23.661,3.207,35.486,4.852c3.538,0.492,7.067,1.046,10.593,1.614c3.674,0.591,6.016-1.182,6.017-4.67
		c0.009-23.474-0.007-46.948,0.042-70.421c0.002-1.384-0.606-2.518-0.979-3.757c-0.133-0.438,0.059-0.569,0.494-0.47
		c1.103,1.045,1.434,2.354,1.433,3.776c-0.018,23.613-0.017,47.228-0.069,70.84c-0.008,4.063-2.667,6.144-6.866,5.552
		c-15.237-2.145-30.476-4.295-45.707-6.482C46.253,76.084,45.083,75.875,44.234,75.026z"/>
	<path fill-rule="evenodd" clip-rule="evenodd" fill="#0B0C0B" d="M13.043,61.462c-0.171-0.176-0.342-0.352-0.514-0.528
		c-0.197-2.667-0.243-2.685-3.171-1.219c-0.155-0.151-0.311-0.303-0.467-0.452c-0.313-1.223,0.044-2.585-1.472-3.493
		c-1.376-0.826-2.153-0.815-2.771,0.649c-0.221,0.523-0.252,1.136-0.749,1.539c-0.456,0.146-0.775,0.436-0.983,0.841
		c0.226,1.486-0.486,2.838-0.69,4.264C1.657,67.056,1.757,70.977,3.27,74.8c0.239,0.604,0.443,1.242,0.125,1.896
		c-0.313,0.484-0.69,0.059-1.038,0.064C-1.1,69.116-0.421,61.691,3.894,54.567c0.771-1.271,0.796-1.993-0.058-3.201
		c-6.966-9.855-4.117-25.268,5.88-32.265c0.184,0.147,0.368,0.295,0.552,0.442c0.225,0.92-0.61,1.256-1.122,1.714
		c-4.198,3.765-6.125,8.568-6.906,13.834c-0.588,3.969-0.379,7.926,1.073,11.75c2.797,6.854,8.532,10.197,15.68,11.931
		c1.559,0.377,3.424-0.041,4.615,1.426c-0.027,0.594-0.415,0.817-0.981,0.856c-0.323,0.332-0.736,0.373-1.181,0.352
		c-1.168-0.057,0.193,0.451-0.143,0.583c-0.305,0.227-0.61,0.452-0.915,0.68c-0.405,0.598-1.04,0.604-1.683,0.595
		c-0.484-0.068-0.933-0.199-1.164-0.666c-0.105-0.521,1.125-0.846,0.326-1.401c-0.839-0.584-1.813-1.015-2.912-0.562
		C14.313,60.899,13.954,61.752,13.043,61.462z"/>
	<path fill-rule="evenodd" clip-rule="evenodd" fill="#18181B" d="M31.227,94.263c0.481-0.182,0.628-0.568,0.688-1.008
		c2.031,2.626,4.971,2.194,7.804,2.055c0.969-0.048,2.033-0.166,1.061-1.513c-0.524-0.728-0.402-1.549-0.219-2.321
		c0.688-2.89,0.019-5.619-1.039-8.299c-0.352-0.895-0.728-1.731-0.364-2.723c1.603-4.382,1.385-8.838,0.539-13.313
		c-0.122-0.644-0.226-1.29-0.317-1.937c-0.118-0.836-0.562-2.021,0.486-2.313c1.134-0.316,1.32,0.951,1.611,1.724
		c0.412,1.099,1.146,1.263,2.157,0.833c6.792-2.889,12.312-6.996,14.921-13.932c0.474-1.262,0.341-2.01-1.273-1.938
		c-1.581,0.07-1.957-0.65-1.283-1.876c0.414-0.754,0.452-1.349-0.199-1.945c0.394-0.725,1.519-0.176,1.873-0.967
		c0.154-0.015,0.391-0.04,0.432,0.046c0.981,2,3.176,3.4,3.248,5.853c-0.105,0.751-0.487,1.392-0.899,2.02
		c-0.146,0.254-0.296,0.507-0.385,0.785c-0.237,0.92-0.62,1.782-1.109,2.604c-0.145,0.237-0.318,0.456-0.498,0.669
		c-0.225,0.287-0.42,0.594-0.617,0.899c-0.153,0.235-0.324,0.46-0.492,0.686c-0.489,0.734-1.07,1.399-1.716,2.012
		c-0.211,0.221-0.432,0.431-0.654,0.641c-2.832,2.848-6.301,4.793-10.032,6.367c-0.499,0.19-1.012,0.289-1.553,0.189
		c-0.929,0.079-1.776,0.104-1.606,1.438c0.212,1.684,0.194,3.394,0.279,5.091c-0.174,2.172-0.257,4.373-1.231,6.39
		c-0.427,0.884,0.016,1.57,0.302,2.281c1.196,2.975,1.818,6.006,1.076,9.167c-0.18,0.766,0.151,1.18,0.617,1.717
		c1.293,1.491,1.097,2.309-0.754,2.89c-3.064,0.965-6.181,0.852-9.282,0.088C31.503,96.304,31.269,95.338,31.227,94.263z"/>
	<path fill-rule="evenodd" clip-rule="evenodd" fill="#8CC2D4" d="M98.567,2.558c-0.165,0.156-0.33,0.313-0.494,0.47
		c-3.039-2.993-6.913-1.719-10.435-1.63c-4.545,0.115-9.077,0.759-13.615,1.172c-6.128,0.558-12.255,1.128-18.385,1.666
		c-2.349,0.206-4.709,0.502-7.058,0.454c-2.06-0.042-3.739,0.467-5.172,1.822c-0.284-0.049-0.457-0.207-0.515-0.476
		c1.704-2.588,4.612-2.303,7.185-2.535C62.059,2.422,74.05,1.46,86.038,0.467c2.201-0.182,4.405-0.365,6.611-0.456
		C95.048-0.089,97.194,0.457,98.567,2.558z"/>
	<path fill-rule="evenodd" clip-rule="evenodd" fill="#73AEC4" d="M42.895,6.036c0.172,0.159,0.343,0.317,0.515,0.476
		c-0.78,1.043-0.962,2.208-0.955,3.472c0.018,2.948-0.071,5.896-0.116,8.844c-0.336-0.055-0.648-0.14-0.76-0.499
		c0.005-2.756,0.002-5.511,0.021-8.267C41.609,8.603,41.762,7.174,42.895,6.036z"/>
	<path fill-rule="evenodd" clip-rule="evenodd" fill="#E7F4F6" d="M43.396,67.561c0.352-0.395,0.829-0.468,1.333-0.472
		c0.778,0.646,0.689,1.577,0.858,2.414c0.536,2.691,0.985,3.228,3.98,3.698c5.512,0.867,11.038,1.664,16.568,2.421
		c7.877,1.079,15.747,2.223,23.633,3.249c0.303,0.039,0.604,0.096,0.907,0.13c4.632,0.529,5.802-0.44,5.803-4.852
		c0.006-21.43,0.003-42.859,0.001-64.289c0-0.871,0.038-1.746-0.101-2.611c-0.418-2.585-1.855-3.572-4.601-3.377
		C81.18,4.626,70.6,5.589,59.998,6.32c-3.737,0.258-7.455,0.711-11.202,0.901c-2.324,0.118-3.483,1.317-3.709,3.681
		c-0.221,2.316,0.012,4.648-0.127,6.969c-0.05,0.848,0.261,1.995-1.201,2.2c-0.139-0.135-0.278-0.268-0.417-0.402
		c0.019-2.979,0.013-5.957,0.063-8.934c0.053-3.177,1.918-5.003,5.22-5.107c7.309-0.23,14.562-1.059,21.833-1.702
		c7.501-0.663,15.02-1.167,22.538-1.626c2.927-0.178,5.082,2.479,5.095,6.073c0.029,8.135,0.017,16.272,0.017,24.408
		c0,14.424-0.003,28.847-0.008,43.271c0,3.64-1.066,4.714-4.868,4.602c-6.251-0.187-12.353-1.512-18.514-2.373
		c-6.763-0.946-13.571-1.591-20.29-2.833c-2.31-0.427-4.669-0.6-6.983-1.01c-2.365-0.42-3.559-1.804-3.572-4.104
		C43.866,69.365,43.579,68.479,43.396,67.561z"/>
	<path fill-rule="evenodd" clip-rule="evenodd" fill="#B0DEF2" d="M43.759,20.071c0.997-0.813,0.499-1.906,0.534-2.868
		c0.079-2.104-0.04-4.216,0.035-6.321c0.104-2.94,1.691-4.215,4.754-4.426c6.907-0.473,13.795-1.23,20.706-1.606
		c4.415-0.239,8.804-0.72,13.213-0.995c3.035-0.189,6.072-0.428,9.089-0.787c2.682-0.319,4.713,1.136,5.054,3.867
		c0.073,0.574,0.028,1.162,0.028,1.743c0.002,22.312,0.005,44.622,0.004,66.934c0,3.19-1.061,4.362-4.32,4.135
		c-4.091-0.288-8.167-0.815-12.231-1.366c-6.921-0.937-13.829-1.969-20.74-2.967c-3.53-0.511-7.084-0.916-10.582-1.583
		c-4.085-0.778-4.385-1.248-4.55-5.218c-0.021-0.508-0.016-1.017-0.022-1.525c3.666-1.786,7.152-3.823,10.135-6.562
		c1.604,0.912,1.042,2.431,1.089,3.729c0.097,2.736,0.248,2.991,3.093,3.125c1.377,0.064,2.69,0.462,4.081,0.482
		c1.565,0.024,2.249-0.484,2.164-2.013c-0.079-1.444-0.021-2.897-0.009-4.347c0.005-0.796-0.034-1.603,0.522-2.289
		c0.497-0.329,1.008-0.34,1.529-0.063c1.111,1.746,0.525,3.671,0.566,5.511c0.095,4.304,0.031,4.318,4.528,4.487
		c1.523,0.058,2.988,0.502,4.536,0.455c1.388-0.042,2.148-0.399,2.115-1.863c-0.051-2.314-0.045-4.632-0.004-6.945
		c0.028-1.617-0.885-2.221-2.413-2.199c-2.675,0.04-5.296-0.443-7.946-0.682c-1.137-0.466-2.037-1.13-1.72-2.456
		c0.313-1.313,1.47-1.529,2.661-1.624c1.92,0.08,2.475-0.922,2.469-2.586c-0.022-5.806,0.01-11.612-0.017-17.418
		c-0.012-2.777-0.845-3.169-3.817-3.298c-6.028-0.261-12.063-0.103-18.086-0.443C48.803,26.318,46.718,22.94,43.759,20.071z"/>
	<path fill-rule="evenodd" clip-rule="evenodd" fill="#C5CE7A" d="M2.838,47.104c-3.862-8.769-0.729-20.387,7.431-27.56
		c7.861-4.922,16.229-6.165,25.128-2.965c5.685,2.043,9.934,5.623,12.495,11.18c-0.903-0.102-1.667-0.27-2.425-0.253
		c-1.193,0.026-2.112,0.538-2.171,1.785c-0.056,1.18,0.799,1.845,1.892,1.689c1.429-0.201,2.15,1.406,3.622,0.993
		c0.612-0.172,0.511,0.576,0.578,0.952c0.32,1.788,0.626,3.582,0.41,5.408c-1.417,0.069-1.271-1.138-1.684-1.875
		c-1.025-1.831-2.832-1.949-4.121-0.25c-0.705,1.324-1.076,2.707-0.91,4.203c0.147,1.333-0.215,1.972-1.791,1.306
		c-2.042-0.862-4.162-0.642-6.267-0.171c1.376-0.282,2.773-0.356,4.174-0.258c2.702,0.189,4.249,1.364,4.608,3.446
		c0.44,2.554-0.568,4.46-2.942,5.563c-3.034,1.407-7.842,1.052-10.954-0.812c2.438,1.539,5.471,2.107,8.456,1.586
		c4.164-0.729,5.796-2.655,5.395-6.621c-0.104-1.027-0.122-1.565,1.168-1.336c1.676,0.298,2.146-1.11,3.002-1.965
		c0.953-0.356,0.597-1.848,1.857-1.938c0.054,1.882,0.364,3.696,0.93,5.529c1.081,3.508-0.162,6.592-2.694,9.18
		c-2.501,2.557-5.643,4.142-9.229,4.928c-1.964-0.008-3.851,0.599-5.792,0.711c-9.163,0.525-17.771-0.89-25.131-6.596
		C5.766,51.33,4.718,48.9,2.838,47.104z"/>
	<path fill-rule="evenodd" clip-rule="evenodd" fill="#C1CB7A" d="M55.799,45.757c0.585-0.105,1.256-0.4,1.586,0.349
		c0.247,0.559,0.313,1.188-0.472,1.446c-0.744,0.247-0.991,0.921-0.805,1.377c0.348,0.848,0.963,0.169,1.484-0.003
		c0.728-0.239,1.368,0.013,1.876,0.501c0.431,0.412,0.29,0.881,0.1,1.404c-2.7,7.432-8.308,12.13-15.69,15.229
		c-1.729,0.726-2.825,0.887-2.984-1.362c-0.039-0.561-0.11-1.335-1.177-1.803c0.356,2.741,0.695,5.312,1.024,7.884
		c0.429,3.361,0.184,6.667-1.067,9.858c-0.233,0.598-0.197,1.018,0.084,1.603c1.457,3.039,2.042,6.222,1.331,9.536
		c-0.214,0.995-0.234,1.763,0.82,2.427c1.103,0.692,0.449,1.193-0.455,1.411c-2.646,0.636-5.299,0.457-7.961,0.027
		c-1.53-0.247-0.922-1.673-1.578-2.386c-0.006-0.422-0.012-0.844-0.019-1.266c-0.274-2.844,1.85-4.39,3.67-6.1
		c0.479-0.671,2.144-1.06,1.557-1.769c-0.937-1.13-1.566,0.513-2.284,0.908c-2.083,1.145-4.317,1.772-6.637,2.227
		c-1.726,0.559-2.938-0.033-3.594-1.319c1.267,1.153,0.514,2.776,0.472,4.309c-0.398,1.699-0.799,3.396-1.192,5.097
		c-0.063,0.277-0.236,0.65-0.115,0.832c1.994,2.975-0.926,2.251-2.252,2.684c-0.344,0.111-0.759,0.046-1.141,0.036
		c-5.244-0.131-5.981-0.665-6.583-5.556c-0.372-3.021-0.418-6.08-0.61-9.122c1.965-1.071,3.783-2.299,5.125-4.085
		c0.465-0.618,1.219-0.874,1.998-0.867c2.397,0.021,3.642-1.051,3.7-3.347c0.01-0.361,0.206-0.685,0.486-0.946
		c0.765-3.66,0.778-3.532,4.723-3.907c2.211-0.209,2.896,0.297,2.814,2.469c-0.14,3.63-0.053,7.266-0.772,10.854
		c-0.07,0.35-0.222,0.697,0.355,1.104c0.886-1.738,1.074-3.566,1.156-5.377c0.118-2.611,0.144-5.233,0.073-7.846
		c-0.031-1.132,0.355-1.5,1.508-1.633c1.625-0.188,3.221-0.601,4.795-1.13c-1.403-0.582-2.722-0.017-4.027,0.242
		c-1.606,0.318-2.709,0.229-2.442-1.729c0.008-0.07-0.008-0.146-0.016-0.217c-0.368-3.471-0.362-3.458,2.986-4.691
		c0.707-0.26,1.634-0.49,1.989-1.018c1.491-2.213,4.047-2.676,6.252-3.731c2.787-1.333,5.279-3.074,6.674-5.778
		C51.898,49.991,53.738,47.813,55.799,45.757z"/>
	<path fill-rule="evenodd" clip-rule="evenodd" fill="#F8FBFA" d="M50.207,30.09c0.665-0.716,1.564-0.487,2.368-0.464
		c4.415,0.129,8.849-0.332,13.246,0.38c1.722,0.279,3.423-0.52,5.2-0.042c0.87,0.235,1.354,0.459,1.426,1.335
		c0.049,0.57,0.313,1.132,0.316,1.698c0.027,6.521-0.019,13.044,0.051,19.565c0.025,2.462-1.801,1.777-3.196,1.905
		c-2.082-0.373-4.219,0.453-6.286-0.256c-0.49-0.034-0.979-0.082-1.456-0.197c-0.771-0.277-1.684-0.222-2.314-0.848
		c-0.084-0.254,0.03-0.41,0.275-0.499c0.654-0.201,1.248-0.538,1.9-0.751c3.073-0.994,5.47-2.63,5.845-5.971
		c0.468-4.139-0.898-7.566-4.593-9.995c-0.93-0.61-2.035-0.55-3.104-0.537c-1.241,0.013-2.447-0.055-3.402-0.97
		c-0.502,0.492-0.08,1.209-0.47,1.621c-2.017,2.133-3.255,4.616-3.869,7.404c-0.021,0.098-0.252,0.105-0.414,0.078
		c-0.719-1.323-0.868-2.691-0.711-4.191C51.347,36.237,50.625,33.169,50.207,30.09z"/>
	<path fill-rule="evenodd" clip-rule="evenodd" fill="#C2E4ED" d="M51.73,43.548c0.452-2.724,0.959-5.438,3.585-7.164
		c1.263-0.831-1.07-2.727,0.937-3.04c0.971-0.152,1.132,1.861,2.81,1.54c3.994-0.767,6.512,1.522,7.991,4.506
		c2.969,5.992,1.105,12.793-7.216,13.278c0.351-0.56,0.699-1.119,1.051-1.678c0.168-0.147,0.343-0.289,0.521-0.424
		c5.982-2.116,5.734-7.495,3.563-10.89c-2.53-3.951-7.937-3.771-10.244,0.281c-0.46,0.807-0.891,1.646-0.938,2.989
		c0.784-2.505,1.857-4.38,4.171-5.271c2.195-0.847,4.434-0.311,6.044,1.357c2.276,2.358,2.737,6.167,0.994,8.682
		c-0.827,1.192-1.843,2.168-3.575,1.774c-1.302-1.046-1.038-1.92,0.295-2.732c0.936-0.57,1.548-1.378,1.678-2.462
		c0.199-1.678-0.982-3.531-2.525-3.963c-1.639-0.459-3.19,0.259-4.131,1.937c-0.393,0.703-0.613,1.474-0.843,2.237
		c-1.309,0.83-2.349,1.947-3.48,3.257C52.156,46.172,51.943,44.86,51.73,43.548z"/>
	<path fill-rule="evenodd" clip-rule="evenodd" fill="#A6B063" d="M2.838,47.104c0.827-0.075,1.179,0.44,1.575,1.024
		c4.108,6.051,10.23,8.998,17.49,10.242c4.814,0.824,9.615,1.412,14.439,0.139c0.892-0.235,1.634,0.245,2.454,0.341
		c-4.121,1.354-8.355,1.827-12.699,1.46c-0.826-0.069-1.658-0.076-2.488-0.111c-4.269-0.787-8.518-1.577-12.357-3.716
		C7.273,54.269,4.419,51.218,2.838,47.104z"/>
	<path fill-rule="evenodd" clip-rule="evenodd" fill="#E6AF6F" d="M24.411,68.45c-0.031,1.557-0.619,3.068-0.395,4.644
		c-0.449,0.884,0.061,1.813-0.143,2.71c-0.675,1.139-1.929,1.344-3.075,1.729c-0.93,0.208-1.807,0.05-2.642-0.363
		c-0.619-0.307-1.057-0.908-0.606-1.398c2.129-2.313,1.679-4.859,0.95-7.466C20.923,66.429,22.959,66.479,24.411,68.45z"/>
	<path fill-rule="evenodd" clip-rule="evenodd" fill="#F0F9F8" d="M55.896,44.507c-0.459-1.851,0.879-4.248,2.682-4.8
		c1.768-0.543,3.983,0.328,4.886,1.922c1.158,2.048,0.722,4.508-1.27,5.573c-1.066,0.569-1.677,0.927-0.878,2.043
		c0.479,0.57,0.495,1.144,0.006,1.717c-0.145,0.011-0.291,0.021-0.435,0.027c0.094-1.3-0.165-2.463-1.574-3.025
		c-0.679-0.271-0.857-0.663-0.835-1.319c0.023-0.702,0.009-1.452-0.807-1.854C57.174,44.172,56.502,44.531,55.896,44.507z"/>
	<path fill-rule="evenodd" clip-rule="evenodd" fill="#BAC672" d="M27.089,70.517c-0.455-0.456-1.854,0.888-1.847-0.871
		c0.013-3.002,1.019-5.528,2.306-5.562c3.985-0.1,4.131,0.042,4.307,4.205C31.94,70.329,31.94,70.329,27.089,70.517z"/>
	<path fill-rule="evenodd" clip-rule="evenodd" fill="#5F7540" d="M21.304,61.989c-0.337-0.146-0.704-0.252-1.002-0.45
		c-0.225-0.15-0.36-0.419-0.729-0.873c1.212,0.154,2.134,0.271,3.055,0.389c4.97,0.808,9.919,0.662,14.875-0.266
		c-3.549,2.653-7.569,2.934-11.764,2.056C24.264,62.535,22.873,61.864,21.304,61.989z"/>
	<path fill-rule="evenodd" clip-rule="evenodd" fill="#1D201C" d="M23.562,75.78c0.155-0.895-0.008-1.838,0.455-2.686
		c0.179,0.621-0.178,1.365,0.479,1.876c0.021,4.062-0.29,4.471-4.257,4.795c-0.992,0.081-1.412,0.557-1.957,1.193
		c-1.335,1.563-2.669,3.201-5.095,3.257c-0.655-0.313-0.609-0.878-0.571-1.438c0.547-0.268,1.181-0.226,1.745-0.44
		c1.782-0.68,2.324-1.663,1.879-3.42c0.172-0.175,0.343-0.35,0.514-0.524c1.093-0.493,2.205,0.054,3.31-0.055
		c0.887-0.087,1.813,0.019,2.525-0.645C23.085,77.134,23.209,76.403,23.562,75.78z"/>
	<path fill-rule="evenodd" clip-rule="evenodd" fill="#E9EBD5" d="M49.789,39.213c-0.811,0.512-0.113,1.93-1.43,2.137
		c-0.422-0.374-0.405-0.887-0.487-1.373c-0.497-2.953-1.107-3.582-4.078-4.214c-0.089-1.403,1.046-1.347,1.961-1.375
		c1.438-0.042,2.439,0.656,3.003,1.92c0.31,0.691,0.029,1.659,1.04,2.026C49.794,38.627,49.791,38.92,49.789,39.213z"/>
	<path fill-rule="evenodd" clip-rule="evenodd" fill="#E4C297" d="M24.411,68.45c-1.959-1.672-3.927-0.764-5.894-0.019
		c-1.26,0.199-2.301-0.108-3.014-1.176c-0.133-1.18,0.688-1.489,1.664-1.544c1.348-0.076,2.703-0.172,4.038,0.112
		c0.582,1.518,2.48,0.337,3.277,1.428c0.049,0.094,0.097,0.189,0.145,0.285C24.555,67.842,24.483,68.146,24.411,68.45z"/>
	<path fill-rule="evenodd" clip-rule="evenodd" fill="#314D40" d="M24.965,64.035c0.099,0.474,0.776,0.904,0.117,1.434
		c-0.749,0.484-1.565,0.197-2.359,0.191c-2.482-0.39-5.052,0.245-7.496-0.583c-0.598-0.608-0.999-1.199,0.167-1.646
		C18.574,63.758,21.845,62.822,24.965,64.035z"/>
	<path fill-rule="evenodd" clip-rule="evenodd" fill="#C6D6DE" d="M24.965,64.035c-3.175-0.281-6.392,0.491-9.544-0.349
		c0.746-1.479,2.212-0.475,3.277-0.855c0.563-0.054,1.127-0.108,1.69-0.162C21.982,62.918,23.809,62.466,24.965,64.035z"/>
	<path fill-rule="evenodd" clip-rule="evenodd" fill="#DFE5DD" d="M48.372,30.48c-1.215,0.348-2.152-0.362-3.188-0.416
		c-0.618-0.032-1.019-0.389-0.872-1.007c0.134-0.564,0.621-0.804,1.213-0.78C47.021,28.336,48.124,28.854,48.372,30.48z"/>
	<path fill-rule="evenodd" clip-rule="evenodd" fill="#2E3B2D" d="M23.177,65.338c0.634,0.044,1.27,0.087,1.905,0.13
		c-0.214,0.678,0.222,1.482-0.454,2.069l-0.199,0.035c-0.408-1.446-1.949-0.513-2.73-1.173c-1.56-0.049-3.126-0.024-4.676-0.167
		c-1.207-0.112-1.424,0.373-1.203,1.323c-1.648-0.729-0.926-1.506-0.05-2.284C18.236,65.422,20.706,65.459,23.177,65.338z"/>
	<path fill-rule="evenodd" clip-rule="evenodd" fill="#C0C876" d="M13.043,61.462c1.356-1.761,2.979-2.165,4.94-0.884
		c0.54,0.354,1.411,0.618,1.257,1.318c-0.148,0.675-1.075,0.21-1.59,0.469c-0.226,0.204-0.491,0.328-0.794,0.402
		c-1.627,0.398-2.528,0.998-2.007,2.965c0.574,2.163,0.317,2.225-2.641,3.158c3.872-1.079,6.075-0.495,6.766,1.796
		c0.784,2.605-0.782,5.093-3.765,5.977c-0.425,0.145-0.853,0.283-1.275,0.437c-2.268,0.819-4.391,0.622-6.151-1.03
		c-1.693-1.588-1.536-3.509-0.777-5.461C8.344,67.159,10.723,64.328,13.043,61.462z"/>
	<path fill-rule="evenodd" clip-rule="evenodd" fill="#4F603B" d="M3.395,76.695C0.745,70.79,0.408,64.829,2.916,58.799
		c1.22,1.179,2.411,2.387,3.674,3.522c0.597,0.535,0.353,1.028,0.148,1.567c-1.067,2.822-1.299,5.823-1.323,8.729
		c-0.022,2.675,0.917,5.356,1.426,8.036c0.034,0.178,0.004,0.365,0.004,0.641C5.191,80.008,4.552,78.177,3.395,76.695z"/>
	<path fill-rule="evenodd" clip-rule="evenodd" fill="#1D201C" d="M15.209,76.663c0.859-0.702,1.836-1.313,2.551-2.128
		c1.175-1.335,1.342-2.914,0.463-4.458c-0.839-1.474-2.368-1.489-3.827-1.228c-1.311,0.237-2.574,0.712-4.169,1.172
		c0.574-1.483,1.825-1.591,2.77-1.808c1.38-0.314,1.86-0.775,1.583-2.202c-0.568-2.925-0.292-3.155,3.07-3.646
		c0.35,0.156,0.698,0.31,1.048,0.466c-1.093,0.285-2.185,0.57-3.277,0.855c-0.9,0.415-0.194,0.871-0.038,1.314
		c0.212,0.108,0.472,0.182,0.396,0.496c-0.393,0.693-0.843,1.389,0.041,2.059c1.005,0.002,1.872,0.382,2.698,0.876
		c1.71,2.474,1.938,4.712,0.159,6.584c-1.616,1.699-0.359,1.753,0.919,1.996c0.371,0.071,0.761,0.059,1.142,0.084
		c0.501-0.194,0.638,0.071,0.666,0.475c-1.483,1.214-3.215,0.176-4.8,0.476C16.114,77.607,15.974,76.852,15.209,76.663z"/>
	<path fill-rule="evenodd" clip-rule="evenodd" fill="#566740" d="M3.899,57.958c-0.014-0.285-0.095-0.586-0.032-0.855
		c0.279-1.194,0.887-2.93,1.925-2.789c1.508,0.205,2.857,1.544,3.789,2.819c0.275,0.378-0.433,1.401-0.691,2.13
		c-0.77,0.567-0.709,1.572-1.407,2.381C6.032,60.625,5.103,59.162,3.899,57.958z"/>
	<path fill-rule="evenodd" clip-rule="evenodd" fill="#596940" d="M7.482,77.983c3.746,0.008,4.027,2.271,4.197,4.652
		c0.056,0.782,0.313,1.551,0.374,2.333c0.042,0.54,0.358,1.276-0.255,1.593c-0.691,0.357-1.061-0.393-1.441-0.777
		C8.182,83.591,7.923,80.795,7.482,77.983z"/>
	<path fill-rule="evenodd" clip-rule="evenodd" fill="#607245" d="M9.357,59.715c0.595-0.616,0.932-1.572,1.9-1.709
		c0.758-0.105,1.54,0.316,1.969,0.867c0.668,0.857-0.698,1.29-0.697,2.061c-2.11,1.619-3.398,3.881-5.141,6.059
		C7.316,64.232,8.803,62.087,9.357,59.715z"/>
	<path fill-rule="evenodd" clip-rule="evenodd" fill="#5F7142" d="M16.24,78.917c0.276,0.605,1.648,0.587,0.958,1.784
		c-0.896,1.554-2.756,2.489-4.583,2.077c-0.163-0.918-0.31-1.838-0.493-2.753c-0.381-1.907,1.496-1.378,2.336-1.971
		C15.679,77.195,15.699,78.535,16.24,78.917z"/>
	<path fill-rule="evenodd" clip-rule="evenodd" fill="#A6AF62" d="M35.566,85.89c-1.108,2.097-3.188,3.665-3.67,6.1
		c-0.055-0.049-0.137-0.087-0.161-0.146C30.143,88.034,30.143,88.034,35.566,85.89z"/>
	<path fill-rule="evenodd" clip-rule="evenodd" fill="#E0E3E5" d="M16.604,78.046c0.026-0.539,0.062-1.045,0.889-0.747
		c1.236,0.444,2.514,0.373,3.793,0.234c1.695-0.863,1.771-0.844,1.913,0.51c-2.073,1.356-4.254,0.939-6.444,0.35
		C16.763,78.254,16.713,78.139,16.604,78.046z"/>
	<path fill-rule="evenodd" clip-rule="evenodd" fill="#21221E" d="M25.08,90.245c0.343-2.181,0.003-4.133-2.592-5.306
		c1.57-0.729,2.25-0.049,2.5,0.631c0.577,1.568,1.748,1.808,3.214,1.686C26.223,87.369,25.178,88.362,25.08,90.245z"/>
	<path fill-rule="evenodd" clip-rule="evenodd" fill="#B9E1F0" d="M55.272,60.134c0.637-0.722,1.273-1.443,1.912-2.163
		c1.107,0.195,0.991,1.199,1.296,2.057c1.073-1.49-0.825-1.661-0.943-2.531c0.189-0.275,0.38-0.55,0.57-0.826
		c1.912-0.105,3.786,0.36,5.698,0.354c0.696-0.002,1.395,0.288,1.415,1.134c0.021,0.852-0.688,1.021-1.366,1.208
		c-0.408,0.112-0.9-0.027-1.356,0.502c2.58,0.148,3.12,1.767,3.162,3.743c0.021,1.017,0.001,2.032,0.017,3.048
		c0.016,1.107-0.573,1.611-1.701,1.549c-2.364-0.133-4.681-0.64-7.036-0.844c-1.216-0.104-1.308-0.923-1.39-1.877
		C55.395,63.704,56.099,61.88,55.272,60.134z"/>
	<path fill-rule="evenodd" clip-rule="evenodd" fill="#DCF1F6" d="M55.272,60.134c0.834,0.361,1.111,0.927,0.77,1.765
		c-0.458,1.123-0.164,2.301-0.24,3.453c-0.074,1.142,0.405,1.794,1.706,1.783c1.916-0.019,3.764,0.431,5.625,0.78
		c1.486,0.279,2.418-0.137,2.313-1.77c-0.068-1.078-0.134-2.151-0.264-3.229c-0.212-1.759-1.039-2.426-2.805-2.336
		c-0.674,0.035-1.497,0.084-1.449-0.912c0.047-0.994,0.906-0.726,1.545-0.84c0.817-0.148,2.288,0.481,2.292-0.636
		c0.004-1.136-1.469-0.592-2.28-0.627c-1.525-0.066-3.027-0.106-4.378-0.896c0.102-0.171,0.204-0.342,0.307-0.514
		c2.104-0.378,4.196-0.25,6.217,0.375c1.383,0.428,2.22,1.261,1.302,2.753c-0.005,2.315-0.134,4.638,0.024,6.943
		c0.132,1.892-0.658,2.447-2.496,2.231c-1.955-0.229-3.926-0.338-5.884-0.549c-1.662-0.18-2.448-0.922-2.3-2.693
		c0.13-1.546,0.444-3.188-0.413-4.689C55,60.396,55.136,60.264,55.272,60.134z"/>
	<path fill-rule="evenodd" clip-rule="evenodd" fill="#B9E1F0" d="M65.933,59.284c0.299-2.636-1.933-2.31-3.505-2.587
		c-1.321-0.232-2.753,0.194-4.014-0.541c0.249-1.043,1.116-1.871,1.147-2.99c0.746,0.118,1.6-0.25,2.221,0.438
		c0.114,0.834,0.216,0.836,1.366,0.033c2.132,0.45,4.378,0.1,6.47,0.83c-0.926-0.029-1.781,0.004-2.174,1.05
		c-0.44,1.18,0.714,1.39,1.236,1.986c-0.422,0.622-0.816,1.265-1.394,1.776C66.834,59.281,66.384,59.283,65.933,59.284z"/>
	<path fill-rule="evenodd" clip-rule="evenodd" fill="#D7F0F6" d="M57.537,57.496c0.688,0.472,1.881,0.294,2.037,1.461
		c0.053,0.394,0.493,0.811-0.128,1.113C59,60.288,58.5,60.675,58.087,60.612c-0.451-0.068-0.521-0.668-0.323-1.102
		c0.321-0.706-0.413-1.021-0.579-1.54C57.302,57.813,57.419,57.655,57.537,57.496z"/>
	<path fill-rule="evenodd" clip-rule="evenodd" fill="#F9FCFB" d="M82.804,76.784c-4.847-0.603-9.748-1.172-14.635-1.831
		c-4.961-0.669-9.906-1.423-14.857-2.148c-0.448-0.064-0.901-0.148-1.323-0.298c-0.773-0.272-1.365-0.712-1.104-1.622
		c0.267-0.927,0.928-1.235,1.914-1.103c9.396,1.269,18.795,2.527,28.194,3.778c0.679,0.091,1.382,0.033,2.053,0.158
		c1.165,0.216,2.307,0.549,2.144,2.031C85.016,77.313,83.691,76.525,82.804,76.784z"/>
	<path fill-rule="evenodd" clip-rule="evenodd" fill="#DEF2F4" d="M71.892,16.928c0,2.253-0.038,4.506,0.016,6.757
		c0.031,1.342-0.443,2.077-1.973,2.006c-5.431-0.25-10.839,0.354-16.261,0.415c-2.494,0.027-3.369-0.775-3.383-3.051
		c-0.025-3.851,0.01-7.702-0.016-11.553c-0.009-1.352,0.459-2.317,2.02-2.372c5.638-0.196,11.24-0.887,16.894-0.95
		c2.144-0.024,2.883,0.648,2.737,2.645C71.777,12.851,71.893,14.893,71.892,16.928z"/>
	<path fill-rule="evenodd" clip-rule="evenodd" fill="#BBE0ED" d="M82.904,58.859c0.17-0.001,0.339-0.001,0.508-0.001
		c0.423,0.197,0.217,1.155,1.059,0.826c2.651-1.035,5.275,0.156,7.915,0.071c1.167-0.037,1.562,0.712,1.565,1.723
		c0.011,2.902,0.016,5.805-0.002,8.706c-0.009,1.309-0.693,1.826-2.049,1.651c-2.489-0.322-4.994-0.532-7.487-0.842
		c-0.881-0.11-1.786-0.491-1.817-1.395c-0.117-3.315-0.786-6.633-0.072-9.952C82.584,59.363,82.75,59.109,82.904,58.859z"/>
	<path fill-rule="evenodd" clip-rule="evenodd" fill="#DCF0F5" d="M67.287,59.28c-0.041-0.948,0.217-1.686,1.394-1.776
		c2.886,0.159,5.772,0.287,8.655,0.489c1.594,0.112,2.462,0.841,2.393,2.534c-0.105,2.534-0.073,5.076-0.005,7.613
		c0.039,1.468-0.509,2.122-2.129,2.07c-2.891-0.092-5.742-0.457-8.604-0.82c-1.403-0.18-1.736-0.873-1.716-2.061
		C67.32,64.646,67.288,61.964,67.287,59.28z"/>
	<path fill-rule="evenodd" clip-rule="evenodd" fill="#E1F3F5" d="M91.682,16.981c-0.122,1.046,0.293,2.313-0.284,3.479
		c-0.765,1.549-1.974,2.564-3.878,2.601c-0.992,0.019-1.986,0-2.979-0.002c-4.132-0.009-6.609-2.671-6.103-6.596
		c0.063-0.491,0.287-0.938,0.21-1.477c-0.564-3.972,3.473-7.195,7.71-6.184C90.688,9.837,91.665,11.308,91.682,16.981z"/>
	<path fill-rule="evenodd" clip-rule="evenodd" fill="#E0F0F5" d="M82.904,58.859c-1.009,3.441,0.012,6.878,0.033,10.317
		c0.006,0.848,0.424,1.33,1.354,1.435c2.406,0.271,4.808,0.573,7.211,0.872c1.423,0.176,2.09-0.258,2.029-1.764
		c-0.107-2.675-0.062-5.355-0.015-8.033c0.021-1.1-0.381-1.567-1.584-1.556c-1.589,0.016-3.129-0.475-4.75-0.46
		c-1.565,0.015-2.894,0.133-3.771,1.781c0-0.864,0-1.73,0-2.595c2.988-0.322,5.911,0.542,8.895,0.44
		c1.393-0.047,2.101,0.735,2.104,2.046c0.009,2.976,0.006,5.951-0.006,8.927c-0.007,1.29-0.638,2.156-2.07,2.039
		c-2.567-0.209-5.135-0.497-7.683-0.863c-1.328-0.19-2.594-0.716-2.624-2.27c-0.055-2.975-0.02-5.951-0.021-8.927
		C82.006,59.611,82.275,59.131,82.904,58.859z"/>
	<path fill-rule="evenodd" clip-rule="evenodd" fill="#E0F1F3" d="M81.811,36.152c3.412,0.207,6.813,0.617,10.243,0.448
		c0.501-0.025,1.2-0.135,1.29,0.563c0.096,0.746-0.596,0.701-1.111,0.726c-4.363,0.206-8.679-0.753-13.048-0.464
		c-0.479,0.032-1.021-0.184-1.057-0.648c-0.059-0.792,0.691-0.59,1.166-0.612C80.131,36.124,80.972,36.152,81.811,36.152z"/>
	<path fill-rule="evenodd" clip-rule="evenodd" fill="#E7F6F8" d="M78.192,52.322c2.373,0.766,4.674-0.097,6.975-0.037
		c0.623,0.016,1.255,0.024,1.688,0.514c0.652,0.738,1.389,0.86,2.196,0.305c0.778-0.537,1.473,0.009,2.189,0.106
		c0.723,0.098,1.904,0.243,1.636,1.081c-0.368,1.151-1.179-0.056-1.81-0.079c-0.224-0.009-0.542-0.211-0.65-0.127
		c-2.08,1.571-3.79-0.23-5.64-0.576c-0.711-0.133-1.353-0.215-1.985,0.086C80.907,54.489,79.644,53.13,78.192,52.322z"/>
	<path fill-rule="evenodd" clip-rule="evenodd" fill="#DFF1F2" d="M93.798,32.29c-1.047,0.328-1.71,0.778-2.15,0.633
		c-1.859-0.618-3.727-0.279-5.593-0.273c-0.612,0.003-1.438,0.013-1.48-0.678c-0.057-0.896,0.877-0.618,1.385-0.593
		C88.402,31.501,90.94,30.852,93.798,32.29z"/>
	<path fill-rule="evenodd" clip-rule="evenodd" fill="#EAF5F5" d="M93.252,46.41c-3.008,0.679-5.955-0.171-8.911-0.343
		c-0.321-0.019-0.472-0.382-0.344-0.677c0.065-0.149,0.358-0.341,0.492-0.31c2.544,0.603,5.187-0.179,7.712,0.509
		C92.58,45.692,93.162,45.627,93.252,46.41z"/>
	<path fill-rule="evenodd" clip-rule="evenodd" fill="#E5F2F2" d="M89.563,47.976c0.91,0,1.819-0.022,2.73,0.009
		c0.477,0.017,0.973,0.23,0.977,0.715c0.008,0.602-0.593,0.538-1.026,0.541c-1.744,0.008-3.49,0.012-5.235-0.023
		c-0.538-0.011-1.147-0.168-1.063-0.832c0.075-0.583,0.697-0.426,1.113-0.441c0.833-0.031,1.669-0.009,2.505-0.009
		C89.563,47.948,89.563,47.962,89.563,47.976z"/>
	<path fill-rule="evenodd" clip-rule="evenodd" fill="#E0F1F3" d="M85.31,34.274c2.857-0.516,5.096-0.224,7.313-0.268
		c0.41-0.008,0.764,0.2,0.754,0.628c-0.011,0.42-0.372,0.636-0.775,0.618C90.371,35.162,88.061,35.737,85.31,34.274z"/>
	<path fill-rule="evenodd" clip-rule="evenodd" fill="#DDF1F4" d="M81.436,41.392c0.152,0,0.319-0.037,0.457,0.005
		c0.765,0.242,2.268-0.57,2.187,0.725c-0.072,1.15-1.334,0.252-2.07,0.299c-0.754,0.047-1.501,0.221-2.255,0.257
		c-0.498,0.023-1.234,0.138-1.273-0.568c-0.049-0.904,0.796-0.666,1.35-0.709C80.362,41.358,80.9,41.392,81.436,41.392z"/>
	<path fill-rule="evenodd" clip-rule="evenodd" fill="#E0F2F5" d="M83.523,38.784c-1.309,1.763-3.004,1.2-4.587,1.199
		c-0.314,0-0.521-0.301-0.483-0.615c0.051-0.437,0.417-0.574,0.815-0.578C80.686,38.776,82.104,38.784,83.523,38.784z"/>
	<path fill-rule="evenodd" clip-rule="evenodd" fill="#E6F5F7" d="M78.281,50.158c2.278-0.661,4.499-0.46,7.348,0.39
		C82.66,51.504,80.519,50.085,78.281,50.158z"/>
	<path fill-rule="evenodd" clip-rule="evenodd" fill="#DFF1F2" d="M82.271,32.992c-1.029-0.684-2.159-1.272-3.432-0.085
		c-0.208,0.192-0.64-0.523-0.363-0.733c0.759-0.576,1.375-1.715,2.683-0.926c0.422,0.254,0.65,0.883,1.313,0.669
		c0.38-0.123,0.876-0.617,0.849,0.248C83.305,32.615,82.956,32.947,82.271,32.992z"/>
	<path fill-rule="evenodd" clip-rule="evenodd" fill="#ECF6F5" d="M84.701,48.01c-2.234,0.563-3.825,0.308-5.394,0.339
		c-0.478,0.009-0.966-0.168-0.836-0.754c0.11-0.498,0.554-0.367,0.919-0.261C80.898,47.771,82.54,47.144,84.701,48.01z"/>
	<path fill-rule="evenodd" clip-rule="evenodd" fill="#DBEFF2" d="M91.477,40.568c-0.725-0.199-1.828,0.282-1.814-0.561
		c0.018-1.098,1.222-0.779,1.981-0.781c0.607-0.002,1.682-0.313,1.668,0.557C93.293,41.042,91.993,40.2,91.477,40.568z"/>
	<path fill-rule="evenodd" clip-rule="evenodd" fill="#E8F5F4" d="M78.634,34.38c1.807-0.533,3.598-0.46,5.38-0.038
		C82.221,35.029,80.426,34.96,78.634,34.38z"/>
	<path fill-rule="evenodd" clip-rule="evenodd" fill="#E7F5F5" d="M83.438,45.786c-1.846,1.09-3.371-1.081-4.914,0.297
		C79.981,44.06,81.561,44.895,83.438,45.786z"/>
	<path fill-rule="evenodd" clip-rule="evenodd" fill="#E0F1F3" d="M88.204,39.462c-0.036,0.242-0.028,0.363-0.061,0.375
		c-1.158,0.408-2.341,0.378-3.491,0.025c-0.255-0.078-0.209-0.563,0.08-0.711C85.991,38.51,87.047,39.344,88.204,39.462z"/>
	<path fill-rule="evenodd" clip-rule="evenodd" fill="#DEF1F5" d="M90.515,75.193c0.475,0.195,0.706,0.546,0.609,1.025
		c-0.09,0.444-0.343,0.879-0.893,0.721c-0.553-0.159-0.399-0.702-0.387-1.109C89.856,75.454,89.986,75.12,90.515,75.193z"/>
	<path fill-rule="evenodd" clip-rule="evenodd" fill="#E9F6F7" d="M88.029,76.616c-0.488-0.108-0.508-0.536-0.457-0.961
		c0.047-0.391,0.295-0.65,0.739-0.572c0.576,0.102,0.605,0.546,0.553,0.972C88.817,76.441,88.579,76.683,88.029,76.616z"/>
	<path fill-rule="evenodd" clip-rule="evenodd" fill="#1A1916" d="M43.794,35.763c2.159-0.608,3.284-0.057,4.163,2.001
		c0.5,1.165,0.477,2.37,0.402,3.587c-0.974,1.559-1.85,3.288-4.348,2.107c1.099,4.617-0.637,7.172-5.446,8.094
		c-3.391,0.648-6.529-0.013-9.366-1.86c-0.502-0.326-1.475-0.852-0.931-1.487c0.765-0.896,1.056,0.322,1.479,0.646
		c2.635,2.017,7.854,2.515,10.898,0.985c2.217-1.114,3.221-2.91,2.78-4.979c-0.419-1.971-1.937-2.95-4.587-3.175
		c-2.087-0.178-3.982,0.576-6.25,1.187c2.318-2.585,5.46-2.882,10.044-1.159C42.39,39.581,42.136,37.479,43.794,35.763z"/>
	<path fill-rule="evenodd" clip-rule="evenodd" fill="#1B1917" d="M26.823,36.661c2.044,1.578,2.603,3.626,2.046,5.989
		c-0.733,3.109-2.807,3.924-5.653,2.258c-2.66-2.038-2.274-7.025,0.684-8.469C24.88,35.961,25.917,35.784,26.823,36.661z"/>
	<path fill-rule="evenodd" clip-rule="evenodd" fill="#F6F6F3" d="M26.823,36.661c-3.021-0.336-4.872,1.332-4.834,4.399
		c0.018,1.384,0.446,2.67,1.226,3.847c-0.182,0.112-0.413,0.357-0.54,0.315c-2.058-0.668-3.268-3.701-2.549-6.315
		c0.765-2.784,2.709-4.151,5.269-3.625C26.106,35.43,27.113,35.492,26.823,36.661z"/>
	<path fill-rule="evenodd" clip-rule="evenodd" fill="#20201A" d="M23.671,28.389c0.269,0.072,0.949,0.191,1.57,0.443
		c0.657,0.267,1.174,0.754,1.133,1.495c-0.045,0.833-0.605,1.356-1.447,1.453c-1.657,0.192-3.041,0.9-4.351,1.822
		c-0.8,0.563-1.697,0.78-2.485,0.023c-0.696-0.668-0.471-1.461-0.094-2.227C18.818,29.737,21.099,28.427,23.671,28.389z"/>
	<path fill-rule="evenodd" clip-rule="evenodd" fill="#373928" d="M37.547,44.23c0.442,0.181,0.764,0.482,0.731,0.948
		c-0.025,0.37-0.284,0.701-0.728,0.524c-0.429-0.169-0.635-0.573-0.618-1.023C36.947,44.329,37.229,44.241,37.547,44.23z"/>
	<path fill-rule="evenodd" clip-rule="evenodd" fill="#BCE1EC" d="M71.008,44.334c-0.191,2.828-0.403,5.656-2.809,7.774
		c-0.438,0.385-0.954,0.971-1.539,0.388c-0.44-0.438,0.077-0.996,0.383-1.342c3.894-4.396,2.921-8.975,0.674-13.643
		c-0.323-0.674-1.04-0.831-1.454-1.335c-0.476-0.58-0.571-1.308,0.032-1.763c0.711-0.538,1.134,0.257,1.415,0.661
		C69.646,37.878,71.208,40.82,71.008,44.334z"/>
	<path fill-rule="evenodd" clip-rule="evenodd" fill="#BCE1EC" d="M69.244,35.509c-0.082-1.141-0.515-2.208,0.811-2.727
		c0.568-0.223,1.139,0.127,1.229,0.631C71.517,34.682,70.545,35.102,69.244,35.509z"/>
	<path fill-rule="evenodd" clip-rule="evenodd" fill="#B0DEF2" d="M63.148,53.638c-0.068,0.881-0.587,1.285-1.496,1.25
		c-0.487-0.02-1.005-0.213-1.035-0.669c-0.053-0.794,0.699-0.525,1.165-0.614C62.236,53.616,62.691,53.627,63.148,53.638z"/>
	<path fill-rule="evenodd" clip-rule="evenodd" fill="#F8FCFC" d="M61.322,50.962c-0.003-0.572-0.005-1.146-0.006-1.717
		c4.187-0.703,5.664-5.716,2.808-9.338c-1.331-1.689-3.021-2.36-5.168-1.983c-1.989,0.35-3.152,1.655-3.941,3.304
		c-0.482,1.005-0.563,2.194-1.482,3.183c-0.764-2.341,0.297-5.171,2.402-6.837c2-1.581,4.631-1.836,6.83-0.66
		c3.179,1.7,4.781,5.006,4.003,9.182C66.259,48.817,64.203,50.411,61.322,50.962z"/>
	<path fill-rule="evenodd" clip-rule="evenodd" fill="#3E4741" d="M23.198,78.043c-0.064-2.109-1.45,0.253-1.913-0.51
		c-0.184-0.146-0.365-0.291-0.548-0.438c0.923-0.476,2.071-0.513,2.824-1.315C23.544,76.549,23.996,77.386,23.198,78.043z"/>
	<path fill-rule="evenodd" clip-rule="evenodd" fill="#C5E7F1" d="M58.157,42.937c0.56-1.56,1.632-1.783,2.819-1.405
		c1.093,0.347,1.354,1.278,1.252,2.309c-0.043,0.448-0.085,0.898-0.681,0.962c-0.412,0.045-0.86-0.153-0.919-0.5
		C60.402,42.979,59.524,42.628,58.157,42.937z"/>
	<path fill-rule="evenodd" clip-rule="evenodd" fill="#E8E3E0" d="M21.698,66.399c0.825,0.567,3.025-1.746,2.73,1.173
		c-0.847-0.586-1.847-0.288-2.761-0.456C20.632,66.927,21.715,66.647,21.698,66.399z"/>
	<path fill-rule="evenodd" clip-rule="evenodd" fill="#85C7C1" d="M15.778,65.497c-0.132-0.165-0.264-0.33-0.396-0.496
		c2.614-0.228,5.217-0.197,7.794,0.337C20.729,66.118,18.257,65.957,15.778,65.497z"/>
	<path fill-rule="evenodd" clip-rule="evenodd" fill="#D6EFF5" d="M64.164,66.91c-0.978-0.74-1.354-2.358-3.102-1.3
		c-0.646,0.392-1.046-0.372-1.091-0.982c-0.052-0.705-0.109-1.768,0.865-1.641c0.83,0.107,2.16-0.622,2.437,0.329
		C63.6,64.437,65.199,65.375,64.164,66.91z"/>
	<path fill-rule="evenodd" clip-rule="evenodd" fill="#B0DFF1" d="M70.969,16.994c0,2.104-0.04,4.206,0.017,6.308
		c0.029,1.128-0.43,1.584-1.613,1.517c-5.268-0.302-10.5,0.567-15.769,0.465c-1.746-0.034-2.482-0.509-2.438-2.252
		c0.1-3.695,0.065-7.396,0.016-11.093c-0.019-1.362,0.489-1.901,1.983-1.998c5.302-0.34,10.595-0.806,15.89-1.24
		c1.388-0.114,1.948,0.474,1.925,1.767C70.94,12.643,70.97,14.819,70.969,16.994z"/>
	<path fill-rule="evenodd" clip-rule="evenodd" fill="#DAEFF4" d="M92.479,63.85c-0.697-0.87-0.633-1.928-1.891-2.317
		c0.701,1.756,1.724,3.422,0.72,5.155c-0.454,0.785-1.17,1.527-2.248,1.739c-1.923,0.378-4.009-0.905-4.293-2.664
		c-0.599-3.705,0.187-5.429,2.547-5.604C90.302,59.939,92.434,61.357,92.479,63.85z"/>
	<path fill-rule="evenodd" clip-rule="evenodd" fill="#E3F3F7" d="M92.235,67.475c0.629,3.173,0.482,3.343-2.328,2.799
		c-1.421-0.275-2.997,0.338-4.292-0.887c1.102,0,2.218-0.122,3.297,0.024C91.292,69.735,91.283,69.789,92.235,67.475z"/>
	<path fill-rule="evenodd" clip-rule="evenodd" fill="#BCE1ED" d="M78.238,60.508c-3.035-1.129-5.93-0.537-8.636-1.214
		c-0.541-0.136-1.43,0.107-1.223-0.813c0.162-0.711,0.82-0.315,1.327-0.265c2.337,0.233,4.678,0.504,7.023,0.595
		c1.426,0.056,2.109,0.483,2.078,1.91c-0.057,2.534-0.022,5.072-0.014,7.609c0.004,0.939-0.142,1.446-1.446,1.229
		c-2.233-0.373-4.513-0.552-6.782-0.663c-1.711-0.084-2.54-0.695-2.371-2.397c0.093-0.933,0.019-1.882,0.019-2.824
		c-0.004-3.784,0.434-4.192,4.486-3.415C74.443,60.593,76.127,60.583,78.238,60.508z"/>
	<path fill-rule="evenodd" clip-rule="evenodd" fill="#B4DFEF" d="M81.897,14.735c1.267-1.486,4.009-1.74,3.415-4.518
		c-0.133-0.621,0.646-0.678,1.202-0.621c2.051,0.209,4.13,2.279,4.213,4.274c0.063,1.52-0.005,3.044,0.027,4.565
		c0.047,2.076-1.052,3.329-3.141,3.614c-1.415,0.192-2.92,0.235-4.32-0.001c-3.108-0.524-4.027-1.741-4.032-4.81
		c-0.002-1.159-0.053-2.321,0.007-3.479c0.1-1.929,2.334-4.061,4.323-4.182c0.729-0.044,1.165,0.075,0.91,0.979
		c-0.299,1.054-0.909,1.817-1.855,2.365C81.982,13.307,81.255,13.63,81.897,14.735z"/>
	<path fill-rule="evenodd" clip-rule="evenodd" fill="#F4F4F4" d="M46.855,38.415c-0.026,0.731-0.424,1.343-1.288,1.401
		c-0.953,0.064-1.269-0.606-1.276-1.401c-0.006-0.773,0.253-1.512,1.176-1.53C46.354,36.868,46.696,37.576,46.855,38.415z"/>
	<path fill-rule="evenodd" clip-rule="evenodd" fill="#F0F1F1" d="M26.465,41.497c-0.989-0.08-1.48-0.628-1.527-1.534
		c-0.044-0.871,0.295-1.659,1.261-1.759c1.03-0.106,1.401,0.694,1.501,1.534C27.803,40.615,27.48,41.28,26.465,41.497z"/>
	<path fill-rule="evenodd" clip-rule="evenodd" fill="#E8EAE1" d="M23.305,29.317c0.638,0.11,1.722-0.014,1.842,0.792
		c0.156,1.036-1.007,0.734-1.65,0.903c-1.199,0.312-2.228,0.903-3.194,1.629c-0.406,0.306-0.867,0.681-1.383,0.126
		c-0.482-0.521-0.057-0.963,0.196-1.371C19.788,30.313,21.776,29.331,23.305,29.317z"/>
	<path fill-rule="evenodd" clip-rule="evenodd" fill="#F9FBFC" d="M52.069,13.956c0.422-1.082,0.555-2.54,2.274-2.427
		c1.676,0.109,2.555,1.067,2.408,2.782c-0.129,1.501-0.86,2.632-2.447,2.557C52.646,16.788,52.308,15.348,52.069,13.956z"/>
	<path fill-rule="evenodd" clip-rule="evenodd" fill="#D8F0F6" d="M60.398,20.963c1.866-0.856,3.46-0.379,4.992-0.487
		c0.389-0.027,0.811,0.125,0.734,0.579c-0.036,0.22-0.369,0.548-0.59,0.563C63.917,21.741,62.253,22.125,60.398,20.963z"/>
	<path fill-rule="evenodd" clip-rule="evenodd" fill="#DFF3F8" d="M58.302,22.844c-1.437,0.362-2.874,0.734-4.397,0.645
		c-0.425-0.024-1.032,0.115-1.078-0.497c-0.038-0.519,0.458-0.746,0.931-0.757c1.497-0.032,2.996-0.012,4.494-0.012
		C58.269,22.43,58.284,22.637,58.302,22.844z"/>
	<path fill-rule="evenodd" clip-rule="evenodd" fill="#E3F3F4" d="M68.388,10.797c-1.951,0.247-3.826,1.41-6.217,0.585
		C64.295,9.744,66.405,10.732,68.388,10.797z"/>
	<path fill-rule="evenodd" clip-rule="evenodd" fill="#E3F6F8" d="M59.79,18.738c2.077-0.614,4.175-0.488,6.288-0.082
		C64.014,19.293,61.901,19.091,59.79,18.738z"/>
	<path fill-rule="evenodd" clip-rule="evenodd" fill="#DEF2F4" d="M65.756,13.219c-0.169,0.373-0.188,0.548-0.286,0.61
		c-1.168,0.739-2.452,0.6-3.72,0.356c-0.301-0.058-0.481-0.48-0.248-0.7c0.938-0.882,2.143-0.294,3.223-0.43
		C65.002,13.021,65.304,13.143,65.756,13.219z"/>
	<path fill-rule="evenodd" clip-rule="evenodd" fill="#DFF2F7" d="M52.894,18.76c1.786-0.611,3.575-0.583,5.375-0.052
		C56.497,19.288,54.696,19.19,52.894,18.76z"/>
	<path fill-rule="evenodd" clip-rule="evenodd" fill="#DBF0F5" d="M65.594,16.392c-2.017,0-4.033,0-6.346,0
		C61.501,15.484,63.529,15.494,65.594,16.392z"/>
	<path fill-rule="evenodd" clip-rule="evenodd" fill="#DDF2F8" d="M52.875,20.911c1.714-0.688,3.461-0.436,5.616-0.386
		C56.413,21.575,54.65,21.397,52.875,20.911z"/>
	<path fill-rule="evenodd" clip-rule="evenodd" fill="#BADFEC" d="M89.186,63.878c0.912,0.013,0.4,0.88,0.958,1.156
		c0.087-0.497,0.168-0.968,0.275-1.579c1.143,1.597,0.797,2.929-0.65,3.781c-1.113,0.656-2.512,0.679-3.572-0.324
		c-1.483-1.4-0.892-3.047-0.05-4.358c0.796-1.24,2.174-0.745,4.028,0c-2.481,0.157-3.76,0.691-3.402,2.856
		c0.155,0.936,0.615,0.829,1.183,0.833c0.492,0.003,1.225,0.166,1.22-0.58C89.171,65.066,88.677,64.465,89.186,63.878z"/>
	<path fill-rule="evenodd" clip-rule="evenodd" fill="#E2F1F5" d="M69.465,67.238c2.923-0.23,5.756,0.39,8.547,1.41
		c-2.871-0.27-5.74-0.54-8.61-0.811C69.423,67.639,69.443,67.438,69.465,67.238z"/>
	<path fill-rule="evenodd" clip-rule="evenodd" fill="#E0F0F5" d="M69.16,65.344c2.973,0.345,5.944,0.689,8.916,1.034
		c-0.024,0.2-0.05,0.4-0.076,0.601c-2.972-0.342-5.944-0.685-8.917-1.027C69.108,65.75,69.135,65.547,69.16,65.344z"/>
	<path fill-rule="evenodd" clip-rule="evenodd" fill="#DFF0F4" d="M69.657,64.292c2.812-0.495,5.531,0.633,8.354,0.579
		C75.193,65.357,72.447,64.799,69.657,64.292z"/>
	<path fill-rule="evenodd" clip-rule="evenodd" fill="#E2F2F5" d="M69.614,62.684c2.772-0.593,5.331-0.028,7.912,0.37
		c-0.027,0.214-0.055,0.427-0.082,0.641C74.833,63.357,72.225,63.021,69.614,62.684z"/>
	<path fill-rule="evenodd" clip-rule="evenodd" fill="#E3F4F5" d="M82.469,17.394c-0.774-0.076-1.435-0.396-1.254-1.21
		c0.168-0.762,0.986-0.51,1.557-0.523c1.302-0.031,2.607-0.05,3.908-0.002c0.86,0.033,1.609-0.054,1.993-1.009
		c0.86,2.216-0.338,3.617-1.656,4.977c-0.37,0.38-0.808,0.793-1.363,0.432c-0.628-0.407-0.134-0.894,0.046-1.348
		c0.35-0.89,1.345-1.142,2.42-2.266c-2.235,0.421-4.106-0.845-5.655,0.954L82.469,17.394z"/>
	<path fill-rule="evenodd" clip-rule="evenodd" fill="#E3F4F5" d="M82.464,17.398c2.007,0.424,2.376,0.975,1.843,2.921
		c-0.642-1.022-1.239-1.975-1.838-2.926L82.464,17.398z"/>
	<path fill-rule="evenodd" clip-rule="evenodd" fill="#DDF1F5" d="M86.393,12.252c0.778,0.368,1.16,0.815,1.205,1.485
		c0.003,0.034-0.27,0.145-0.389,0.118C86.438,13.68,86.048,13.268,86.393,12.252z"/>
</g>
</svg>
