<?xml version="1.0" encoding="utf-8"?>
<!-- Generator: Adobe Illustrator 16.0.0, SVG Export Plug-In . SVG Version: 6.00 Build 0)  -->
<!DOCTYPE svg PUBLIC "-//W3C//DTD SVG 1.1//EN" "http://www.w3.org/Graphics/SVG/1.1/DTD/svg11.dtd">
<svg version="1.1" id="圖層_1" xmlns="http://www.w3.org/2000/svg" xmlns:xlink="http://www.w3.org/1999/xlink" x="0px" y="0px"
	 width="80px" height="22.939px" viewBox="0 0 80 22.939" enable-background="new 0 0 80 22.939" xml:space="preserve">
<path fill="#4a9b32" d="M8.54,1.1C9.7,0.4,11.04,0.05,12.38,0c2.147,0.038,4.113,1.219,5.16,3.101
	c0.695,1.274,1.115,2.682,1.23,4.13c0.252,4.787-1.321,9.491-4.4,13.16c-1.147,1.237-2.638,2.102-4.28,2.479
	c-1.398,0.216-2.825-0.133-3.97-0.97c-0.7-0.5-0.96-1.4-0.92-2.23c0.63,0.86,1.6,1.45,2.7,1.5c0.95,0.021,1.9-0.399,2.55-1.12
	c1.114-1.237,1.189-3.095,0.18-4.42c-0.46-0.54-1-1.029-1.65-1.37c-0.647-0.34-1.353-0.554-2.08-0.63
	c-1.342-0.101-2.686,0.176-3.88,0.801c-1.15,0.666-1.965,1.793-2.24,3.1c-0.28,1-0.17,2.06-0.07,3.05c-0.43-1.14-0.6-2.399-0.7-3.62
	V16.06c0.189-4.542,1.966-8.871,5.02-12.23C6.06,2.76,7.2,1.78,8.53,1.1H8.54z M24.08,1.9c1.58,0.05,3.17,0,4.7-0.38
	c-1.16,4.05-2.32,8.08-3.48,12.13c0.14-0.08,0.27-0.18,0.4-0.3c1.42-1.261,2.8-2.601,4.24-3.851c0.67-0.55,1.37-1.17,2.23-1.35
	c0.4-0.101,0.88-0.07,1.2,0.229c0.72,0.65,0.65,1.92-0.08,2.54c-0.4,0.351-0.98,0.42-1.46,0.28c-0.4-0.1-0.62-0.5-0.97-0.7
	c-0.55,0-1.03,0.351-1.46,0.67c-0.87,0.75-1.73,1.53-2.62,2.261c-0.03,0.119,0.1,0.229,0.13,0.35c0.9,1.58,1.8,3.18,2.68,4.78
	c0.32,0.5,0.64,1.069,1.16,1.42c0.27,0.2,0.7,0.16,0.92-0.061c0.48-0.399,0.82-0.939,1.05-1.5c0.28,0,0.55,0,0.8,0
	c-0.33,0.9-0.75,1.82-1.4,2.58c-0.45,0.54-1.1,1.03-1.83,1c-0.64,0.021-1.2-0.35-1.62-0.8c-0.66-0.75-1.12-1.66-1.6-2.54
	c-0.72-1.24-1.4-2.5-2.1-3.75c-0.63,2.22-1.2,4.46-1.85,6.66c-0.73,0-1.5,0-2.2,0c1.43-5.16,2.85-10.32,4.3-15.5
	c0.24-0.85,0.56-1.7,0.54-2.58c0-0.32-0.2-0.65-0.53-0.72c-0.45-0.101-0.9-0.03-1.36-0.04c0.08-0.271,0.15-0.53,0.23-0.78L24.08,1.9
	z M53.779,1.9c1.58,0.04,3.171,0.04,4.701-0.38c-0.9,3.33-1.9,6.649-2.82,10c0.738-1.105,1.691-2.051,2.8-2.78
	c0.864-0.539,1.896-0.742,2.899-0.57c0.701,0.12,1.371,0.57,1.67,1.261c0.25,0.52,0.271,1.1,0.201,1.68
	c-0.141,1.52-0.801,2.93-1.301,4.36c-0.4,1.199-0.869,2.399-1.27,3.6c-0.131,0.46-0.34,1-0.2,1.5c0.12,0.33,0.58,0.37,0.899,0.25
	c0.301-0.15,0.561-0.38,0.801-0.65c0.4-0.569,0.8-1.199,0.96-1.899c0.3,0,0.569,0,0.88,0c-0.252,1.215-0.908,2.308-1.859,3.1
	c-0.701,0.561-1.721,0.76-2.57,0.47c-0.76-0.25-1.23-1.029-1.26-1.8c-0.031-0.8,0.239-1.6,0.469-2.359
	c0.431-1.33,0.961-2.631,1.451-3.94c0.449-1.22,0.93-2.45,0.93-3.76c0.002-0.367-0.245-0.688-0.6-0.78
	c-0.9-0.16-1.771,0.23-2.461,0.76c-0.934,0.792-1.699,1.765-2.25,2.86c-0.899,1.57-1.479,3.33-1.939,5.07
	c-0.36,1.199-0.7,2.43-1.051,3.64h-2.219c1.029-3.7,2.06-7.44,3.1-11.16c0.539-2,1.13-4,1.65-6c0.08-0.42,0.279-0.86,0.119-1.28
	c-0.039-0.229-0.27-0.34-0.46-0.34c-0.5-0.1-0.979-0.04-1.5-0.05c0.101-0.26,0.2-0.52,0.24-0.78L53.779,1.9z M43.6,8.1
	c-1.077-0.016-2.142,0.234-3.1,0.729c-3.032,1.981-4.633,5.553-4.1,9.141c0.2,1.38,0.9,2.72,2.13,3.439c1,0.62,2.22,0.66,3.33,0.47
	c1.326-0.228,2.544-0.872,3.48-1.84c0.84-0.83,1.5-1.83,1.96-2.93c0.601-1.54,0.841-3.24,0.601-4.88
	C47.742,10.931,47.1,9.741,46.1,8.9C45.367,8.385,44.495,8.106,43.6,8.1z M43.62,8.85c0.46,0,0.899,0.14,1.229,0.46
	c0.58,0.52,0.74,1.319,0.83,2.069c0.154,2.94-0.642,5.851-2.27,8.301c-0.531,0.797-1.36,1.345-2.301,1.52
	c-0.619,0.07-1.319-0.04-1.77-0.5c-0.58-0.6-0.7-1.44-0.77-2.22c-0.1-1.95,0.32-3.88,1.05-5.67c0.4-0.9,0.8-1.82,1.44-2.601
	c0.459-0.56,1.049-1.05,1.76-1.25c0.26-0.08,0.539-0.1,0.8-0.1V8.85z M73.359,8.09c-0.119,0-0.229,0-0.319,0
	c-1.321,0.05-2.573,0.604-3.5,1.551c-2.2,2.26-3.233,5.412-2.8,8.54c0.18,1.199,0.67,2.449,1.699,3.22
	c0.801,0.6,1.951,0.64,2.9,0.399c1.338-0.425,2.475-1.324,3.2-2.529c0.05,0.729,0.181,1.529,0.681,2.12
	c0.459,0.54,1.26,0.649,1.92,0.439c0.619-0.2,1.139-0.649,1.529-1.149c0.641-0.801,1.061-1.73,1.35-2.7c-0.26,0-0.529,0-0.799,0.02
	c-0.23,0.86-0.701,1.62-1.181,2.34c-0.28,0.32-0.601,0.761-1.08,0.681c-0.319-0.08-0.44-0.46-0.46-0.75
	c-0.08-0.87,0.061-1.73,0.3-2.57c0.87-3.07,1.761-6.13,2.63-9.2c-0.75,0-1.5,0-2.25,0c-0.26,0.9-0.539,1.851-0.8,2.8
	c0-0.899-0.37-1.75-1-2.359c-0.53-0.539-1.245-0.854-2-0.88L73.359,8.09z M73.439,9.16c0.451,0,0.931,0.1,1.301,0.42
	c0.56,0.5,0.74,1.3,0.82,2.03c0.229,2.399-0.42,4.8-1.531,6.899c-0.5,0.921-1.199,1.86-2.229,2.2c-0.63,0.2-1.399,0.23-1.96-0.149
	c-0.68-0.42-0.83-1.28-0.9-2c-0.049-1.37,0.131-2.73,0.471-4.061c0.4-1.37,0.88-2.77,1.72-3.95C71.57,9.93,72.21,9.4,72.98,9.21
	C73.141,9.18,73.279,9.16,73.439,9.16z"/>
</svg>
