<?xml version="1.0" encoding="utf-8"?>
<!-- Generator: Adobe Illustrator 16.0.0, SVG Export Plug-In . SVG Version: 6.00 Build 0)  -->
<!DOCTYPE svg PUBLIC "-//W3C//DTD SVG 1.1//EN" "http://www.w3.org/Graphics/SVG/1.1/DTD/svg11.dtd">
<svg version="1.1" id="圖層_1" xmlns="http://www.w3.org/2000/svg" xmlns:xlink="http://www.w3.org/1999/xlink" x="0px" y="0px"
	 width="400px" height="90px" viewBox="0 0 400 90" enable-background="new 0 0 400 90" xml:space="preserve">
<g>
	<g>
		<g>
			<path fill="#2999C8" d="M60.191,44.179c-2.257,2.097-4.263,2.495-6.015,1.198c0.136,0-1.481-1.148-4.852-3.444
				c-2.054,3.162-5.425,5.773-10.106,7.836c-2.055-2.129-2.139-3.726-0.253-4.792c3.368-0.965,5.778-3.194,7.227-6.687h-9.501
				c0-2.562,1.181-3.845,3.539-3.845l-0.909-0.548c-1.888-1.064-2.174-2.464-0.86-4.191c1.347-0.899,2.627-3.445,3.841-7.638
				c2.897,0.599,3.94,2.029,3.134,4.292h13.594c0,2.563-1.095,3.843-3.285,3.843h-3.941v4.242h8.54c0,2.563-1.095,3.845-3.285,3.845
				l-6.216,0.497l4.902,2.696C57.967,42.748,59.449,43.646,60.191,44.179z M40.432,34.445h6.67l0.051-4.242h-3.638L40.432,34.445z
				 M43.97,67.986V51.715c0-2.162,1.095-3.244,3.285-3.244h29.663v16.271c0,2.164-1.095,3.245-3.285,3.245H43.97z M71.916,52.314
				H50.084c-0.842,0-1.263,0.416-1.263,1.247v2.796h23.095V52.314z M48.821,64.143h21.831c0.842,0,1.264-0.415,1.264-1.247v-2.895
				H48.821V64.143z M62.364,29.555c0-2.163,1.094-3.244,3.285-3.244h15.666v15.273c0,2.162-1.097,3.243-3.286,3.243H62.364V29.555z
				 M75.199,40.585c0.843,0,1.265-0.415,1.265-1.248v-8.784h-8.288c-0.842,0-1.264,0.416-1.264,1.248v8.784H75.199z"/>
			<path fill="#2999C8" d="M122.299,51.316c0.842,0,1.264-0.416,1.264-1.248v-1.298H88.744c0-1.93,1.094-2.895,3.284-2.895h31.534
				v-2.547H92.836c0-1.927,1.096-2.895,3.286-2.895h32.04v5.441h4.801c0,1.93-1.097,2.895-3.285,2.895h-1.516v2.296
				c0,2.164-1.096,3.246-3.285,3.246H111.23l4.954,3.642c-2.122,1.864-4.062,2.164-5.812,0.898l-3.234-2.296
				c-0.977-0.698-0.994-1.447-0.051-2.244H92.533c0-1.998,1.096-2.996,3.285-2.996H122.299z M91.22,67.088
				c-2.528-1.73-2.981-3.31-1.364-4.742c1.313-0.398,2.711-2.428,4.195-6.088c2.694,0.964,3.536,2.395,2.525,4.292
				C95.835,63.012,94.051,65.191,91.22,67.088z M97.234,37.391h-8.086c0-1.929,1.095-2.896,3.283-2.896h4.803v-2.096h-6.62
				c0-1.93,1.095-2.895,3.284-2.895h3.336v-1.996h-7.581c0-1.931,1.094-2.896,3.284-2.896h4.297v-2.346
				c2.896,0,4.346,0.782,4.346,2.346h7.529c0,1.931-1.096,2.896-3.285,2.896h-4.244v1.996h6.822c0,1.929-1.096,2.895-3.285,2.895
				h-3.537v2.096h8.034c0,1.932-1.095,2.896-3.286,2.896h-4.748v2.296C98.681,39.687,97.234,38.923,97.234,37.391z M108.098,63.545
				h8.238c0.977,0,1.617-0.232,1.92-0.699c0.303-0.5,0.506-1.663,0.607-3.494c2.762,1.032,3.94,2.613,3.536,4.742
				c0.136,0.531-0.219,1.23-1.062,2.096c-0.842,0.898-2.357,1.348-4.547,1.348h-9.148c-2.863,0-4.782-0.366-5.76-1.098
				c-0.943-0.732-1.415-2.164-1.415-4.292v-5.99c3.099,0,4.649,1.082,4.649,3.245v2.694c0,0.632,0.168,1.032,0.505,1.198
				C105.993,63.462,106.818,63.545,108.098,63.545z M118.813,37.391h-8.035c0-1.929,1.094-2.896,3.285-2.896h4.75v-2.145h-6.722
				c0-1.932,1.095-2.896,3.284-2.896h3.438v-1.946h-7.834c0-1.931,1.094-2.896,3.285-2.896h4.549v-2.346
				c2.896,0,4.346,0.782,4.346,2.346h8.489c0,1.931-1.095,2.896-3.285,2.896h-5.204v1.946h7.58c0,1.931-1.096,2.896-3.285,2.896
				h-4.295v2.145h9.248c0,1.932-1.096,2.896-3.285,2.896h-5.963v2.296C120.26,39.687,118.813,38.923,118.813,37.391z
				 M121.691,58.004c2.46-1.464,4.531-1.529,6.218-0.2c0.032-0.131,0.858,0.616,2.476,2.246c1.617,1.631,2.83,3.129,3.639,4.493
				c-2.696,1.564-4.648,1.447-5.861-0.351c0.504,0.5-0.035-0.083-1.619-1.745C124.994,60.749,123.377,59.269,121.691,58.004z"/>
			<path fill="#2999C8" d="M139.229,27.358c0-2.162,1.094-3.244,3.284-3.244h40.882v40.627c0,2.164-1.094,3.245-3.283,3.245h-40.883
				V27.358z M143.826,64.043h33.557c0.841,0,1.264-0.416,1.264-1.247V28.207H145.09c-0.842,0-1.264,0.416-1.264,1.248V64.043z
				 M163.132,40.435h13.492c0,1.864-0.943,2.796-2.83,2.796h-27.845c0-1.864,1.094-2.796,3.286-2.796h9.753v-2.046h-8.238v-4.891
				c0-2.162,1.095-3.244,3.285-3.244h17.586v4.891c0,2.164-1.095,3.244-3.285,3.244h-5.204V40.435z M156.006,32.948
				c-0.842,0-1.264,0.417-1.264,1.248v1.547h11.472c0.841,0,1.264-0.415,1.264-1.248v-1.547H156.006z"/>
			<path fill="#2999C8" d="M214.07,48.072h20.872c0,2.296-1.096,3.443-3.285,3.443h-43.005c0-2.296,1.094-3.443,3.285-3.443h17.23
				v-2.496H192.29c0-2.063,1.094-3.094,3.285-3.094h13.593v-2.396h-15.613c0-2.03,1.092-3.045,3.285-3.045h12.328v-2.496h-20.465
				c0-2.296,1.094-3.443,3.285-3.443h17.18v-2.496H194.16c0-1.962,1.094-2.944,3.285-2.944h11.723v-3.495
				c3.269,0,4.902,1.166,4.902,3.495h14.655v5.44h6.166c0,2.295-1.097,3.443-3.285,3.443h-2.881v2.297
				c0,2.163-1.095,3.244-3.285,3.244h-11.37v2.396h17.233c0,2.063-1.096,3.094-3.285,3.094H214.07V48.072z M195.271,68.187v-11.33
				c0-2.164,1.094-3.244,3.284-3.244h30.424v11.33c0,2.162-1.096,3.244-3.286,3.244H195.271z M224.077,56.706h-22.792
				c-0.843,0-1.264,0.417-1.264,1.248v1.349h24.056V56.706z M200.021,64.992h22.792c0.843,0,1.264-0.417,1.264-1.248v-1.447h-24.056
				V64.992z M214.07,28.606v2.496h9.854v-2.496H214.07z M214.07,34.546v2.496h8.643c0.809,0,1.212-0.416,1.212-1.249v-1.247H214.07z
				"/>
			<path fill="#2999C8" d="M258.744,28.705c-1.348,2.397-2.932,3.013-4.751,1.848c0.942,0.499-0.521-0.416-4.396-2.745
				c-0.877,1.165-1.989,2.413-3.335,3.742c-1.888,1.798-3.74,3.313-5.56,4.543c-1.281-2.762-1.028-4.757,0.759-5.99
				c0.235,0,1.279-0.897,3.132-2.694c1.853-1.796,3.336-3.659,4.449-5.59c2.456,0.865,3.385,1.829,2.777,2.896L258.744,28.705z
				 M253.842,63.595l-0.302-0.699c-7.11,2.761-11.086,4.459-11.928,5.091c-1.011-2.596-0.893-4.857,0.354-6.787V40.485
				c0-2.163,1.095-3.244,3.284-3.244h11.572v13.875c0,2.163-1.094,3.245-3.283,3.245h-7.53v7.438l5.962-2.097l-1.666-3.245
				c2.154-0.897,3.738-0.398,4.749,1.497c1.246,2.063,2.407,4.392,3.487,6.988C256.285,66.041,254.717,65.591,253.842,63.595z
				 M249.143,31.55h5.357c0,2.132-1.079,3.195-3.235,3.195h-5.408C245.856,32.616,246.952,31.55,249.143,31.55z M252.681,40.685
				h-5.407c-0.844,0-1.264,0.418-1.264,1.248v2.096h6.671V40.685z M246.01,50.917h5.407c0.841,0,1.264-0.416,1.264-1.248v-2.296
				h-6.671V50.917z M284.771,36.392c-2.663,0-3.993-1.08-3.993-3.243v-1.496h-16.93c-0.842,0-1.263,0.414-1.263,1.248v2.694h17.99
				v9.633c0,2.162-1.096,3.243-3.285,3.243h-11.521v3.694h17.08v10.631c0,2.162-1.095,3.245-3.284,3.245h-17.94V36.392h-2.931
				l0.051-5.191c0-2.162,1.094-3.242,3.285-3.242h8.236l-2.122-4.393c2.729-1.13,4.582-0.731,5.559,1.198l0.455,0.849
				c0.538,1.032,0.27,1.813-0.809,2.346h11.422V36.392z M276.583,39.287h-9.551c-0.843,0-1.264,0.417-1.264,1.248v4.242h9.551
				c0.843,0,1.264-0.416,1.264-1.247V39.287z M278.705,56.008h-12.937v6.089h11.673c0.843,0,1.264-0.416,1.264-1.247V56.008z"/>
			<g>
				<g>
					<path fill="#E2AC4A" d="M147.597,60.3l5.281-12.377c0.37-0.868,1.188-1.303,2.451-1.303h3.512l5.28,12.377
						c0.371,0.87-0.075,1.303-1.338,1.303h-2.855l-1.087-3.141h-5.559l-0.632,1.818c-0.303,0.883-1.086,1.322-2.35,1.322H147.597z
						 M154.545,53.47l-0.404,1.157h3.842l-0.404-1.157c-0.169-0.478-0.422-1.219-0.758-2.223c-0.338-1.003-0.582-1.726-0.734-2.167
						C155.362,51.137,154.849,52.601,154.545,53.47z"/>
					<path fill="#E2AC4A" d="M166.648,58.924V47.996c0-0.917,0.632-1.376,1.896-1.376h2.628V60.3
						C168.156,60.3,166.648,59.841,166.648,58.924z"/>
				</g>
			</g>
		</g>
	</g>
	<g>
		<path fill="#E2AC4A" d="M4.717,89.922c-1.829,0-3.4-0.62-4.717-1.863c0.99-1.173,1.816-1.535,2.48-1.086
			c0.373,0.494,1.136,0.741,2.289,0.741c0.664,0,1.17-0.127,1.52-0.38c0.361-0.266,0.541-0.627,0.541-1.087
			c0-0.23-0.04-0.425-0.121-0.587c-0.07-0.161-0.223-0.315-0.455-0.465c-0.221-0.15-0.408-0.254-0.559-0.311
			c-0.141-0.07-0.408-0.19-0.804-0.363l-1.729-0.726c-1.747-0.712-2.621-1.856-2.621-3.433c0-1.058,0.42-1.938,1.259-2.64
			c0.838-0.701,1.909-1.052,3.214-1.052c0.757,0,1.49,0.144,2.201,0.431c0.71,0.287,1.328,0.689,1.852,1.208
			c-0.873,1.07-1.659,1.404-2.357,1.001c-0.164-0.299-0.729-0.448-1.695-0.448c-0.57,0-1.025,0.12-1.363,0.362
			c-0.325,0.229-0.488,0.558-0.488,0.982c0,0.438,0.203,0.776,0.611,1.018c0.338,0.208,0.803,0.427,1.398,0.656l1.693,0.707
			c0.839,0.345,1.479,0.795,1.922,1.347c0.454,0.54,0.682,1.248,0.682,2.121c0,1.082-0.432,1.996-1.293,2.743
			C7.313,89.549,6.161,89.922,4.717,89.922z"/>
		<path fill="#E2AC4A" d="M12.455,88.474V76.896c1.725,0,2.586,0.403,2.586,1.208v3.83h4.891v-5.038
			c1.713,0,2.568,0.403,2.568,1.208v11.577c-1.712,0-2.568-0.402-2.568-1.207v-4.314h-4.891v5.521
			C13.316,89.681,12.455,89.278,12.455,88.474z"/>
		<path fill="#E2AC4A" d="M35.707,88.119c-1.06,1.202-2.457,1.803-4.192,1.803s-3.134-0.601-4.192-1.803
			c-1.061-1.202-1.59-2.826-1.59-4.875c0-2.047,0.529-3.654,1.59-4.821c1.059-1.168,2.457-1.751,4.192-1.751
			s3.133,0.586,4.192,1.759c1.061,1.174,1.59,2.78,1.59,4.822S36.768,86.917,35.707,88.119z M29.226,86.506
			c0.571,0.805,1.334,1.208,2.289,1.208c0.954,0,1.718-0.403,2.288-1.208c0.57-0.806,0.855-1.892,0.855-3.262
			c0-1.368-0.281-2.44-0.847-3.217s-1.331-1.164-2.297-1.164c-0.968,0-1.732,0.388-2.298,1.164
			c-0.564,0.776-0.848,1.849-0.848,3.217C28.369,84.614,28.655,85.7,29.226,86.506z"/>
		<path fill="#E2AC4A" d="M45.49,89.922c-3.354,0-5.031-1.995-5.031-5.986v-7.04c1.723,0,2.586,0.403,2.586,1.208v6.056
			c0,1.276,0.209,2.191,0.629,2.744c0.418,0.541,1.029,0.811,1.834,0.811c0.803,0,1.42-0.276,1.852-0.828
			c0.431-0.553,0.646-1.46,0.646-2.727v-7.264c1.653,0,2.48,0.403,2.48,1.208v5.832C50.486,87.927,48.82,89.922,45.49,89.922z"/>
		<path fill="#E2AC4A" d="M61.142,88.474v-3.469l-3.372-7.022c-0.338-0.725-0.099-1.087,0.717-1.087h1.52l2.41,5.953L64.461,78
			c0.314-0.736,0.879-1.104,1.693-1.104h1.469l-3.896,8.109v4.676C62.004,89.681,61.142,89.278,61.142,88.474z"/>
		<path fill="#E2AC4A" d="M68.182,88.543l3.407-10.509c0.244-0.759,0.774-1.139,1.59-1.139h1.816l3.79,11.647
			c0.245,0.759-0.041,1.138-0.855,1.138h-1.484l-0.908-3.278h-4.193l-0.908,3.278C68.688,89.681,67.938,89.302,68.182,88.543z
			 M72.287,83.021l-0.384,1.397h3.075l-0.385-1.397c-0.047-0.149-0.449-1.541-1.205-4.175
			C73.062,80.226,72.695,81.617,72.287,83.021z"/>
		<path fill="#E2AC4A" d="M81.371,88.474v-10.37c0-0.805,0.407-1.208,1.223-1.208h1.414l5.137,9.575
			c-0.221-2.403-0.332-3.893-0.332-4.468v-5.107c1.631,0,2.446,0.403,2.446,1.208v10.37c0,0.805-0.408,1.207-1.224,1.207h-1.396
			l-5.137-9.576c0.209,2.369,0.314,3.854,0.314,4.452v5.124C82.186,89.681,81.371,89.278,81.371,88.474z"/>
		<path fill="#E2AC4A" d="M100.709,89.922c-1.816,0-3.307-0.575-4.471-1.726c-1.154-1.161-1.73-2.771-1.73-4.83
			s0.588-3.688,1.765-4.884c1.176-1.207,2.603-1.811,4.28-1.811c1.688,0,3.074,0.546,4.157,1.639
			c-0.908,1.081-1.706,1.409-2.394,0.983c-0.081-0.287-0.629-0.431-1.643-0.431c-1.012,0-1.857,0.396-2.531,1.189
			c-0.664,0.782-0.996,1.869-0.996,3.262c0,1.38,0.325,2.461,0.978,3.243c0.651,0.771,1.607,1.156,2.865,1.156
			c0.687,0,1.223-0.161,1.607-0.484v-2.518h-2.289c0-1.392,0.408-2.088,1.223-2.088h3.372v5.763
			c-0.466,0.448-1.066,0.816-1.799,1.104C102.369,89.778,101.571,89.922,100.709,89.922z"/>
		<path fill="#E2AC4A" d="M116.414,88.543l3.406-10.509c0.245-0.759,0.775-1.139,1.59-1.139h1.816l3.791,11.647
			c0.244,0.759-0.041,1.138-0.855,1.138h-1.484l-0.908-3.278h-4.193l-0.908,3.278C116.92,89.681,116.17,89.302,116.414,88.543z
			 M120.52,83.021l-0.385,1.397h3.075l-0.385-1.397c-0.047-0.149-0.448-1.541-1.205-4.175
			C121.293,80.226,120.927,81.617,120.52,83.021z"/>
		<path fill="#E2AC4A" d="M129.604,88.474v-10.37c0-0.805,0.407-1.208,1.223-1.208h1.362v12.785
			C130.465,89.681,129.604,89.278,129.604,88.474z"/>
		<path fill="#2999C8" d="M144.592,89.922c-1.829,0-3.4-0.62-4.717-1.863c0.99-1.173,1.816-1.535,2.48-1.086
			c0.373,0.494,1.136,0.741,2.289,0.741c0.664,0,1.17-0.127,1.52-0.38c0.36-0.266,0.541-0.627,0.541-1.087
			c0-0.23-0.04-0.425-0.121-0.587c-0.07-0.161-0.223-0.315-0.455-0.465c-0.221-0.15-0.408-0.254-0.559-0.311
			c-0.141-0.07-0.408-0.19-0.805-0.363l-1.729-0.726c-1.747-0.712-2.621-1.856-2.621-3.433c0-1.058,0.42-1.938,1.259-2.64
			c0.838-0.701,1.909-1.052,3.214-1.052c0.757,0,1.49,0.144,2.201,0.431c0.71,0.287,1.328,0.689,1.852,1.208
			c-0.873,1.07-1.659,1.404-2.357,1.001c-0.164-0.299-0.729-0.448-1.695-0.448c-0.57,0-1.025,0.12-1.363,0.362
			c-0.325,0.229-0.488,0.558-0.488,0.982c0,0.438,0.203,0.776,0.611,1.018c0.338,0.208,0.803,0.427,1.398,0.656l1.693,0.707
			c0.838,0.345,1.479,0.795,1.922,1.347c0.454,0.54,0.682,1.248,0.682,2.121c0,1.082-0.432,1.996-1.293,2.743
			C147.188,89.549,146.035,89.922,144.592,89.922z"/>
		<path fill="#2999C8" d="M152.33,88.474v-10.37c0-0.805,0.408-1.208,1.223-1.208h1.643l3.074,8.438l2.551-7.299
			c0.256-0.759,0.792-1.139,1.607-1.139h1.643v12.785c-1.573,0-2.359-0.402-2.359-1.207v-4.125c0-0.885,0.082-2.282,0.245-4.192
			l-3.04,8.368h-1.484l-3.039-8.368c0.174,2.186,0.262,3.583,0.262,4.192v5.332C153.104,89.681,152.33,89.278,152.33,88.474z"/>
		<path fill="#2999C8" d="M166.654,88.543l3.408-10.509c0.244-0.759,0.773-1.139,1.59-1.139h1.816l3.79,11.647
			c0.245,0.759-0.041,1.138-0.855,1.138h-1.485l-0.908-3.278h-4.193l-0.908,3.278C167.162,89.681,166.41,89.302,166.654,88.543z
			 M170.76,83.021l-0.383,1.397h3.074l-0.385-1.397c-0.047-0.149-0.449-1.541-1.205-4.175
			C171.535,80.226,171.168,81.617,170.76,83.021z"/>
		<path fill="#2999C8" d="M179.844,88.474v-10.37c0-0.805,0.408-1.208,1.223-1.208h3.285c3.236,0,4.855,1.294,4.855,3.882
			c0,1.818-0.82,3.042-2.463,3.675l2.429,4.192c0.396,0.691,0.187,1.036-0.63,1.036h-1.659l-2.655-4.831h-1.799v4.831
			C180.705,89.681,179.844,89.278,179.844,88.474z M182.43,82.831h1.677c1.724,0,2.585-0.685,2.585-2.054
			c0-0.666-0.215-1.138-0.646-1.415c-0.431-0.287-1.076-0.43-1.938-0.43h-1.24c-0.291,0-0.437,0.143-0.437,0.43V82.831z"/>
		<path fill="#2999C8" d="M194.693,88.474v-9.439h-3.635c0-1.425,0.408-2.139,1.224-2.139h8.665c0,1.426-0.408,2.139-1.223,2.139
			h-2.447v10.646C195.555,89.681,194.693,89.278,194.693,88.474z"/>
		<path fill="#2999C8" d="M208.406,89.681V76.896c1.724,0,2.585,0.403,2.585,1.208v9.438h5.259c0,1.427-0.408,2.14-1.223,2.14
			H208.406z"/>
		<path fill="#2999C8" d="M219.202,88.474v-10.37c0-0.805,0.407-1.208,1.223-1.208h1.362v12.785
			C220.063,89.681,219.202,89.278,219.202,88.474z"/>
		<path fill="#2999C8" d="M225.666,89.681V78.104c0-0.805,0.407-1.208,1.223-1.208h3.057c3.122,0,4.683,1.053,4.683,3.157
			c0,0.609-0.163,1.18-0.489,1.708c-0.314,0.518-0.74,0.897-1.275,1.139c0.733,0.174,1.321,0.513,1.765,1.019
			c0.442,0.505,0.663,1.174,0.663,2.001c0,1.231-0.46,2.169-1.38,2.813c-0.92,0.633-2.131,0.949-3.634,0.949H225.666z
			 M228.251,82.106h1.503c1.571,0,2.358-0.558,2.358-1.674c0-0.552-0.192-0.948-0.577-1.19c-0.372-0.253-0.955-0.379-1.747-0.379
			h-1.1c-0.292,0-0.438,0.144-0.438,0.431V82.106z M228.251,87.714h1.8c1.816,0,2.725-0.649,2.725-1.95
			c0-1.185-0.908-1.776-2.725-1.776h-1.8V87.714z"/>
		<path fill="#2999C8" d="M238.261,88.474v-10.37c0-0.805,0.408-1.208,1.224-1.208h3.284c3.237,0,4.856,1.294,4.856,3.882
			c0,1.818-0.821,3.042-2.464,3.675l2.429,4.192c0.396,0.691,0.187,1.036-0.629,1.036h-1.66l-2.655-4.831h-1.799v4.831
			C239.123,89.681,238.261,89.278,238.261,88.474z M240.847,82.831h1.677c1.724,0,2.586-0.685,2.586-2.054
			c0-0.666-0.216-1.138-0.646-1.415c-0.432-0.287-1.077-0.43-1.939-0.43h-1.24c-0.291,0-0.437,0.143-0.437,0.43V82.831z"/>
		<path fill="#2999C8" d="M249.441,88.543l3.406-10.509c0.245-0.759,0.774-1.139,1.59-1.139h1.816l3.791,11.647
			c0.244,0.759-0.041,1.138-0.855,1.138h-1.485l-0.908-3.278h-4.193l-0.908,3.278C249.947,89.681,249.196,89.302,249.441,88.543z
			 M253.547,83.021l-0.385,1.397h3.075l-0.385-1.397c-0.047-0.149-0.448-1.541-1.205-4.175
			C254.32,80.226,253.954,81.617,253.547,83.021z"/>
		<path fill="#2999C8" d="M262.63,88.474v-10.37c0-0.805,0.407-1.208,1.223-1.208h3.284c3.238,0,4.856,1.294,4.856,3.882
			c0,1.818-0.82,3.042-2.463,3.675l2.429,4.192c0.396,0.691,0.187,1.036-0.629,1.036h-1.66l-2.655-4.831h-1.8v4.831
			C263.491,89.681,262.63,89.278,262.63,88.474z M265.215,82.831h1.678c1.724,0,2.585-0.685,2.585-2.054
			c0-0.666-0.215-1.138-0.646-1.415c-0.432-0.287-1.078-0.43-1.939-0.43h-1.24c-0.291,0-0.438,0.143-0.438,0.43V82.831z"/>
		<path fill="#2999C8" d="M277.217,88.474v-3.469l-3.371-7.022c-0.338-0.725-0.1-1.087,0.716-1.087h1.52l2.411,5.953L280.537,78
			c0.313-0.736,0.879-1.104,1.693-1.104h1.468l-3.896,8.109v4.676C278.079,89.681,277.217,89.278,277.217,88.474z"/>
	</g>
	<g>
		<g>
			<path fill-rule="evenodd" clip-rule="evenodd" fill="#2999C8" d="M366.505,75.207c0.164,1.369,0.435,2.535,0.415,3.695
				c-0.046,2.778-0.235,5.554-0.356,8.331c-0.058,1.323-0.82,1.986-2.063,2.23c-4.346,0.853-8.059-0.282-10.928-3.631
				c-1.085-1.267-1.825-2.819-2.788-4.196c-1.33-1.909-2.721-3.777-4.089-5.66c-0.428-0.586-0.911-0.574-1.601-0.343
				c-2.951,0.996-5.938,1.885-8.892,2.871c-0.374,0.126-0.865,0.588-0.894,0.926c-0.182,2.269-0.381,4.549-0.321,6.819
				c0.057,2.23-0.368,2.988-2.567,3.451c-4.421,0.933-9.031-0.954-11.481-4.887c-1.024-1.645-1.773-3.461-2.566-5.237
				c-0.348-0.775-0.802-1.203-1.666-1.354c-1.437-0.251-2.853-0.614-4.367-0.951c-0.173,0.415-0.324,0.795-0.489,1.167
				c-3.114,7.038-8.824,10.632-16.3,11.5c-4.493,0.522-6.839-2.35-6.053-6.778c0.433-2.43,1.712-4.466,2.983-6.52
				c0.886-1.428,1.713-2.891,2.543-4.353c0.218-0.385,0.35-0.82,0.533-1.264c-1.05-0.381-2.052-0.669-2.984-1.101
				c-2.129-0.986-2.395-2.01-0.949-3.814c0.713-0.89,1.535-1.723,2.422-2.443c0.918-0.744,1.28-1.587,1.308-2.753
				c0.175-7.397,1.198-14.666,3.77-21.653c2.699-7.334,6.93-13.585,13.45-18.181c10.117-7.132,23.823-6.997,33.771,0.349
				c0.206,0.151,0.436,0.271,0.672,0.415c0.593-2.611,1.171-5.155,1.76-7.753c-1.026-0.261-1.723,0.27-2.24,1.089
				c-0.345,0.548-0.494,1.247-0.924,1.698c-0.32,0.336-1.001,0.594-1.424,0.49c-0.296-0.071-0.646-0.833-0.597-1.24
				c0.271-2.218,2.414-4.188,4.671-4.162c1.267,0.013,1.794-0.522,2.326-1.538c5.727-10.934,21.372-13.917,30.447-5.835
				c0.715,0.637,1.398,1.306,2.175,2.035c0.097-0.044,0.304-0.12,0.498-0.221c2.543-1.344,5.021-1.213,7.251,0.571
				c2.352,1.881,3.149,4.412,2.365,7.286c-0.744,2.733-2.567,4.512-5.47,4.924c-0.896,0.127-1.037,0.472-1.235,1.243
				c-0.328,1.269-0.797,2.551-1.473,3.67c-1.904,3.151-4.451,5.729-7.548,7.789c-1.086,0.721-2.132,1.525-3.085,2.409
				c-0.972,0.9-1.806,1.946-2.645,2.867c2.87,1.895,5.567,3.675,8.326,5.497c0.006-0.008,0.148-0.177,0.262-0.363
				c2.861-4.641,7.11-7.517,12.173-9.377c0.92-0.339,1.594-0.331,2.129,0.623c0.249,0.445,0.719,0.789,1.14,1.114
				c0.652,0.505,1.302,0.615,2.118,0.159c0.442-0.247,1.255-0.277,1.657-0.025c0.301,0.189,0.398,1.035,0.269,1.502
				c-0.927,3.343-1.959,6.658-2.894,9.999c-0.132,0.472-0.121,1.212,0.164,1.532c2.019,2.276,2.369,4.897,1.809,7.723
				c-0.478,2.413-1.488,4.617-3.36,6.256c-0.847,0.741-2.075,1.046-3.099,1.608c-0.41,0.224-0.959,0.554-1.054,0.931
				c-0.309,1.249-1.083,2.025-2.115,2.723c-4.493,3.034-8.965,6.098-13.419,9.187c-1.721,1.193-3.495,1.254-5.381,0.522
				C369.282,76.267,367.966,75.767,366.505,75.207z M339.92,48.094c0.367-0.876,2.003,0.699,2.465,1.436
				c1.257,1.995,2.836,1.898,4.811,1.331c1.149-0.332,1.71-0.777,1.979-1.947c0.795-3.455,1.72-6.879,2.609-10.313
				c0.191-0.741,0.393-1.653,1.399-1.522c1.808,0.235,2.845-0.846,3.969-1.911c0.312-0.296,0.881-0.563,1.272-0.498
				c3.534,0.591,7.061,1.236,10.577,1.919c0.634,0.124,0.898-0.054,1.313-0.523c1.384-1.567,2.803-3.124,4.362-4.517
				c1.369-1.218,2.95-2.206,4.434-3.303c0.352-0.259,0.688-0.54,1.039-0.817c-2.931-1.968-5.84-2.357-9.053-1.721
				c-1.569,0.311-3.298,0.167-4.897-0.101c-1.362-0.229-2.028-1.286-1.987-2.482c2.062,1.539,4.331,1.329,6.573,0.827
				c3.138-0.704,6.117-0.611,8.927,1.135c0.294,0.181,0.875,0.239,1.151,0.072c1.468-0.881,2.767-1.971,3.421-3.604
				c0.742-1.852,0.523-2.458-1.144-3.54c-0.161-0.105-0.321-0.209-0.412-0.268c-0.465,0.543-0.292,1.557-1.452,1.695
				c-1.158,0.139,0.264-1.85,0.749-2.484c-0.292-0.531-0.581-0.986-0.797-1.471c-0.218-0.483-0.412-0.99-0.532-1.506
				c-0.431-1.819-1.093-2.344-3.006-2.312c-1.993,0.035-3.293,1.003-3.458,2.574c-0.388,3.669-3.138,6.403-6.665,6.629
				c-3.825,0.241-6.964-2.022-7.874-5.683c-0.081-0.322-0.164-0.643-0.297-1.169c-2.099,0-4.179,0.01-6.259-0.002
				c-1.98-0.01-2.143-0.054-2.574,1.896c-0.74,3.343-1.3,6.729-1.855,10.109c-0.735,4.478-0.897,8.086-4.961,12.08
				c-0.726,0.714-3.727,3.513-4.602,4.69c-3.337,4.486-6.615,9.012-9.932,13.511c-4.503,6.106-10.123,10.753-17.547,13.026
				c-0.168,0.051-0.313,0.174-0.245,0.135c0.445,1.748,0.813,3.37,1.293,4.959c0.111,0.368,0.554,0.808,0.924,0.9
				c2.054,0.516,4.135,0.928,6.202,1.391c3.73,0.834,6.724-1.186,10.277-2.416c-1.131-0.436-1.952-0.672-2.696-1.056
				c-2.253-1.158-4.093-1.772-6.303-3.004c-0.227-0.126-1.446-1.001-0.782-1.464c0.663-0.465,1.601,0.269,1.914,0.407
				c2.844,1.255,5.685,2.513,8.544,3.73c0.444,0.188,1.077,0.389,1.45,0.218c1.613-0.739,3.161-1.613,4.979-2.567
				c-7.057-2.615-11.721-8.384-10.127-8.635s6.631,5.705,9.863,6.296c6.905,1.26,15.376-2.561,18.88-8.57
				c0.586-1.006,1.013-2.15,1.276-3.285c0.621-2.67-0.715-4.389-3.483-4.385c-1.683,0.003-3.366,0.326-5.046,0.545
				c-2.512,0.328-5.012,0.801-7.534,0.993c-1.313,0.099-4.357-0.484-3.923-1.599c0.435-1.113,3.27,0,5.076,0
				C341.337,50.468,339.553,48.97,339.92,48.094z M376.454,46.811c-7.646-2.553-15.154-5.058-22.807-7.612
				c-0.94,3.631-1.853,7.166-2.76,10.673c1.523,0.086,2.837,0.059,4.118,0.256c2.707,0.417,4.514,2.408,4.266,5.101
				c-0.164,1.766-0.738,3.587-1.529,5.19c-1.439,2.913-3.91,4.964-6.661,6.675c-0.348,0.216-0.69,0.44-1.264,0.806
				c6.571,2.098,12.891,4.114,19.331,6.169C371.598,64.93,374.012,55.925,376.454,46.811z M309.932,59.658
				c0.232-0.044,0.347-0.047,0.444-0.088c0.25-0.101,0.495-0.211,0.735-0.329c4.967-2.48,8.971-6.156,12.758-10.084
				c0.278-0.289,0.343-0.989,0.217-1.413c-0.77-2.591-1.658-5.147-2.431-7.739c-0.229-0.771-0.646-1.109-1.405-1.264
				c-1.961-0.399-3.92-0.82-5.862-1.306c-0.676-0.169-1.06-0.016-1.454,0.526c-1.485,2.039-3.041,4.03-4.499,6.09
				c-0.292,0.412-0.422,1.056-0.366,1.565c0.296,2.649,0.669,5.288,1.023,7.93C309.364,55.576,309.649,57.604,309.932,59.658z
				 M298.545,71.137c-0.307,0.027-0.712,0.257-0.861,0.513c-1.466,2.504-2.955,4.996-4.292,7.565
				c-0.767,1.473-1.506,3.034-1.828,4.639c-0.56,2.79,0.753,4.29,3.599,4.011c6.613-0.645,11.656-3.783,14.57-9.807
				c1.074-2.222,1.26-4.62,0.435-7.023c-0.273-0.802-0.676-1.098-1.628-0.923C303.726,71.264,299.35,71.065,298.545,71.137z
				 M377.539,72.675c0.768-0.479,1.263-0.771,1.737-1.09c2.966-1.995,5.926-4.002,8.895-5.995c1.694-1.138,2.174-2.891,1.294-4.701
				c-0.215-0.441-0.396-0.921-0.474-1.401c-0.519-3.239,0.524-6.101,2.957-8.139c1.972-1.653,2.942-3.578,3.429-5.944
				c0.229-1.115,0.632-2.198,0.956-3.296c0.42-1.413,0.838-2.826,1.349-4.55c-0.646,0.403-1.032,0.621-1.396,0.872
				c-3.384,2.339-6.75,4.705-10.156,7.011c-0.782,0.53-1.239,1.151-1.49,2.057c-1.575,5.697-3.195,11.382-4.804,17.071
				C379.102,67.166,378.364,69.764,377.539,72.675z M348.413,74.188c1.973,3.073,3.889,6.097,5.853,9.091
				c0.479,0.729,1.059,1.417,1.694,2.019c1.957,1.853,4.343,2.521,7.017,2.348c1.095-0.07,1.689-0.509,1.688-1.68
				c-0.003-1.065,0.231-2.137,0.174-3.195c-0.134-2.464-0.327-4.927-0.628-7.375c-0.056-0.457-0.647-1.062-1.123-1.226
				c-3.092-1.074-6.216-2.057-9.342-3.033c-0.315-0.099-0.791-0.084-1.05,0.085C351.19,72.215,349.729,73.269,348.413,74.188z
				 M313.908,31.213c0.055,1.064,0.136,2.131,0.152,3.197c0.01,0.641,0.27,0.947,0.909,1.086c1.919,0.417,3.837,0.854,5.737,1.347
				c0.782,0.203,1.283-0.016,1.823-0.571c2.026-2.094,4.041-4.204,6.186-6.174c1.107-1.021,1.629-2.124,1.642-3.585
				c0.006-0.655-0.146-1.049-0.753-1.352c-1.789-0.896-3.563-1.817-5.313-2.781c-0.58-0.317-1.034-0.312-1.587,0.026
				c-1.933,1.185-3.818,2.474-5.851,3.463C314.506,27.012,312.893,28.352,313.908,31.213z M300.205,43.253
				c-1.449,3.217-3.203,15.925-2.649,19.141c0.237,0.038,0.494,0.105,0.755,0.115c2.967,0.103,5.824-0.438,8.608-1.44
				c0.893-0.321,1.116-0.821,0.982-1.733c-0.648-4.407-1.21-8.829-1.874-13.233c-0.066-0.442-0.534-1.012-0.955-1.18
				C303.508,44.297,301.885,43.813,300.205,43.253z M373.869,10.857c2.24-1.332,4.466-1.53,6.728-0.644
				c1.205-1.772,1.197-1.882-0.2-3.317c-7.7-7.92-22.815-5.605-27.813,4.262c-0.096,0.192-0.146,0.405-0.321,0.906
				c2.081,0,3.997-0.058,5.905,0.023c1.016,0.044,1.526-0.195,1.909-1.226c1.333-3.574,5.072-5.408,8.806-4.438
				C371.249,7.038,372.792,8.613,373.869,10.857z M377.904,47.818c-0.037,0.115-0.17,0.466-0.266,0.824
				c-0.57,2.137-1.124,4.275-1.699,6.408c-1.691,6.253-3.375,12.507-5.103,18.749c-0.212,0.769-0.046,1.098,0.701,1.347
				c2.151,0.715,3.779-0.081,4.424-2.306c2.373-8.2,4.719-16.407,7.073-24.61c0.047-0.163,0.062-0.335,0.076-0.412
				C381.375,47.818,379.72,47.818,377.904,47.818z M394.154,35.512c-0.603-1.011-1.26-1.03-2.089-0.698
				c-4.538,1.819-8.207,4.644-10.687,8.873c-0.321,0.549-0.666,1.079-1.047,1.696c-0.337-0.299-0.579-0.48-0.778-0.701
				c-2.759-3.072-6.141-5.256-10.124-6.336c-3.034-0.823-6.196-1.184-9.266-1.9c-1.708-0.397-2.753,0.413-3.876,1.471
				c0.227,0.129,0.379,0.248,0.553,0.307c7.539,2.578,15.081,5.151,22.622,7.72c1.138,0.387,2.215,0.223,3.194-0.453
				c4.078-2.814,8.148-5.642,12.229-8.451c0.271-0.184,0.617-0.257,0.93-0.384c-0.161-0.178-0.321-0.355-0.48-0.533
				c-4.649,1.581-8.591,4.325-12.279,7.498C385.69,39.543,389.625,37.168,394.154,35.512z M300.712,41.348
				c1.827,0.605,3.528,1.203,5.257,1.703c0.264,0.077,0.767-0.225,0.982-0.491c0.914-1.128,1.655-2.408,2.656-3.449
				c2.056-2.134,2.941-4.525,2.318-7.457c-0.18-0.845-0.127-1.745-0.111-2.619c0.013-0.704-0.191-1.213-0.943-1.319
				c-0.875-0.123-1.741-0.995-2.635,0.054C304.847,31.75,302.384,36.222,300.712,41.348z M331.348,30.545
				c-2.609,2.514-5.139,4.917-7.604,7.38c-0.265,0.267-0.317,0.932-0.203,1.337c0.511,1.795,1.111,3.564,1.69,5.342
				c0.227,0.695,0.479,1.382,0.79,2.276c3.683-4.32,7.202-8.45,10.789-12.66C334.987,32.994,333.152,31.759,331.348,30.545z
				 M332.339,27.727c-0.098,0.044-0.195,0.089-0.292,0.135c0.343,0.467,0.6,1.054,1.049,1.381c1.485,1.085,3.058,2.048,4.558,3.114
				c0.577,0.408,0.944,0.32,1.513-0.053c1.945-1.278,3.913-2.537,5.955-3.654c0.763-0.417,1.052-0.877,1.305-1.662
				c0.639-1.99-0.066-3.273-1.813-4.205c-0.506-0.269-0.93-0.72-1.454-0.913c-0.446-0.166-1.053-0.246-1.474-0.082
				c-2.503,0.979-4.941,2.124-7.467,3.04C332.761,25.357,332.07,26.162,332.339,27.727z M320.304,79.167
				c0.971,1.768,1.753,3.613,2.907,5.197c2.107,2.893,5.136,3.828,8.662,3.346c0.884-0.12,1.072-0.555,1.019-1.41
				c-0.103-1.622-0.062-3.257-0.021-4.885c0.02-0.775,0.179-1.546,0.265-2.248C328.863,79.167,324.718,79.167,320.304,79.167z
				 M372.289,13.615c0.024-2.985-2.3-5.41-5.235-5.461c-2.965-0.053-5.505,2.392-5.534,5.322c-0.03,2.971,2.42,5.455,5.386,5.462
				C369.856,18.947,372.265,16.567,372.289,13.615z M323.728,52.545c-2.318,1.933-4.734,3.94-7.142,5.959
				c-0.14,0.117-0.318,0.311-0.309,0.459c0.083,1.397,0.089,2.815,0.36,4.181c0.141,0.708,0.808,1.256,1.704,0.745
				c3.376-1.921,5.847-4.758,8.032-7.503C325.389,54.956,324.543,53.728,323.728,52.545z M339.836,20.334
				c-0.005-0.089-0.012-0.179-0.019-0.27c-1.121-0.39-2.227-0.831-3.364-1.161c-3.259-0.943-6.576-1.226-9.963-0.855
				c-1.201,0.13-1.351,1.052-1.564,1.839c-0.066,0.248,0.536,0.799,0.939,1.022c1.58,0.876,3.191,1.699,4.816,2.49
				c0.375,0.182,0.928,0.332,1.276,0.194C334.601,22.55,337.214,21.43,339.836,20.334z M314.33,60.001
				c-0.512,0.233-0.849,0.388-1.186,0.539c-1.747,0.788-3.428,1.839-5.26,2.295c-2.197,0.544-2.804,1.87-2.958,3.806
				c-0.144,1.81,0.039,2.036,1.814,1.729c0.304-0.055,0.605-0.11,0.906-0.173c2.821-0.59,5.518-1.512,8.212-2.896
				C314.229,63.847,314.386,61.961,314.33,60.001z M325.438,51.026c0.419,0.892,0.711,1.82,1.247,2.581
				c0.678,0.963,1.25,0.912,1.956-0.067c1.809-2.511,3.576-5.051,5.368-7.573c1.126-1.586,1.096-1.785-0.25-3.166
				c-0.595-0.609-1.008-0.625-1.576,0.053c-1.969,2.342-3.992,4.64-5.979,6.969C325.917,50.159,325.723,50.573,325.438,51.026z
				 M350.417,70.188c-1.759-0.834-3.363-1.398-5.177-0.494c-0.732,0.365-1.646,0.593-2.458,0.549
				c-2.965-0.16-5.167,1.395-7.375,2.983c-0.188,0.134-0.32,0.343-0.444,0.479C340.919,76.027,345.718,73.665,350.417,70.188z
				 M396.474,50.058c-2.418,1.586-4.439,3.303-5.197,5.974c-0.329,1.161-0.435,2.51-0.186,3.678
				c0.407,1.915,1.695,2.208,3.075,0.796c2.431-2.483,3.343-5.51,2.91-8.918C397.013,51.095,396.707,50.633,396.474,50.058z
				 M391.567,12.409c0.001-2.879-2.416-5.211-5.091-4.792c-0.74,0.117-1.414,0.646-2.118,0.984c0.421,0.643,1.869,5.34,2.271,8.009
				c0.108,0.69,0.457,0.751,1.048,0.651C389.924,16.891,391.567,14.859,391.567,12.409z M336.361,42.762
				c0.474-0.549,0.898-1.078,1.361-1.57c1.627-1.727,3.12-3.613,4.944-5.108c1.715-1.4,2.081-3.243,2.829-5.421
				c-0.999,0.554-1.782,0.832-2.365,1.337c-2.394,2.085-4.852,4.12-7.045,6.399C333.923,40.644,333.905,40.175,336.361,42.762z
				 M302.874,68.88c0.135-1.575,0.259-3.026,0.366-4.307c-1.848,0-3.646,0.036-5.444-0.009c-1.802-0.046-3.898,1.431-4.486,3.354
				C296.414,69.243,299.634,69.214,302.874,68.88z M310.507,25.48c1.099,0.46,1.921,0.773,2.901,0.164
				c2.842-1.759,5.739-3.43,8.573-5.202c0.517-0.322,0.84-0.948,1.255-1.435c-0.083-0.085-0.166-0.169-0.248-0.255
				C318.304,19.859,314.222,22.068,310.507,25.48z M337.479,75.784c-1.163-0.239-2.323-0.495-3.491-0.711
				c-0.561-0.104-1.207-0.334-1.695-0.166c-1.788,0.617-3.526,1.378-5.284,2.085c0.024,0.097,0.048,0.194,0.071,0.293
				C330.583,77.221,334.064,76.987,337.479,75.784z M383.101,10.432c-1.223,2.098-0.29,5.119,1.812,6.103
				C384.295,14.457,383.737,12.578,383.101,10.432z"/>
			<path fill-rule="evenodd" clip-rule="evenodd" fill="#2999C8" d="M377.649,19.466c-0.356-0.017-0.815-0.449-1.095-0.778
				c-0.2-0.235-0.355-0.87-0.252-0.99c0.104-0.117,0.845-0.063,1.024,0.128c0.35,0.368,0.804,1.166,0.77,1.365
				C378.063,19.392,378.006,19.481,377.649,19.466z"/>
			<path fill-rule="evenodd" clip-rule="evenodd" fill="#2999C8" d="M360.1,37.982c6.031,0.571,11.794,1.922,16.592,5.896
				C371.471,41.07,365.676,39.851,360.1,37.982z"/>
			<path fill-rule="evenodd" clip-rule="evenodd" fill="#2999C8" d="M368.332,14.443c-0.193,0.536-0.585,1.244-1.247,1.262
				c-0.662,0.019-1.229-0.494-1.437-0.963c-0.301-0.677-0.393-1.559-0.238-2.283c0.107-0.5,0.744-1.182,1.21-1.237
				c0.465-0.053,1.107,0.491,1.484,0.932C368.392,12.487,368.526,13.907,368.332,14.443z"/>
		</g>
	</g>
	<g>
		<g>
			<path fill="#E2AC4A" d="M12.615,30.246c0,1.458-0.738,2.188-2.215,2.188H3.094v-5.155L2.018,28.84
				c-1.413-2.313-1.792-4.113-1.139-5.405c1.393-1.375,2.51-5.01,3.354-10.905H0.627c0-2.249,0.737-3.373,2.213-3.373h10.313
				c0,2.249-0.737,3.373-2.213,3.373H7.807l-1.202,6h6.011V30.246z M8.472,29.214c0.526,0,0.79-0.259,0.79-0.779v-6.655h-2.91v7.435
				H8.472z M28.369,28.559c0,1.458-0.738,2.187-2.215,2.187h-0.632l4.714,4.5c-2.004,1.229-3.479,1.291-4.43,0.188
				c-0.105-0.375-0.422-0.74-0.949-1.094c-1.665-1.437-1.877-2.541-0.632-3.312l0.474-0.282h-6.864l1.013,0.345
				c1.393,0.479,1.55,1.207,0.475,2.187c-0.718,1.124-2.669,2.448-5.852,3.968c-1.772-1.77-1.984-2.957-0.634-3.561
				c1.581-0.417,3.089-1.396,4.524-2.938h-2.816V16.498c0-1.458,0.738-2.186,2.215-2.186h2.373l0.252-1.876h-5.662
				c0-2.251,0.738-3.375,2.215-3.375h13.413c0,2.25-0.739,3.375-2.215,3.375h-3.765l-0.568,1.876h5.566V28.559z M18.753,17.279
				c-0.527,0-0.791,0.261-0.791,0.781v0.874h6.802v-1.655H18.753z M17.962,21.716v1.657h6.802v-1.657H17.962z M17.962,26.152v1.656
				h6.011c0.526,0,0.791-0.26,0.791-0.78v-0.876H17.962z"/>
			<path fill="#E2AC4A" d="M27.643,55.085h-9.839l-0.791,1.469h12.021l-0.095,1.25c-0.148,2.979-0.338,5.177-0.57,6.593
				c-0.231,1.396-0.548,2.313-0.949,2.749c-0.442,0.563-1.054,0.906-1.834,1.031c-0.78,0.146-1.824,0.198-3.131,0.156
				c-0.55-2.042-0.201-3.03,1.043-2.969v0.031c0.484,0,0.833-0.124,1.044-0.374c0.38-0.438,0.686-2.302,0.917-5.594h-0.76
				c-1.497,3.709-3.574,6.645-6.23,8.812c-1.54-1.375-1.783-2.573-0.729-3.594c1.202-0.604,2.437-2.344,3.701-5.218h-1.582
				c-0.885,1.646-2.014,3.188-3.385,4.625c-1.35,1.416-2.794,2.604-4.334,3.562c-1.371-1.542-1.455-2.739-0.253-3.593
				c1.476-0.604,3.006-2.135,4.587-4.594h-1.518c-1.076,1.25-2.258,2.303-3.544,3.156l-1.929-1.968
				c-0.739,0.458-1.973,0.667-3.701,0.624c-0.55-2.104-0.359-3.155,0.568-3.155v0.031c0.379-0.041,0.697-0.156,0.949-0.345
				c0.273-0.187,0.411-0.749,0.411-1.687c0-1.915-0.348-3.113-1.044-3.593c-0.759-1.25-0.938-2.572-0.537-3.968
				c0.063-0.042,0.463-1.614,1.202-4.719H5.656c-0.527,0-0.791,0.261-0.791,0.781v23.746c-2.172,0-3.259-0.729-3.259-2.188V42.682
				c0-1.458,0.737-2.197,2.215-2.219l5.188-0.125l0.569,0.313c1.266,0.729,1.678,1.781,1.234,3.155
				c-0.844,2.791-1.467,4.698-1.867,5.719c-0.146,0.479-0.095,0.937,0.158,1.374c1.287,1.479,1.93,3.354,1.93,5.623
				c0,1.188-0.158,2.137-0.475,2.845c1.624-1.271,2.89-2.697,3.797-4.281h-3.322c0-1.936,0.738-2.905,2.215-2.905h16.608
				C29.856,54.116,29.118,55.085,27.643,55.085z M27.643,40.307v8.468c0,1.458-0.739,2.188-2.215,2.188H13.502v-8.468
				c0-1.458,0.737-2.188,2.213-2.188H27.643z M24.036,44.4v-1.5h-6.391c-0.527,0-0.791,0.26-0.791,0.781V44.4H24.036z
				 M23.244,48.368c0.527,0,0.792-0.261,0.792-0.781v-0.75h-7.182v1.531H23.244z"/>
		</g>
	</g>
</g>
<g>
</g>
<g>
</g>
<g>
</g>
<g>
</g>
<g>
</g>
<g>
</g>
<g>
</g>
<g>
</g>
<g>
</g>
<g>
</g>
<g>
</g>
<g>
</g>
<g>
</g>
<g>
</g>
<g>
</g>
</svg>
