<?xml version="1.0" encoding="utf-8"?>
<!-- Generator: Adobe Illustrator 16.0.0, SVG Export Plug-In . SVG Version: 6.00 Build 0)  -->
<!DOCTYPE svg PUBLIC "-//W3C//DTD SVG 1.1//EN" "http://www.w3.org/Graphics/SVG/1.1/DTD/svg11.dtd">
<svg version="1.1" id="圖層_1" xmlns="http://www.w3.org/2000/svg" xmlns:xlink="http://www.w3.org/1999/xlink" x="0px" y="0px"
	 width="260px" height="65px" viewBox="0 0 260 65" enable-background="new 0 0 260 65" xml:space="preserve">
<g>
	<rect fill="#439FA7" width="92.389" height="65"/>
	<g>
		<rect x="14.586" y="32.267" fill="#FFFFFF" width="63.213" height="2.796"/>
		<rect x="10.899" y="39.465" fill="#FFFFFF" width="70.59" height="2.807"/>
		<g>
			<path fill="#FFFFFF" stroke="#FFFFFF" stroke-width="0.5" stroke-miterlimit="10" d="M20.649,28.721v-0.315
				c0.849,0,1.506-0.264,1.969-0.785c0.265-0.296,0.44-0.662,0.541-1.118c0.092-0.455,0.144-1.146,0.144-2.078V14.309
				c0-0.968-0.051-1.687-0.159-2.146c-0.101-0.466-0.301-0.835-0.586-1.129c-0.235-0.242-0.499-0.417-0.791-0.526
				c-0.288-0.106-0.664-0.168-1.116-0.19v-0.294h8.065v0.294c-0.469,0.029-0.846,0.099-1.142,0.208
				c-0.296,0.11-0.558,0.284-0.785,0.523c-0.291,0.301-0.479,0.683-0.584,1.138c-0.099,0.451-0.148,1.168-0.148,2.13v7.92
				c0,1.214,0.025,2.124,0.087,2.721c0.058,0.592,0.169,1.08,0.338,1.447c0.3,0.666,0.737,1.147,1.325,1.45
				c0.58,0.31,1.351,0.464,2.313,0.464c1.002,0,1.85-0.149,2.534-0.436c0.689-0.287,1.256-0.732,1.693-1.338
				c0.299-0.411,0.535-0.876,0.729-1.4c0.188-0.521,0.369-1.206,0.529-2.052l0.301,0.02l-0.165,5.611h-15.09V28.721z"/>
			<path fill="#FFFFFF" stroke="#FFFFFF" stroke-width="0.5" stroke-miterlimit="10" d="M43.721,17.338l4.242,6.358
				c0.586-1.191,1-2.108,1.234-2.744c0.234-0.63,0.355-1.171,0.355-1.621c0-0.879-0.59-1.414-1.774-1.597v-0.286H52.7v0.263
				c-0.387,0.039-0.704,0.101-0.938,0.21c-0.25,0.106-0.48,0.265-0.698,0.488c-0.43,0.435-0.953,1.371-1.589,2.792l-0.39,0.879
				c-0.21,0.487-0.518,1.137-0.921,1.932c0.317,0.455,0.695,0.947,1.129,1.467c0.431,0.531,0.821,0.961,1.154,1.301
				c0.479,0.477,0.899,0.826,1.258,1.038c0.359,0.209,0.703,0.323,1.043,0.323c0.36,0,0.663-0.114,0.905-0.334
				c0.244-0.221,0.461-0.573,0.646-1.076l0.247,0.12c-0.42,1.563-1.324,2.337-2.717,2.337c-0.46,0-0.945-0.09-1.454-0.281
				c-0.497-0.195-0.961-0.459-1.373-0.799c-0.628-0.516-1.282-1.199-1.96-2.064c-0.371,0.578-0.667,1.019-0.905,1.307
				c-0.492,0.601-1.063,1.056-1.718,1.371c-0.653,0.312-1.357,0.468-2.092,0.468c-0.686,0-1.347-0.134-1.986-0.411
				c-0.63-0.272-1.156-0.641-1.557-1.124c-0.757-0.869-1.127-1.964-1.127-3.288c0-1.31,0.354-2.496,1.08-3.567
				c0.286-0.415,0.628-0.813,1.028-1.185c0.401-0.363,0.95-0.799,1.647-1.29l0.2-0.153c-0.521-0.799-0.885-1.44-1.101-1.902
				c-0.517-1.075-0.768-2.043-0.768-2.895c0-0.53,0.111-1.055,0.354-1.573c0.292-0.689,0.728-1.208,1.3-1.563
				c0.577-0.354,1.261-0.541,2.069-0.541c1.04,0,1.907,0.318,2.58,0.936c0.676,0.611,1.015,1.404,1.015,2.376
				c0,0.708-0.175,1.342-0.521,1.899C46.19,15.459,45.625,16,44.85,16.534C44.304,16.914,43.925,17.184,43.721,17.338z
				 M41.894,18.558c-0.696,0.47-1.245,1.115-1.624,1.941c-0.386,0.837-0.582,1.763-0.582,2.787c0,0.713,0.1,1.39,0.304,2.045
				c0.204,0.664,0.478,1.22,0.824,1.677c0.32,0.412,0.708,0.733,1.16,0.962c0.448,0.229,0.922,0.345,1.421,0.345
				c0.786,0,1.487-0.269,2.102-0.805c0.226-0.199,0.438-0.425,0.622-0.669c0.187-0.252,0.418-0.611,0.694-1.093L41.894,18.558z
				 M43.479,17.039c0.395-0.346,0.694-0.64,0.889-0.894c0.195-0.258,0.37-0.564,0.52-0.922c0.292-0.675,0.441-1.4,0.441-2.175
				c0-0.919-0.201-1.646-0.606-2.186c-0.401-0.535-0.941-0.809-1.613-0.809c-0.589,0-1.062,0.206-1.42,0.616
				c-0.365,0.414-0.545,0.949-0.545,1.606c0,0.392,0.076,0.787,0.225,1.179c0.145,0.395,0.416,0.936,0.833,1.62
				C42.595,15.732,43.021,16.383,43.479,17.039z"/>
			<path fill="#FFFFFF" stroke="#FFFFFF" stroke-width="0.5" stroke-miterlimit="10" d="M56.074,28.721v-0.292
				c0.49-0.023,0.879-0.1,1.184-0.225c0.295-0.124,0.56-0.314,0.789-0.572c0.271-0.292,0.451-0.66,0.541-1.114
				c0.095-0.445,0.142-1.138,0.142-2.084V14.315c0-0.945-0.046-1.641-0.142-2.087c-0.09-0.447-0.271-0.819-0.541-1.114
				c-0.229-0.267-0.496-0.459-0.8-0.573c-0.302-0.118-0.69-0.195-1.172-0.225v-0.294h8.299c0.852,0,1.404,0.01,1.662,0.033
				c0.961,0.081,1.758,0.328,2.394,0.736c0.55,0.366,0.969,0.846,1.27,1.442c0.3,0.588,0.446,1.262,0.446,1.999
				c0,1.195-0.339,2.182-1.019,2.952c-0.241,0.274-0.52,0.509-0.832,0.701c-0.31,0.187-0.756,0.392-1.341,0.621
				c0.804,0.144,1.424,0.305,1.874,0.482c0.443,0.167,0.849,0.416,1.208,0.728c0.54,0.468,0.96,1.064,1.257,1.769
				c0.297,0.711,0.451,1.479,0.451,2.294c0,0.835-0.154,1.586-0.461,2.281c-0.309,0.688-0.741,1.247-1.285,1.662
				c-0.503,0.379-1.091,0.632-1.778,0.784c-0.686,0.143-1.653,0.215-2.898,0.215L56.074,28.721L56.074,28.721z M61.477,10.438v8.144
				h1.037c0.478,0,0.978-0.037,1.496-0.105c0.448-0.072,0.813-0.161,1.083-0.262c0.279-0.101,0.536-0.235,0.757-0.412
				c0.437-0.35,0.772-0.792,1.002-1.338c0.235-0.54,0.352-1.147,0.352-1.802c0-0.698-0.115-1.36-0.363-1.988
				c-0.239-0.62-0.563-1.106-0.958-1.458c-0.349-0.3-0.745-0.507-1.19-0.617c-0.442-0.11-1.124-0.161-2.029-0.161H61.477z
				 M61.477,18.994v5.663c0,0.689,0.05,1.242,0.134,1.665c0.088,0.421,0.229,0.778,0.438,1.069c0.434,0.616,1.176,0.924,2.225,0.924
				c1.36,0,2.436-0.402,3.229-1.21c0.792-0.809,1.185-1.908,1.185-3.298c0-0.8-0.13-1.535-0.367-2.22
				c-0.245-0.688-0.576-1.21-0.99-1.578c-0.76-0.678-1.956-1.016-3.577-1.016L61.477,18.994L61.477,18.994z"/>
		</g>
		<rect x="6.908" y="46.895" fill="#FFFFFF" width="78.57" height="8.406"/>
	</g>
	<rect x="101.586" y="54.053" fill="#439FA7" width="158.414" height="1.648"/>
	<g>
		<path fill="#439FA7" d="M101.314,23.615h2.317V39.5h7.663v1.935h-9.98V23.615z"/>
		<path fill="#439FA7" d="M116.405,25.044c0.025,0.794-0.563,1.424-1.493,1.424c-0.822,0-1.406-0.63-1.406-1.424
			c0-0.827,0.612-1.458,1.458-1.458C115.843,23.587,116.405,24.218,116.405,25.044z M113.798,41.435V28.636h2.34v12.799H113.798z"/>
		<path fill="#439FA7" d="M120.024,22.665h2.312v8.027h0.056c0.822-1.423,2.312-2.35,4.391-2.35c3.192,0,5.452,2.646,5.429,6.523
			c0,4.579-2.905,6.851-5.774,6.851c-1.867,0-3.357-0.714-4.309-2.405h-0.085l-0.107,2.123h-2.021
			c0.056-0.875,0.11-2.176,0.11-3.312V22.666L120.024,22.665L120.024,22.665z M122.337,36.301c0,0.283,0.056,0.581,0.109,0.844
			c0.449,1.615,1.812,2.712,3.517,2.712c2.441,0,3.907-1.972,3.907-4.896c0-2.567-1.332-4.767-3.833-4.767
			c-1.596,0-3.087,1.084-3.567,2.858c-0.051,0.265-0.132,0.577-0.132,0.952V36.301z"/>
		<path fill="#439FA7" d="M135.163,32.625c0-1.501-0.027-2.8-0.105-3.989h2.048l0.077,2.509h0.11
			c0.583-1.717,1.994-2.801,3.574-2.801c0.254,0,0.439,0.027,0.657,0.081v2.196c-0.237-0.055-0.489-0.084-0.802-0.084
			c-1.648,0-2.813,1.247-3.138,2.988c-0.056,0.313-0.104,0.687-0.104,1.082v6.829h-2.318L135.163,32.625L135.163,32.625z"/>
		<path fill="#439FA7" d="M152.908,38.361c0,1.104,0.053,2.199,0.217,3.074h-2.131l-0.187-1.619h-0.082
			c-0.719,1.007-2.101,1.9-3.938,1.9c-2.613,0-3.939-1.822-3.939-3.673c0-3.085,2.765-4.786,7.745-4.76v-0.263
			c0-1.052-0.29-2.957-2.922-2.957c-1.199,0-2.448,0.372-3.362,0.948l-0.521-1.532c1.058-0.685,2.602-1.138,4.225-1.138
			c3.938,0,4.895,2.669,4.895,5.229V38.361L152.908,38.361z M150.647,34.899c-2.551-0.049-5.452,0.395-5.452,2.887
			c0,1.493,1.009,2.213,2.212,2.213c1.674,0,2.736-1.055,3.104-2.142c0.082-0.235,0.136-0.5,0.136-0.739V34.899z"/>
		<path fill="#439FA7" d="M156.686,32.625c0-1.501-0.022-2.8-0.103-3.989h2.047l0.081,2.509h0.104
			c0.583-1.717,1.994-2.801,3.566-2.801c0.268,0,0.453,0.027,0.667,0.081v2.196c-0.25-0.055-0.48-0.084-0.802-0.084
			c-1.645,0-2.818,1.247-3.139,2.988c-0.047,0.313-0.104,0.687-0.104,1.082v6.829h-2.321v-8.811L156.686,32.625L156.686,32.625z"/>
		<path fill="#439FA7" d="M166.239,28.636l2.826,7.556c0.289,0.852,0.609,1.854,0.826,2.623h0.049
			c0.24-0.769,0.505-1.746,0.823-2.68l2.555-7.498h2.475l-3.516,9.116c-1.68,4.39-2.818,6.641-4.411,8.006
			c-1.152,1.007-2.295,1.4-2.875,1.511l-0.583-1.955c0.583-0.187,1.348-0.562,2.048-1.143c0.636-0.5,1.427-1.394,1.963-2.584
			c0.104-0.243,0.188-0.431,0.188-0.551c0-0.138-0.051-0.323-0.153-0.62l-4.766-11.782H166.239z"/>
		<path fill="#439FA7" d="M194.876,41.435c-0.506-0.508-0.986-1.017-1.679-1.748c-1.542,1.428-3.278,2.031-5.245,2.031
			c-3.487,0-5.516-2.328-5.516-4.991c0-2.437,1.464-4.102,3.52-5.208v-0.08c-0.937-1.164-1.491-2.453-1.491-3.728
			c0-2.167,1.565-4.384,4.558-4.384c2.23,0,3.96,1.48,3.96,3.78c0,1.878-1.096,3.352-3.947,4.755v0.076
			c1.518,1.747,3.226,3.696,4.376,4.978c0.821-1.247,1.381-2.965,1.718-5.21h2.129c-0.474,2.805-1.244,5.021-2.567,6.57
			c0.954,1.003,1.88,2.021,2.952,3.159H194.876L194.876,41.435z M188.374,39.966c1.521,0,2.817-0.688,3.674-1.604
			c-1.063-1.158-3.055-3.325-5.052-5.604c-0.965,0.607-2.314,1.751-2.314,3.62c0,2.041,1.51,3.588,3.67,3.588L188.374,39.966
			L188.374,39.966z M188.827,24.904c-1.461,0-2.23,1.221-2.23,2.594c0,1.265,0.589,2.241,1.358,3.194
			c1.81-1.029,2.982-1.978,2.982-3.487c0-1.08-0.608-2.301-2.079-2.301H188.827z"/>
		<path fill="#439FA7" d="M205.378,23.851c1.02-0.21,2.61-0.373,4.234-0.373c2.315,0,3.807,0.397,4.918,1.299
			c0.936,0.689,1.494,1.74,1.494,3.146c0,1.719-1.145,3.221-3.036,3.907v0.054c1.708,0.419,3.701,1.828,3.701,4.469
			c0,1.531-0.619,2.696-1.522,3.574c-1.241,1.136-3.268,1.661-6.189,1.661c-1.607,0-2.828-0.11-3.6-0.21V23.851L205.378,23.851z
			 M207.688,31.145h2.109c2.446,0,3.889-1.266,3.889-2.986c0-2.086-1.603-2.907-3.938-2.907c-1.07,0-1.675,0.075-2.061,0.158V31.145
			z M207.688,39.687c0.467,0.076,1.123,0.099,1.946,0.099c2.396,0,4.61-0.861,4.61-3.465c0-2.429-2.109-3.423-4.634-3.423h-1.923
			V39.687L207.688,39.687z"/>
		<path fill="#439FA7" d="M231.379,34.927c0,4.727-3.303,6.791-6.415,6.791c-3.49,0-6.174-2.535-6.174-6.577
			c0-4.284,2.816-6.797,6.387-6.797C228.868,28.344,231.379,31.014,231.379,34.927z M221.152,35.053
			c0,2.806,1.628,4.913,3.923,4.913c2.229,0,3.907-2.082,3.907-4.963c0-2.167-1.09-4.911-3.867-4.911
			C222.347,30.092,221.152,32.625,221.152,35.053z"/>
		<path fill="#439FA7" d="M245.985,34.927c0,4.727-3.302,6.791-6.422,6.791c-3.474,0-6.17-2.535-6.17-6.577
			c0-4.284,2.831-6.797,6.387-6.797C243.486,28.344,245.985,31.014,245.985,34.927z M235.762,35.053
			c0,2.806,1.626,4.913,3.916,4.913c2.234,0,3.911-2.082,3.911-4.963c0-2.167-1.093-4.911-3.857-4.911
			C236.965,30.092,235.762,32.625,235.762,35.053z"/>
		<path fill="#439FA7" d="M251.251,34.509h0.051c0.319-0.46,0.775-1.013,1.151-1.458l3.776-4.416h2.818l-4.972,5.255l5.658,7.543
			h-2.848l-4.435-6.141l-1.202,1.325v4.816h-2.312v-18.77h2.312L251.251,34.509L251.251,34.509z"/>
	</g>
	<rect x="101.586" y="9.669" fill="#439FA7" width="158.414" height="1.649"/>
</g>
<g>
</g>
<g>
</g>
<g>
</g>
<g>
</g>
<g>
</g>
<g>
</g>
<g>
</g>
<g>
</g>
<g>
</g>
<g>
</g>
<g>
</g>
<g>
</g>
<g>
</g>
<g>
</g>
<g>
</g>
</svg>
