<?xml version="1.0" encoding="utf-8"?>
<!-- Generator: Adobe Illustrator 16.0.0, SVG Export Plug-In . SVG Version: 6.00 Build 0)  -->
<!DOCTYPE svg PUBLIC "-//W3C//DTD SVG 1.1//EN" "http://www.w3.org/Graphics/SVG/1.1/DTD/svg11.dtd">
<svg version="1.1" id="圖層_1" xmlns="http://www.w3.org/2000/svg" xmlns:xlink="http://www.w3.org/1999/xlink" x="0px" y="0px"
	 width="200px" height="48px" viewBox="0 0 200 48" enable-background="new 0 0 200 48" xml:space="preserve">
<g>
	<path fill="#910B80" d="M174.854,28.852c-0.967-8.525-12.883-8.86-12.883-8.86h-26.503v-0.005
		c-1.315-0.024-2.375-1.152-2.375-2.542c0-1.378,1.046-2.496,2.356-2.535v-0.022l37.5-0.021l-0.023-8.524h-41.373
		c-2.82,1.086-7.977,4.507-6.903,11.904c1.346,9.28,9.04,10.229,9.04,10.229l29.929-0.041c0.035-0.002,0.068-0.012,0.103-0.012
		c1.495,0,2.706,1.128,2.706,2.52c0,1.377-1.18,2.489-2.646,2.517v0.016h-39.294V24.37h-0.17c-1.426,1.006-3.169,1.607-5.059,1.607
		c-1.77,0-3.42-0.525-4.793-1.423v16.765L98.992,26.78c2.866-1.044,5.159-2.446,6.871-4.208c1.711-1.758,2.569-4.056,2.569-6.886
		c0-2.001-0.523-3.65-1.569-4.951c-1.047-1.296-2.456-2.37-4.236-3.217c-1.082-0.5-2.232-0.887-3.435-1.176H74.238h-4.479H32.871
		c-2.821,1.086-7.981,4.507-6.91,11.904c1.347,9.28,9.042,10.229,9.042,10.229l29.93-0.041c0.037-0.002,0.069-0.012,0.101-0.012
		c1.499,0,2.709,1.128,2.709,2.52c0,1.377-1.184,2.489-2.65,2.517v0.016H25V42h44.759H82.17V28.935h4.475L99.993,42h14.472h0.725
		h8.498h0.8h43.688C176.577,38.586,174.854,28.852,174.854,28.852z M63.285,19.992H36.781v-0.005
		c-1.313-0.024-2.375-1.152-2.375-2.542c0-1.378,1.051-2.496,2.358-2.535v-0.022l32.995-0.017v6.513
		C66.523,20.086,63.285,19.992,63.285,19.992z M95.038,19.383c-0.394,0.648-0.986,1.201-1.787,1.664
		c-0.847,0.514-1.877,0.848-3.087,1.003c-1.214,0.157-2.687,0.236-4.42,0.236H82.17v-9.953h4.174c1.421,0,2.615,0.034,3.571,0.101
		c0.953,0.065,1.825,0.225,2.603,0.474c1.106,0.366,1.904,0.879,2.384,1.552c0.478,0.667,0.714,1.465,0.714,2.393
		C95.617,17.893,95.425,18.74,95.038,19.383z"/>
	<path fill="#EF821E" d="M119.345,6.116c-4.785,0-8.667,3.825-8.667,8.536c0,4.712,3.882,8.534,8.667,8.534
		c4.787,0,8.668-3.822,8.668-8.534C128.013,9.941,124.131,6.116,119.345,6.116z"/>
	<g>
		<polygon opacity="0.6" fill="#FFFFFF" points="119.962,14.955 119.47,23.142 119.05,14.971 110.997,14.626 119.027,14.109 
			119.438,6 119.938,14.082 127.991,14.525 		"/>
		<polygon opacity="0.7" fill="#FFFFFF" points="119.636,14.676 119.522,19.037 119.347,14.667 114.28,14.6 119.329,14.38 
			119.464,10.109 119.655,14.38 124.705,14.548 		"/>
		<polygon opacity="0.7" fill="#FFFFFF" points="120.136,14.572 125.54,19.683 119.586,15.056 113.522,19.753 118.841,14.614 
			113.446,9.465 119.5,14.011 125.46,9.396 		"/>
		<polygon opacity="0.7" fill="#FFFFFF" points="119.793,14.562 122.602,17.14 119.549,14.775 116.536,17.168 119.286,14.563 
			116.506,11.978 119.535,14.316 122.569,11.947 		"/>
		<polygon fill="#FFFFFF" points="119.641,14.702 119.517,16.636 119.334,14.702 117.089,14.548 119.327,14.433 119.473,12.511 
			119.636,14.444 121.844,14.538 		"/>
		<path opacity="0.14" fill="#FFFFFF" d="M120.861,15.611c-0.682,0.597-1.805,0.606-2.504,0.022
			c-0.699-0.587-0.709-1.549-0.026-2.147c0.692-0.6,1.808-0.604,2.504-0.02C121.532,14.054,121.542,15.017,120.861,15.611z"/>
		<path opacity="0.5" fill="#FFFFFF" d="M120.438,15.257c-0.46,0.395-1.207,0.403-1.671,0.011c-0.462-0.387-0.472-1.028-0.017-1.425
			c0.457-0.401,1.205-0.409,1.673-0.015C120.884,14.219,120.893,14.858,120.438,15.257z"/>
		<path opacity="0.8" fill="#FFFFFF" d="M120.193,15.055c-0.324,0.277-0.856,0.282-1.183,0.006c-0.333-0.28-0.333-0.731-0.013-1.016
			c0.324-0.281,0.85-0.288,1.185-0.006C120.511,14.314,120.516,14.768,120.193,15.055z"/>
	</g>
</g>
<g>
</g>
<g>
</g>
<g>
</g>
<g>
</g>
<g>
</g>
<g>
</g>
<g>
</g>
<g>
</g>
<g>
</g>
<g>
</g>
<g>
</g>
<g>
</g>
<g>
</g>
<g>
</g>
<g>
</g>
</svg>
