<?xml version="1.0" encoding="utf-8"?>
<!-- Generator: Adobe Illustrator 16.0.0, SVG Export Plug-In . SVG Version: 6.00 Build 0)  -->
<!DOCTYPE svg PUBLIC "-//W3C//DTD SVG 1.1//EN" "http://www.w3.org/Graphics/SVG/1.1/DTD/svg11.dtd">
<svg version="1.1" xmlns="http://www.w3.org/2000/svg" xmlns:xlink="http://www.w3.org/1999/xlink" x="0px" y="0px" width="170px"
	 height="50px" viewBox="0 0 170 50" enable-background="new 0 0 170 50" xml:space="preserve">
<g id="圖層_2">
</g>
<g id="圖層_1">
	<g>
		<linearGradient id="SVGID_1_" gradientUnits="userSpaceOnUse" x1="1" y1="24.8882" x2="39.7705" y2="24.8882">
			<stop  offset="0" style="stop-color:#FF2AA7"/>
			<stop  offset="1" style="stop-color:#15D4FF"/>
		</linearGradient>
		<path fill="url(#SVGID_1_)" d="M37.678,3.389c-1.387-1.839-3.589-2.958-5.873-3.268c-1.136-0.154-2.28-0.137-3.422-0.065
			C22.065,0.552,15.51,3.18,10.166,6.468c-2.296,1.413-6.428,4.001-6.264,7.115c0.049,1.256,1.318,3.981,2.691,4.07
			c0.584,0.037,1.842-2.417,2.276-2.958c1.842-2.298,4.388-4.608,7.151-5.833c-1.644,3.426-3.298,6.42-5.011,9.761
			c-2.242,4.361-4.347,8.789-6.311,13.276c-1.317,3.052-2.549,5.943-3.395,9.17c-0.495,2.221-0.488,4.236,0.8,6.206
			c0.625,0.955,1.886,2.32,3.027,2.477c2.596,0.354,7.918-3.424,9.917-4.849c2.202-1.556,4.297-3.253,6.271-5.079
			c6.711-6.191,16.769-18.016,18.26-27.118C40.086,9.601,39.63,5.979,37.678,3.389z M33.158,15.41
			c-3.684,7.619-9.511,14.525-15.658,20.323c-2.319,2.2-4.789,4.243-7.391,6.114c-1.108,0.771-2.09,1.424-3.319,2.02
			c0.328-1.577,0.951-3.1,1.512-4.613c2.351-6.344,5.078-12.558,7.739-18.782c1.12-2.62,2.42-5.102,3.43-7.783
			c0.986-2.622,0.847-2.84-0.312-5.338c2.529-1.357,6.538-2.465,9.387-2.767c0.385-0.063,1.089-0.075,1.482-0.051
			C36.281,4.907,34.939,11.727,33.158,15.41z"/>
		<linearGradient id="SVGID_2_" gradientUnits="userSpaceOnUse" x1="35.501" y1="24.0034" x2="77.1533" y2="24.0034">
			<stop  offset="0" style="stop-color:#FF2AA7"/>
			<stop  offset="1" style="stop-color:#15D4FF"/>
		</linearGradient>
		<path fill="url(#SVGID_2_)" d="M77.104,12.057c-0.325-2.605-1.592-5.704-3.522-7.567c-0.448-0.434-0.95-0.449-1.531-0.408
			c-0.021,0.024-0.042,0.048-0.064,0.072c-1.161,1.696-0.888,4.122-2.05,5.903c-3.34,5.117-7.705,9.541-11.131,14.611
			c-0.623,0.921-1.137,1.934-1.803,2.827c-2.068,2.426-5.565,5.917-8.386,7.303c-1.047,0.521-2.187,0.842-3.357,0.946
			c-4.846,0.44-5.493-3.383-4.727-7.057c6.214-1.208,10.784-3.669,14.486-8.804c3.483-4.833,0.836-9.053-5.07-7.559
			c-4.784,1.287-9.315,5.342-11.741,9.507c-0.19,0.332-0.376,0.667-0.555,1.005c-2.443,5.058-4.046,13.169,2.295,16.07
			c6.405,2.931,13.331-2.84,17.213-7.2c0.773,4.278,2.608,7.907,6.216,10.56c3.02,2.221,7.81,2.499,10.162-0.801
			c1.354-1.899,1.467-4.776,1.011-6.984c-1.201-5.125-3.092-8.854-2.029-14.321c0.413-2.127,1.322-4.352,1.709-6.268
			c0.415,0.453,1.075,1.341,1.735,1.299C77.217,15.108,77.225,13.022,77.104,12.057z M51.251,15.575
			c1.28-0.073,2.098,0.297,1.396,1.685c-1.966,3.885-5.531,6.324-9.535,7.923c-0.686,0.258-0.911,0.326-1.631,0.463
			C43.267,22.131,47.246,16.625,51.251,15.575z M65.021,37.648c-2.12-1.713-4.204-4.81-4.583-7.54c-0.267-1.6,0.385-2.775,1.3-4.045
			c2.063-2.866,4.272-5.644,6.488-8.399c0.03,0.244-0.211,1.986-0.244,2.351c-0.129,1.394-0.121,2.795,0.023,4.188
			c0.416,3.731,1.893,7.468,2.489,11.19C71.352,40.752,68.301,40.173,65.021,37.648z"/>
		<linearGradient id="SVGID_3_" gradientUnits="userSpaceOnUse" x1="78.1948" y1="30.7861" x2="118.647" y2="30.7861">
			<stop  offset="0" style="stop-color:#FF2AA7"/>
			<stop  offset="1" style="stop-color:#15D4FF"/>
		</linearGradient>
		<path fill="url(#SVGID_3_)" d="M118.293,14.855c-0.68-0.977-1.768-1.324-2.882-0.88c-0.698-1.063-1.564-1.75-2.849-2.042
			c-2.658-0.601-5.619,0.802-7.784,2.181c-2.415,1.539-4.649,3.494-6.556,5.609c-1.347,1.493-2.212,3.183-3.418,4.743
			c-1.606,2.08-6.956,7.928-9.028,9.307c-0.618,0.41-1.613,0.933-2.382,0.722c-0.234-0.064-0.364-0.204-0.467-0.414
			c-0.881-1.811,6.945-15.836,6.742-19.699c-0.059-1.105-0.714-2.136-1.735-2.626c-0.424-0.204-0.769-0.198-1.235-0.173
			c-0.269,0.146-0.923,0.486-1.043,0.766c-2.054,4.795-3.882,9.851-5.788,14.695c-1.028,2.611-2.629,6.781-0.923,9.344
			c4.124,6.192,11.241-1.858,13.778-5.175c0.16,1.663,0.406,3.355,1.857,4.472c2.893,2.226,6.234,0.734,8.589-1.42
			c2.969-2.715,5.637-5.904,7.882-9.216c-0.23,1.05-0.605,1.985-0.92,3.004c-1.362,4.411-3.409,8.649-6.102,12.432
			c-1.98,2.78-4.746,6.418-8.693,5.587c-1.545-0.314-2.893-1.23-3.738-2.535c-0.306-0.471-0.953-1.901-1.447-1.987
			c-1.004-0.178-1.125,1.652-1.103,2.263c0.108,3.083,2.96,5.268,5.794,5.942c2.517,0.551,5.124,0.187,7.307-1.279
			c6.266-4.208,9.941-13.47,12.602-20.181c0.663-1.67,1.386-3.586,1.804-5.276c0.3-1.216,0.429-2.493,0.768-3.715
			c0.288-1.036,1.19-2.173,1.311-3.125C118.689,15.711,118.568,15.241,118.293,14.855z M109.137,22.307
			c-2.807,3.504-6.021,7.874-10.013,10.13c-0.716,0.329-1.782,0.62-1.79-0.578c-0.036-5.767,8.578-15.893,14.432-16.357
			c0.961-0.01,1.25,0.104,1.968,0.714C112.033,18.201,110.74,20.304,109.137,22.307z"/>
		<linearGradient id="SVGID_4_" gradientUnits="userSpaceOnUse" x1="118.4766" y1="28.75" x2="146" y2="28.75">
			<stop  offset="0" style="stop-color:#FF2AA7"/>
			<stop  offset="1" style="stop-color:#15D4FF"/>
		</linearGradient>
		<path fill="url(#SVGID_4_)" d="M128.738,11.506c1.442,0.15,3.002,1.516,2.334,3.04c-2.002,4.564-4.592,8.966-6.68,13.491
			c0.265-0.286,0.521-0.592,0.769-0.891c4.477-5.448,9.138-10.859,15.403-14.403c0.893-0.505,2.421-1.253,3.405-0.83
			c3.72,1.597,1.409,4.278-0.009,6.545c-3.558,5.438-6.639,11.411-6.417,18.051c0.099,2.187,0.55,4.639,2.77,5.678
			c1.912,0.894,4.318-2.25,5.449-1.814c0.792,0.966-0.594,2.903-1.292,3.665c-4.381,4.161-9.883,1.143-11.297-3.954
			c-1.874-6.759,0.591-14.331,3.873-20.311c-4.425,3.39-8.75,9.303-12.266,13.652c-1.146,1.265-2.099,3.849-3.356,4.838
			c-0.973,0.765-2.474-1.588-2.65-2.435c-1.346-6.47,2.13-13.561,5.341-19.038C125.083,15.141,126.897,11.984,128.738,11.506z"/>
		<linearGradient id="SVGID_5_" gradientUnits="userSpaceOnUse" x1="89.7451" y1="3.7178" x2="95.8574" y2="3.7178">
			<stop  offset="0" style="stop-color:#FF2AA7"/>
			<stop  offset="1" style="stop-color:#15D4FF"/>
		</linearGradient>
		<path fill="url(#SVGID_5_)" d="M92.528,0.04c5.03-0.603,3.718,5.894,0.306,7.292C87.903,8.361,89.7,1.521,92.528,0.04z"/>
	</g>
	<g>
		<path fill="#FF4893" d="M169.05,23.83c-0.732-0.929-2.101-1.105-3.055-0.392l-1.481,1.108l2.652,3.366l1.482-1.106
			C169.603,26.092,169.782,24.76,169.05,23.83z"/>
		<polygon fill="#FF4893" points="166.178,28.65 163.525,25.284 164.019,24.915 166.672,28.281 		"/>
		<path fill="#FF4893" d="M155.157,31.536c0.686,0.275,1.308,0.721,1.792,1.334c0.484,0.614,0.764,1.316,0.859,2.032l7.875-5.884
			l-2.652-3.365L155.157,31.536z"/>
		<path fill="#FF4893" d="M151.218,32.567c-1.639,1.225-1.984,2.527-2.35,3.907c-0.26,0.98-0.529,1.992-1.309,3.044
			c-0.081,0.109-0.079,0.256,0.006,0.362c0.084,0.106,0.229,0.146,0.358,0.099c1.245-0.461,2.319-0.452,3.357-0.442
			c1.464,0.012,2.847,0.025,4.485-1.2c2.929-2.188,0.712-5.07,0.69-5.1C156.433,33.211,154.147,30.379,151.218,32.567z
			 M155.007,37.377c-0.137,0.102-0.331,0.077-0.436-0.056c-0.104-0.133-0.079-0.323,0.057-0.424
			c0.818-0.613,0.973-1.753,0.345-2.551c-0.104-0.133-0.079-0.323,0.058-0.425c0.136-0.102,0.332-0.076,0.437,0.056
			C156.304,35.04,156.098,36.562,155.007,37.377z"/>
	</g>
	<g>
	</g>
	<g>
	</g>
	<g>
	</g>
	<g>
	</g>
	<g>
	</g>
	<g>
	</g>
	<g>
	</g>
	<g>
	</g>
	<g>
	</g>
	<g>
	</g>
	<g>
	</g>
	<g>
	</g>
	<g>
	</g>
	<g>
	</g>
	<g>
	</g>
</g>
</svg>
