<?xml version="1.0" encoding="utf-8"?>
<!-- Generator: Adobe Illustrator 16.0.0, SVG Export Plug-In . SVG Version: 6.00 Build 0)  -->
<!DOCTYPE svg PUBLIC "-//W3C//DTD SVG 1.1//EN" "http://www.w3.org/Graphics/SVG/1.1/DTD/svg11.dtd">
<svg version="1.1" id="圖層_1" xmlns="http://www.w3.org/2000/svg" xmlns:xlink="http://www.w3.org/1999/xlink" x="0px" y="0px"
	 width="270px" height="55px" viewBox="0 0 270 55" enable-background="new 0 0 270 55" xml:space="preserve">
<g>
	<path fill="#D20037" d="M22.094,39.746c0,0.912-0.236,1.604-0.708,2.075c-0.472,0.473-1.164,0.708-2.075,0.708H9.643
		c-0.912,0-1.604-0.235-2.075-0.708c-0.472-0.472-0.708-1.163-0.708-2.075v-6.934L6.273,33.74c-0.391,0.651-0.863,0.977-1.416,0.977
		c-0.586,0-1.14-0.358-1.66-1.074c-0.586-0.781-0.879-1.514-0.879-2.197c0-0.456,0.146-0.879,0.439-1.27
		c2.767-3.809,4.85-10.449,6.25-19.922H5.15c-0.749,0-1.327-0.203-1.733-0.61c-0.407-0.407-0.61-1.001-0.61-1.782
		s0.203-1.375,0.61-1.782c0.407-0.407,0.984-0.61,1.733-0.61h15.82c0.749,0,1.326,0.204,1.733,0.61
		c0.407,0.407,0.61,0.993,0.61,1.758c0,0.765-0.212,1.359-0.635,1.782c-0.456,0.423-1.025,0.635-1.709,0.635h-6.982
		c-0.586,3.679-1.27,6.982-2.051,9.912h7.373c0.911,0,1.603,0.236,2.075,0.708c0.472,0.472,0.708,1.164,0.708,2.075V39.746z
		 M11.498,37.646c0,0.13,0.016,0.212,0.049,0.244c0.032,0.033,0.098,0.049,0.195,0.049h5.371c0.098,0,0.163-0.016,0.195-0.049
		c0.032-0.032,0.049-0.114,0.049-0.244V25.098l-0.049-0.195c0-0.032-0.065-0.049-0.195-0.049h-5.615V37.646z M30.932,39.502
		c0.423,0,0.871,0.082,1.343,0.244c0.472,0.163,0.838,0.375,1.099,0.635c0.26,0.261,0.391,0.595,0.391,1.001
		c0,0.407-0.228,0.839-0.684,1.294c-2.019,2.474-4.411,4.346-7.178,5.615c-1.433,0.488-2.344,0.732-2.734,0.732h-0.049
		c-0.977,0-1.701-0.244-2.173-0.732c-0.472-0.488-0.773-1.123-0.903-1.904c0-0.033,0-0.065,0-0.098V46.24
		c0-0.261,0.13-0.456,0.391-0.586l0.781-0.342c3.483-1.367,5.989-2.962,7.52-4.785c0-0.032,0.032-0.064,0.098-0.098
		C29.418,39.812,30.118,39.502,30.932,39.502z M24.682,16.309c0-0.911,0.236-1.603,0.708-2.075c0.472-0.472,1.164-0.708,2.075-0.708
		h4.834l0.684-3.564h-7.568c-0.749,0-1.327-0.203-1.733-0.61c-0.407-0.407-0.61-1.001-0.61-1.782s0.203-1.375,0.61-1.782
		c0.407-0.407,0.984-0.61,1.733-0.61h21.094c0.749,0,1.326,0.204,1.733,0.61c0.407,0.407,0.61,1.001,0.61,1.782
		s-0.204,1.375-0.61,1.782c-0.407,0.407-0.985,0.61-1.733,0.61h-8.252l-0.928,3.564h6.982c0.911,0,1.603,0.236,2.075,0.708
		c0.472,0.472,0.708,1.164,0.708,2.075v21.045c0,0.912-0.236,1.604-0.708,2.075c-0.472,0.473-1.164,0.708-2.075,0.708H27.465
		c-0.912,0-1.604-0.235-2.075-0.708c-0.472-0.472-0.708-1.164-0.708-2.075V16.309z M42.162,18.164c0-0.13-0.017-0.211-0.049-0.244
		c-0.033-0.032-0.082-0.049-0.146-0.049H29.711c-0.13,0-0.212,0.017-0.244,0.049c-0.033,0.033-0.049,0.114-0.049,0.244v2.832h12.744
		V18.164z M29.418,25.244v3.076h12.744v-3.076H29.418z M29.418,32.568v2.881c0,0.13,0.016,0.212,0.049,0.244
		c0.032,0.033,0.114,0.049,0.244,0.049h12.256c0.065,0,0.114-0.016,0.146-0.049c0.032-0.032,0.049-0.114,0.049-0.244v-2.881H29.418z
		 M38.891,40.088c0.521-0.325,1.058-0.488,1.611-0.488c0.749,0,1.514,0.293,2.295,0.879c2.506,1.758,4.167,3.174,4.98,4.248
		c0.651,0.748,0.977,1.48,0.977,2.197c0,0.618-0.22,1.131-0.659,1.538c-0.439,0.406-1.099,0.708-1.978,0.903
		c-0.033,0-0.065,0-0.098,0h-0.098c-0.13,0-0.261-0.065-0.391-0.195c-0.391-0.293-0.603-0.456-0.635-0.488
		c-1.172-1.596-3.06-3.354-5.664-5.273c-0.814-0.684-1.221-1.318-1.221-1.904S38.305,40.446,38.891,40.088z"/>
	<path fill="#D20037" d="M64.203,10.107v37.5c0,0.748-0.204,1.326-0.61,1.733c-0.407,0.406-0.985,0.61-1.733,0.61
		c-0.749,0-1.327-0.204-1.733-0.61c-0.407-0.407-0.61-0.985-0.61-1.733V7.813c0-0.879,0.236-1.554,0.708-2.026
		c0.472-0.472,1.147-0.708,2.026-0.708l9.766-0.146h0.098c0.098,0,0.195,0.033,0.293,0.098l0.732,0.439
		c0.879,0.521,1.318,1.335,1.318,2.441c0,0.651-0.163,1.384-0.488,2.197c-1.855,5.111-3.076,8.398-3.662,9.863
		c0.032,0.163,0.146,0.375,0.342,0.635c2.637,2.897,3.955,6.332,3.955,10.303c0,3.158-0.749,5.241-2.246,6.25
		c-1.009,0.781-2.197,1.172-3.564,1.172c-0.228,0-0.456-0.016-0.684-0.049c-1.107,0-1.953-0.293-2.539-0.879
		c-0.326-0.325-0.545-0.684-0.659-1.074c-0.114-0.391-0.171-0.765-0.171-1.123c0-0.391,0.163-0.732,0.488-1.025
		c0.325-0.293,0.797-0.439,1.416-0.439h0.293l1.025-0.049c0.456,0,0.862-0.098,1.221-0.293c0.456-0.391,0.684-1.334,0.684-2.832
		c0-3.223-0.977-5.811-2.93-7.764v-0.049c-0.781-0.911-1.172-1.79-1.172-2.637c0-0.391,0.081-0.765,0.244-1.123
		c0.846-2.051,1.839-4.98,2.979-8.789c0.065-0.13,0.098-0.244,0.098-0.342h-4.639l-0.195,0.049
		C64.219,9.912,64.203,9.978,64.203,10.107z M97.748,35.498c0-0.228-0.017-0.391-0.049-0.488h-2.002
		c-2.051,6.055-4.851,10.547-8.398,13.477c-0.521,0.521-1.074,0.781-1.66,0.781c-0.619,0-1.221-0.31-1.807-0.928
		c-0.456-0.424-0.684-0.879-0.684-1.367c0-0.586,0.276-1.099,0.83-1.538c0.553-0.439,1.074-0.888,1.563-1.343
		c2.116-2.148,3.906-5.176,5.371-9.082h-2.734c-1.791,3.548-4.232,6.885-7.324,10.01c-1.237,1.204-2.376,2.148-3.418,2.832
		c-0.814,0.391-1.318,0.586-1.514,0.586h-0.049c-0.586,0-1.123-0.269-1.611-0.806s-0.732-1.05-0.732-1.538
		c0-0.651,0.342-1.205,1.025-1.66c1.27-0.781,2.799-2.132,4.59-4.053c1.53-1.66,2.864-3.45,4.004-5.371h-2.734
		c-1.758,2.279-3.32,3.89-4.688,4.834c-0.488,0.391-1.018,0.586-1.587,0.586c-0.57,0-1.164-0.276-1.782-0.83
		c-0.521-0.521-0.781-1.025-0.781-1.514c0-0.651,0.325-1.221,0.977-1.709h0.049c2.637-1.692,4.899-4.329,6.787-7.91h-3.857
		c-0.781,0-1.359-0.187-1.733-0.562c-0.375-0.374-0.562-0.887-0.562-1.538V26.27c0-0.716,0.195-1.27,0.586-1.66
		s0.96-0.586,1.709-0.586h26.66c0.781,0,1.367,0.195,1.758,0.586s0.586,0.936,0.586,1.636c0,0.7-0.195,1.245-0.586,1.636
		s-0.977,0.586-1.758,0.586H84.418l-1.123,2.148h16.699c0.716,0,1.302,0.228,1.758,0.684c0.586,0.586,0.879,1.546,0.879,2.881
		c0,0.261-0.017,0.505-0.049,0.732c-0.195,4.135-0.521,7.341-0.977,9.619c-0.391,1.888-0.912,3.157-1.563,3.809
		c-0.716,0.911-1.807,1.416-3.271,1.514h-0.049h-2.686c-0.847,0-1.53-0.244-2.051-0.732c-0.326-0.358-0.57-0.798-0.732-1.318
		c-0.033-0.163-0.049-0.391-0.049-0.684c0-0.488,0.154-0.888,0.464-1.196c0.309-0.31,0.822-0.464,1.538-0.464
		c0.065,0,0.684,0.032,1.855,0.098c0.651,0,1.042-0.082,1.172-0.244h0.049c0.26-0.326,0.529-1.205,0.806-2.637
		c0.276-1.432,0.496-3.678,0.659-6.738V35.498z M97.699,4.932c0.911,0,1.603,0.236,2.075,0.708c0.472,0.472,0.708,1.164,0.708,2.075
		v11.963c0,0.912-0.236,1.604-0.708,2.075c-0.472,0.472-1.164,0.708-2.075,0.708H80.365c-0.912,0-1.604-0.236-2.075-0.708
		c-0.472-0.472-0.708-1.164-0.708-2.075V7.715c0-0.911,0.236-1.603,0.708-2.075c0.472-0.472,1.164-0.708,2.075-0.708H97.699z
		 M95.6,9.424c0-0.13-0.017-0.211-0.049-0.244c-0.033-0.032-0.098-0.049-0.195-0.049H82.66c-0.13,0-0.212,0.017-0.244,0.049
		c-0.033,0.033-0.049,0.114-0.049,0.244v2.148H95.6V9.424z M95.6,17.969v-2.344H82.367v2.344c0,0.098,0.016,0.163,0.049,0.195
		c0.032,0.033,0.114,0.049,0.244,0.049h12.695l0.195-0.049C95.583,18.164,95.6,18.099,95.6,17.969z"/>
	<path fill="#D20037" d="M113.686,7.764c0-0.911,0.236-1.603,0.708-2.075c0.472-0.472,1.164-0.708,2.075-0.708h39.161
		c0.91,0,1.602,0.236,2.074,0.708c0.473,0.472,0.709,1.164,0.709,2.075V47.07c0,0.911-0.236,1.603-0.709,2.075
		c-0.473,0.472-1.164,0.708-2.074,0.708h-39.161c-0.912,0-1.604-0.236-2.075-0.708c-0.472-0.473-0.708-1.164-0.708-2.075V7.764z
		 M153.091,45.166c0.129,0,0.211-0.017,0.244-0.049c0.031-0.033,0.049-0.098,0.049-0.195V9.912c0-0.13-0.018-0.211-0.049-0.244
		c-0.033-0.032-0.115-0.049-0.244-0.049H118.91c-0.13,0-0.212,0.017-0.244,0.049c-0.033,0.033-0.049,0.114-0.049,0.244v35.01
		c0,0.098,0.016,0.162,0.049,0.195c0.032,0.032,0.114,0.049,0.244,0.049H153.091z M122.035,25.049c-0.814,0-1.416-0.195-1.807-0.586
		c-0.326-0.325-0.488-0.765-0.488-1.318c0-0.553,0.179-1.009,0.537-1.367c0.358-0.358,0.911-0.537,1.66-0.537h11.523v-1.025h-5.713
		c-0.912,0-1.604-0.236-2.075-0.708c-0.472-0.472-0.708-1.164-0.708-2.075v-3.906c0-0.911,0.236-1.603,0.708-2.075
		c0.472-0.472,1.164-0.708,2.075-0.708h16.455c0.911,0,1.603,0.236,2.075,0.708c0.472,0.472,0.708,1.164,0.708,2.075v3.906
		c0,0.912-0.236,1.604-0.708,2.075c-0.472,0.472-1.164,0.708-2.075,0.708h-6.055v1.025h11.914c0.846,0,1.465,0.195,1.855,0.586
		c0.325,0.326,0.489,0.765,0.489,1.318c0,0.554-0.164,0.993-0.489,1.318c-0.391,0.391-1.009,0.586-1.855,0.586H122.035z
		 M126.039,43.799c-0.912,0-1.604-0.235-2.075-0.708c-0.472-0.472-0.708-1.147-0.708-2.026V28.711c0-0.911,0.236-1.603,0.708-2.075
		c0.472-0.472,1.164-0.708,2.075-0.708h19.873c0.911,0,1.603,0.236,2.075,0.708c0.472,0.472,0.708,1.147,0.708,2.026v12.354
		c0,0.912-0.236,1.604-0.708,2.075c-0.472,0.473-1.164,0.708-2.075,0.708H126.039z M144.105,29.98c0-0.13-0.017-0.211-0.049-0.244
		c-0.033-0.032-0.098-0.049-0.195-0.049h-15.918c-0.098,0-0.163,0.017-0.195,0.049c-0.033,0.033-0.049,0.114-0.049,0.244v9.668
		c0,0.131,0.016,0.212,0.049,0.244c0.032,0.033,0.098,0.049,0.195,0.049h15.918c0.098,0,0.163-0.016,0.195-0.049
		c0.032-0.032,0.049-0.113,0.049-0.244V29.98z M129.604,14.648v1.563l0.049,0.195c0,0.033,0.065,0.049,0.195,0.049h12.158
		l0.195-0.049c0.032,0,0.049-0.065,0.049-0.195v-1.563l-0.049-0.195c0-0.032-0.065-0.049-0.195-0.049h-12.158l-0.195,0.049
		C129.62,14.453,129.604,14.519,129.604,14.648z M132.436,39.063c-0.912,0-1.604-0.236-2.075-0.708
		c-0.472-0.472-0.708-1.164-0.708-2.075v-2.93c0-0.911,0.236-1.603,0.708-2.075c0.472-0.472,1.164-0.708,2.075-0.708h6.934
		c0.911,0,1.603,0.236,2.075,0.708c0.472,0.472,0.708,1.164,0.708,2.075v2.93c0,0.912-0.236,1.604-0.708,2.075
		c-0.472,0.472-1.164,0.708-2.075,0.708H132.436z M138.246,34.277c0-0.13-0.017-0.211-0.049-0.244
		c-0.033-0.032-0.098-0.049-0.195-0.049h-4.297c-0.13,0-0.212,0.017-0.244,0.049c-0.033,0.033-0.049,0.114-0.049,0.244V35.4
		c0,0.13,0.016,0.212,0.049,0.244c0.032,0.033,0.114,0.049,0.244,0.049h4.297c0.098,0,0.163-0.016,0.195-0.049
		c0.032-0.032,0.049-0.114,0.049-0.244V34.277z"/>
	<path fill="#D20037" d="M193.394,23.438h15.381c0.813,0,1.399,0.179,1.758,0.537c0.357,0.358,0.537,0.838,0.537,1.44
		c0,0.603-0.188,1.091-0.562,1.465c-0.375,0.375-0.952,0.562-1.733,0.562h-15.381v1.66h18.896c0.781,0,1.367,0.195,1.758,0.586
		s0.586,0.912,0.586,1.563c0,0.651-0.188,1.164-0.562,1.538c-0.375,0.375-0.969,0.562-1.782,0.562h-42.529
		c-0.814,0-1.408-0.187-1.782-0.562c-0.375-0.374-0.562-0.887-0.562-1.538c0-0.651,0.195-1.172,0.586-1.563s0.977-0.586,1.758-0.586
		h18.506v-1.66h-15.039c-0.814,0-1.4-0.179-1.758-0.537c-0.358-0.358-0.537-0.838-0.537-1.44c0-0.602,0.187-1.09,0.562-1.465
		c0.374-0.374,0.919-0.562,1.636-0.562h15.137v-1.514h-13.574c-0.814,0-1.408-0.187-1.782-0.562
		c-0.375-0.374-0.562-0.846-0.562-1.416c0-0.569,0.187-1.042,0.562-1.416c0.374-0.374,0.968-0.562,1.782-0.562h13.574V16.26h-18.408
		c-0.781,0-1.367-0.195-1.758-0.586s-0.586-0.911-0.586-1.563c0-0.651,0.195-1.172,0.586-1.563s0.977-0.586,1.758-0.586h18.408
		v-1.514h-12.988c-0.814,0-1.408-0.187-1.782-0.562c-0.375-0.374-0.562-0.846-0.562-1.416c0-0.569,0.187-1.042,0.562-1.416
		c0.374-0.374,0.968-0.562,1.782-0.562h12.988v-1.27c0-0.716,0.211-1.286,0.635-1.709c0.423-0.423,1.065-0.635,1.929-0.635
		c0.862,0,1.505,0.212,1.929,0.635c0.423,0.423,0.635,0.993,0.635,1.709v1.27h12.061c0.911,0,1.603,0.236,2.075,0.708
		c0.472,0.472,0.708,1.164,0.708,2.075v2.686h4.004c0.781,0,1.367,0.195,1.758,0.586s0.586,0.912,0.586,1.563
		c0,0.651-0.195,1.172-0.586,1.563s-0.977,0.586-1.758,0.586h-4.004v2.881c0,0.912-0.236,1.604-0.708,2.075
		c-0.473,0.472-1.164,0.708-2.075,0.708h-12.061V23.438z M176.792,50.049c-0.912,0-1.604-0.236-2.075-0.708
		c-0.473-0.473-0.708-1.147-0.708-2.026V37.207c0-0.911,0.235-1.603,0.708-2.075c0.472-0.472,1.163-0.708,2.075-0.708h28.906
		c0.911,0,1.603,0.236,2.075,0.708c0.472,0.472,0.708,1.147,0.708,2.026v10.107c0,0.911-0.236,1.603-0.708,2.075
		c-0.473,0.472-1.164,0.708-2.075,0.708H176.792z M203.257,38.672c0-0.13-0.017-0.211-0.049-0.244
		c-0.033-0.032-0.098-0.049-0.195-0.049H179.38c-0.098,0-0.163,0.017-0.195,0.049c-0.033,0.033-0.049,0.114-0.049,0.244v1.563
		h24.121V38.672z M179.136,45.703c0,0.13,0.016,0.211,0.049,0.244c0.032,0.032,0.098,0.049,0.195,0.049h23.633
		c0.098,0,0.162-0.017,0.195-0.049c0.032-0.033,0.049-0.114,0.049-0.244v-1.66h-24.121V45.703z M193.394,11.963h9.668v-1.27
		l-0.049-0.195c0-0.032-0.065-0.049-0.195-0.049h-9.424V11.963z M193.394,17.969h9.424l0.195-0.049c0.032,0,0.049-0.065,0.049-0.195
		V16.26h-9.668V17.969z"/>
	<path fill="#D20037" d="M233.794,2.93c0.325,0,0.684,0.082,1.074,0.244c0.423,0.13,0.772,0.334,1.05,0.61
		c0.276,0.277,0.415,0.603,0.415,0.977c0,0.375-0.082,0.725-0.244,1.05l5.225,3.418c0.748,0.488,1.123,1.107,1.123,1.855
		c0,0.456-0.114,0.879-0.342,1.27c-0.229,0.391-0.439,0.684-0.635,0.879c-0.358,0.358-0.741,0.537-1.147,0.537
		c-0.407,0-0.79-0.163-1.147-0.488c-0.781-0.684-2.637-1.969-5.566-3.857c-2.637,3.353-5.144,5.794-7.52,7.324
		c-0.651,0.326-1.059,0.488-1.221,0.488h-0.049c-0.749,0-1.367-0.472-1.855-1.416c-0.229-0.521-0.342-1.042-0.342-1.563
		c0-0.651,0.309-1.221,0.928-1.709c0.032-0.065,0.081-0.114,0.146-0.146c1.204-0.749,2.718-2.026,4.541-3.833
		c1.822-1.807,2.962-3.214,3.418-4.224C232.198,3.402,232.915,2.93,233.794,2.93z M230.034,36.084v6.885l5.322-2.1l-0.879-1.66
		c-0.229-0.423-0.342-0.846-0.342-1.27c0-0.456,0.162-0.813,0.488-1.074c0.748-0.456,1.236-0.684,1.465-0.684h0.049
		c0.943,0,1.79,0.651,2.539,1.953c0.748,1.303,1.937,3.63,3.564,6.982c0.13,0.26,0.195,0.504,0.195,0.732
		c0,0.748-0.488,1.367-1.465,1.855c-0.326,0.162-0.7,0.244-1.123,0.244c-0.456,0-0.863-0.18-1.221-0.537
		c-0.261-0.261-0.456-0.57-0.586-0.928l-0.83-1.807c-6.543,2.701-10.141,4.28-10.791,4.736c-0.195,0.13-0.407,0.195-0.635,0.195
		c-0.261,0-0.521-0.131-0.781-0.391c-0.261-0.261-0.488-0.659-0.684-1.196s-0.293-1.001-0.293-1.392c0-0.814,0.374-1.514,1.123-2.1
		c0.032-0.065,0.081-0.098,0.146-0.098c0.032-0.293,0.049-0.684,0.049-1.172v-22.51c0-0.911,0.235-1.603,0.708-2.075
		c0.472-0.472,1.163-0.708,2.075-0.708h10.107c0.911,0,1.603,0.236,2.075,0.708c0.472,0.472,0.708,1.164,0.708,2.075v12.549
		c0,0.912-0.236,1.604-0.708,2.075c-0.473,0.472-1.164,0.708-2.075,0.708H230.034z M225.103,44.922c0-0.131,0.064-0.261,0.195-0.391
		c0.13-0.131,0.26-0.195,0.391-0.195l0.391,0.195c0.13,0.13,0.195,0.26,0.195,0.391c0,0.13-0.065,0.26-0.195,0.391
		c-0.131,0.13-0.261,0.195-0.391,0.195l-0.391-0.195C225.167,45.182,225.103,45.052,225.103,44.922z M229.424,15.796
		c-0.375-0.374-0.562-0.871-0.562-1.489c0-0.618,0.187-1.115,0.562-1.489c0.374-0.374,0.968-0.562,1.782-0.562h5.127
		c0.813,0,1.407,0.188,1.782,0.562c0.374,0.375,0.562,0.871,0.562,1.489c0,0.619-0.188,1.115-0.562,1.489
		c-0.375,0.375-0.969,0.562-1.782,0.562h-5.127C230.392,16.357,229.798,16.17,229.424,15.796z M236.382,24.756v-2.295
		c0-0.098-0.017-0.163-0.049-0.195c-0.033-0.032-0.114-0.049-0.244-0.049h-5.811l-0.195,0.049c-0.033,0-0.049,0.065-0.049,0.195
		v2.295H236.382z M236.382,28.955h-6.348v2.93h6.055c0.13,0,0.211-0.016,0.244-0.049c0.032-0.032,0.049-0.114,0.049-0.244V28.955z
		 M264.165,13.428c0-0.13-0.017-0.211-0.049-0.244c-0.033-0.032-0.098-0.049-0.195-0.049h-17.432l-0.195,0.049
		c-0.033,0.033-0.049,0.114-0.049,0.244v2.441c0,0.781-0.195,1.367-0.586,1.758s-0.937,0.586-1.636,0.586
		c-0.7,0-1.245-0.195-1.636-0.586s-0.586-0.977-0.586-1.758v-4.346c0-0.911,0.235-1.603,0.708-2.075
		c0.472-0.472,1.163-0.708,2.075-0.708h8.74l-1.074-2.295c-0.163-0.391-0.244-0.806-0.244-1.245s0.154-0.806,0.464-1.099
		c0.309-0.293,0.667-0.529,1.074-0.708c0.406-0.179,0.846-0.269,1.318-0.269c0.472,0,0.903,0.195,1.294,0.586
		c0.195,0.195,0.374,0.456,0.537,0.781l1.172,2.49c0.195,0.391,0.293,0.732,0.293,1.025s-0.033,0.537-0.098,0.732h7.91
		c0.911,0,1.603,0.236,2.075,0.708c0.472,0.472,0.708,1.164,0.708,2.075v4.346c0,0.749-0.204,1.327-0.61,1.733
		c-0.407,0.407-0.969,0.61-1.685,0.61c-0.717,0-1.278-0.203-1.685-0.61c-0.407-0.407-0.61-0.984-0.61-1.733V13.428z M249.663,30.664
		v3.271h14.355c0.911,0,1.603,0.236,2.075,0.708c0.472,0.472,0.708,1.164,0.708,2.075v10.205c0,0.911-0.236,1.603-0.708,2.075
		c-0.473,0.472-1.164,0.708-2.075,0.708h-16.211c-0.912,0-1.604-0.236-2.075-0.708c-0.473-0.473-0.708-1.164-0.708-2.075V19.043
		c0-0.911,0.235-1.603,0.708-2.075c0.472-0.472,1.163-0.708,2.075-0.708h14.014c0.911,0,1.603,0.236,2.075,0.708
		c0.472,0.472,0.708,1.164,0.708,2.075v8.838c0,0.912-0.236,1.604-0.708,2.075c-0.473,0.472-1.164,0.708-2.075,0.708H249.663z
		 M249.956,20.703c-0.131,0-0.212,0.017-0.244,0.049c-0.033,0.033-0.049,0.098-0.049,0.195v5.225h10.107l0.195-0.049
		c0.032,0,0.049-0.065,0.049-0.195v-4.98l-0.049-0.195c0-0.032-0.065-0.049-0.195-0.049H249.956z M262.114,38.77
		c0-0.13-0.017-0.211-0.049-0.244c-0.033-0.032-0.098-0.049-0.195-0.049h-12.207v6.396c0,0.098,0.016,0.162,0.049,0.195
		c0.032,0.032,0.113,0.049,0.244,0.049h11.914l0.195-0.049c0.032,0,0.049-0.065,0.049-0.195V38.77z"/>
</g>
<g>
</g>
<g>
</g>
<g>
</g>
<g>
</g>
<g>
</g>
<g>
</g>
<g>
</g>
<g>
</g>
<g>
</g>
<g>
</g>
<g>
</g>
<g>
</g>
<g>
</g>
<g>
</g>
<g>
</g>
</svg>
