<?xml version="1.0" encoding="utf-8"?>
<!-- Generator: Adobe Illustrator 16.0.0, SVG Export Plug-In . SVG Version: 6.00 Build 0)  -->
<!DOCTYPE svg PUBLIC "-//W3C//DTD SVG 1.1//EN" "http://www.w3.org/Graphics/SVG/1.1/DTD/svg11.dtd">
<svg version="1.1" id="圖層_1" xmlns="http://www.w3.org/2000/svg" xmlns:xlink="http://www.w3.org/1999/xlink" x="0px" y="0px"
	 width="270px" height="55px" viewBox="0 0 270 55" enable-background="new 0 0 270 55" xml:space="preserve">
<g>
	<path fill="#820F83" d="M22.094,39.746c0,0.912-0.236,1.604-0.708,2.075c-0.472,0.473-1.164,0.708-2.075,0.708H9.643
		c-0.912,0-1.604-0.235-2.075-0.708c-0.472-0.472-0.708-1.163-0.708-2.075v-6.934L6.273,33.74c-0.391,0.651-0.863,0.977-1.416,0.977
		c-0.586,0-1.14-0.358-1.66-1.074c-0.586-0.781-0.879-1.514-0.879-2.197c0-0.456,0.146-0.879,0.439-1.27
		c2.767-3.809,4.85-10.449,6.25-19.922H5.15c-0.749,0-1.327-0.203-1.733-0.61c-0.407-0.407-0.61-1.001-0.61-1.782
		s0.203-1.375,0.61-1.782c0.407-0.407,0.984-0.61,1.733-0.61h15.82c0.749,0,1.326,0.204,1.733,0.61
		c0.407,0.407,0.61,0.993,0.61,1.758c0,0.765-0.212,1.359-0.635,1.782c-0.456,0.423-1.025,0.635-1.709,0.635h-6.982
		c-0.586,3.679-1.27,6.982-2.051,9.912h7.373c0.911,0,1.603,0.236,2.075,0.708c0.472,0.472,0.708,1.164,0.708,2.075V39.746z
		 M11.498,37.646c0,0.13,0.016,0.212,0.049,0.244c0.032,0.033,0.098,0.049,0.195,0.049h5.371c0.098,0,0.163-0.016,0.195-0.049
		c0.032-0.032,0.049-0.114,0.049-0.244V25.098l-0.049-0.195c0-0.032-0.065-0.049-0.195-0.049h-5.615V37.646z M30.932,39.502
		c0.423,0,0.871,0.082,1.343,0.244c0.472,0.163,0.838,0.375,1.099,0.635c0.26,0.261,0.391,0.595,0.391,1.001
		c0,0.407-0.228,0.839-0.684,1.294c-2.019,2.474-4.411,4.346-7.178,5.615c-1.433,0.488-2.344,0.732-2.734,0.732h-0.049
		c-0.977,0-1.701-0.244-2.173-0.732c-0.472-0.488-0.773-1.123-0.903-1.904c0-0.033,0-0.065,0-0.098V46.24
		c0-0.261,0.13-0.456,0.391-0.586l0.781-0.342c3.483-1.367,5.989-2.962,7.52-4.785c0-0.032,0.032-0.064,0.098-0.098
		C29.418,39.812,30.118,39.502,30.932,39.502z M24.682,16.309c0-0.911,0.236-1.603,0.708-2.075c0.472-0.472,1.164-0.708,2.075-0.708
		h4.834l0.684-3.564h-7.568c-0.749,0-1.327-0.203-1.733-0.61c-0.407-0.407-0.61-1.001-0.61-1.782s0.203-1.375,0.61-1.782
		c0.407-0.407,0.984-0.61,1.733-0.61h21.094c0.749,0,1.326,0.204,1.733,0.61c0.407,0.407,0.61,1.001,0.61,1.782
		s-0.204,1.375-0.61,1.782c-0.407,0.407-0.985,0.61-1.733,0.61h-8.252l-0.928,3.564h6.982c0.911,0,1.603,0.236,2.075,0.708
		c0.472,0.472,0.708,1.164,0.708,2.075v21.045c0,0.912-0.236,1.604-0.708,2.075c-0.472,0.473-1.164,0.708-2.075,0.708H27.465
		c-0.912,0-1.604-0.235-2.075-0.708c-0.472-0.472-0.708-1.164-0.708-2.075V16.309z M42.162,18.164c0-0.13-0.017-0.211-0.049-0.244
		c-0.033-0.032-0.082-0.049-0.146-0.049H29.711c-0.13,0-0.212,0.017-0.244,0.049c-0.033,0.033-0.049,0.114-0.049,0.244v2.832h12.744
		V18.164z M29.418,25.244v3.076h12.744v-3.076H29.418z M29.418,32.568v2.881c0,0.13,0.016,0.212,0.049,0.244
		c0.032,0.033,0.114,0.049,0.244,0.049h12.256c0.065,0,0.114-0.016,0.146-0.049c0.032-0.032,0.049-0.114,0.049-0.244v-2.881H29.418z
		 M38.891,40.088c0.521-0.325,1.058-0.488,1.611-0.488c0.749,0,1.514,0.293,2.295,0.879c2.506,1.758,4.167,3.174,4.98,4.248
		c0.651,0.748,0.977,1.48,0.977,2.197c0,0.618-0.22,1.131-0.659,1.538c-0.439,0.406-1.099,0.708-1.978,0.903
		c-0.033,0-0.065,0-0.098,0h-0.098c-0.13,0-0.261-0.065-0.391-0.195c-0.391-0.293-0.603-0.456-0.635-0.488
		c-1.172-1.596-3.06-3.354-5.664-5.273c-0.814-0.684-1.221-1.318-1.221-1.904S38.305,40.446,38.891,40.088z"/>
	<path fill="#820F83" d="M103.388,43.628c0.407,0.406,0.61,1.001,0.61,1.782s-0.204,1.375-0.61,1.782
		c-0.407,0.406-0.985,0.61-1.733,0.61H60.346c-0.749,0-1.327-0.204-1.733-0.61c-0.407-0.407-0.61-1.001-0.61-1.782
		s0.203-1.376,0.61-1.782c0.407-0.406,0.984-0.61,1.733-0.61h12.5v-7.324l-0.049-0.195c0-0.032-0.065-0.049-0.195-0.049h-8.203
		c-0.912,0-1.604-0.236-2.075-0.708c-0.472-0.472-0.708-1.164-0.708-2.075v-12.5c0-0.911,0.236-1.603,0.708-2.075
		c0.472-0.472,1.164-0.708,2.075-0.708h8.203l0.195-0.049c0.032-0.032,0.049-0.114,0.049-0.244v-6.152H61.713
		c-0.749,0-1.327-0.203-1.733-0.61c-0.407-0.407-0.61-1.009-0.61-1.807c0-0.797,0.203-1.399,0.61-1.807
		c0.407-0.407,0.984-0.61,1.733-0.61h38.721c0.749,0,1.326,0.204,1.733,0.61c0.407,0.407,0.61,1.009,0.61,1.807
		c0,0.798-0.204,1.4-0.61,1.807c-0.407,0.407-0.985,0.61-1.733,0.61H88.813v6.104c0,0.13,0.016,0.212,0.049,0.244
		c0.032,0.033,0.114,0.049,0.244,0.049h8.447c0.911,0,1.603,0.236,2.075,0.708c0.472,0.472,0.708,1.164,0.708,2.075v12.5
		c0,0.912-0.236,1.604-0.708,2.075c-0.472,0.472-1.164,0.708-2.075,0.708l-8.447,0.049c-0.13,0-0.212,0.017-0.244,0.049
		c-0.033,0.033-0.049,0.098-0.049,0.195v7.324h12.842C102.403,43.018,102.98,43.222,103.388,43.628z M95.209,22.168
		c0-0.13-0.017-0.211-0.049-0.244c-0.033-0.032-0.098-0.049-0.195-0.049h-8.301c-0.912,0-1.604-0.236-2.075-0.708
		c-0.472-0.472-0.708-1.164-0.708-2.075v-8.154h-6.104v8.252c0,0.912-0.236,1.604-0.708,2.075c-0.472,0.472-1.164,0.708-2.075,0.708
		H66.84c-0.098,0-0.163,0.017-0.195,0.049c-0.033,0.033-0.049,0.114-0.049,0.244v8.301l0.049,0.195c0,0.033,0.065,0.049,0.195,0.049
		h8.203c0.911,0,1.603,0.236,2.075,0.708c0.472,0.472,0.708,1.164,0.708,2.075v9.424h6.055v-9.473c0-0.911,0.236-1.603,0.708-2.075
		c0.472-0.472,1.164-0.708,2.075-0.708h8.301l0.195-0.049c0.032,0,0.049-0.065,0.049-0.195V22.168z"/>
	<path fill="#004DA0" d="M113.686,7.764c0-0.911,0.236-1.603,0.708-2.075c0.472-0.472,1.164-0.708,2.075-0.708h39.16
		c0.91,0,1.602,0.236,2.074,0.708c0.473,0.472,0.709,1.164,0.709,2.075V47.07c0,0.911-0.236,1.603-0.709,2.075
		c-0.473,0.472-1.164,0.708-2.074,0.708h-39.16c-0.912,0-1.604-0.236-2.075-0.708c-0.472-0.473-0.708-1.164-0.708-2.075V7.764z
		 M153.09,45.166c0.129,0,0.211-0.017,0.244-0.049c0.031-0.033,0.049-0.098,0.049-0.195V9.912c0-0.13-0.018-0.211-0.049-0.244
		c-0.033-0.032-0.115-0.049-0.244-0.049h-34.18c-0.13,0-0.212,0.017-0.244,0.049c-0.033,0.033-0.049,0.114-0.049,0.244v35.01
		c0,0.098,0.016,0.162,0.049,0.195c0.032,0.032,0.114,0.049,0.244,0.049H153.09z M122.035,25.049c-0.814,0-1.416-0.195-1.807-0.586
		c-0.326-0.325-0.488-0.765-0.488-1.318c0-0.553,0.179-1.009,0.537-1.367c0.358-0.358,0.911-0.537,1.66-0.537h11.523v-1.025h-5.713
		c-0.912,0-1.604-0.236-2.075-0.708c-0.472-0.472-0.708-1.164-0.708-2.075v-3.906c0-0.911,0.236-1.603,0.708-2.075
		c0.472-0.472,1.164-0.708,2.075-0.708h16.455c0.911,0,1.603,0.236,2.075,0.708c0.472,0.472,0.708,1.164,0.708,2.075v3.906
		c0,0.912-0.236,1.604-0.708,2.075c-0.472,0.472-1.164,0.708-2.075,0.708h-6.055v1.025h11.914c0.846,0,1.465,0.195,1.855,0.586
		c0.324,0.326,0.488,0.765,0.488,1.318c0,0.554-0.164,0.993-0.488,1.318c-0.391,0.391-1.009,0.586-1.855,0.586H122.035z
		 M126.039,43.799c-0.912,0-1.604-0.235-2.075-0.708c-0.472-0.472-0.708-1.147-0.708-2.026V28.711c0-0.911,0.236-1.603,0.708-2.075
		c0.472-0.472,1.164-0.708,2.075-0.708h19.873c0.911,0,1.603,0.236,2.075,0.708c0.472,0.472,0.708,1.147,0.708,2.026v12.354
		c0,0.912-0.236,1.604-0.708,2.075c-0.472,0.473-1.164,0.708-2.075,0.708H126.039z M144.105,29.98c0-0.13-0.017-0.211-0.049-0.244
		c-0.033-0.032-0.098-0.049-0.195-0.049h-15.918c-0.098,0-0.163,0.017-0.195,0.049c-0.033,0.033-0.049,0.114-0.049,0.244v9.668
		c0,0.131,0.016,0.212,0.049,0.244c0.032,0.033,0.098,0.049,0.195,0.049h15.918c0.098,0,0.163-0.016,0.195-0.049
		c0.032-0.032,0.049-0.113,0.049-0.244V29.98z M129.604,14.648v1.563l0.049,0.195c0,0.033,0.065,0.049,0.195,0.049h12.158
		l0.195-0.049c0.032,0,0.049-0.065,0.049-0.195v-1.563l-0.049-0.195c0-0.032-0.065-0.049-0.195-0.049h-12.158l-0.195,0.049
		C129.62,14.453,129.604,14.519,129.604,14.648z M132.436,39.063c-0.912,0-1.604-0.236-2.075-0.708
		c-0.472-0.472-0.708-1.164-0.708-2.075v-2.93c0-0.911,0.236-1.603,0.708-2.075c0.472-0.472,1.164-0.708,2.075-0.708h6.934
		c0.911,0,1.603,0.236,2.075,0.708c0.472,0.472,0.708,1.164,0.708,2.075v2.93c0,0.912-0.236,1.604-0.708,2.075
		c-0.472,0.472-1.164,0.708-2.075,0.708H132.436z M138.246,34.277c0-0.13-0.017-0.211-0.049-0.244
		c-0.033-0.032-0.098-0.049-0.195-0.049h-4.297c-0.13,0-0.212,0.017-0.244,0.049c-0.033,0.033-0.049,0.114-0.049,0.244V35.4
		c0,0.13,0.016,0.212,0.049,0.244c0.032,0.033,0.114,0.049,0.244,0.049h4.297c0.098,0,0.163-0.016,0.195-0.049
		c0.032-0.032,0.049-0.114,0.049-0.244V34.277z"/>
	<path fill="#004DA0" d="M193.393,23.438h15.381c0.814,0,1.4,0.179,1.758,0.537c0.357,0.358,0.537,0.838,0.537,1.44
		c0,0.603-0.188,1.091-0.561,1.465c-0.375,0.375-0.953,0.562-1.734,0.562h-15.381v1.66h18.896c0.781,0,1.367,0.195,1.758,0.586
		s0.586,0.912,0.586,1.563c0,0.651-0.188,1.164-0.561,1.538c-0.375,0.375-0.969,0.562-1.783,0.562H169.76
		c-0.814,0-1.408-0.187-1.781-0.562c-0.375-0.374-0.563-0.887-0.563-1.538c0-0.651,0.195-1.172,0.586-1.563s0.977-0.586,1.758-0.586
		h18.506v-1.66h-15.039c-0.814,0-1.4-0.179-1.758-0.537c-0.357-0.358-0.537-0.838-0.537-1.44c0-0.602,0.188-1.09,0.563-1.465
		c0.373-0.374,0.918-0.562,1.635-0.562h15.137v-1.514h-13.574c-0.814,0-1.408-0.187-1.781-0.562
		c-0.375-0.374-0.563-0.846-0.563-1.416c0-0.569,0.188-1.042,0.563-1.416c0.373-0.374,0.967-0.562,1.781-0.562h13.574V16.26h-18.408
		c-0.781,0-1.367-0.195-1.758-0.586s-0.586-0.911-0.586-1.563c0-0.651,0.195-1.172,0.586-1.563s0.977-0.586,1.758-0.586h18.408
		v-1.514h-12.988c-0.814,0-1.408-0.187-1.781-0.562c-0.375-0.374-0.563-0.846-0.563-1.416c0-0.569,0.188-1.042,0.563-1.416
		c0.373-0.374,0.967-0.562,1.781-0.562h12.988v-1.27c0-0.716,0.211-1.286,0.635-1.709c0.424-0.423,1.066-0.635,1.93-0.635
		c0.861,0,1.504,0.212,1.928,0.635c0.424,0.423,0.635,0.993,0.635,1.709v1.27h12.061c0.912,0,1.604,0.236,2.076,0.708
		c0.471,0.472,0.707,1.164,0.707,2.075v2.686h4.004c0.781,0,1.367,0.195,1.758,0.586s0.586,0.912,0.586,1.563
		c0,0.651-0.195,1.172-0.586,1.563s-0.977,0.586-1.758,0.586h-4.004v2.881c0,0.912-0.236,1.604-0.707,2.075
		c-0.473,0.472-1.164,0.708-2.076,0.708h-12.061V23.438z M176.791,50.049c-0.912,0-1.604-0.236-2.074-0.708
		c-0.473-0.473-0.709-1.147-0.709-2.026V37.207c0-0.911,0.236-1.603,0.709-2.075c0.471-0.472,1.162-0.708,2.074-0.708h28.906
		c0.912,0,1.604,0.236,2.076,0.708c0.471,0.472,0.707,1.147,0.707,2.026v10.107c0,0.911-0.236,1.603-0.707,2.075
		c-0.473,0.472-1.164,0.708-2.076,0.708H176.791z M203.256,38.672c0-0.13-0.016-0.211-0.049-0.244
		c-0.033-0.032-0.098-0.049-0.195-0.049h-23.633c-0.098,0-0.162,0.017-0.195,0.049c-0.033,0.033-0.049,0.114-0.049,0.244v1.563
		h24.121V38.672z M179.135,45.703c0,0.13,0.016,0.211,0.049,0.244c0.033,0.032,0.098,0.049,0.195,0.049h23.633
		c0.098,0,0.162-0.017,0.195-0.049c0.033-0.033,0.049-0.114,0.049-0.244v-1.66h-24.121V45.703z M193.393,11.963h9.668v-1.27
		l-0.049-0.195c0-0.032-0.064-0.049-0.195-0.049h-9.424V11.963z M193.393,17.969h9.424l0.195-0.049c0.033,0,0.049-0.065,0.049-0.195
		V16.26h-9.668V17.969z"/>
	<path fill="#004DA0" d="M233.793,2.93c0.326,0,0.684,0.082,1.074,0.244c0.424,0.13,0.773,0.334,1.051,0.61
		c0.275,0.277,0.414,0.603,0.414,0.977c0,0.375-0.082,0.725-0.244,1.05l5.225,3.418c0.748,0.488,1.123,1.107,1.123,1.855
		c0,0.456-0.113,0.879-0.342,1.27s-0.439,0.684-0.635,0.879c-0.357,0.358-0.74,0.537-1.146,0.537c-0.408,0-0.791-0.163-1.148-0.488
		c-0.781-0.684-2.637-1.969-5.566-3.857c-2.637,3.353-5.143,5.794-7.52,7.324c-0.65,0.326-1.059,0.488-1.221,0.488h-0.049
		c-0.748,0-1.367-0.472-1.855-1.416c-0.229-0.521-0.342-1.042-0.342-1.563c0-0.651,0.309-1.221,0.928-1.709
		c0.033-0.065,0.082-0.114,0.146-0.146c1.205-0.749,2.719-2.026,4.541-3.833s2.963-3.214,3.418-4.224
		C232.197,3.402,232.914,2.93,233.793,2.93z M230.033,36.084v6.885l5.322-2.1l-0.879-1.66c-0.229-0.423-0.342-0.846-0.342-1.27
		c0-0.456,0.162-0.813,0.488-1.074c0.748-0.456,1.236-0.684,1.465-0.684h0.049c0.943,0,1.791,0.651,2.539,1.953
		c0.748,1.303,1.938,3.63,3.564,6.982c0.131,0.26,0.195,0.504,0.195,0.732c0,0.748-0.488,1.367-1.465,1.855
		c-0.326,0.162-0.699,0.244-1.123,0.244c-0.455,0-0.863-0.18-1.221-0.537c-0.26-0.261-0.455-0.57-0.586-0.928l-0.83-1.807
		c-6.543,2.701-10.141,4.28-10.791,4.736c-0.195,0.13-0.406,0.195-0.635,0.195c-0.26,0-0.521-0.131-0.781-0.391
		c-0.26-0.261-0.488-0.659-0.684-1.196s-0.293-1.001-0.293-1.392c0-0.814,0.375-1.514,1.123-2.1
		c0.033-0.065,0.082-0.098,0.146-0.098c0.033-0.293,0.049-0.684,0.049-1.172v-22.51c0-0.911,0.236-1.603,0.709-2.075
		c0.471-0.472,1.162-0.708,2.074-0.708h10.107c0.912,0,1.604,0.236,2.076,0.708c0.471,0.472,0.707,1.164,0.707,2.075v12.549
		c0,0.912-0.236,1.604-0.707,2.075c-0.473,0.472-1.164,0.708-2.076,0.708H230.033z M225.102,44.922c0-0.131,0.064-0.261,0.195-0.391
		c0.131-0.131,0.26-0.195,0.391-0.195l0.391,0.195c0.131,0.13,0.195,0.26,0.195,0.391c0,0.13-0.064,0.26-0.195,0.391
		c-0.131,0.13-0.26,0.195-0.391,0.195l-0.391-0.195C225.166,45.182,225.102,45.052,225.102,44.922z M229.424,15.796
		c-0.375-0.374-0.563-0.871-0.563-1.489c0-0.618,0.188-1.115,0.563-1.489c0.373-0.374,0.967-0.562,1.781-0.562h5.127
		c0.814,0,1.408,0.188,1.783,0.562c0.373,0.375,0.561,0.871,0.561,1.489c0,0.619-0.188,1.115-0.561,1.489
		c-0.375,0.375-0.969,0.562-1.783,0.562h-5.127C230.391,16.357,229.797,16.17,229.424,15.796z M236.381,24.756v-2.295
		c0-0.098-0.016-0.163-0.049-0.195c-0.033-0.032-0.113-0.049-0.244-0.049h-5.811l-0.195,0.049c-0.033,0-0.049,0.065-0.049,0.195
		v2.295H236.381z M236.381,28.955h-6.348v2.93h6.055c0.131,0,0.211-0.016,0.244-0.049c0.033-0.032,0.049-0.114,0.049-0.244V28.955z
		 M264.164,13.428c0-0.13-0.016-0.211-0.049-0.244c-0.033-0.032-0.098-0.049-0.195-0.049h-17.432l-0.195,0.049
		c-0.033,0.033-0.049,0.114-0.049,0.244v2.441c0,0.781-0.195,1.367-0.586,1.758s-0.936,0.586-1.635,0.586
		c-0.701,0-1.246-0.195-1.637-0.586s-0.586-0.977-0.586-1.758v-4.346c0-0.911,0.236-1.603,0.709-2.075
		c0.471-0.472,1.162-0.708,2.074-0.708h8.74l-1.074-2.295c-0.162-0.391-0.244-0.806-0.244-1.245s0.154-0.806,0.465-1.099
		c0.309-0.293,0.666-0.529,1.074-0.708c0.406-0.179,0.846-0.269,1.318-0.269c0.471,0,0.902,0.195,1.293,0.586
		c0.195,0.195,0.375,0.456,0.537,0.781l1.172,2.49c0.195,0.391,0.293,0.732,0.293,1.025s-0.033,0.537-0.098,0.732h7.91
		c0.912,0,1.604,0.236,2.076,0.708c0.471,0.472,0.707,1.164,0.707,2.075v4.346c0,0.749-0.203,1.327-0.609,1.733
		c-0.408,0.407-0.969,0.61-1.686,0.61s-1.277-0.203-1.684-0.61c-0.408-0.407-0.611-0.984-0.611-1.733V13.428z M249.662,30.664v3.271
		h14.355c0.912,0,1.604,0.236,2.076,0.708c0.471,0.472,0.707,1.164,0.707,2.075v10.205c0,0.911-0.236,1.603-0.707,2.075
		c-0.473,0.472-1.164,0.708-2.076,0.708h-16.211c-0.912,0-1.604-0.236-2.074-0.708c-0.473-0.473-0.709-1.164-0.709-2.075V19.043
		c0-0.911,0.236-1.603,0.709-2.075c0.471-0.472,1.162-0.708,2.074-0.708h14.014c0.912,0,1.604,0.236,2.076,0.708
		c0.471,0.472,0.707,1.164,0.707,2.075v8.838c0,0.912-0.236,1.604-0.707,2.075c-0.473,0.472-1.164,0.708-2.076,0.708H249.662z
		 M249.955,20.703c-0.131,0-0.211,0.017-0.244,0.049c-0.033,0.033-0.049,0.098-0.049,0.195v5.225h10.107l0.195-0.049
		c0.033,0,0.049-0.065,0.049-0.195v-4.98l-0.049-0.195c0-0.032-0.064-0.049-0.195-0.049H249.955z M262.113,38.77
		c0-0.13-0.016-0.211-0.049-0.244c-0.033-0.032-0.098-0.049-0.195-0.049h-12.207v6.396c0,0.098,0.016,0.162,0.049,0.195
		c0.033,0.032,0.113,0.049,0.244,0.049h11.914l0.195-0.049c0.033,0,0.049-0.065,0.049-0.195V38.77z"/>
</g>
<g>
</g>
<g>
</g>
<g>
</g>
<g>
</g>
<g>
</g>
<g>
</g>
<g>
</g>
<g>
</g>
<g>
</g>
<g>
</g>
<g>
</g>
<g>
</g>
<g>
</g>
<g>
</g>
<g>
</g>
</svg>
