<?xml version="1.0" encoding="utf-8"?>
<!-- Generator: Adobe Illustrator 16.0.0, SVG Export Plug-In . SVG Version: 6.00 Build 0)  -->
<!DOCTYPE svg PUBLIC "-//W3C//DTD SVG 1.1//EN" "http://www.w3.org/Graphics/SVG/1.1/DTD/svg11.dtd">
<svg version="1.1" id="圖層_1" xmlns="http://www.w3.org/2000/svg" xmlns:xlink="http://www.w3.org/1999/xlink" x="0px" y="0px"
	 width="200px" height="48px" viewBox="0 0 200 48" enable-background="new 0 0 200 48" xml:space="preserve">
<g>
	<path fill="#910B80" d="M199.806,30.469c-1.288-11.365-17.178-11.813-17.178-11.813h-35.336v-0.007
		c-1.754-0.031-3.166-1.535-3.166-3.39c0-1.837,1.395-3.328,3.141-3.38v-0.03l50-0.027l-0.03-11.366h-55.164
		c-3.761,1.448-10.636,6.011-9.204,15.872c1.794,12.374,12.053,13.639,12.053,13.639l39.906-0.054
		c0.046-0.004,0.091-0.017,0.136-0.017c1.994,0,3.608,1.505,3.608,3.359c0,1.836-1.573,3.319-3.527,3.355v0.022h-52.393V24.492
		h-0.228c-1.902,1.343-4.226,2.144-6.745,2.144c-2.36,0-4.56-0.7-6.392-1.897v22.354L98.656,27.707
		c3.822-1.393,6.879-3.262,9.163-5.611c2.281-2.344,3.425-5.408,3.425-9.181c0-2.668-0.697-4.868-2.092-6.602
		c-1.396-1.729-3.273-3.16-5.647-4.289c-1.443-0.668-2.977-1.183-4.58-1.568H65.651h-5.973H10.494
		C6.732,1.904-0.148,6.467,1.281,16.328c1.795,12.374,12.055,13.639,12.055,13.639l39.908-0.054
		c0.048-0.004,0.092-0.017,0.135-0.017c1.998,0,3.613,1.505,3.613,3.359c0,1.836-1.579,3.319-3.534,3.355v0.022H0V48h59.678h16.548
		V30.58h5.965L99.991,48h19.296h0.966h11.331h1.067h58.251C202.104,43.449,199.806,30.469,199.806,30.469z M51.046,18.656H15.707
		v-0.007c-1.75-0.031-3.167-1.535-3.167-3.39c0-1.837,1.401-3.328,3.145-3.38v-0.03l43.993-0.022v8.685
		C55.364,18.782,51.046,18.656,51.046,18.656z M93.384,17.845c-0.524,0.863-1.315,1.602-2.382,2.218
		c-1.129,0.686-2.503,1.131-4.117,1.338c-1.619,0.209-3.583,0.314-5.895,0.314h-4.764V8.444h5.565c1.895,0,3.486,0.046,4.762,0.135
		c1.27,0.087,2.433,0.3,3.472,0.632c1.475,0.486,2.538,1.171,3.178,2.068c0.637,0.89,0.952,1.954,0.952,3.191
		C94.155,15.857,93.9,16.987,93.384,17.845z"/>
	<ellipse fill="#EF821E" cx="125.792" cy="11.534" rx="11.556" ry="11.38"/>
	<g>
		<polygon opacity="0.6" fill="#FFFFFF" points="126.617,11.939 125.96,22.855 125.4,11.961 114.663,11.501 125.37,10.812 
			125.917,0 126.583,10.775 137.321,11.366 		"/>
		<polygon opacity="0.7" fill="#FFFFFF" points="126.182,11.568 126.031,17.382 125.796,11.556 119.041,11.466 125.772,11.174 
			125.953,5.479 126.207,11.174 132.939,11.396 		"/>
		<polygon opacity="0.7" fill="#FFFFFF" points="126.848,11.43 134.053,18.243 126.114,12.075 118.029,18.338 125.121,11.485 
			117.928,4.619 126.001,10.682 133.947,4.528 		"/>
		<polygon opacity="0.7" fill="#FFFFFF" points="126.391,11.415 130.136,14.853 126.065,11.699 122.048,14.891 125.714,11.417 
			122.009,7.971 126.046,11.089 130.092,7.929 		"/>
		<polygon fill="#FFFFFF" points="126.188,11.602 126.023,14.181 125.779,11.602 122.785,11.396 125.769,11.244 125.964,8.681 
			126.182,11.259 129.125,11.384 		"/>
		<path opacity="0.14" fill="#FFFFFF" d="M127.814,12.815c-0.909,0.796-2.406,0.808-3.339,0.029
			c-0.932-0.784-0.945-2.066-0.035-2.862c0.922-0.8,2.409-0.807,3.339-0.027C128.709,10.738,128.723,12.021,127.814,12.815z"/>
		<path opacity="0.5" fill="#FFFFFF" d="M127.25,12.343c-0.612,0.526-1.608,0.537-2.228,0.016c-0.616-0.517-0.629-1.371-0.022-1.9
			c0.609-0.534,1.606-0.544,2.231-0.02C127.845,10.958,127.858,11.811,127.25,12.343z"/>
		<path opacity="0.8" fill="#FFFFFF" d="M126.924,12.073c-0.432,0.369-1.142,0.376-1.578,0.009
			c-0.443-0.374-0.443-0.976-0.017-1.354c0.432-0.374,1.133-0.384,1.579-0.009C127.348,11.085,127.354,11.691,126.924,12.073z"/>
	</g>
</g>
<g>
</g>
<g>
</g>
<g>
</g>
<g>
</g>
<g>
</g>
<g>
</g>
<g>
</g>
<g>
</g>
<g>
</g>
<g>
</g>
<g>
</g>
<g>
</g>
<g>
</g>
<g>
</g>
<g>
</g>
</svg>
