<?xml version="1.0" encoding="UTF-8" standalone="no"?><!DOCTYPE svg PUBLIC "-//W3C//DTD SVG 1.1//EN" "http://www.w3.org/Graphics/SVG/1.1/DTD/svg11.dtd"><svg width="100%" height="100%" viewBox="0 0 3334 3334" version="1.1" xmlns="http://www.w3.org/2000/svg" xmlns:xlink="http://www.w3.org/1999/xlink" xml:space="preserve" xmlns:serif="http://www.serif.com/" style="fill-rule:evenodd;clip-rule:evenodd;stroke-linejoin:round;stroke-miterlimit:2;"><path d="M106.562,2819.877c10.533,-9.437 20.448,-19.542 29.683,-30.252c9.235,-10.71 2.333,-4.065 5.409,-9.4c-23.602,-0.081 -47.077,-3.47 -69.738,-10.067c-0.742,-0.223 -3.785,-1.327 -7.206,-2.721l-3.991,5.846c-5.491,8.725 -11.746,16.945 -18.692,24.563l9.779,7.8c11.025,10.362 21.277,21.517 30.672,33.377l1.534,-1.245c8.231,-5.008 15.806,-11.021 22.551,-17.9Z" style="fill:#fff;fill-rule:nonzero;"/><path d="M240.316,2840.49l0.264,-0.165l-1.295,-7.272c-4.059,-21.84 -9.568,-43.386 -16.491,-64.494c-6.922,-21.108 -0.181,-0.478 -0.445,-1.146c-21.696,7.137 -44.249,11.341 -67.059,12.5l0.107,0.322c6.481,14.083 35.38,81.628 34.696,75.444c17.562,-1.783 34.615,-6.941 50.222,-15.188Z" style="fill:#fff;fill-rule:nonzero;"/><path d="M2690.624,2633.196l609.629,-351.965c10.191,-5.884 16.49,-16.794 16.491,-28.562l0,-862.519c-0,-11.768 -6.299,-22.678 -16.491,-28.562l-566.564,-327.097l0,-311.242c-0,-11.768 -6.299,-22.678 -16.491,-28.562l-433.486,-250.268c-10.192,-5.884 -22.789,-5.884 -32.981,0c-10.192,5.884 -127.917,73.853 -269.57,155.604c-106.413,-61.411 -213.008,-122.978 -280.388,-161.896c-10.192,-5.884 -22.789,-5.884 -32.981,0l-625.419,361.076c-10.196,5.912 -16.492,16.842 -16.491,28.628l0,862.355c-0.001,11.786 6.295,22.716 16.491,28.628l1599.497,923.468c10.192,5.884 22.789,5.884 32.981,0l15.773,-9.086Z" style="fill:#fff;fill-rule:nonzero;"/><path d="M2576.675,2060.72l0,-210.089l-198.257,-114.461l0,210.122l198.257,114.428Z" style="fill:#88c5e9;fill-rule:nonzero;"/><path d="M2273.563,1885.689l0,-210.081l-198.265,-114.469l0,210.106c48.598,28.083 122.03,70.472 198.265,114.444Z" style="fill:#88c5e9;fill-rule:nonzero;"/><path d="M2576.675,2478.119l0,-210.089l-198.257,-114.461l0,210.106l198.257,114.444Z" style="fill:#88c5e9;fill-rule:nonzero;"/><path d="M1900.399,1670.29l0,-269.282l-116.613,-67.322l0,269.29l116.613,67.314Z" style="fill:#88c5e9;fill-rule:nonzero;"/><path d="M2273.563,2303.114l0,-210.089l-198.265,-114.461l0,210.106c48.598,28.059 122.03,70.447 198.265,114.444Z" style="fill:#88c5e9;fill-rule:nonzero;"/><path d="M1608.88,1501.98l0,-210.106l-198.257,-114.452l0,210.097c76.26,44.021 149.693,86.427 198.257,114.461Z" style="fill:#88c5e9;fill-rule:nonzero;"/><path d="M1305.768,1326.983l0,-210.114l-198.257,-114.461l0,210.097l198.257,114.477Z" style="fill:#88c5e9;fill-rule:nonzero;"/><path d="M1608.88,1919.38l0,-210.139l-198.257,-114.469l0,210.097c76.26,44.071 149.693,86.476 198.257,114.51Z" style="fill:#88c5e9;fill-rule:nonzero;"/><path d="M1305.768,1744.382l0,-210.114l-198.257,-114.436l0,210.097l198.257,114.452Z" style="fill:#88c5e9;fill-rule:nonzero;"/><path d="M2058.815,2315.176l0,-1183.062c0,-14.718 -0.825,-29.683 0,-44.425c0.066,-1.113 0,-2.251 0,-3.364l8.163,14.24l-381.31,-220.148l-85.108,-49.133l24.81,-14.24l0,1230.851c0,21.223 -32.981,21.256 -32.981,0l0,-1096.619c0,-43.576 -0.923,-87.276 0,-130.844l0,-3.414c0.143,-9.032 7.612,-16.384 16.645,-16.384c2.863,0 5.679,0.739 8.173,2.144l202.668,117.008l119.853,69.194c46.726,26.987 94.326,52.869 140.342,81.034c12.64,7.734 11.725,16.251 11.725,28.397l0,1218.764c0,21.215 -32.981,21.256 -32.981,0Z" style="fill:#211715;fill-rule:nonzero;"/><path d="M2017.003,2281.536l0,-344.849l-349.821,-202.009l0,344.849l349.821,202.009Z" style="fill:#88c5e9;fill-rule:nonzero;"/><path d="M2083.625,1400.366l267.023,154.186l255.454,147.458l33.806,19.533l16.062,9.268c6.466,2.576 12.182,6.736 16.622,12.096c2.206,5.308 2.982,11.103 2.251,16.804l0,814.582c0,21.223 -32.981,21.256 -32.981,0l0,-823.058l8.171,14.24l-543.692,-313.905l-39.371,-22.724c-18.37,-10.612 -1.781,-39.124 16.647,-28.479l0.008,0Z" style="fill:#211715;fill-rule:nonzero;"/><path d="M2083.658,1546.941l209.825,121.148l275.251,158.911l96.379,55.647c18.37,10.603 1.781,39.115 -16.647,28.479l-209.825,-121.148l-275.251,-158.911l-96.379,-55.647c-18.379,-10.612 -1.789,-39.124 16.647,-28.479Z" style="fill:#211715;fill-rule:nonzero;"/><path d="M2560.184,2060.72l0,-210.073c0,-21.215 32.981,-21.256 32.981,0l0,210.073c0,21.223 -32.981,21.256 -32.981,0Z" style="fill:#211715;fill-rule:nonzero;"/><path d="M1600.56,800.796l72.954,-42.125l172.375,-99.504l198.57,-114.609l154.755,-89.42l37.928,-21.891c16.886,-11.161 38.654,-12.027 56.373,-2.243c39.519,21.916 78.33,45.225 117.454,67.817l196.559,113.496c38.876,22.452 78.173,44.294 116.687,67.372c15.655,8.974 25.518,25.52 25.964,43.56c0.173,4.444 0,8.93 0,13.374l0,297.868l-8.171,-14.24l128.766,74.331l252.717,145.941l176.366,101.804c4.503,2.44 8.866,5.129 13.069,8.056c13.318,10.171 20.898,26.202 20.308,42.95c0.157,16.895 0,33.806 0,50.7l0,759.388c0,15.765 0.223,31.546 0,47.311c0.191,18.205 -9.218,35.225 -24.736,44.747c-3.339,2.103 -6.852,3.958 -10.265,5.928l-170.322,98.341l-255.891,147.738l-176.185,101.713c-4.073,2.35 -8.105,4.856 -12.252,7.074c-35.1,18.783 -67.957,-10.109 -97.541,-27.209l-263.287,-152.009l-524.588,-302.782l-522.609,-301.776l-132.633,-76.574l-65.319,-37.714l-31.678,-18.288c-9.846,-4.671 -18.671,-11.245 -25.964,-19.343c-13.877,-17.834 -10.57,-40.987 -10.57,-62.21l0,-781.18c0,-32.981 -7.338,-72.154 25.066,-92.446c4.123,-2.556 8.385,-4.84 12.566,-7.248l67.867,-39.19l236.837,-136.723l233.712,-134.901l64.272,-37.104c3.24,-1.872 6.431,-3.875 9.738,-5.623c34.63,-18.313 67.735,10.422 96.89,27.251c77.72,44.887 155.451,89.763 233.192,134.628c18.379,10.603 1.789,39.115 -16.647,28.479c-58.102,-33.531 -116.2,-67.061 -174.296,-100.592l-70.835,-40.896l-30.277,-17.529c-6.01,-5.008 -14.401,-6.115 -21.504,-2.836c-22.056,10.537 -43.007,24.826 -64.156,37.038l-324.129,187.118c-78.116,45.102 -156.445,89.873 -234.371,135.313c-4.718,2.143 -8.394,6.079 -10.208,10.933c-1.148,6.103 -1.407,12.341 -0.767,18.519l0,826.059c-0.612,8.234 -0.612,16.502 0,24.736c2.028,13.093 18.14,18.14 28.092,23.911l47.517,27.432l87.095,50.296l358.363,206.791l714.624,412.592l356.327,205.727c11.197,6.464 20.885,14.841 33.558,8.336c3.051,-1.558 5.97,-3.438 8.93,-5.153l38.423,-22.18l312.38,-180.357l256.576,-148.134c8.105,-4.683 15.287,-8.155 16.029,-19.162c0.445,-6.662 0,-13.514 0,-20.184l0,-813.905c0,-8.625 0.363,-17.315 0,-25.956c-0.266,-8.171 -5.183,-15.506 -12.64,-18.857l-92.132,-53.19l-335.425,-193.673l-116.571,-67.306c-5.937,-3.43 -12.566,-6.456 -18.14,-10.471c-12.665,-9.127 -8.171,-33.245 -8.171,-46.907l0,-262.595c0,-11.956 2.037,-23.524 -9.507,-30.986c-31.151,-20.151 -64.684,-37.351 -96.799,-55.895l-171.773,-99.166l-139.51,-80.564c-7.94,-4.584 -15.814,-9.977 -24.101,-13.918c-10.719,-5.104 -18.684,1.303 -27.547,6.415l-260.435,150.36l-315.95,182.418l-54.344,31.381c-18.42,10.628 -35.042,-17.859 -16.647,-28.479Z" style="fill:#211715;fill-rule:nonzero;"/><path d="M2663.909,771.756l-174.329,100.675l-275.746,159.199l-63.596,36.716c-18.412,10.636 -35.042,-17.859 -16.647,-28.479l174.329,-100.65l275.746,-159.216l63.596,-36.716c18.42,-10.628 35.042,17.859 16.647,28.479l0,-0.008Z" style="fill:#211715;fill-rule:nonzero;"/><path d="M2684.209,1093.832l-154.063,88.95l-246.533,142.354l-56.381,32.552c-18.42,10.636 -35.042,-17.859 -16.647,-28.479l154.021,-88.95l246.533,-142.354l56.381,-32.552c18.412,-10.636 35.042,17.851 16.647,28.479l0.041,0Z" style="fill:#211715;fill-rule:nonzero;"/><path d="M2718.526,1697.45l175.945,-101.582l280.198,-161.772l64.008,-36.955c18.42,-10.636 35.042,17.859 16.647,28.479l-175.945,101.573l-280.207,161.78l-64.008,36.955c-18.42,10.628 -35.042,-17.859 -16.647,-28.479l0.008,0Z" style="fill:#211715;fill-rule:nonzero;"/><path d="M1116.49,841.989l409.649,236.49l91.069,52.572c18.37,10.612 1.781,39.124 -16.647,28.479l-394.123,-227.569l-106.611,-61.551c-18.379,-10.612 -1.789,-39.124 16.639,-28.479l0.025,0.058Z" style="fill:#211715;fill-rule:nonzero;"/><path d="M2461.076,2003.498l0,-210.073c0,-21.223 32.981,-21.256 32.981,0l0,210.073c0,21.223 -32.981,21.256 -32.981,0Z" style="fill:#211715;fill-rule:nonzero;"/><path d="M2083.658,1757.064l225.615,130.275l257.557,148.678l99.85,57.651c18.379,10.612 1.789,39.115 -16.639,28.479l-207.022,-119.556l-262.751,-151.713l-113.257,-65.393c-18.379,-10.612 -1.789,-39.124 16.647,-28.479l0,0.058Z" style="fill:#211715;fill-rule:nonzero;"/><path d="M2361.96,1946.276l0,-210.073c0,-21.223 32.981,-21.256 32.981,0l0,210.073c0,21.215 -32.981,21.256 -32.981,0Z" style="fill:#211715;fill-rule:nonzero;"/><path d="M2650.008,2329.416l-472.667,-272.918l-110.363,-63.719c-18.37,-10.612 -1.781,-39.124 16.647,-28.479l467.671,270.007l115.359,66.605c18.379,10.603 1.789,39.115 -16.647,28.479l0,0.025Z" style="fill:#211715;fill-rule:nonzero;"/><path d="M2257.072,1885.689l0,-210.04c0,-21.223 32.981,-21.256 32.981,0l0,210.04c0,21.223 -32.981,21.256 -32.981,0Z" style="fill:#211715;fill-rule:nonzero;"/><path d="M1903.606,1252.8c13.778,-8.435 17.9,-26.55 18.964,-41.647c1.144,-19.601 -1.453,-39.243 -7.652,-57.873c-11.811,-38.223 -35.041,-71.932 -66.556,-96.577c-15.559,-11.659 -36.832,-24.225 -57.115,-21.009c-17.183,2.721 -25.165,18.552 -28.347,34.102c-8.155,39.841 7.751,85.132 29.213,118.212c12.498,19.502 28.756,36.32 47.822,49.472c17.01,11.502 43.04,26.385 63.637,15.336c18.692,-10.059 35.364,18.403 16.647,28.479c-50.156,27.003 -110.437,-17.81 -141.175,-55.639c-33.443,-41.144 -55.771,-97.129 -50.016,-150.888c2.63,-24.53 11.956,-48.812 33.402,-62.763c23.136,-15.064 52.201,-10.241 75.914,0.47c48.424,21.875 83.475,68.625 102.86,116.819c18.296,45.489 28.438,121.708 -20.984,151.977c-18.107,11.123 -34.696,-17.389 -16.614,-28.471Z" style="fill:#211715;fill-rule:nonzero;"/><path d="M2560.184,2478.144l0,-210.073c0,-21.215 32.981,-21.256 32.981,0l0,210.073c0,21.223 -32.981,21.256 -32.981,0Z" style="fill:#211715;fill-rule:nonzero;"/><path d="M2157.956,1828.492l0,-210.073c0,-21.215 32.981,-21.256 32.981,0l0,210.073c0,21.223 -32.981,21.256 -32.981,0Z" style="fill:#211715;fill-rule:nonzero;"/><path d="M1819.958,1150.609l0,-63.15c0,-9.046 7.444,-16.491 16.491,-16.491c9.046,0 16.491,7.444 16.491,16.491l0,63.15c0,9.046 -7.444,16.491 -16.491,16.491c-9.046,0 -16.491,-7.444 -16.491,-16.491Z" style="fill:#211715;fill-rule:nonzero;"/><path d="M1860.69,1183.656l-32.561,-18.807c-5.055,-2.953 -8.173,-8.385 -8.173,-14.239c0,-2.924 0.778,-5.796 2.253,-8.32c2.181,-3.703 5.714,-6.42 9.853,-7.577c4.289,-1.095 8.839,-0.504 12.706,1.649l32.569,18.807c5.055,2.953 8.173,8.385 8.173,14.239c0,2.924 -0.778,5.796 -2.253,8.32c-2.193,3.709 -5.742,6.427 -9.894,7.577c-4.289,1.095 -8.839,0.504 -12.706,-1.649l0.033,0Z" style="fill:#211715;fill-rule:nonzero;"/><path d="M2461.076,2420.897l0,-210.073c0,-21.223 32.981,-21.256 32.981,0l0,210.073c0,21.215 -32.981,21.256 -32.981,0Z" style="fill:#211715;fill-rule:nonzero;"/><path d="M2083.658,2174.455l454.462,262.38l128.56,74.207c18.379,10.603 1.789,39.115 -16.639,28.471l-478.942,-276.513l-104.088,-60.091c-18.379,-10.612 -1.789,-39.124 16.647,-28.479l0,0.025Z" style="fill:#211715;fill-rule:nonzero;"/><path d="M2361.96,2363.667l0,-210.064c0,-21.223 32.981,-21.256 32.981,0l0,210.064c0,21.223 -32.981,21.256 -32.981,0Z" style="fill:#211715;fill-rule:nonzero;"/><path d="M1883.908,1670.29l0,-269.282l8.163,14.24l-116.604,-67.322l24.81,-14.24l0,269.29l-8.163,-14.24l116.596,67.314c18.379,10.603 1.789,39.115 -16.647,28.471c-38.868,-22.427 -77.734,-44.862 -116.596,-67.306c-5.039,-2.969 -8.15,-8.391 -8.171,-14.24l0,-269.29c0.143,-9.032 7.612,-16.384 16.645,-16.384c2.863,0 5.679,0.739 8.173,2.144l88.224,50.939c9.375,5.409 19.442,10.29 28.372,16.383c8.682,5.912 8.171,14.487 8.171,23.73l0,259.791c0.008,21.215 -32.973,21.256 -32.973,0Z" style="fill:#211715;fill-rule:nonzero;"/><path d="M2257.072,2303.114l0,-210.073c0,-21.215 32.981,-21.256 32.981,0l0,210.073c0,21.223 -32.981,21.256 -32.981,0Z" style="fill:#211715;fill-rule:nonzero;"/><path d="M2157.956,2245.892l0,-210.073c0,-21.223 32.981,-21.256 32.981,0l0,210.073c0,21.223 -32.981,21.256 -32.981,0Z" style="fill:#211715;fill-rule:nonzero;"/><path d="M2000.513,2281.511l0,-344.825c0,-21.223 32.981,-21.256 32.981,0l0,344.825c0,21.223 -32.981,21.256 -32.981,0Z" style="fill:#211715;fill-rule:nonzero;"/><path d="M1600.56,1306.114l-209.809,-121.139l-275.251,-158.919l-96.379,-55.639c-18.379,-10.612 -1.789,-39.124 16.647,-28.479l209.809,121.139l275.251,158.919l96.379,55.639c18.37,10.612 1.781,39.124 -16.647,28.479Z" style="fill:#211715;fill-rule:nonzero;"/><path d="M1493.273,1444.742l0,-210.073c0,-21.223 32.981,-21.256 32.981,0l0,210.073c0,21.215 -32.981,21.256 -32.981,0Z" style="fill:#211715;fill-rule:nonzero;"/><path d="M1600.56,1516.228l-225.64,-130.275l-257.532,-148.687l-99.858,-57.651c-18.37,-10.612 -1.789,-39.115 16.647,-28.479l207.022,119.556l262.743,151.713l113.265,65.393c18.37,10.612 1.781,39.124 -16.647,28.479l-0,-0.049Z" style="fill:#211715;fill-rule:nonzero;"/><path d="M1394.165,1387.511l0,-210.089c0,-21.223 32.981,-21.256 32.981,0l0,210.089c0,21.223 -32.981,21.265 -32.981,0Z" style="fill:#211715;fill-rule:nonzero;"/><path d="M1650.691,2079.544l0,-344.825c0,-21.215 32.981,-21.256 32.981,0l0,344.825c0,21.223 -32.981,21.256 -32.981,0Z" style="fill:#211715;fill-rule:nonzero;"/><path d="M1289.277,1326.958l0,-210.064c0,-21.223 32.981,-21.256 32.981,0l0,210.064c0,21.223 -32.981,21.256 -32.981,0Z" style="fill:#211715;fill-rule:nonzero;"/><path d="M1600.56,1723.514l-467.671,-270.007l-115.359,-66.605c-18.37,-10.612 -1.789,-39.124 16.647,-28.479l472.667,272.918l110.363,63.719c18.37,10.612 1.781,39.124 -16.647,28.479l0,-0.025Z" style="fill:#211715;fill-rule:nonzero;"/><path d="M1190.161,1269.769l0,-210.106c0,-21.215 32.981,-21.256 32.981,0l0,210.106c0,21.223 -32.981,21.256 -32.981,0Z" style="fill:#211715;fill-rule:nonzero;"/><path d="M1493.273,1862.133l0,-210.064c0,-21.223 32.981,-21.256 32.981,0l0,210.064c0,21.223 -32.981,21.265 -32.981,0Z" style="fill:#211715;fill-rule:nonzero;"/><path d="M1091.045,1212.514l0,-210.073c0,-21.223 32.981,-21.256 32.981,0l0,210.073c0,21.223 -32.981,21.256 -32.981,0Z" style="fill:#211715;fill-rule:nonzero;"/><path d="M1600.56,1933.627l-454.462,-262.389l-128.568,-74.207c-18.37,-10.612 -1.789,-39.124 16.647,-28.479l478.942,276.521l104.088,60.091c18.37,10.612 1.781,39.115 -16.647,28.479l0,-0.016Z" style="fill:#211715;fill-rule:nonzero;"/><path d="M1394.165,1804.886l0,-210.04c0,-21.223 32.981,-21.256 32.981,0l0,210.04c0,21.223 -32.981,21.256 -32.981,0Z" style="fill:#211715;fill-rule:nonzero;"/><path d="M1289.277,1744.358l0,-210.073c0,-21.215 32.981,-21.256 32.981,0l0,210.073c0,21.223 -32.981,21.256 -32.981,0Z" style="fill:#211715;fill-rule:nonzero;"/><path d="M1190.161,1687.136l0,-210.073c0,-21.223 32.981,-21.256 32.981,0l0,210.073c0,21.223 -32.981,21.256 -32.981,0Z" style="fill:#211715;fill-rule:nonzero;"/><path d="M1091.045,1629.913l0,-210.081c0,-21.223 32.981,-21.256 32.981,0l0,210.073c0,21.215 -32.981,21.256 -32.981,0l0,0.008Z" style="fill:#211715;fill-rule:nonzero;"/><path d="M2067.06,1884.799l-435.654,-251.48c-10.172,-5.879 -22.751,-5.879 -32.923,0l-280.718,162.077c-5.099,2.926 -8.252,8.377 -8.245,14.256l0,61.74c0,5.884 3.15,11.339 8.245,14.281l441.748,255.05c10.165,5.884 22.742,5.884 32.907,0l274.641,-158.556c5.101,-2.929 8.253,-8.383 8.245,-14.264l0,-68.716c0.038,-5.922 -3.116,-11.427 -8.245,-14.388Z" style="fill:#fff;fill-rule:nonzero;"/><path d="M1829.655,2119.146l0,343.712l-33.707,19.484c-12.74,7.355 -28.487,7.355 -41.226,0l-36.996,-21.38l0,-344.487" style="fill:#fff;fill-rule:nonzero;"/><path d="M1421.531,1945.492l0,281.74l-33.707,19.492c-12.74,7.355 -28.487,7.355 -41.226,0l-37.005,-21.388l0,-344.495" style="fill:#fff;fill-rule:nonzero;"/><path d="M1846.145,2119.146l0,320.74c0.611,8.395 0.512,16.827 -0.297,25.206c-1.699,9.63 -9.573,13.036 -17.134,17.406c-15.757,9.07 -31.406,20.481 -50.115,21.751c-20.316,1.385 -36.634,-10.158 -53.33,-19.789c-5.186,-3.001 -10.661,-5.772 -15.666,-9.07c-12.689,-8.41 -8.427,-28.726 -8.427,-41.944l0,-316.972c0,-21.223 32.981,-21.256 32.981,0l0,344.495l-8.171,-14.24l21.091,12.186c7.374,5.461 15.637,9.606 24.422,12.252c10.307,1.591 18.568,-4.485 26.978,-9.342l22.831,-13.192l-8.163,14.24l0,-343.728c0,-21.223 32.981,-21.256 32.981,0l0.016,0Z" style="fill:#211715;fill-rule:nonzero;"/><path d="M1438.022,1945.492l0,267.74c0,12.483 0.825,22.724 -10.826,29.782c-6.637,4.024 -13.456,7.775 -20.176,11.659c-18.288,10.57 -37.376,18.643 -58.756,10.834c-13.642,-5.997 -26.745,-13.153 -39.165,-21.388c-7.173,-4.123 -14.124,-7.421 -15.732,-16.589c-1.312,-14.577 -1.411,-29.238 -0.297,-43.832l-0,-302.856c0,-21.223 32.981,-21.256 32.981,0l0,344.495l-8.163,-14.24l21.091,12.195c7.374,5.458 15.637,9.601 24.422,12.244c10.298,1.6 18.56,-4.477 26.97,-9.342l22.839,-13.192l-8.171,14.24l0,-281.74c0,-21.223 32.981,-21.256 32.981,0l0,-0.008Z" style="fill:#211715;fill-rule:nonzero;"/><path d="M2058.733,1899.039l-216.933,-125.245l-148.967,-85.99c-23.029,-13.291 -45.794,-28.652 -69.738,-40.262c-14.017,-6.794 -31.695,8.855 -43.543,15.666l-50.098,28.916l-110.915,64.041l-83.376,48.136c-2.243,1.303 -8.014,3.438 -9.07,5.26c-1.055,1.822 0,7.924 0,10.043l0,42.43c0,1.946 -1.055,7.544 0,9.268c1.781,2.919 11.057,6.382 14.338,8.245l21.347,12.318l80.713,46.602l148.794,85.907l114.84,66.308l41.457,23.911c10.834,6.258 23.771,17.81 36.601,11.717c11.411,-5.417 22.262,-12.846 33.204,-19.17l44.912,-25.923l100.262,-57.89l82.675,-47.732c4.192,-1.851 8.173,-4.149 11.873,-6.852c2.226,-2.16 1.748,-1.55 1.748,-5.549l0,-40.765c0,-2.655 2.012,-21.99 -0.082,-23.458c-17.241,-12.096 -0.783,-40.707 16.647,-28.479c15.229,10.719 16.416,24.538 16.416,41.226l0,44.904c0,16.284 -1.797,30.466 -17.208,40.097c-9.738,6.085 -19.954,11.543 -29.897,17.257l-199.89,115.434l-38.077,21.982c-17.99,12.077 -41.511,12.443 -59.869,0.932l-86.476,-49.925l-297.563,-171.798l-42.636,-24.62c-13.25,-7.652 -25.255,-15.18 -26.855,-31.794c-1.105,-11.461 -0.256,-23.301 -0.256,-34.803c-1.012,-12.363 -0.736,-24.798 0.825,-37.104c3.719,-16.977 20.077,-23.845 33.649,-31.678l210.666,-121.626c16.152,-9.325 32.231,-18.824 48.482,-28.034c16.173,-10.256 36.721,-10.889 53.495,-1.649c8.781,4.733 17.315,10.001 25.948,14.982l134.117,77.439l269.743,155.736l5.343,3.084c18.379,10.636 1.789,39.148 -16.647,28.504Z" style="fill:#211715;fill-rule:nonzero;"/><path d="M1401.116,1825.631l351.949,203.196l31.241,18.032l-16.647,0l159.744,-92.223l22.757,-13.143c18.412,-10.628 35.042,17.859 16.647,28.479l-159.744,92.223l-22.757,13.143c-5.146,2.965 -11.502,2.965 -16.647,0l-274.913,-158.721l-108.277,-62.516c-18.37,-10.603 -1.781,-39.115 16.647,-28.471Z" style="fill:#211715;fill-rule:nonzero;"/><path d="M2433.677,2629.972c14.076,2.493 28.315,3.964 42.603,4.403c15.831,-0.29 31.608,-1.945 47.155,-4.947l0.107,0c0,31.192 -0.198,72.344 -0.198,97.294c0,14.371 -20.374,26.385 -45.258,26.385c-24.884,0 -44.862,-12.038 -44.862,-26.385c0,-24.736 0.206,-65.583 0.206,-96.7l0.247,-0.049Z" style="fill:#fff;fill-rule:nonzero;"/><path d="M2449.92,2629.972c0,20.987 -0.047,41.971 -0.14,62.953c0,9.169 -0.019,18.343 -0.058,27.523c0,2.053 0.115,4.172 0,6.225c-0.074,1.295 0.75,2.366 -0.157,-0.75c0.429,1.484 0.651,0.709 0,0.371c-1.237,-0.594 -0.14,-0.247 0.561,0.874c0.956,1.534 -0.528,-0.486 -0.651,-0.635c0.594,0.726 1.303,1.327 1.896,2.045c2.531,3.067 -1.187,-0.61 0.676,0.726c6.443,4.457 14.044,6.949 21.875,7.173c2.458,0.124 4.921,0.124 7.38,0c1.932,-0.067 3.859,-0.243 5.772,-0.528c2.225,-0.39 4.427,-0.902 6.596,-1.534c1.179,-0.338 2.342,-0.734 3.504,-1.13c2.325,-0.825 0.511,-0.115 1.723,-0.726c1.707,-0.874 3.339,-1.847 4.947,-2.853c0.569,-0.338 2.284,-1.995 0.305,-0.19c0.709,-0.643 1.369,-1.352 2.07,-1.987c0.264,-0.239 1.542,-2.02 0.445,-0.445c-1.187,1.715 0.322,-0.618 0.511,-1.08c0.734,-1.839 -0.421,1.072 -0.421,1.064c-0.148,-4.123 0.421,3.768 0.181,-0.437c-0.486,-8.641 0,-17.455 0,-26.104c0.066,-23.719 0.118,-47.44 0.157,-71.165c0,-21.215 32.981,-21.256 32.981,0c0,24.043 -0.099,48.086 -0.157,72.129c0.783,10.654 0.506,21.359 -0.825,31.959c-2.906,10.88 -10.129,20.116 -19.986,25.56c-22.673,12.675 -49.994,14.12 -73.877,3.908c-10.338,-3.904 -19.006,-11.28 -24.513,-20.86c-3.843,-10.206 -5.187,-21.185 -3.916,-32.016c0.058,-26.715 0.181,-53.429 0.181,-80.144c0,-21.223 32.981,-21.256 32.981,0l-0.041,0.074Z" style="fill:#211715;fill-rule:nonzero;"/><path d="M2450.473,2322.828c15.167,-11.719 36.498,-11.719 51.665,0c35.748,27.986 63.416,64.986 80.152,107.188c5.238,12.728 9.191,25.948 11.799,39.462c2.111,12.918 3.458,25.948 4.032,39.025c1.459,23.029 2.795,46.899 -5.516,68.436c-7.413,18.782 -21.417,34.237 -39.379,43.461c-17.793,9.111 -57.016,13.943 -76.945,13.943c-15.031,0 -59.151,-4.832 -76.936,-13.943c-17.964,-9.221 -31.969,-24.677 -39.379,-43.461c-8.311,-21.52 -6.975,-45.349 -5.516,-68.436c0.566,-13.077 1.913,-26.108 4.032,-39.025c2.608,-13.514 6.561,-26.734 11.799,-39.462c16.737,-42.213 44.421,-79.216 80.193,-107.188Z" style="fill:#73ca6e;fill-rule:nonzero;"/><path d="M2442.145,2308.589c13.778,-9.792 31.103,-13.247 47.583,-9.49c16.491,3.809 29.633,15.773 41.647,27.044c23.918,22.59 43.507,49.364 57.799,78.998c7.783,15.681 13.952,32.114 18.412,49.043c4.215,19.079 6.641,38.509 7.248,58.038c2.152,35.776 -0.198,70.835 -24.225,99.355c-19.64,23.309 -47.369,31.893 -76.483,36.048c-25.062,3.594 -50.515,3.505 -75.551,-0.264c-28.24,-4.057 -54.666,-11.543 -74.545,-33.41c-24.917,-27.424 -28.512,-62.54 -26.517,-98.119c0.51,-22.008 3.332,-43.901 8.418,-65.319c15.658,-54.993 48.142,-103.73 92.875,-139.345c6.519,-6.123 16.807,-6.123 23.326,0c6.338,6.422 6.338,16.896 0,23.318c-45.598,34.797 -76.939,85.091 -88.084,141.357c-2.318,15.679 -3.629,31.49 -3.925,47.336c-1.252,14.872 0.09,29.848 3.966,44.261c7.161,21.784 25.306,38.248 47.682,43.263c18.825,4.889 38.21,7.289 57.659,7.14c21.687,0.352 43.255,-3.296 63.62,-10.76c23.818,-11.44 39.129,-35.517 39.388,-61.938c2.234,-31.331 -1.054,-62.813 -9.713,-93.006c-9.516,-30.169 -24.931,-58.149 -45.349,-82.312c-16.194,-19.088 -41.737,-51.83 -68.576,-32.725c-7.822,4.491 -17.945,1.838 -22.559,-5.912c-4.392,-7.849 -1.766,-17.902 5.904,-22.6Z" style="fill:#211715;fill-rule:nonzero;"/><path d="M855.635,1709.422c14.079,2.492 28.32,3.964 42.611,4.403c15.831,-0.285 31.609,-1.941 47.155,-4.947l0.107,0c0,31.184 -0.198,72.344 -0.198,97.294c0,14.371 -20.374,26.385 -45.258,26.385c-24.884,0 -44.862,-12.038 -44.862,-26.385c0,-24.736 0.206,-65.583 0.206,-96.7l0.239,-0.049Z" style="fill:#fff;fill-rule:nonzero;"/><path d="M871.861,1709.422c0,20.981 -0.047,41.966 -0.14,62.953c0,9.174 -0.022,18.348 -0.066,27.523c0,2.053 0.124,4.172 0,6.225c-0.074,1.295 0.75,2.366 -0.157,-0.742c0.429,1.484 0.651,0.701 0,0.371c-1.237,-0.602 -0.14,-0.247 0.561,0.825c0.956,1.534 -0.528,-0.478 -0.651,-0.635c0.585,0.726 1.303,1.327 1.896,2.045c2.523,3.067 -1.187,-0.61 0.676,0.734c6.443,4.45 14.039,6.939 21.866,7.165c2.471,0.138 4.948,0.152 7.421,0.041c1.932,-0.067 3.859,-0.243 5.772,-0.528c2.226,-0.382 4.428,-0.891 6.596,-1.525c1.187,-0.346 2.35,-0.742 3.512,-1.138c2.325,-0.825 0.511,-0.115 1.715,-0.726c1.715,-0.874 3.348,-1.847 4.947,-2.845c0.561,-0.346 2.276,-2.004 0.305,-0.19c0.701,-0.651 1.36,-1.352 2.07,-1.995c0.264,-0.239 1.534,-2.02 0.445,-0.445c-1.187,1.715 0.322,-0.618 0.503,-1.072c0.742,-1.847 -0.421,1.064 -0.421,1.055c-0.14,-4.123 0.429,3.768 0.19,-0.437c-0.486,-8.641 0,-17.455 0,-26.104c0.06,-23.724 0.113,-47.443 0.157,-71.157c0,-21.223 32.981,-21.256 32.981,0c0,24.032 -0.052,48.073 -0.157,72.121c0.783,10.657 0.506,21.365 -0.825,31.967c-2.917,10.874 -10.136,20.107 -19.986,25.56c-22.675,12.668 -49.995,14.111 -73.877,3.9c-10.339,-3.906 -19.009,-11.281 -24.521,-20.86c-3.837,-10.207 -5.177,-21.186 -3.908,-32.016c0.058,-26.715 0.173,-53.429 0.181,-80.144c0,-21.223 32.981,-21.256 32.981,0l-0.066,0.074Z" style="fill:#211715;fill-rule:nonzero;"/><path d="M872.406,1402.278c15.167,-11.719 36.498,-11.719 51.665,0c35.754,27.983 63.425,64.983 80.16,107.188c5.235,12.729 9.187,25.948 11.799,39.462c2.113,12.92 3.456,25.954 4.024,39.033c1.459,23.021 2.795,46.891 -5.508,68.436c-7.402,18.787 -21.397,34.251 -39.355,43.485c-17.793,9.07 -57.016,13.943 -76.945,13.943c-15.031,0 -59.151,-4.832 -76.945,-13.943c-17.962,-9.221 -31.964,-24.678 -39.371,-43.461c-8.311,-21.52 -6.975,-45.349 -5.516,-68.436c0.566,-13.08 1.912,-26.114 4.032,-39.033c2.605,-13.514 6.555,-26.734 11.791,-39.462c16.735,-42.215 44.408,-79.224 80.169,-107.213Z" style="fill:#73ca6e;fill-rule:nonzero;"/><path d="M864.086,1388.047c13.777,-9.795 31.102,-13.253 47.583,-9.499c16.491,3.809 29.633,15.773 41.647,27.044c23.911,22.591 43.499,49.357 57.799,78.981c7.783,15.679 13.952,32.108 18.412,49.035c4.21,19.079 6.637,38.509 7.248,58.038c2.144,35.776 -0.198,70.835 -24.225,99.355c-19.64,23.318 -47.369,31.893 -76.483,36.048c-25.062,3.598 -50.515,3.509 -75.551,-0.264c-28.248,-4.057 -54.666,-11.543 -74.545,-33.41c-24.925,-27.424 -28.52,-62.532 -26.517,-98.077c0.511,-22.008 3.333,-43.901 8.418,-65.319c15.654,-54.995 48.138,-103.734 92.875,-139.345c6.521,-6.119 16.805,-6.119 23.326,0c6.339,6.425 6.339,16.901 0,23.326c-45.6,34.792 -76.94,85.085 -88.084,141.348c-2.322,15.678 -3.633,31.489 -3.925,47.336c-1.257,14.874 0.085,29.855 3.966,44.269c7.162,21.783 25.307,38.246 47.682,43.263c18.824,4.881 38.205,7.279 57.651,7.132c21.687,0.362 43.257,-3.272 63.629,-10.719c23.816,-11.445 39.126,-35.524 39.388,-61.947c2.235,-31.343 -1.056,-62.836 -9.721,-93.039c-9.514,-30.17 -24.93,-58.15 -45.349,-82.312c-16.194,-19.088 -41.737,-51.83 -68.576,-32.725c-7.824,4.492 -17.95,1.839 -22.567,-5.912c-4.403,-7.854 -1.767,-17.921 5.92,-22.608Z" style="fill:#211715;fill-rule:nonzero;"/><path d="M601.368,2520.038c8.289,0.249 16.363,-2.705 22.534,-8.245c13.093,-14.132 8.954,-33.072 4.758,-46.619c-15.056,-13.148 -29.922,-26.514 -44.599,-40.097c-9.209,-2.341 -18.994,0.624 -25.354,7.685c-5.907,8.135 -8.029,18.433 -5.821,28.24c2.253,9.679 6.158,18.898 11.543,27.251c5.393,10.598 13.196,19.785 22.782,26.822c2.757,1.769 5.742,3.156 8.872,4.123c1.718,0.507 3.495,0.79 5.285,0.841Z" style="fill:#fff;fill-rule:nonzero;"/><path d="M849.162,2494.692c1.381,-8.974 -0.882,-18.138 -6.283,-25.437c-11.327,-10.094 -27.767,-12.234 -41.3,-5.376c0.209,1.183 0.27,2.388 0.181,3.587c-0.425,3.096 -1.609,6.039 -3.447,8.567c-9.561,12.143 -23.325,20.284 -38.571,22.815c-2.607,0.748 -5.407,0.453 -7.8,-0.825l-0.214,-0.157c-7.932,11.609 -3.587,23.235 5.392,31.95c7.685,6.724 17.912,9.81 28.034,8.46c10.012,-1.399 19.705,-4.529 28.644,-9.251c11.189,-4.506 21.171,-11.565 29.147,-20.613c2.037,-2.637 3.701,-5.542 4.947,-8.633c0.632,-1.637 1.059,-3.346 1.27,-5.087Z" style="fill:#fff;fill-rule:nonzero;"/><path d="M689.443,2376.109l59.127,117.346c0.725,1.783 1.884,3.356 3.372,4.576c2.393,1.277 5.193,1.573 7.8,0.825c15.247,-2.531 29.01,-10.672 38.571,-22.815c1.837,-2.528 3.021,-5.471 3.447,-8.567c0.08,-2.545 -0.274,-5.085 -1.047,-7.511c-15.748,-58.896 -32.305,-95.439 -43.65,-152.883c-43.015,8.369 -91.143,6.456 -133.886,2.16c-5.885,39.975 -21.065,78.019 -44.318,111.064c19.849,18.491 40.055,36.592 60.619,54.303c15.971,-19.541 43.288,-65.253 49.669,-96.61" style="fill:#fff;fill-rule:nonzero;"/><path d="M878.853,2203.132c-2.742,-8.106 -8.885,-14.628 -16.812,-17.851c-12.217,-4.224 -25.441,-4.601 -37.879,-1.08c-4.065,11.799 -11.939,33.806 -18.337,47.229c2.193,16.812 19.929,25.379 35.455,26.533c13.348,1.538 26.523,-4.325 34.317,-15.27c5.89,-9.509 7.882,-20.935 5.557,-31.876c-0.558,-2.619 -1.327,-5.189 -2.3,-7.685Z" style="fill:#fff;fill-rule:nonzero;"/><path d="M677.059,1948.964c15.017,-3.806 30.818,-3.196 45.497,1.756c11.891,3.241 22.707,9.591 31.332,18.395c5.35,6.189 9.583,13.262 12.508,20.902c9.114,20.538 10.394,43.721 3.595,65.138c-8.246,20.859 -26.453,36.231 -48.4,40.863c-18.106,4.977 -37.37,3.719 -54.674,-3.57c-15.475,-6.896 -27.747,-19.448 -34.292,-35.075c-6.009,-16.234 -7.852,-33.719 -5.359,-50.848c0.937,-13.95 7.183,-27.024 17.447,-36.518c7.263,-7.921 16.042,-14.305 25.816,-18.774c2.13,-0.885 4.31,-1.642 6.53,-2.267Z" style="fill:#fff;fill-rule:nonzero;"/><path d="M677.059,1948.964c15.017,-3.806 30.818,-3.196 45.497,1.756c11.891,3.241 22.707,9.591 31.332,18.395c2.256,2.5 4.281,5.199 6.052,8.064c-14.141,6.745 -41.169,18.032 -51.426,38.324c-8.806,17.406 -8.13,56.241 -3.389,83.038c-13.049,1.463 -26.253,-0.632 -38.209,-6.06c-15.475,-6.896 -27.747,-19.448 -34.292,-35.075c-6.009,-16.234 -7.852,-33.719 -5.359,-50.848c0.937,-13.95 7.183,-27.024 17.447,-36.518c7.263,-7.921 16.042,-14.305 25.816,-18.774c2.129,-0.896 4.31,-1.664 6.53,-2.3Z" style="fill:#85807f;fill-rule:nonzero;"/><path d="M622.294,2133.707c6.596,-22.171 12.178,-32.981 32.346,-42.793l68.691,7.957c10.667,3.154 20.158,9.412 27.259,17.975c5.879,6.596 16.202,22.427 23.854,30.862c11.612,14.2 27.442,24.349 45.192,28.974c2.762,0.848 4.66,3.416 4.66,6.306c0,0.736 -0.123,1.467 -0.364,2.162c-5.965,18.476 -13.356,36.461 -22.106,53.792c-14.232,-2.358 -27.985,-7.023 -40.715,-13.811c0.206,6.522 0.313,10.331 0.313,10.331c0.388,13.192 0.132,57.511 0,70.728c-9.718,2.041 -19.534,3.577 -29.411,4.601c-37.165,3.199 -74.56,2.583 -111.6,-1.839c-6.431,-49.348 -13.052,-123.027 0.61,-170.875c0.404,-1.501 0.833,-2.96 1.27,-4.37Z" style="fill:#3d8dcc;fill-rule:nonzero;"/><path d="M773.232,2304.26c7.177,32.36 16.112,64.306 26.764,95.694c5.153,16.062 10.166,32.156 14.66,48.433c2.835,7.473 3.867,15.511 3.01,23.458c-1.984,8.333 -6.355,15.91 -12.574,21.8c-10.678,10.285 -23.995,17.42 -38.472,20.613c-8.978,2.988 -18.881,1.277 -26.335,-4.551c-5.467,-6.297 -9.769,-13.517 -12.706,-21.322l-52.374,-103.94c-9.523,-18.906 18.915,-35.619 28.479,-16.639l30.408,60.347l14.363,28.496l7.602,15.089c1.872,5.189 4.408,10.114 7.544,14.652l-7.272,-4.238c3.826,1.567 11.791,-2.762 15.468,-4.766c3.243,-1.666 6.267,-3.726 9.004,-6.134c1.08,-0.998 2.045,-2.078 3.018,-3.166c0.371,-0.421 2.21,-4.601 1.723,-2.152c-0.429,2.16 -1.047,-2.713 -1.22,-3.389c-0.627,-2.383 -1.295,-4.758 -1.954,-7.132c-1.275,-4.557 -2.584,-9.111 -3.925,-13.662c-2.663,-9.02 -5.467,-17.999 -8.319,-26.962c-11.366,-33.379 -20.944,-67.34 -28.693,-101.738c-4.238,-20.72 27.547,-29.584 31.802,-8.773l0,-0.016Z" style="fill:#211715;fill-rule:nonzero;"/><path d="M640.829,2299.7c-3.158,46.173 -23.087,90.483 -47.732,128.915l-2.581,-19.986c19.871,18.486 40.077,36.59 60.619,54.311l-23.326,0c9.691,-12.788 18.325,-26.344 25.816,-40.534c8.801,-15.258 15.394,-31.687 19.582,-48.795c4.477,-20.737 36.279,-11.964 31.802,8.765c-8.064,37.343 -30.12,74.389 -53.916,103.89c-6.462,6.254 -16.864,6.254 -23.326,0c-20.542,-17.727 -40.745,-35.831 -60.611,-54.311c-5.232,-5.312 -6.292,-13.52 -2.581,-19.986c13.937,-20.661 25.14,-43.041 33.327,-66.58c4.871,-14.845 8.187,-30.157 9.894,-45.687c0.204,-8.968 7.523,-16.287 16.491,-16.491c9.018,0.076 16.415,7.473 16.491,16.491l0.049,0Z" style="fill:#211715;fill-rule:nonzero;"/><path d="M581.802,2251.663c6.077,1.814 20.877,10.307 27.209,8.74c8.608,-2.136 9.152,-17.802 9.845,-24.653c1.856,-18.382 2.514,-36.866 1.971,-55.334c-0.214,-7.289 0.899,-13.019 -6.547,-15.666c-7.907,-1.371 -16.014,-1.068 -23.796,0.89c-0.076,-0.005 -0.152,-0.008 -0.229,-0.008c-1.909,0 -3.479,1.571 -3.479,3.479c0,0.069 0.002,0.137 0.006,0.205c-3.633,25.896 -6.233,51.915 -7.8,78.058c-0.105,0.327 -0.159,0.669 -0.159,1.012c0,1.692 1.303,3.124 2.987,3.283l-0.008,-0.008Z" style="fill:#211715;fill-rule:nonzero;"/><path d="M586.18,2235.758c3.108,0.998 6.118,2.391 9.07,3.686c1.262,0.544 2.474,1.088 3.76,1.649c3.933,1.764 -1.938,-0.668 1.245,0.544c2.589,0.989 5.178,1.797 7.825,2.597c3.01,0.915 -3.628,0 -0.635,-0.132c-1.81,-0.028 -3.589,0.471 -5.12,1.435l0.759,-0.445c-1.196,0.759 -4.947,5.302 -2.416,1.756c1.699,-2.408 -0.825,3.191 -0.132,0.157c0.264,-1.229 0.66,-2.424 0.915,-3.653c0.346,-1.707 -0.173,-4.692 0.165,-0.388c0.122,-5.804 0.673,-11.592 1.649,-17.315c1.245,-16.111 1.295,-32.156 1.031,-48.325c-0.186,-1.314 -0.227,-2.643 -0.124,-3.966c0.412,2.474 0.478,3.133 0.181,1.888c-0.297,-1.245 -0.066,-0.66 0.825,1.723c0.749,1.273 1.811,2.334 3.084,3.084c2.028,0.709 2.204,0.794 0.528,0.256c-3.24,-0.734 3.174,-0.313 -0.701,-0.074c-1.393,0.091 -2.803,0 -4.205,0.091c-0.767,0.049 -6.819,0.89 -2.704,0.223l-3.941,0.627c-0.786,0.132 -1.569,0.256 -2.35,0.371c-1.764,0.379 -1.388,0.206 1.13,-0.519l5.912,-5.92c1.756,-3.298 0.379,1.402 0.264,2.3c0.272,-2.02 -0.206,1.534 -0.28,2.103c-0.434,3.397 -0.855,6.794 -1.262,10.191c-0.775,6.497 -1.484,13 -2.127,19.508c-0.643,6.508 -1.223,13.022 -1.74,19.541c-0.247,3.1 -0.478,6.206 -0.693,9.317c-0.132,1.863 -0.256,3.727 -0.371,5.59l-0.124,1.863c0,3.65 -0.588,2.537 -1.764,-3.339l-5.912,-5.92l-1.715,-0.486c7.135,1.966 12.115,8.504 12.115,15.905c0,9.05 -7.447,16.498 -16.498,16.498c-1.481,0 -2.955,-0.199 -4.382,-0.593c-8.796,-2.453 -14.931,-10.517 -14.949,-19.648c0,-6.052 0.767,-12.228 1.237,-18.255c0.912,-11.796 2.045,-23.576 3.397,-35.339c0.671,-5.876 1.396,-11.747 2.177,-17.612c1.204,-9.144 1.369,-18.667 10.067,-24.183c4.013,-2.208 8.464,-3.506 13.036,-3.801c5.608,-1.084 11.316,-1.56 17.026,-1.418c12.676,-0.293 23.958,8.311 27.028,20.613c1.435,10.875 1.766,21.867 0.989,32.808c-0.214,11.832 -1.006,23.614 -2.127,35.389c-0.271,8.042 -1.775,15.996 -4.461,23.581c-4.477,12.395 -17.677,19.552 -30.507,16.54c-5.217,-1.26 -10.281,-3.082 -15.105,-5.434c-1.863,-0.825 -3.727,-1.608 -5.574,-2.474c-3.447,-1.558 2.68,0.923 0.519,0.206c-0.932,-0.305 -1.83,-0.709 -2.77,-1.006c-7.135,-1.966 -12.115,-8.504 -12.115,-15.905c0,-9.05 7.447,-16.498 16.498,-16.498c1.481,0 2.955,0.199 4.382,0.593l-0.008,0.016Z" style="fill:#211715;fill-rule:nonzero;"/><path d="M668.138,2102.787c-12.762,4.043 -22.871,13.919 -27.209,26.583c-5.96,17.506 -9.533,35.735 -10.62,54.196c-1.865,41.91 0.344,83.903 6.596,125.386l-16.491,-16.491c45.233,4.593 91.803,7.025 136.632,-2.177l-12.137,15.913c0.223,-23.565 0.61,-47.171 0,-70.728c-0.544,-21.232 32.437,-21.215 32.981,0c0.61,23.557 0.223,47.163 0,70.728c-0.072,7.373 -5.016,13.867 -12.104,15.897c-48.014,8.489 -97.042,9.621 -145.397,3.356c-8.908,-0.352 -16.138,-7.582 -16.491,-16.491c-7.224,-45.602 -9.064,-91.895 -5.483,-137.927c1.811,-20.98 6.833,-41.559 14.891,-61.015c7.643,-16.377 21.332,-29.18 38.184,-35.71c7.857,-4.282 17.818,-1.672 22.567,5.912c4.499,7.822 1.84,17.954 -5.92,22.559l0,0.008Z" style="fill:#211715;fill-rule:nonzero;"/><path d="M672.681,1933.058c36.461,-9.68 82.988,3.892 102.612,37.615c18.354,31.546 23.144,77.068 0.825,107.889c-21.998,30.367 -61.411,41.531 -97.442,35.001c-17.044,-3.474 -32.642,-12.031 -44.73,-24.538c-13.092,-14.199 -21.182,-32.3 -23.029,-51.525c-2.688,-20.918 -1.41,-45.794 10.092,-64.115c12.021,-19.029 30.3,-33.293 51.681,-40.328c20.325,-6.283 29.015,25.56 8.765,31.802c-12.066,4.274 -22.562,12.1 -30.103,22.444c-6.937,11.139 -9.942,24.288 -8.534,37.335c0.602,23.994 11.263,45.778 34.729,54.534c22.509,7.778 47.536,2.989 65.583,-12.549c18.915,-18.255 17.43,-47.303 8.245,-70.184c-4.548,-12.482 -14.168,-22.476 -26.467,-27.498c-13.636,-6.074 -28.892,-7.522 -43.428,-4.123c-20.564,5.5 -29.328,-26.311 -8.798,-31.761Z" style="fill:#211715;fill-rule:nonzero;"/><path d="M765.506,1992.729c-9.312,4.106 -18.298,8.916 -26.88,14.388c-1.113,0.75 -2.21,1.525 -3.298,2.3c-0.915,0.676 -0.866,0.635 0.14,-0.14l-1.245,1.014c-2.234,1.887 -4.36,3.899 -6.365,6.027c-0.89,0.965 -1.789,1.938 -2.581,2.985c1.369,-1.822 -0.082,0.322 -0.594,1.13c-0.684,1.105 -1.229,2.3 -1.921,3.397c-1.896,2.985 0.825,-3.084 -0.247,0.561c-1.433,4.627 -2.535,9.349 -3.298,14.132c0.486,-3.298 -0.198,2.004 -0.206,2.144c-0.14,1.426 -0.256,2.853 -0.355,4.279c-0.206,2.952 -0.33,5.904 -0.388,8.864c-0.132,6.415 0,12.846 0.421,19.253c0.192,3.029 0.437,6.052 0.734,9.07c0.173,1.773 0.379,3.529 0.585,5.293c0.056,0.813 0.172,1.62 0.346,2.416c2.104,8.702 -2.989,17.653 -11.543,20.292c-8.724,2.338 -17.838,-2.849 -20.283,-11.543c-2.363,-14.812 -3.466,-29.798 -3.298,-44.796c-0.245,-13.364 1.75,-26.675 5.904,-39.379c9.672,-25.56 34.234,-39.19 57.717,-50.181c7.852,-4.31 17.835,-1.69 22.559,5.92c4.486,7.823 1.834,17.942 -5.912,22.559l0.008,0.016Z" style="fill:#211715;fill-rule:nonzero;"/><path d="M727.693,2082.974c19.657,3.298 34.284,21.1 45.349,36.18c9.388,15.05 22.244,27.635 37.491,36.7c0.618,0.305 5.5,2.391 2.358,1.146c1.822,0.726 3.669,1.377 5.524,2.004c5.255,1.198 10.192,3.51 14.479,6.778c9.729,8.938 8.245,20.135 4.222,31.332c-5.299,17.401 -12.37,34.214 -21.1,50.172c-3.897,6.278 -11.443,9.352 -18.618,7.586c-29.58,-6.132 -57.004,-20.02 -79.451,-40.237c-6.33,-6.429 -6.33,-16.897 0,-23.326c6.478,-6.211 16.84,-6.211 23.318,0c18.372,16.241 40.8,27.214 64.898,31.752l-18.626,7.586c6.874,-12.343 12.421,-25.38 16.548,-38.893c0.872,-3.538 2.096,-6.979 3.653,-10.274c1.457,-4.694 3.479,-1.121 6.069,10.719l-2.779,-0.882c-1.385,-0.453 -2.77,-0.923 -4.123,-1.418c-7.105,-2.443 -13.903,-5.699 -20.259,-9.705c-15.357,-10.929 -28.595,-24.564 -39.066,-40.237c-6.926,-9.457 -16.309,-23.087 -28.669,-25.132c-8.692,-2.45 -13.876,-11.56 -11.543,-20.283c2.564,-8.607 11.574,-13.734 20.283,-11.543l0.041,-0.025Z" style="fill:#211715;fill-rule:nonzero;"/><path d="M823,2232.427c-0.14,-0.355 -1.839,-3.479 -0.453,-1.187c0.256,0.429 0.47,0.874 0.717,1.303c0.33,0.561 0.775,1.08 1.064,1.649c0.726,1.443 -0.89,-1.36 -1.08,-1.377c0.404,0 2.358,2.474 2.737,2.845c0.379,0.371 0.767,0.643 1.138,0.981c1.393,1.303 -3.397,-2.234 -0.528,-0.478c1.014,0.627 1.995,1.27 3.034,1.847c0.701,0.379 2.902,0.981 3.216,1.591c-0.132,-0.264 -3.818,-1.418 -1.072,-0.503c0.486,0.165 0.973,0.346 1.459,0.503c1.308,0.434 2.63,0.814 3.966,1.138c1.163,0.289 2.333,0.503 3.504,0.734c2.795,0.552 -1.088,-0.223 -1.385,-0.157c0.664,-0.004 1.327,0.057 1.979,0.181c1.369,0.107 2.737,0.148 4.123,0.14l1.707,0c0.569,0 3.867,-0.462 1.105,0c-2.622,0.429 1.253,-0.28 2.012,-0.462c1.179,-0.289 2.342,-0.635 3.488,-1.031c3.743,-1.327 -2.136,1.295 0.272,-0.14c1.163,-0.693 2.342,-1.352 3.504,-2.053c2.424,-1.459 -0.825,0.429 -0.866,0.775c0.487,-0.489 1.017,-0.933 1.583,-1.327c0.915,-0.825 1.781,-1.649 2.622,-2.573c0.363,-0.388 0.709,-0.825 1.072,-1.187c1.327,-1.426 -0.256,-0.825 -0.528,0.825c0.148,-0.899 1.443,-2.21 1.88,-3.042c0.239,-0.614 0.528,-1.207 0.866,-1.773c-0.124,0.066 -1.138,3.191 -0.684,1.509c0.346,-1.253 0.825,-2.474 1.171,-3.727c0.346,-1.253 0.569,-2.696 0.882,-4.04c0.528,-2.276 -0.181,3.108 -0.099,0.742c0,-1.039 0.165,-2.078 0.198,-3.117c0.041,-1.477 0.008,-2.954 -0.099,-4.428c0.013,-0.639 -0.045,-1.278 -0.173,-1.905c-0.128,-0.626 0.651,3.224 0,0.618c-0.379,-1.41 -0.684,-2.828 -1.113,-4.23c-0.173,-0.569 -0.379,-1.13 -0.552,-1.699c-1.097,-3.578 1.105,2.094 0.19,0.264c-1.097,-2.177 -2.342,-4.123 -3.595,-6.242c-1.055,-1.748 2.375,2.317 0.825,1.105c-0.334,-0.319 -0.645,-0.661 -0.932,-1.022c-0.528,-0.544 -3.949,-3.496 -1.608,-1.649c2.342,1.847 -0.759,-0.289 -1.476,-0.759c-2.836,-1.839 3.628,1.121 0,0c-3.464,-1.262 -7.06,-2.128 -10.719,-2.581c0.552,0 3.611,0.322 0.511,0.148c-0.825,-0.049 -1.715,-0.132 -2.573,-0.173c-1.649,-0.074 -3.381,-0.091 -5.071,0c-0.825,0 -1.649,0.066 -2.474,0.115c-0.577,0 -4.032,0.561 -1.41,0.066c2.3,-0.437 0.313,-0.049 -0.132,0c-1.113,0.206 -2.218,0.421 -3.298,0.66c-1.428,0.393 -2.902,0.593 -4.382,0.593c-9.048,0 -16.494,-7.446 -16.494,-16.494c0,-7.399 4.979,-13.935 12.111,-15.901c8.414,-1.947 17.09,-2.504 25.684,-1.649c9.094,0.552 17.959,3.085 25.973,7.421c14.976,10.787 23.87,28.156 23.87,46.612c0,15.722 -6.454,30.774 -17.843,41.612c-20.487,15.895 -48.918,17.219 -70.794,3.298c-8.577,-5.63 -15.145,-13.844 -18.75,-23.45c-2.371,-8.727 2.829,-17.864 11.543,-20.283c8.704,-2.142 17.68,2.966 20.283,11.543l-0.107,-0.181Z" style="fill:#211715;fill-rule:nonzero;"/><path d="M764.178,2509.204c0.561,-1.418 0.536,-1.22 -0.058,0.577c-0.418,1.973 -0.434,1.998 -0.049,0.074c0.091,1.962 0,1.954 -0.239,0c0.18,0.958 0.422,1.902 0.726,2.828c-0.866,-3.1 1.13,1.929 1.649,2.779c-1.542,-2.408 2.07,2.201 2.548,2.737c1.443,1.262 1.492,1.344 0.148,0.264c0.825,0.55 1.674,1.069 2.548,1.558c1.732,0.825 1.773,0.915 0.148,0.214c0.94,0.355 1.888,0.668 2.861,0.94c1.455,0.424 2.937,0.746 4.436,0.965c-3.669,-0.503 2.474,-0.099 3.191,-0.124c7.552,-0.905 14.898,-3.08 21.726,-6.431c7.304,-3.122 14.243,-7.035 20.696,-11.667c-2.408,1.855 2.16,-2.045 2.581,-2.474c0.421,-0.429 4.123,-4.848 2.548,-2.614c1.146,-1.591 1.946,-3.298 2.935,-5.005c0.594,-1.237 0.503,-1.006 -0.272,0.693c0.226,-0.677 0.416,-1.365 0.569,-2.061c0.322,-1.789 0.305,-1.476 -0.074,0.932c0.074,-0.825 0.124,-1.649 0.14,-2.474c0.01,-1.729 -0.067,-3.457 -0.231,-5.178c0.355,4.362 -0.33,-1.097 -0.585,-2.045c-0.396,-1.459 -2.704,-5.178 -0.47,-1.781c-2.54,-3.859 1.418,0.684 -0.453,-0.973c-3.43,-3.026 2.597,1.319 -1.179,-1.055c-0.668,-0.412 -5.871,-2.985 -2.251,-1.542c-1.707,-0.684 -3.479,-1.031 -5.219,-1.583c-1.905,-0.346 -1.764,-0.371 0.404,-0.074c-0.882,-0.099 -1.764,-0.173 -2.655,-0.206c-1.756,-0.082 -3.471,0.066 -5.219,0.107c4.345,-0.115 -0.66,0.157 -1.797,0.445c-0.956,0.239 -5.994,2.103 -1.649,0.247c-7.853,4.305 -17.832,1.687 -22.559,-5.92c-4.468,-7.826 -1.82,-17.93 5.912,-22.559c16.996,-8.055 37.004,-6.759 52.819,3.422c7.942,5.361 13.663,13.437 16.086,22.707c2.443,8.751 2.655,17.976 0.618,26.83c-4.815,19.178 -22.881,31.967 -39.635,40.171c-18.585,9.07 -39.874,17.397 -60.66,10.603c-11.444,-3.686 -21.165,-11.411 -27.341,-21.726c-6.954,-11.668 -7.419,-26.134 -1.229,-38.225c4.591,-7.784 14.75,-10.446 22.567,-5.912c7.607,4.727 10.223,14.709 5.912,22.559l0.058,-0.025Z" style="fill:#211715;fill-rule:nonzero;"/><path d="M582.568,2441.568c-0.305,-0.074 -3.669,-0.726 -3.669,-0.734c0,0.264 3.224,0.165 1.229,0.247c-0.825,0 -1.699,-0.082 -2.54,-0.082c-0.841,0 -4.288,0.618 -2.243,0.066c2.177,-0.594 0.041,0.058 -0.305,0.173c-0.825,0.247 -1.649,0.519 -2.424,0.734c2.589,-0.668 0.882,-0.206 -0.635,0.594c0.429,-0.231 2.696,-2.201 0.247,-0.124c-0.148,0.115 -1.814,1.748 -0.569,0.421c0.989,-1.055 -1.105,2.012 -1.542,2.581c-1.014,1.336 0,-0.132 0.14,-0.594c-0.346,0.923 -0.651,1.863 -0.915,2.812c-0.305,1.105 -0.775,4.337 -0.495,1.451c-0.172,1.742 -0.232,3.494 -0.181,5.244c0,0.742 0.495,4.593 0.19,3.018c-0.379,-1.971 0.214,0.717 0.264,0.899c0.272,1.064 0.503,2.136 0.825,3.191c0.453,1.591 0.989,3.141 1.55,4.692c1.113,3.1 0.519,1.311 0.223,0.635c0.338,0.759 0.693,1.501 1.047,2.251c1.558,3.24 3.298,6.39 5.087,9.499c1.699,2.944 3.455,5.854 5.31,8.699c0.825,1.303 1.723,2.597 2.63,3.859c0.445,0.627 0.89,1.27 1.369,1.88c-1.055,-1.36 -0.412,-0.544 0.322,0.28c1.196,1.344 2.383,2.68 3.661,3.941c0.544,0.536 1.113,1.047 1.649,1.583c0.082,0.074 1.971,1.773 0.684,0.676c-1.286,-1.097 0.651,0.478 0.775,0.561c0.651,0.437 1.303,0.874 1.971,1.278c0.668,0.404 1.41,0.825 2.127,1.204c0.717,0.379 2.193,0.825 0.561,0.305c0.825,0.289 1.74,0.495 2.589,0.825c1.196,0.421 1.327,-0.363 0,0.058c-1.459,0.478 -0.948,0 0.115,-0.107l1.814,0c0.621,0.064 1.248,0.022 1.855,-0.124c0.607,-0.145 -3.191,0.684 -1.245,0.124c1.591,-0.462 3.298,-0.973 4.947,-1.319c1.649,-0.346 -0.775,0.404 -0.998,0.511c0.552,-0.264 1.121,-0.511 1.649,-0.825c0.528,-0.313 3.892,-1.872 1.797,-0.89c-1.649,0.759 -0.486,0.503 0,-0.099c0.387,-0.465 0.803,-0.906 1.245,-1.319c1.336,-1.138 0,0 -0.256,0.421c0.668,-0.989 1.303,-1.979 1.88,-3.026c0.338,-0.61 0.627,-1.237 0.948,-1.855c-0.668,1.286 -0.635,1.797 -0.181,0.14c0.412,-1.509 0.742,-3.026 1.113,-4.535c0.453,-1.847 -0.14,0.915 -0.14,1.105c0,-0.874 0.132,-1.756 0.157,-2.63c0.049,-1.748 0,-3.504 -0.124,-5.252c-0.049,-0.651 -0.14,-1.303 -0.19,-1.954c-0.165,-2.391 0.577,2.845 0.058,0.528c-0.33,-1.451 -0.544,-2.927 -0.825,-4.378c-0.709,-3.133 -1.591,-6.217 -2.523,-9.292c-2.309,-8.721 2.866,-17.815 11.543,-20.283c8.711,-2.209 17.734,2.926 20.283,11.543c6.379,16.67 6.154,35.163 -0.627,51.673c-9.266,17.784 -29.148,27.549 -48.886,24.01c-20.085,-3.298 -34.185,-21.479 -43.931,-37.837c-10.48,-17.604 -18.882,-37.582 -13.621,-58.343c2.707,-11.585 10.29,-21.453 20.786,-27.053c10.402,-4.75 22.139,-5.735 33.187,-2.787c8.686,2.457 13.867,11.561 11.543,20.283c-2.557,8.612 -11.573,13.743 -20.283,11.543l-0.025,-0.091Z" style="fill:#211715;fill-rule:nonzero;"/><path d="M281.006,2877.981c5.472,-8.722 6.481,-19.548 2.713,-29.13c-8.444,-13.829 -26.664,-18.415 -40.649,-10.232c-15.837,9.26 -33.474,15.024 -51.722,16.903c-10.059,5.376 -5.986,18.964 -0.363,28.166c5.418,7.962 14.015,13.213 23.573,14.396c9.456,1.105 19.032,0.569 28.306,-1.583c11.304,-1.431 22.117,-5.489 31.571,-11.848c2.483,-1.915 4.694,-4.159 6.571,-6.67Z" style="fill:#fff;fill-rule:nonzero;"/><path d="M58.277,2895.84c9.497,2.046 19.421,-0.592 26.649,-7.083c10.599,-11.212 12.034,-28.414 3.438,-41.226c-10.621,-15.269 -22.89,-29.324 -36.584,-41.911c-8.451,-7.652 -22.534,-0.981 -29.312,7.421c-5.661,7.791 -7.696,17.657 -5.582,27.053c2.158,9.273 5.902,18.105 11.065,26.104c5.165,10.155 12.641,18.959 21.825,25.7c2.642,1.692 5.502,3.018 8.501,3.941Z" style="fill:#fff;fill-rule:nonzero;"/><path d="M246.863,2506.829c7.616,-3.1 16.088,-3.413 23.911,-0.882c8.508,2.441 16.001,7.571 21.355,14.619c5.468,6.428 8.163,14.773 7.487,23.186c-0.041,6.854 -2.752,13.429 -7.553,18.321c-5.643,4.896 -13.039,7.296 -20.481,6.646l-7.528,-0.825c-10.958,-4.725 -22.312,-9.614 -27.407,-11.873c-1.699,-0.654 -3.287,-1.566 -4.708,-2.704c-1.746,-1.82 -3.097,-3.981 -3.966,-6.349l-2.861,-6.349l0,-0.825c-0.077,-12.249 6.199,-23.701 16.565,-30.227c1.646,-1.062 3.381,-1.978 5.186,-2.737Z" style="fill:#fff;fill-rule:nonzero;"/><path d="M100.675,2471.655c-20.283,-17.002 -27.44,-47.369 -29.798,-63.925c-3.834,-34.667 18.889,-67.151 52.77,-75.436c25.727,-6.868 53.255,-0.281 73.086,17.488c16.782,15.219 26.498,36.754 26.805,59.407c0.328,12.631 -3.074,25.083 -9.779,35.793c-6.827,10.727 -17.833,18.129 -30.343,20.407" style="fill:#fff;fill-rule:nonzero;"/><path d="M210.287,2513.838c6.6,10.657 12.494,21.735 17.645,33.162c0.869,2.367 2.22,4.529 3.966,6.349c1.421,1.139 3.009,2.051 4.708,2.704c9.581,4.246 41.3,17.802 50.881,22.048c-6.159,30.969 -33.278,57.824 -61.262,61.477c-5.56,0.922 -11.258,0.544 -16.647,-1.105c-5.053,-2.066 -9.731,-4.952 -13.844,-8.542c-8.425,-6.357 -16.527,-13.132 -24.274,-20.3c-21.438,0.717 -33.443,3.422 -56.439,5.838c-1.987,23.948 -0.759,48.054 3.653,71.676c-17.04,-1.786 -34.08,-3.559 -51.121,-5.318c-6.431,-49.34 -11.585,-110.915 2.078,-158.762c7.734,-27.086 20.976,-55.787 46.874,-66.853l67.059,30.714c8.821,4.156 16.299,10.708 21.578,18.906c1.753,2.638 3.469,5.307 5.145,8.006Z" style="fill:#3d8dcc;fill-rule:nonzero;"/><path d="M220.198,2768.08c7.943,-2.54 15.79,-5.467 23.54,-8.781c-11.389,-23.548 -22.773,-47.1 -34.152,-70.654c-27.209,3.953 -54.603,6.505 -82.073,7.643c-0.071,0.002 -0.143,0.003 -0.214,0.003c-4.559,0 -8.311,-3.752 -8.311,-8.311c0,-0.276 0.014,-0.552 0.041,-0.827l-47.93,-4.947c-3.463,20.935 -14.718,64.915 -17.843,78.759c-0.486,2.144 16.73,8.616 18.634,9.177c48.534,14.085 100.184,13.367 148.307,-2.061Z" style="fill:#a0a0a0;fill-rule:nonzero;"/><path d="M124.825,2470.451c-31.332,14.363 -41.696,55.928 -45.349,87.218c-3.519,41.417 -1.993,83.108 4.543,124.157l-16.491,-16.491l44.302,4.584c8.95,0.249 16.242,7.541 16.491,16.491c-0.063,9.023 -7.468,16.428 -16.491,16.491l-44.302,-4.584c-8.908,-0.352 -16.138,-7.582 -16.491,-16.491c-5.937,-45.984 -9.729,-92.685 -2.589,-138.751c5.904,-38.077 22.106,-83.879 59.704,-101.103c7.854,-4.303 17.832,-1.69 22.567,5.912c4.49,7.827 1.834,17.953 -5.92,22.567l0.025,-0Z" style="fill:#211715;fill-rule:nonzero;"/><path d="M114.386,2622.452c0.227,-3.975 3.302,-7.246 7.256,-7.718c18.807,-2.193 30.433,-4.444 49.62,-5.104l0.305,0.049c7.586,7.239 15.872,13.786 24.159,20.25c4.113,3.59 8.791,6.476 13.844,8.542c5.389,1.648 11.087,2.027 16.647,1.105c12.454,-1.958 24.1,-7.415 33.575,-15.732l5.599,0.899c1.278,7.305 4.518,26.492 7.841,44.524c0.794,4.324 -2.003,8.562 -6.291,9.532c-45.956,9.429 -92.575,15.281 -139.435,17.505c-4.026,0.126 -7.585,-2.716 -8.352,-6.67c-4.271,-22.123 -5.872,-44.678 -4.766,-67.182Z" style="fill:#211715;fill-rule:nonzero;"/><path d="M171.279,2626.113c-13.836,0.544 -27.473,2.317 -41.226,4.065c-1.836,0.236 -3.675,0.467 -5.516,0.693c2.991,-0.771 5.353,-3.085 6.184,-6.06c0.932,1.163 -0.256,8.328 -0.264,9.969c0,7.132 0.256,14.273 0.767,21.38c0.47,6.497 1.088,12.995 2.094,19.426c0.371,2.35 1.105,4.947 1.262,7.314c1.539,5.052 -0.825,4.015 -7.091,-3.108c1.229,0 2.474,-0.066 3.702,-0.107c11.444,-0.404 22.864,-1.295 34.267,-2.366c23.933,-2.259 47.768,-5.423 71.503,-9.49c5.5,-0.948 10.991,-1.946 16.491,-3.042c2.436,-0.678 4.915,-1.188 7.421,-1.525c4.7,-1.435 3.364,1.072 -4.007,7.52c-0.355,-1.905 -0.693,-3.818 -1.039,-5.722c-2.152,-11.964 -4.197,-23.911 -6.275,-35.933c-2.143,-8.706 2.965,-17.685 11.543,-20.292c8.722,-2.319 17.822,2.86 20.283,11.543c2.078,11.98 4.123,23.969 6.275,35.941c2.791,8.286 2.646,17.286 -0.412,25.478c-3.604,6.804 -10.042,11.675 -17.571,13.291c-24.028,5.376 -48.357,9.305 -72.855,11.766c-12.698,1.611 -25.426,2.985 -38.184,4.123c-10.93,1.448 -21.961,2 -32.981,1.649c-18.618,-1.501 -22.6,-17.925 -24.736,-33.336c-2.157,-14.727 -3.259,-29.59 -3.298,-44.475c-0.851,-8.299 0.447,-16.679 3.768,-24.332c4.8,-7.456 12.979,-12.087 21.842,-12.368c16.037,-2.012 31.992,-4.296 48.161,-4.947c21.223,-0.825 21.182,32.156 0,32.981l-0.107,-0.033Z" style="fill:#211715;fill-rule:nonzero;"/><path d="M189.591,2490.322c-10.06,2.113 -18.726,8.488 -23.738,17.463c-6.826,9.229 -10.877,20.218 -11.675,31.67c-2.079,24.487 -2.25,49.1 -0.511,73.614c-0,9.046 -7.444,16.491 -16.491,16.491c-9.046,0 -16.491,-7.444 -16.491,-16.491c-2.352,-28.052 -1.755,-56.273 1.781,-84.201c2.439,-15.612 8.844,-30.339 18.601,-42.768c9.721,-12.764 23.177,-25.329 39.75,-27.58c8.698,-2.09 17.638,2.998 20.283,11.543c2.342,8.725 -2.846,17.841 -11.543,20.283l0.033,-0.025Z" style="fill:#211715;fill-rule:nonzero;"/><path d="M229.333,2691.712l28.644,59.259c1.357,2.481 2.068,5.263 2.068,8.091c0,7.404 -4.877,13.983 -11.962,16.134c-55.713,23.474 -123.613,29.93 -181.651,10.488c-8.819,-2.26 -17.065,-6.35 -24.2,-12.005c-8.789,-8.484 -4.271,-19.962 -1.822,-30.095c5.236,-21.669 10.875,-43.354 14.677,-65.335c2.457,-8.686 11.561,-13.867 20.283,-11.543c8.609,2.561 13.739,11.574 11.543,20.283c-4.56,26.385 -11.807,52.242 -17.769,78.33l0,-8.765l0.132,0.478l-4.238,-7.272c-3.298,-3.488 0.495,0 2.333,0.932c1.541,0.751 3.121,1.419 4.733,2.004c5.637,2.046 11.409,3.699 17.274,4.947c16.059,3.746 32.472,5.761 48.96,6.011c34.713,0.358 69.121,-6.551 101.004,-20.283l-9.853,24.225l-28.644,-59.259c-9.193,-19.022 19.236,-35.768 28.479,-16.647l0.008,0.025Z" style="fill:#211715;fill-rule:nonzero;"/><path d="M266.767,2869.653c0.66,-0.94 1.105,-2.111 1.789,-3.01c0.517,-1.099 0.319,-0.638 -0.594,1.385c0.264,-0.734 0.503,-1.476 0.717,-2.234c0.338,-1.171 0.569,-2.366 0.825,-3.554c0.825,-3.867 0,3.405 0,-0.544l0,-3.644c-0.157,-1.888 -0.074,-1.575 0.231,0.932c-0.08,-0.539 -0.191,-1.073 -0.33,-1.6c-1.509,-3.768 1.921,2.037 0,-0.214c-0.66,-0.775 -3.108,-3.43 -0.346,-0.66c-0.825,-0.825 -1.707,-1.707 -2.531,-2.564c-2.391,-2.474 2.366,1.212 -0.412,-0.28c-1.22,-0.582 -2.404,-1.237 -3.545,-1.962c-1.099,-0.55 -0.668,-0.368 1.295,0.544c-0.709,-0.264 -1.435,-0.495 -2.16,-0.709c-1.081,-0.33 -2.183,-0.586 -3.298,-0.767c0,0.132 3.941,0.264 0,0.115c-1.08,0 -2.144,0 -3.224,0.049c-3.174,0 3.545,-1.171 -0.256,0.14c-0.635,0.214 -3.834,1.567 -1.36,0.272c2.638,-1.377 -1.047,0.676 -1.492,0.965c-1.756,1.138 -3.43,2.366 -5.26,3.397c-5.774,3.128 -11.8,5.765 -18.016,7.882c-12.142,4.272 -24.745,7.098 -37.549,8.418l8.319,-2.251c-2.474,1.468 0.684,-0.956 1.196,-1.451c0.792,-1.16 0.819,-1.16 0.082,0l0.825,-2.078c-0.915,3.034 -0.272,-2.556 -0.066,-0.825c-0.063,0.912 -0.047,1.828 0.049,2.737c0.099,0 -1.006,-4.073 0.107,-0.404c0.28,0.948 0.594,1.913 0.825,2.869c0.825,2.919 -1.014,-1.649 -0.049,0c0.511,0.866 0.882,1.822 1.36,2.696c0.558,0.845 1.072,1.717 1.542,2.614c0.701,1.649 -2.21,-2.07 0.322,0.363c0.305,0.297 2.952,2.927 1.311,1.418c-1.641,-1.509 1.459,0.948 1.649,1.055c0.973,0.594 2.02,1.047 2.993,1.649c1.913,1.138 -3.389,-0.973 0.478,0.157c2.157,0.703 4.362,1.254 6.596,1.649c-1.781,-0.256 0.256,-0 0.915,-0c1.781,0.058 3.537,0.107 5.318,0.058c1.187,0 2.375,-0.107 3.554,-0.19c-0.066,0 5.244,-0.577 2.713,-0.231c5.186,-0.729 10.332,-1.72 15.419,-2.968c2.523,-0.602 5.021,-1.295 7.478,-2.103c1.231,-0.401 2.446,-0.838 3.644,-1.311c-2.721,1.064 0.445,-0.272 0.965,-0.536c1.149,-0.577 2.267,-1.198 3.356,-1.863c0.313,-0.19 3.554,-2.474 2.127,-1.344c-1.426,1.13 1.583,-1.517 1.847,-1.781c1.093,-1.13 2.12,-2.322 3.075,-3.57c3.092,-3.093 7.29,-4.832 11.663,-4.832c4.373,0 8.571,1.739 11.663,4.832c6.138,6.509 6.138,16.808 0,23.318c-8.911,10.18 -20.835,17.266 -34.036,20.226c-12.846,3.907 -26.249,5.668 -39.668,5.211c-13.628,-0.426 -26.613,-5.944 -36.378,-15.46c-8.308,-8.885 -13.221,-20.422 -13.869,-32.569c-0.175,-5.719 1.312,-11.368 4.279,-16.26c2.267,-3.624 5.347,-6.67 8.996,-8.897c1.53,-0.992 3.197,-1.755 4.947,-2.267c1.847,-0.286 3.699,-0.525 5.557,-0.717l-0.709,0.091c4.54,-0.337 9.019,-1.242 13.333,-2.696c5.516,-1.344 10.953,-2.995 16.284,-4.947c1.064,-0.388 2.111,-0.825 3.174,-1.22c2.474,-0.932 -3.455,1.69 0.272,-0.14c1.979,-0.973 3.974,-1.896 5.887,-3.001c4.11,-2.758 8.492,-5.087 13.077,-6.951c9.783,-3.141 20.351,-2.85 29.947,0.825c13.243,4.361 23.554,14.927 27.589,28.273c2.939,12.708 0.735,26.077 -6.126,37.17c-2.954,5.054 -8.386,8.17 -14.24,8.17c-9.048,0 -16.494,-7.446 -16.494,-16.494c0,-2.925 0.778,-5.798 2.254,-8.324l0.165,-0.058Z" style="fill:#211715;fill-rule:nonzero;"/><path d="M62.664,2879.943c-0.148,0 2.078,0.552 2.094,0.486c0.173,-0.693 -3.719,-0.14 -0.932,-0.289c0.825,0 1.649,-0.049 2.432,-0.074c3.554,-0.115 -0.684,-0.066 -0.643,0.091c1.882,-0.387 3.736,-0.899 5.549,-1.534c2.21,-0.635 -2.383,1.402 -0.511,0.173c0.338,-0.214 2.548,-1.031 2.589,-1.484c0,0 -2.391,2.358 -0.709,0.528c0.602,-0.651 1.22,-1.303 1.822,-1.962c-1.649,1.814 -0.082,0.115 0.214,-0.379c0.511,-0.825 0.998,-1.649 1.501,-2.515c1.558,-2.573 0.322,-0.61 0.066,0.132c0.297,-0.825 0.594,-1.649 0.825,-2.556c0.308,-0.822 0.505,-1.682 0.585,-2.556c-0.253,2.259 -0.297,2.449 -0.132,0.569l0,-1.262c0,-0.825 -0.049,-1.649 -0.058,-2.515c0,-3.455 -0.165,0.61 0.148,0.684c-0.206,-0.049 -1.039,-4.362 -1.171,-4.782c-0.174,-0.799 -0.451,-1.573 -0.825,-2.3c1.492,1.567 0.989,2.028 0.223,0.61c-0.825,-1.558 -1.649,-3.125 -2.581,-4.634c-1.454,-2.38 -3.068,-4.658 -4.832,-6.819c2.729,3.216 -0.536,-0.602 -1.237,-1.459c-1.393,-1.699 -2.82,-3.381 -4.255,-5.046c-5.063,-5.849 -10.329,-11.516 -15.798,-17.002c-1.187,-1.193 -2.386,-2.375 -3.595,-3.545c-0.635,-0.618 -2.474,-3.1 -3.389,-3.224c0.091,0 3.224,2.119 0.437,0.602c0.47,0.256 3.463,1.22 0.759,0.569l2.144,0.313l-1.146,0c-1.501,0.107 -1.542,0.091 -0.132,-0.049c1.41,-0.14 1.369,-0.157 -0.14,0.157c-0.734,0.289 -1.583,0.528 -2.325,0.759c0.668,-0.214 2.96,-1.649 0.536,-0.107c-1.047,0.66 -4.675,3.479 -1.872,0.932c-1.212,1.097 -2.358,2.201 -3.504,3.372c0.511,-0.519 1.732,-2.861 0.173,-0.14c-0.206,0.355 -2.07,3.743 -1.113,1.773c1.039,-2.144 -0.602,1.971 -0.61,2.012c-0.256,0.915 -0.421,1.847 -0.643,2.77c0.165,-0.676 0.165,-3.298 0.066,-0.132c0,0.965 -0.082,1.913 -0.074,2.878c0.008,0.965 0.082,1.913 0.132,2.869c0.049,0.956 0.825,2.68 0,-0.132c0.668,2.276 1.047,4.601 1.789,6.868c0.338,0.998 0.734,1.971 1.072,2.968c0.544,1.649 -0.825,-1.435 0.519,1.146c1.204,2.366 2.358,4.741 3.653,7.058c2.333,4.197 4.799,8.352 7.478,12.368c0.552,0.825 1.113,1.649 1.649,2.474c0.693,0.965 2.078,2.573 0.569,0.825c1.554,1.891 3.205,3.699 4.947,5.417c0.701,0.676 1.476,1.295 2.177,1.971c-2.226,-2.169 0.825,0.585 1.377,0.932c0.882,0.561 1.789,1.047 2.696,1.558c2.935,1.649 -1.649,-0.445 1.872,0.717c7.133,1.966 12.111,8.502 12.111,15.901c0,9.048 -7.446,16.494 -16.494,16.494c-1.481,0 -2.955,-0.199 -4.382,-0.593c-24.736,-8.245 -40.138,-32.849 -49.472,-55.961c-9.515,-23.581 -4.123,-53.273 20.292,-65.319c11.945,-6.883 26.956,-5.798 37.788,2.729c7.201,6.291 13.915,13.119 20.085,20.423c13.415,14.973 27.333,31.266 27.836,52.432c0.246,13.971 -5.72,27.354 -16.276,36.51c-11.239,9.179 -26.153,12.581 -40.262,9.185c-7.133,-1.966 -12.111,-8.502 -12.111,-15.901c0,-9.048 7.446,-16.494 16.494,-16.494c1.481,0 2.955,0.199 4.382,0.593l0.14,-0.082Z" style="fill:#211715;fill-rule:nonzero;"/><path d="M181.668,2870.313c-4.235,-2.804 -7.451,-6.904 -9.169,-11.684c-2.474,-5.104 -4.823,-10.282 -7.157,-15.46c-5.928,-13.143 -11.692,-26.385 -17.496,-39.577c-2.21,-5.03 -4.403,-10.067 -6.695,-15.064c-4.345,-7.847 -1.718,-17.857 5.92,-22.559c7.827,-4.459 17.924,-1.812 22.559,5.912c10.166,22.13 19.36,44.689 29.741,66.712c0.981,2.078 1.962,4.123 3.026,6.2c0.338,0.651 0.734,1.286 1.064,1.946c0.099,0.19 0.313,0.379 0.363,0.577c-1.339,-2.264 -3.235,-4.149 -5.508,-5.475c7.765,4.602 10.421,14.74 5.912,22.559c-4.705,7.635 -14.711,10.26 -22.559,5.92l-0,-0.008Z" style="fill:#211715;fill-rule:nonzero;"/><path d="M238.692,2764.147c7.096,21.054 12.608,42.61 16.491,64.486c1.049,4.294 0.461,8.829 -1.649,12.714c-2.952,5.059 -8.386,8.18 -14.243,8.18c-7.402,0 -13.94,-4.984 -15.901,-12.121c-3.882,-21.879 -9.394,-43.437 -16.491,-64.494c-2.342,-8.725 2.846,-17.841 11.543,-20.283c8.709,-2.187 17.716,2.939 20.283,11.543l-0.033,-0.025Z" style="fill:#211715;fill-rule:nonzero;"/><path d="M147.879,2801.259c-10.663,12.412 -22.239,24.01 -34.63,34.696c-5.211,4.551 -10.554,8.938 -16.095,13.093c-5.717,5.584 -14.471,6.783 -21.479,2.944c-3.629,-2.264 -6.321,-5.765 -7.577,-9.853c-0.396,-1.431 -0.596,-2.909 -0.596,-4.394c0,-9.046 7.444,-16.491 16.491,-16.491c2.928,0 5.804,0.78 8.33,2.259l-3.941,-1.649l0.049,0l-4.386,-0.585l0.066,0l-4.386,0.594c0.127,-0.026 0.252,-0.065 0.371,-0.115l-3.941,1.649c2.045,-1.084 3.956,-2.401 5.697,-3.925l-3.298,2.581c16.816,-13.097 32.236,-27.893 46.017,-44.153c6.396,-6.394 16.921,-6.394 23.318,0c6.175,6.494 6.175,16.824 0,23.318l-0.008,0.033Z" style="fill:#211715;fill-rule:nonzero;"/><path d="M33.352,2782.773c1.946,-2.243 3.842,-4.527 5.664,-6.877l-2.581,3.339c3.554,-4.609 6.786,-9.449 10.018,-14.289c2.244,-3.647 5.752,-6.345 9.853,-7.577c2.131,-0.695 4.411,-0.797 6.596,-0.297c2.182,0.093 4.301,0.768 6.134,1.954c5.057,2.952 8.176,8.385 8.176,14.241c0,2.926 -0.779,5.8 -2.256,8.326c-5.56,8.546 -11.66,16.728 -18.263,24.497c-6.497,6.167 -16.82,6.167 -23.318,0c-3.084,-3.096 -4.822,-7.289 -4.832,-11.659l0.585,-4.378c0.761,-2.754 2.224,-5.263 4.246,-7.281l-0.025,-0Z" style="fill:#211715;fill-rule:nonzero;"/><path d="M89.016,2483.314c-20.877,-18.197 -30.722,-46.635 -34.341,-73.383c-3.769,-29.889 8.82,-59.603 32.915,-77.687c25.523,-19.324 59.233,-24.307 89.255,-13.192c31.297,11.734 54.443,38.791 61.188,71.528c7.173,37.252 -8.682,82.997 -50.205,90.764c-8.705,2.151 -17.687,-2.961 -20.283,-11.543c-2.323,-8.723 2.857,-17.826 11.543,-20.283c22.65,-4.238 30.639,-28.322 27.374,-49.018c-3.383,-22.03 -17.898,-40.826 -38.357,-49.669c-38.291,-15.773 -84.778,11.296 -81.092,53.594c0.305,3.529 -0.256,-1.509 0.107,1.08c0.19,1.286 0.421,2.564 0.66,3.842c0.412,2.276 0.877,4.54 1.393,6.794c1.243,5.446 2.813,10.812 4.7,16.07c3.69,10.689 10.055,20.259 18.486,27.795c3.216,3.106 5.034,7.39 5.034,11.861c0,9.046 -7.444,16.491 -16.491,16.491c-4.471,0 -8.755,-1.818 -11.861,-5.034l-0.025,-0.008Z" style="fill:#211715;fill-rule:nonzero;"/><path d="M65.261,2384.23c5.322,-29.91 29.574,-53.076 59.696,-57.024c23.242,-5.24 47.652,0.021 66.671,14.371c11.445,8.622 19.937,20.586 24.299,34.234c-15.757,2.746 -39.668,24.892 -45.943,37.928c-7.594,15.732 -4.123,34.243 -1.707,51.549c0.92,3.888 0.588,7.97 -0.948,11.659c-1.806,3.298 -5.681,4.601 -9.07,6.299c-13.555,6.794 -26.212,4.007 -64.008,-6.695c-8.917,-3.114 -17.1,-8.026 -24.043,-14.429c-3.737,-5.605 -6.114,-12.006 -6.943,-18.692c-3.597,-19.647 -2.917,-39.841 1.995,-59.201Z" style="fill:#a98a75;fill-rule:nonzero;"/><path d="M49.364,2379.852c7.553,-35.14 35.804,-62.334 71.206,-68.543c24.199,-5.246 49.499,-1.526 71.165,10.463c18.731,11.379 32.917,28.946 40.097,49.653c2.366,8.727 -2.832,17.861 -11.543,20.283c-3.581,0.561 -6.975,1.975 -9.894,4.123c-4.22,2.568 -8.175,5.548 -11.807,8.897c-7.104,5.165 -12.494,12.349 -15.468,20.613c-2.042,12.537 -1.602,25.354 1.295,37.722c3.193,14.662 -4.925,29.604 -18.964,34.902c-17.315,7.94 -34.704,5.195 -52.679,0.709c-21.644,-5.409 -50.354,-12.186 -60.545,-34.713c-11.543,-25.56 -8.888,-57.659 -2.944,-84.102c4.642,-20.704 36.452,-11.939 31.802,8.765c-2.619,11.318 -3.838,22.916 -3.628,34.531c0.074,3.298 0.528,9.688 0.701,10.991c0.264,1.921 1.723,8.715 2.663,12.31c0.418,1.877 1.128,3.677 2.103,5.335c0.291,0.262 0.6,0.505 0.923,0.726c3.962,2.996 8.27,5.507 12.83,7.478c-1.814,-0.825 1.311,0.462 1.888,0.651c3.24,1.014 6.547,1.847 9.82,2.746c5.409,1.492 10.834,2.968 16.301,4.271c6.335,1.831 12.898,2.75 19.492,2.729c3.966,0.124 -1.517,0.767 0.948,0c1.229,-0.396 2.606,-0.717 3.859,-1.022c3.125,-0.759 -0.47,0.305 0.355,-0.091c1.107,-0.775 2.332,-1.366 3.628,-1.748c3.611,-0.206 -2.136,1.797 -0.775,2.721c-1.276,-5.049 -1.932,-10.235 -1.954,-15.443c-0.97,-6.551 -1.444,-13.166 -1.418,-19.789c-0.096,-12.046 3.199,-23.88 9.507,-34.144c11.675,-17.562 31.909,-36.493 53.141,-40.929l-11.543,20.292c-12.162,-30.565 -43.7,-43.601 -75.658,-36.04c-13.008,2.426 -24.696,9.511 -32.866,19.921c1.311,-1.732 -0.363,0.627 -0.775,1.303c-0.701,1.121 -1.435,2.226 -2.103,3.372c-0.825,1.344 -1.492,2.713 -2.201,4.123c-0.181,0.338 -1.872,4.015 -1.047,2.119c0.825,-1.896 -0.66,1.723 -0.825,2.086c-0.47,1.319 -0.932,2.647 -1.352,3.982c-0.825,2.474 -1.459,5.038 -2.07,7.586c-4.807,20.572 -36.617,11.824 -31.662,-8.839Z" style="fill:#211715;fill-rule:nonzero;"/><path d="M191.892,2472.686c12.088,6.055 22.17,15.481 29.023,27.135c4.546,6.959 8.781,14.105 12.706,21.438c1.957,3.666 3.834,7.374 5.632,11.123c0.825,1.649 1.575,3.348 2.358,5.021c0.322,0.701 3.117,5.706 0.074,2.762c3.358,2.182 7.024,3.85 10.875,4.947l15.089,6.514c9.4,4.057 18.807,8.072 28.166,12.211c6.389,3.799 9.497,11.437 7.577,18.618c-7.126,31.723 -29.622,57.888 -59.918,69.689c-16.426,6.926 -35.226,5.509 -50.428,-3.801c-15.475,-10.292 -29.602,-22.48 -42.051,-36.279c-6.192,-6.489 -6.192,-16.836 0,-23.326c6.436,-6.313 16.89,-6.313 23.326,-0c9.929,11.004 21.017,20.904 33.072,29.526c7.912,5.917 18.575,6.738 27.3,2.103c19.036,-8.747 32.767,-26.112 36.889,-46.652l7.586,18.618c-9.07,-3.999 -18.14,-7.891 -27.267,-11.807c-9.226,-3.318 -18.206,-7.285 -26.871,-11.873c-6.608,-4.963 -11.575,-11.798 -14.256,-19.615c-3.606,-7.492 -7.528,-14.819 -11.766,-21.982c-2.122,-3.578 -4.321,-7.11 -6.596,-10.595c-0.825,-1.278 -1.649,-2.556 -2.564,-3.801c-1.352,-1.888 1.583,1.855 -0.305,-0.379c-3.797,-4.82 -8.714,-8.641 -14.322,-11.131c-7.765,-4.602 -10.421,-14.74 -5.912,-22.559c4.708,-7.632 14.713,-10.254 22.559,-5.912l0.025,0.008Z" style="fill:#211715;fill-rule:nonzero;"/><path d="M271.541,2552.227c1.162,0.104 2.33,0.135 3.496,0.091c0.643,0 1.278,-0.082 1.921,-0.157c-2.721,0.396 -3.166,0.421 -1.36,0.082c0.742,-0.231 3.785,-0.552 4.123,-1.253c-2.201,0.956 -2.474,1.039 -0.825,0.239c0.684,-0.371 1.344,-0.767 1.995,-1.196c-1.74,1.435 -1.913,1.558 -0.536,0.379c0.467,-0.427 0.907,-0.881 1.319,-1.36c-1.501,2.045 -1.74,2.325 -0.709,0.825c0.396,-0.627 0.775,-1.262 1.121,-1.913c0.781,-1.611 0.712,-1.352 -0.206,0.775c0.28,-0.75 0.536,-1.501 0.759,-2.267c0.223,-0.767 0.421,-1.55 0.577,-2.342c-0.258,2.402 -0.308,2.677 -0.148,0.825c-0.049,-1.558 0,-3.117 -0.082,-4.675c-0.033,-0.715 -0.082,-1.432 -0.148,-2.152c-0.19,-1.83 -0.115,-1.385 0.223,1.352c-0.382,-1.233 -0.657,-2.496 -0.825,-3.776c-0.181,-0.61 -0.379,-1.212 -0.61,-1.806c1.08,2.474 1.245,2.869 0.486,1.278c-0.717,-1.187 -1.41,-2.375 -2.144,-3.554c-1.022,-1.402 -0.86,-1.201 0.486,0.602c-0.503,-0.61 -1.014,-1.204 -1.542,-1.797c-0.989,-1.121 -2.012,-2.201 -3.092,-3.232c-0.519,-0.495 -1.047,-0.981 -1.583,-1.451c-1.36,-1.121 -1.064,-0.923 0.882,0.61c-0.825,0.478 -5.772,-4.477 -7.289,-4.205c2.243,0.94 2.518,1.083 0.825,0.429c-0.742,-0.256 -1.492,-0.503 -2.251,-0.734c-1.295,-0.388 -2.614,-0.643 -3.925,-0.973c-1.786,-0.302 -1.377,-0.267 1.229,0.107c-0.726,-0.082 -1.451,-0.14 -2.177,-0.181c-1.517,-0.074 -3.01,0 -4.518,0.066c-1.836,0.181 -1.536,0.14 0.899,-0.124c-0.825,0.148 -1.583,0.322 -2.358,0.536c-0.775,0.214 -1.591,0.453 -2.375,0.734c-1.704,0.643 -1.578,0.588 0.379,-0.165c-1.336,0 -3.298,1.962 -4.461,2.638c-1.44,1.039 -1.201,0.838 0.717,-0.602c-0.561,0.462 -1.105,0.932 -1.649,1.426c-1.055,0.981 -1.995,2.045 -2.977,3.1c-1.099,1.363 -0.896,1.088 0.61,-0.825c-0.412,0.585 -0.825,1.171 -1.179,1.781c-0.747,1.211 -1.424,2.463 -2.028,3.752c0.932,-2.3 1.088,-2.614 0.445,-0.948c-0.239,0.684 -0.453,1.377 -0.651,2.07c-0.498,1.391 -0.814,2.84 -0.94,4.312c0.319,-2.529 0.396,-2.867 0.231,-1.014c-0.049,0.767 -0.074,1.534 -0.074,2.309c0,9.046 -7.444,16.491 -16.491,16.491c-9.046,0 -16.491,-7.444 -16.491,-16.491c-0,-0.058 -0,-0.116 -0,-0.174c0,-28.406 23.374,-51.78 51.78,-51.78c4.33,0 8.643,0.543 12.838,1.617c14.458,3.889 26.995,12.957 35.215,25.47c8.104,12.647 10.044,28.312 5.269,42.554c-3.079,9.162 -9.338,16.927 -17.637,21.883c-7.422,4.291 -15.948,6.299 -24.505,5.772c-9.046,-0 -16.491,-7.444 -16.491,-16.491c0,-9.046 7.444,-16.491 16.491,-16.491l-0.041,0.025Z" style="fill:#211715;fill-rule:nonzero;"/></svg>